<?xml version="1.0" standalone="no"?>
<!DOCTYPE svg PUBLIC "-//W3C//DTD SVG 1.1//EN" "http://www.w3.org/Graphics/SVG/1.1/DTD/svg11.dtd" >
<svg>
<metadata>
Created by FontForge 20090914 at Wed Dec  1 18:15:38 2021
 By www-data
Typeface &#194;&#169; (your company). 2009. All Rights Reserved
</metadata>
<defs>
<font id="VoronovFont" horiz-adv-x="682" >
  <font-face 
    font-family="VoronovFont"
    font-weight="400"
    font-stretch="normal"
    units-per-em="2048"
    panose-1="2 0 0 0 0 0 0 0 0 0"
    ascent="1638"
    descent="-410"
    x-height="981.001"
    cap-height="1457"
    bbox="-149 -449.996 1990 1768"
    underline-thickness="150"
    underline-position="-142"
    unicode-range="U+000D-U+E000"
  />
<missing-glyph horiz-adv-x="748" 
d="M68 0v1365h544v-1365h-544zM136 68h408v1229h-408v-1229z" />
    <glyph glyph-name=".notdef" horiz-adv-x="748" 
d="M68 0v1365h544v-1365h-544zM136 68h408v1229h-408v-1229z" />
    <glyph glyph-name="glyph1" horiz-adv-x="2048" 
 />
    <glyph glyph-name="glyph1" horiz-adv-x="2048" 
 />
    <glyph glyph-name="uni000D" unicode="&#xd;" horiz-adv-x="569" 
 />
    <glyph glyph-name="space" unicode=" " horiz-adv-x="569" 
 />
    <glyph glyph-name="exclam" unicode="!" horiz-adv-x="569" 
d="M135 48v35.001c0 39.333 16.667 69.333 50 90h41c44 -16.667 66 -46.667 66 -90v-21c0 -42.667 -35.667 -65.667 -107 -69c-33.333 9.33301 -50 27.666 -50 54.999zM185 374.001l33.001 298v76c0 330.667 16.667 594 50 790c20 14 39.333 21 58 21
c27.333 -28.667 41 -51.667 41 -69c-27.333 -254 -41 -462 -41 -624v-229c-16.667 -198.667 -47.334 -298 -92.001 -298h-16c-22 10 -33 21.667 -33 35z" />
    <glyph glyph-name="quotedbl" unicode="&#x22;" horiz-adv-x="554" 
d="M75 1475c24 50.667 49.333 75.999 76 75.999c38 -4 57 -18.333 57 -43v-28l-23 -66l-5 -33v-128c0 -16.667 -6.33301 -27.667 -19 -33h-24c-16 0 -30.333 72.333 -43 217c-12.667 10.667 -19 23.334 -19 38.001zM285 1494c0 33.333 25.333 56.999 76 70.999h5
c22.667 0 48 -23.667 76 -71v-9c-44.667 -25.333 -67 -124.666 -67 -297.999l-24 -19h-14c-16 8 -24 20.667 -24 38v75l-4 62l4 52v9z" />
    <glyph glyph-name="numbersign" unicode="#" horiz-adv-x="1139" 
d="M90 496l-0.00195312 30.001c0 27.333 81.667 53.333 245 78c14.667 13.333 22 85 22 215h-6c-166.667 25.333 -250 45.333 -250 60l-6 6v6c7.33301 24.667 16.333 38.667 27 42h16l219 -24l10 18c0 171.333 14.333 257 43 257h16c21.333 -14.667 32 -34.667 32 -60
c-10.667 -28.667 -16 -68.334 -16 -119.001v-54l-5 -24l5 -18c142 2.66699 213 12.667 213 30v131c0 56 7 84 21 84h27c14 -5.33301 21 -23.333 21 -54v-149l11 -18l283 12c35.333 -11.333 53 -23.333 53 -36v-6c0 -24 -19.667 -52 -59 -84h-26c-10.667 0 -16 14 -16 42h-11
v6c-156.667 -4.66699 -235 -16.667 -235 -36l6 -233c50.667 -11.333 134 -21.333 250 -30l16 -54c-6 -27.333 -18.333 -45.333 -37 -54h-16c-16 24 -28.333 36 -37 36l-150 12c-21.333 0 -32 -20 -32 -60l-10 -167l16 -24l16 18h10c10.667 0 16 -22 16 -66
c-17.333 -44 -38.666 -66 -63.999 -66c-17.333 0 -40.333 20 -69 60v54l16 251c0 6.66699 -76.333 12.667 -229 18l-5 -6v-6c0 -38 7 -86 21 -144l-5 -6l21 -209l-16 -12h-5c-29.333 0 -49 36 -59 108c-12.667 179.333 -27 269 -43 269c-41.333 0 -108.666 -16 -201.999 -48
h-22zM420.998 610.001h5c53.333 -8 129.666 -12 228.999 -12v6l5 24v6l-5 131h5c-3.33301 48 -8.66602 72 -15.999 72l-5 6c-142 -10.667 -213 -22.667 -213 -36z" />
    <glyph glyph-name="dollar" unicode="$" horiz-adv-x="1139" 
d="M172 271l0.000976562 7.00293c28.667 30 56 45 82 45h41c22.667 0 45.334 -15 68.001 -45l69 -20h20c18 111.333 27 214.666 27 309.999v26c-136.667 100.667 -205 184.667 -205 252v26c0 61.333 93.667 119.333 281 174c18 0 36 69 54 207c0 66 27.333 117.667 82 155
c46 -8.66699 69 -30.334 69 -65.001c0 -56 -4.66699 -84 -14 -84c9.33301 -16.667 14 -40.334 14 -71.001v-6l-35 -32h-41l-27 -104c78.667 -33.333 131 -78.333 157 -135c18.667 -31.333 28 -63.666 28 -96.999v-13c0 -30 -11.667 -45 -35 -45
c-18.667 1.33301 -50.334 53 -95.001 155c-14.667 21.333 -33 32 -55 32h-27c-14 -42.667 -27.667 -139.667 -41 -291v-26c190.667 -156.667 300 -266.334 328 -329.001c12 0 21 -30 27 -90c0 -86 -43.333 -129 -130 -129c-50 0 -127.333 17 -232 51h-34v-13h-7l14 -38v-26
c0 -23.333 -11.667 -40.666 -35 -51.999c-31.333 0 -56.333 53.667 -75 161c-28.667 13.333 -99.334 30.666 -212.001 51.999c0 6 -18 14.667 -54 26zM370.001 853.003c0 -44.667 34.333 -90 103 -136c0 -12.667 9 -19 27 -19v6l34 226l-7 7h-13
c-96 -19.333 -144 -47.333 -144 -84zM541.001 239.003c0 -17.333 93.333 -41 280 -71h7l27 26v6c0 69.333 -86.333 168.333 -259 297h-21z" />
    <glyph glyph-name="percent" unicode="%" horiz-adv-x="1821" 
d="M179 224c0 38 57 92.667 171 164c15.333 24.667 55.333 50.667 120 78l582 444c56 51.333 136 108.666 240 171.999c146 120 231.667 180 257 180h25l43 -39c0 -34.667 -82.667 -105 -248 -211c-464 -344.667 -738 -558 -822 -640
c-22.667 -29.333 -96.667 -78.666 -222 -147.999c-32 -31.333 -60.667 -47 -86 -47h-17c-20.667 10 -35 25.667 -43 47zM333 1176c24 104 55.333 155.999 94 155.999c50.667 150.667 110.667 226 180 226h34c160 -136.667 240 -233 240 -289c11.333 0 17 -13 17 -39v-31
c-38 -130 -83.667 -195 -137 -195c0 -19.333 -42.667 -32.333 -128 -39h-77l-197 62c-17.333 52.667 -26 102.334 -26 149.001zM470 1113c46 -26 77.334 -38.999 94.001 -38.999h60c69.333 0 120.666 44.333 153.999 133c0 65.333 -54 138 -162 218h-9
c-34 -27.333 -51 -53.333 -51 -78c0 -34 20 -70.333 60 -109v-15l-18 -16h-8l-34 23h-35c-34 -12.667 -51 -33.334 -51 -62.001v-55zM932.001 395l68.999 203.001l-9 32v15c60.667 114.667 140.667 172 240 172c90 -34.667 169.667 -89.334 239 -164.001
c48.667 -68.667 77.334 -133.667 86.001 -195v-16c0 -186.667 -60 -314 -180 -382h-17c-176 24 -284.333 57.667 -325 101c-68.667 60.667 -103 138.667 -103 234zM1061 325.001c45.333 -88 111.001 -132 197.001 -132c0 -10.667 19.667 -16 59 -16h26
c68.667 69.333 103 150 103 242c0 114 -68.667 205 -206 273l-34 8c-45.333 -20 -68 -46 -68 -78v-8l34 -47v-39h-26l-8 8c-32.667 0 -58.334 -70.333 -77.001 -211z" />
    <glyph glyph-name="ampersand" unicode="&#x26;" horiz-adv-x="1296" 
d="M218 334l0.00195312 23c11.333 76 72.333 208.667 183 398c61.333 51.333 92 82.333 92 93c-28.667 79.333 -43 167.666 -43 264.999c0 56.667 38.667 110.334 116 161.001c22 13.333 60.667 23 116 29c114 -4 171 -31 171 -81c14 0 26 -34.333 36 -103l-6 -122
c-30 -28 -121.333 -95 -274 -201c0 -19.333 44.667 -96.333 134 -231c15.333 -42.667 39.666 -90.667 72.999 -144l55 -138h6c10 0 61 51.667 153 155l43 12h6l18 -18v-23c0 -20 -55 -81.333 -165 -184l-12 -23c2 -17.333 38.667 -56 110 -116l6 -5v-23l-31 -29h-6
c-12.667 0 -47 21 -103 63c-8.66699 0 -13 6 -13 18h-12c-44 -73.333 -101 -110 -171 -110h-6c-84.667 0 -192.334 28.667 -323.001 86c-94 72 -141 135.667 -141 191c-7.33301 0 -11.333 19 -12 57zM303.002 323c31.333 -104 64 -155.999 98 -155.999l18 6
c26.667 -34.667 92 -61.667 196 -81l104 -6c56.667 45.333 85 80 85 104v12c0 23.333 -83.333 200 -250 530l-19 23h-6c-42 -16.667 -86.667 -72.334 -134 -167.001l-73 -173l-19 -34l7 -24zM529.002 1095c0 -93.333 14.333 -160.333 43 -201
c162.667 62.667 244 129.667 244 201c0 40 -20.333 80.667 -61 122h-49c-92.667 0 -151.667 -36.667 -177 -110v-12z" />
    <glyph glyph-name="quotesingle" unicode="'" horiz-adv-x="391" 
d="M120 1479c0 33.333 25.334 56.999 76.001 70.999h5c23.333 0 48.666 -23.667 75.999 -71v-9c-44 -25.333 -66 -124.666 -66 -297.999l-24 -19h-15c-15.333 8 -23 20.667 -23 38v75l-5 62l5 52v9z" />
    <glyph glyph-name="parenleft" unicode="(" 
d="M121 469l0.000976562 160c2 124 53.667 276 155 456c9.33301 0 32 18 68 54h19c24.667 -2.66699 37 -9.33398 37 -20.001v-14c0 -40 -18.667 -71 -56 -93c0 -30 -16.333 -54.667 -49 -74c-22.667 -26 -53.667 -126.667 -93 -302v-141
c0 -165.333 89 -370.666 267 -615.999l12 -27v-13c-14.667 -27.333 -33.334 -41 -56.001 -41c-63.333 59.333 -117 142 -161 248c-95.333 145.333 -143 286.333 -143 423z" />
    <glyph glyph-name="parenright" unicode=")" 
d="M129 -118l15 27c210.667 245.333 316 450.666 316 615.999v141c-46.667 175.333 -83.667 276 -111 302c-38.667 19.333 -58 44 -58 74c-44.667 22 -67 53 -67 93v14c0 10.667 15 17.334 45 20.001h22c42.667 -36 69.334 -54 80.001 -54c120 -180 181.333 -332 184 -456
v-160c0 -136.667 -56.333 -277.667 -169 -423c-52.667 -106 -116.334 -188.667 -191.001 -248c-26.667 0 -48.667 13.667 -66 41v13z" />
    <glyph glyph-name="asterisk" unicode="*" horiz-adv-x="797" 
 />
    <glyph glyph-name="plus" unicode="+" horiz-adv-x="1196" 
 />
    <glyph glyph-name="comma" unicode="," horiz-adv-x="569" 
d="M82 148v36.998c30 50.667 68.333 81.334 115 92.001h9c100 0 158.667 -70.333 176 -211c-26.667 -184 -70.667 -276 -132 -276h-18c-52.667 14 -79 29.333 -79 46c0 42 26.333 66.667 79 74c17.333 42.667 26 82.334 26 119.001c-117.333 18 -176 57.667 -176 119z" />
    <glyph glyph-name="hyphen" unicode="-" 
d="M60 489v36c0 28.667 28 48 84 58l443 24c28 -16 42 -31.667 42 -47c0 -62.667 -35 -94 -105 -94l-429 -24c-21.333 15.333 -33 31 -35 47z" />
    <glyph glyph-name="period" unicode="." horiz-adv-x="569" 
d="M90 115l0.000976562 34.999c27.333 48.667 61.666 78.334 102.999 89.001h8c95.333 -24 143 -68.333 143 -133v-18c0 -53.333 -37 -80 -111 -80l-8 9h-8l-8 -9h-8c-74 21.333 -111 57 -111 107z" />
    <glyph glyph-name="slash" unicode="/" horiz-adv-x="989" 
d="M98 -128c0 38 31.002 130.001 93.002 276.001c122 220 260.333 446 415 678c104 146 178 276.333 222 391l35 19h6c15.333 -6.66699 23 -38.334 23 -95.001c-18.667 -77.333 -176.334 -338.333 -473.001 -783c-94 -160 -146.667 -264.667 -158 -314
c-22.667 -4 -53.667 -77 -93 -219l-17 -20h-30c-8.66699 0 -16.334 22.333 -23.001 67z" />
    <glyph glyph-name="zero" unicode="0" horiz-adv-x="1139" 
d="M172 388l43.001 433.002c10.667 0 19 26 25 78c12.667 2.66699 43.667 60.667 93 174c10 15.333 51.333 32.666 124 51.999c78 99.333 131.667 149 161 149h6c77.333 0 145.333 -64.667 204 -194c156.667 -220.667 235 -395.334 235 -524.001
c-16.667 -103.333 -37.334 -155 -62.001 -155c-19.333 -36 -112 -148.333 -278 -337c-34 -47.333 -114.667 -71 -242 -71c-206 90 -309 221.667 -309 395zM265.001 355.002c0 -108 76.333 -196.334 229 -265.001l25 -6c101.333 8.66699 159 34.334 173 77.001
c177.333 186.667 266 307.667 266 363l6 77c0 44 -43.333 143.333 -130 298c-97.333 163.333 -157 253.666 -179 270.999h-7c-8 0 -51 -45 -129 -135c-12.667 0 -26.167 -13.667 -40.5 -41s-21.5 -37.666 -21.5 -30.999c-64.667 -30 -102 -68.667 -112 -116
c-53.333 -98 -80 -262 -80 -492z" />
    <glyph glyph-name="one" unicode="1" horiz-adv-x="1019" 
d="M134 711c0 28 77.668 206.333 233.001 535l34 20h43c34.667 0 52 -135 52 -405v-267l-8 -7l8 -6v-52c0 -102.667 11.667 -205 35 -307l-9 -7l9 -32v-33c35.333 -12.667 161.666 -23.667 378.999 -33c17.333 -15.333 26 -30.333 26 -45l-60 -33l-319 13
c-22 -12.667 -111.333 -30 -268 -52l-34 39c0 26 57.333 50 172 72l-52 313l9 202v359h-17c-82 -188 -131 -288 -147 -300l-34 -13c-34.667 6 -52 19 -52 39z" />
    <glyph glyph-name="two" unicode="2" horiz-adv-x="989" 
d="M112 1065l0.000976562 67c0 57.333 34.333 99.333 103 126l32 7h7c132.667 0 199 -37.667 199 -113c14.667 -8.66699 29.667 -68.667 45 -180v-153c0 -55.333 -30 -148.666 -90 -279.999c0 -28 -32.333 -110 -97 -246l-32 -126v-54l7 -6v-7l476 27l122 26h26
c12.667 -4 19 -17.333 19 -40c-40 -44 -74.333 -70.333 -103 -79l-26 13c0 -10.667 -135 -24 -405 -40l-90 7h-6l-7 6l-6 -6c-68.667 0 -103 20 -103 60v6c20.667 168.667 57 293 109 373l58 186c17.333 0 38.666 64.333 63.999 193l-6 60v73
c-20 129.333 -43.667 194 -71 194c0 9.33301 -23.667 15.666 -71 18.999c-42.667 -12 -64 -25 -64 -39v-67l13 -47l-39 -13h-32c-21.333 11.333 -32 29 -32 53z" />
    <glyph glyph-name="three" unicode="3" horiz-adv-x="996" 
d="M105 1046c19.333 90.667 62.6689 166.666 130.002 227.999h46c159.333 0 263.666 -73.667 312.999 -221c15.333 -34 25.333 -76.333 30 -127l-38 -161c0 -14.667 33 -30.334 99 -47.001c92 -90 148 -170.333 168 -241c13.333 0 28.666 -40.333 45.999 -121v-134
c-8.66699 -50.667 -52 -104 -130 -160l-175 -54c-249.333 0 -374 29 -374 87v27c29.333 44.667 87.666 67 174.999 67h15c30.667 -18 46 -36 46 -54c-23.333 -8.66699 -36 -17.667 -38 -27v-6h76c173.333 18.667 260 45.334 260 80.001c11.333 0 26.666 22.333 45.999 67
l-8 34v73c-33.333 130.667 -86.666 222.334 -159.999 275.001c0 11.333 -23 20.333 -69 27c-11.333 0 -36.666 -27 -75.999 -81l-69 -13h-38c-60 0 -103.333 31.333 -130 94c15.333 80 48.333 120 99 120h38l84 -13c18 0 36 55.667 54 167
c0 55.333 -38.333 131.333 -115 228l-91 20h-15c-43.333 0 -79 -55.667 -107 -167l-39 -20c-30 0 -47.667 17.667 -53 53zM410.003 657.999h16v20h-16v-20z" />
    <glyph glyph-name="four" unicode="4" horiz-adv-x="801" 
d="M97 617l32.999 380.001l-7 51c0 121.333 15.333 182 46 182h13c22 -8.66699 33 -27.667 33 -57v-17l-7 -136l7 -6l-7 -40v-17l-13 -266l7 -23h13c29.333 0 136 -19 320 -57c17.333 4 26 15.333 26 34v97l-7 85l33 300l-7 86c16.667 28 30 43 40 45h19
c22 -10 33 -25 33 -45v-137l-26 -227l6 -624v-102h13c0 11.333 4.33301 17 13 17c15.333 0 26.333 -20.667 33 -62v-34c0 -32.667 -15.333 -57.334 -46 -74.001h-6c-61.333 0 -92 55 -92 165v351c0 38 -28.333 57 -85 57c-134 30 -225.333 45 -274 45v-56
c0 -53.333 -8.66699 -80 -26 -80h-13c-29.333 0 -46.666 39.667 -51.999 119c-7.33301 0 -14 15.333 -20 46z" />
    <glyph glyph-name="five" unicode="5" horiz-adv-x="936" 
d="M105 139c12 66.667 41.001 99.998 87.001 99.998c23.333 0 38 -24.333 44 -73c72 -27.333 181 -49.666 327 -66.999c0 -9.33301 12 -14 36 -14h15c38.667 0 58 38 58 114c0 122 -51 235.333 -153 340l-131 80h-7l-152 -60l-15 27l22 200l-15 421c0 36 39 58 117 66
l167 -6l36 6l95 -6h58l116 13l29 -27v-33c-35.333 -31.333 -74 -47 -116 -47l-211 7h-182l-14 -13l7 -354l7 -54l-7 -20c0 -17.333 48.333 -35 145 -53c95.333 -68 153.666 -114.667 174.999 -140c71.333 -95.333 112.333 -206.666 123 -333.999l8 -67
c-18 -84 -42.333 -126 -73 -126c0 -8 -36.333 -17 -109 -27c-113.333 0 -232 24.333 -356 73c-75.333 23.333 -119 48 -131 74z" />
    <glyph glyph-name="six" unicode="6" horiz-adv-x="846" 
d="M98 580l-0.000976562 45.998c15.333 130 38 221.333 68 274c65.333 176.667 166 309 302 397l41 13h48c52.667 0 89.334 -39 110.001 -117c8.66699 0 13 -21.667 13 -65c0 -52.667 -22.667 -79 -68 -79c-18.667 18.667 -28 36.334 -28 53.001l7 39
c0 28.667 -20.333 54.667 -61 78h-14c-108.667 -69.333 -179.667 -152 -213 -248c-63.333 -109.333 -95 -191.666 -95 -246.999l-14 -241c76.667 30 131.334 45 164.001 45c102 0 184.333 -34.667 247 -104c73.333 -68.667 116.666 -149 129.999 -241v-13
c0 -74 -77.667 -128.333 -233 -163h-14c-212.667 0 -338 134.667 -376 404c-9.33301 26 -14 82.333 -14 169zM227.999 312.998c57.333 -138.667 126 -208 206 -208c0 -8.66699 16 -13 48 -13c104.667 20.667 157 51 157 91c0 80 -61.667 160.333 -185 241l-61 13h-21
c-45.333 0 -77.333 -30.333 -96 -91c-20.667 -17.333 -36.667 -26 -48 -26v-7z" />
    <glyph glyph-name="seven" unicode="7" horiz-adv-x="967" 
d="M121 1173c0 57.333 129.331 93.332 387.998 107.999c230.667 0 346 -34 346 -102v-6c0 -17.333 -44 -40 -132 -68c-119.333 -174.667 -186 -312.667 -200 -414l7 -7h6l201 21c46.667 -10.667 70 -24.334 70 -41.001c-9.33301 -40.667 -32.666 -61 -69.999 -61h-41
c-143.333 0 -215 -20.333 -215 -61l-55 -373c36.667 -6 55 -26.333 55 -61c-12 -44 -39.667 -82.333 -83 -115c-46 0 -69 38.333 -69 115c0 70.667 23 224.334 69 461.001l-7 7h-35l-55 -14l-28 34v34c0 16 51 32 153 48c20.667 115.333 85.334 260 194.001 434l27 67
l-180 14c-180 -20.667 -270 -41 -270 -61c0 -18 -9.33301 -27 -28 -27c-32 14.667 -48 37.334 -48 68.001z" />
    <glyph glyph-name="eight" unicode="8" horiz-adv-x="982" 
d="M105 252v40.001c0 18.667 26.667 65.334 80 140.001c30 62 109.667 132.667 239 212l66 66c-66 139.333 -99 245.666 -99 318.999c0 94 39.667 184.667 119 272c41.333 26.667 72.333 40 93 40c137.333 -28.667 206 -68.334 206 -119.001
c30.667 -50.667 46 -101.667 46 -153v-60c0 -49.333 -35.333 -120 -106 -212c0 -22.667 -42 -67 -126 -133v-20c0 -30.667 51 -112.667 153 -246c57.333 -94 86 -191.333 86 -292c-6.66699 -70.667 -37.667 -106 -93 -106l-378 133c-190.667 45.333 -286 85 -286 119z
M211 292.001c0 -19.333 71 -43.667 213 -73l252 -86c18 -22 46.667 -33 86 -33l7 6v33c0 96 -70.667 231 -212 405c-8 40 -17 60 -27 60h-20l-219 -179zM477 1036c8 -89.333 41 -180.331 99 -272.998h7c43.333 0 101 68.667 173 206c8.66699 17.333 13 41.666 13 72.999v20
c-19.333 124 -72.333 186 -159 186h-14c0 -12.667 -13 -30.334 -39 -53.001c-53.333 -92 -80 -145 -80 -159z" />
    <glyph glyph-name="nine" unicode="9" horiz-adv-x="899" 
d="M83 926l-0.00292969 5.99805c0 128.667 55 225.667 165 291l65 60h11l36 -7c20 13.333 39.667 20 59 20h6c54.667 -7.33301 82 -31.666 82 -72.999v-6c0 -14.667 -6 -30.334 -18 -47.001v-13c66.667 -54 104 -113.333 112 -178v-40l-12 -53v-13
c134.667 -175.333 213.334 -329.666 236.001 -462.999h-6l6 -7v-79c0 -146 -11.667 -219 -35 -219c0 -34 -43.333 -67 -130 -99l-71 -13c-82 8.66699 -193.667 37.334 -335 86.001c-36.667 28.667 -78 53 -124 73c-27.333 26 -41 50 -41 72v14
c16.667 39.333 38.334 59 65.001 59c90 -20 135 -39.667 135 -59v-20l-23 -33c0 -18.667 49 -40.667 147 -66c76.667 -22 141.334 -33 194.001 -33c94 0 141 52.667 141 158c0 152.667 -13.667 247.667 -41 285c-28 70.667 -65.333 134.667 -112 192l-64 86l-89 -60
c-34.667 -17.333 -62 -26 -82 -26h-6c-87.333 14 -162 42.667 -224 86c-31.333 49.333 -47 89 -47 119zM159.997 925.998c0 -47.333 66.668 -87 200.001 -119c35.333 10.667 68.666 32.667 99.999 66v20c-99.333 122 -156.333 196.667 -171 224c0 13.333 -4 20 -12 20h-11
c-70.667 -44.667 -106 -115 -106 -211zM365.998 1150c18 -40.667 69 -104.333 153 -191h6c0 24 -47.333 90 -142 198v7h-17v-14z" />
    <glyph glyph-name="colon" unicode=":" horiz-adv-x="434" 
d="M82 834l0.000976562 34.999c27.333 48.667 61.666 78.334 102.999 89.001h8c95.333 -24 143 -68.333 143 -133v-18c0 -53.333 -37 -80 -111 -80l-8 9h-8l-8 -9h-8c-74 21.333 -111 57 -111 107zM90.001 114.999l0.000976562 34.999
c27.333 48.667 61.666 78.334 102.999 89.001h8c95.333 -24 143 -68.333 143 -133v-18c0 -53.333 -37 -80 -111 -80l-8 9h-8l-8 -9h-8c-74 21.333 -111 57 -111 107z" />
    <glyph glyph-name="semicolon" unicode=";" horiz-adv-x="569" 
d="M165 -141c54 37.333 80.999 68.666 80.999 93.999c53.333 144 80 271.667 80 383v41c0 21.333 9 35.333 27 42h14c24.667 0 40.334 -33.667 47.001 -101c0 -99.333 -31.333 -236.666 -94 -411.999c-20.667 -53.333 -47.667 -87 -81 -101c-49.333 0 -74 18 -74 54z
M224.999 844c15.333 66.667 33.333 100 54 100h54c12 0 23.333 -27.667 34 -83l60 -76v-65c-11.333 -20 -29.333 -30 -54 -30h-6c-46.667 0 -91.667 37.333 -135 112z" />
    <glyph glyph-name="less" unicode="&#x3c;" horiz-adv-x="1196" 
d="M142 678c4 20.667 17 38.999 39 54.999c51.333 7.33301 176.333 89.333 375 246c268 86.667 421.333 132.334 460 137.001h13l19 -21v-20l-45 -41l-414 -130l-324 -233v-6c61.333 -54 126 -97.333 194 -130c118.667 -46 185.667 -85 201 -117
c210 -99.333 322 -165.333 336 -198v-27c0 -10.667 -10.667 -17.667 -32 -21h-7c-146 83.333 -247.333 135.666 -304 156.999c-52.667 48.667 -128 94.334 -226 137.001c-190 103.333 -285 174 -285 212z" />
    <glyph glyph-name="equal" unicode="=" horiz-adv-x="1196" 
d="M158 775l-0.00292969 34c8.66699 16.667 22 28 40 34l229 7l417 -27l195 13c18 -6 31.333 -17.333 40 -34v-34c-51.333 -59.333 -91.666 -89 -120.999 -89h-13c-7.33301 0 -18.666 18.333 -33.999 55h-148l-27 -7c-117.333 18 -218 27 -302 27h-236
c-23.333 0 -36.666 7 -39.999 21zM191.997 426v14c12 22.667 32 34 60 34l114 -20l202 20h67l101 -7l40 7c157.333 -12 236 -30.333 236 -55v-41c-2.66699 -13.333 -20.667 -20 -54 -20h-34c-52 0 -96.667 9 -134 27l-27 -7l-161 7c-62.667 0 -139 -11.333 -229 -34
c-120.667 8 -181 33 -181 75z" />
    <glyph glyph-name="greater" unicode="&#x3e;" horiz-adv-x="1196" 
d="M142 1075v20.001l19 21h13c38.667 -4.66699 192 -50.334 460 -137.001c198.667 -156.667 323.667 -238.667 375 -246c22 -16 35 -34.333 39 -55c0 -38 -95 -108.667 -285 -212c-98 -42.667 -173.333 -88.334 -226 -137.001c-56.667 -21.333 -158 -73.666 -304 -156.999
h-7c-21.333 3.33301 -32 10.333 -32 21v27c14 32.667 126 98.667 336 198c15.333 32 82.333 71 201 117c68 32.667 132.667 76 194 130v6l-324 233l-414 130z" />
    <glyph glyph-name="question" unicode="?" horiz-adv-x="854" 
d="M113 1216l6.99902 26.001l-7 6c0 59.333 34.667 135.333 104 228c57.333 64.667 106.666 97 147.999 97c100 0 191 -58.333 273 -175l67 -195c-29.333 -164 -68.666 -298.333 -117.999 -403c-109.333 -110.667 -181 -223.334 -215 -338.001l22 -59
c-3.33301 -21.333 -10.666 -32 -21.999 -32h-7c-59.333 4 -89 30 -89 78v13c23.333 124 104.666 262.667 243.999 416c54 149.333 81 253.333 81 312v6c-49.333 186.667 -123.333 280 -222 280c-48 -10 -94.667 -55.667 -140 -137l-30 -84l15 -208
c-19.333 -52 -36.666 -78 -51.999 -78h-7l-45 32v156zM245.999 78.001v7c10 60.667 37.333 91 82 91h7c59.333 -6 89 -25.667 89 -59c-16 -78 -50.667 -117 -104 -117c-38 0 -62.667 26 -74 78z" />
    <glyph glyph-name="at" unicode="@" horiz-adv-x="2079" 
d="M129 544c0 198 74.667 383.669 224 557.002l225 133l422 67h62c156 -36 275.667 -86 359 -150c195.333 -76.667 321 -162.667 377 -258c24 -32.667 57 -126.667 99 -282v-34c0 -111.333 -39 -219.333 -117 -324c-88.667 -114.667 -172.334 -178.334 -251.001 -191.001
l-126 -34c-95.333 0 -170 52.667 -224 158h-9c-39.333 -27.333 -81.333 -41 -126 -41c-126 0 -224.667 63.667 -296 191c-49.333 46 -76.333 85 -81 117h9l-9 8v100c0 174 87 284.667 261 332l143 9l72 -25v8l18 50l-9 33c8 28 17 42 27 42h36
c13.333 -1.33301 40.333 -26.333 81 -75l-9 -83c0 -95.333 26.667 -162 80 -200c10.667 -11.333 19.667 -53 27 -125l-9 -8v-8l9 -9v-8c0 -107.333 -32.667 -185 -98 -233c0 -66.667 41.667 -100 125 -100l36 17l9 -8c88.667 0 169.667 63.667 243 191
c23.333 0 47 72 71 216v17c-40 176 -93.667 287 -161 333c-72 53.333 -158.667 89.333 -260 108c-82 94 -190 141 -324 141h-44c-250.667 0 -421.334 -47 -512.001 -141c-131.333 -96 -197 -218 -197 -366l-27 -142c19.333 -66 61 -149 125 -249
c72 -97.333 138 -150 198 -158l152 -141c86.667 -69.333 215.334 -127.666 386.001 -174.999l36 -8l153 91h36l26 -25v-16c-5.33301 -50.667 -65 -106.334 -179 -167.001h-18c-297.333 65.333 -521.666 179 -672.999 341c-114 68 -221.667 184.333 -323 349
c-30 75.333 -45 133.666 -45 174.999zM830 470.002l108 -150c32 -44.667 70.667 -67 116 -67h18c69.333 0 108.333 27.667 117 83v250c-18 11.333 -30 53 -36 125c-14.667 44 -38.667 66 -72 66h-71c-120 0 -180 -102.333 -180 -307z" />
    <glyph glyph-name="A" unicode="A" horiz-adv-x="1366" 
d="M164 670c11.333 10.667 33.999 158.667 67.999 444c28.667 14.667 51.334 99 68.001 253l9 9l-9 35c0 92.667 45 139 135 139l39 -17c60 34.667 121.333 55 184 61l29 17c122.667 -62.667 184 -120.667 184 -174c21.333 0 92.333 -171.333 213 -514
c0 -93.333 16 -140 48 -140c41.333 -15.333 64 -29.666 68 -42.999v-18c0 -13.333 -26 -27.666 -78 -42.999v-9l49 -227l-10 -61c0 -60.667 32.333 -156.334 97 -287.001l-39 -35c-96.667 11.333 -154.667 145 -174 401l-39 253v8l-29 9
c-471.333 -46.667 -707 -90.334 -707 -131.001v-113l-9 -9c23.333 -121.333 62 -205.333 116 -252l68 -44c105.333 -4 176.333 -21.333 213 -52v-9c0 -15.333 -26 -27 -78 -35h-38c-160 0 -270 61 -330 183c-24 29.333 -40 163 -48 401zM289.999 722
c69.333 24.667 243.666 51.001 522.999 79.001c64.667 0 119.334 11.667 164.001 35c0 100.667 -48.333 251.667 -145 453c0 34.667 -16 63.667 -48 87c-26 0 -55.333 -23.333 -88 -70h-19c-9.33301 0 -25.333 35 -48 105c-17.333 0 -43.333 14.333 -78 43h-19v-26
c0 -40.667 -6.33301 -61 -19 -61l9 -9v-43l-29 -26l-19 17v44h-29c-38.667 -46.667 -58 -119.334 -58 -218.001c-45.333 -46.667 -68 -84.667 -68 -114zM676.999 1428c6.66699 -17.333 26 -26 58 -26h10v61l-39 17h-10l-19 -17v-35z" />
    <glyph glyph-name="B" unicode="B" horiz-adv-x="1366" 
d="M30 1323c0 46.667 90.333 91.334 271 134.001h289c84.667 0 178 -39.333 280 -118c60 -76.667 90 -155.334 90 -236.001c-24 -129.333 -45 -200.333 -63 -213c90.667 0 184 -47.333 280 -142c0 -12.667 18 -39 54 -79c48 -98 72 -205.667 72 -323v-8
c0 -76.667 -42 -160.667 -126 -252c-64.667 -15.333 -149 -25.666 -253 -30.999c-99.333 0 -268 47.333 -506 142l-54 7l-9 -23c26 -138 53 -214 81 -228c8 0 14 -15.667 18 -47c-12.667 -37.333 -30.667 -56 -54 -56c-79.333 17.333 -127.333 140.666 -144 369.999
c-48.667 180 -73 324.667 -73 434v23l-9 40l9 47v86c-24 130 -66 258.667 -126 386zM156 1299l27.001 -23.0039l37 16l9 -56l-55 8v-8l46 -94l-9 -8v-8c21.333 -29.333 39.333 -76.666 54 -141.999c18 -20 27 -41 27 -63l-9 -39c19.333 -82 37.333 -134.667 54 -158l-27 -47
l-9 8h-18v-118l54 -236l199 -32l63 8c73.333 -9.33301 178.666 -64.666 315.999 -165.999c162.667 0 244 18.667 244 56c30 60.667 45 107.667 45 141c0 204.667 -57.333 341.334 -172 410.001c-72 42 -144.333 63 -217 63c0 -10.667 -9 -16 -27 -16l-9 -8v-7l9 -71l-45 -16
l-45 16l-144 -48h-109c-30 14 -45 35 -45 63v16c38 94.667 110.333 142 217 142h54l45 -8c60 0 90 21 90 63c0 16.667 15.333 48.334 46 95.001v23c0 142 -21.333 213 -64 213c-80 58 -134 87 -162 87l-136 31c-160 0 -271.333 -23.667 -334 -71v-16z" />
    <glyph glyph-name="C" unicode="C" horiz-adv-x="1479" 
d="M225 417l-0.00195312 139l66 156c0 41.333 83.667 154.333 251 339c182.667 232 327.334 348 434.001 348h44l81 -9l45 26h29c12 0 24.333 -37.667 37 -113c62 0 103.667 -75.333 125 -226c-32.667 -208.667 -57.334 -313 -74.001 -313c-24 0 -80.333 -69.333 -169 -208
l-29 -35c-38 0 -60.333 11.667 -67 35v26c0 36 59 114.333 177 235c33.333 32.667 58 102 74 208v9c0 104 -19.667 156 -59 156c-59.333 0 -120.666 32 -183.999 96h-8c-12.667 0 -93.667 -58 -243 -174c-41.333 0 -132 -92.667 -272 -278c-64 -49.333 -96 -119 -96 -209
c-49.333 -46 -74 -86.333 -74 -121c0 -137.333 54 -236 162 -296c71.333 -46 157.333 -83.333 258 -112h354l36 43h23c14.667 0 26.667 -26 36 -78v-26l-14 -26l-273 -9h-110c-167.333 0 -319.666 66.667 -456.999 200c-19.333 0 -29 17.333 -29 52
c-49.333 62.667 -74 117.667 -74 165z" />
    <glyph glyph-name="D" unicode="D" horiz-adv-x="1479" 
d="M104 -39c0 14.667 27.999 22.001 83.999 22.001c37.333 24 81 107.333 131 250c8.66699 0 15 22 19 66c56 53.333 84 127 84 221v132c0 131.333 -28 281 -84 449v44c0 10 -19 15 -57 15l-28 30v14c0 18 12.667 40 38 66v89c14.667 29.333 39.667 44 75 44h9v37
c62 58.667 139.667 88 233 88h10l102 -15l66 8c234.667 -66 384 -139.667 448 -221c44 -44.667 75.333 -118.334 94 -221.001c30.667 -80 52.334 -163.333 65.001 -250v-37c0 -146 -46.667 -295.667 -140 -449c-173.333 -127.333 -310.333 -191 -411 -191l-150 -7
c-30.667 0 -89.667 17 -177 51c-99.333 -9.33301 -149 -48.333 -149 -117c-50 -118 -106.333 -177 -169 -177c-30.667 0 -61.667 12.333 -93 37v22zM383.999 1396l94.001 -449c24.667 0 37 -90.667 37 -272v-148c0 -110.667 -15.667 -184 -47 -220
c17.333 -12.667 54.666 -22.667 111.999 -30c0 -12.667 46.667 -32.334 140 -59.001c175.333 0 331.333 66.333 468 199c62 132.667 93 245.334 93 338.001c0 134.667 -40.667 299 -122 493c-71.333 68 -177 127 -317 177l-112 -7h-10l-205 14c-41.333 -24 -85 -36 -131 -36
z" />
    <glyph glyph-name="E" unicode="E" horiz-adv-x="1366" 
d="M135 409c0 168.667 81.001 279.334 243.001 332.001l57 7h65c0 15.333 -28 53 -84 113c-56 90.667 -84 147.334 -84 170.001c0 88.667 31 152.334 93 191.001c125.333 141.333 237.666 212 336.999 212c152 0 252 -49.333 300 -148v-22
c-30.667 -150.667 -90 -226 -178 -226c-81.333 -36 -122 -64.333 -122 -85l-37 -21h-19l-37 28v7c0 54.667 68.667 97.334 206 128.001c40.667 26 68.667 82.333 84 169v22c0 14 -37.333 28 -112 42c-218.667 -39.333 -328 -84 -328 -134
c-56 -44.667 -84 -82.334 -84 -113.001v-43c26.667 -108.667 114 -212.334 262 -311.001c118.667 -42.667 178 -73.334 178 -92.001l-56 -42h-38c-174 56.667 -289.333 85 -346 85c-112.667 -40 -169 -89.667 -169 -149c-10.667 0 -17 -11.667 -19 -35v-42
c0 -142.667 56.333 -227.667 169 -255c84 -32.667 152.667 -51.334 206 -56.001l56 7l384 -29l103 29c36 -10 61 -26.667 75 -50v-21l-131 -92h-47c-18.667 0 -28 21.333 -28 64l-9 7h-94c-304 0 -475.667 21 -515 63c-138 0 -231.667 96.667 -281 290z" />
    <glyph glyph-name="F" unicode="F" horiz-adv-x="1251" 
d="M217 1322c6 36 28.667 53.998 68 53.998c4 53.333 35.667 80 95 80h231l111 20c178.667 -18.667 315.667 -41 411 -67c25.333 -21.333 42.333 -43.666 51 -66.999c-51.333 -58 -77 -95.667 -77 -113h-26v7l-8 66l25 20c0 16.667 -82.667 34.667 -248 54l-25 -7l-77 7
c-217.333 -6 -326 -21.667 -326 -47c34.667 -35.333 52 -86.666 52 -153.999c-14.667 0 -23.334 -8.66699 -26.001 -26l69 -241l-9 -53l9 -34l-9 -6v-7c7.33301 -35.333 44.333 -53 111 -53l300 6c84 0 155.333 -24.333 214 -73v-13c0 -43.333 -23 -72.333 -69 -87l-8 6v14
l8 6c-10 40.667 -27 61 -51 61l-34 -7l-60 7l-69 -14l-102 27h-77c-40 0 -60 -24.667 -60 -74c-10.667 -22 -30.667 -33 -60 -33l-9 7v-7c6 -211.333 14.667 -331.666 26 -360.999l8 7h26c20 0 34.333 -24.333 43 -73v-47c0 -46.667 -23 -82.334 -69 -107.001h-17
c-56.667 0 -85 49 -85 147v53l-43 34v20c2.66699 32 11.334 54.333 26.001 67l-9 46v14l-9 167l9 46l-26 61h9l-9 6v7l-8 194l8 6v7l-60 247c-96.667 104 -145 170.667 -145 200zM311 1309h17v33h-17v-33z" />
    <glyph glyph-name="G" unicode="G" horiz-adv-x="1593" 
d="M288 803c0 97.333 54.335 252.669 163.002 466.002c178 152.667 312 229 402 229c89.333 0 166 -19 230 -57c44.667 0 70 -30 76 -90c0 -15.333 -25.333 -34.333 -76 -57h-29c-47.333 60 -92 90 -134 90h-29c-33.333 -19.333 -110 -41.333 -230 -66
c-95.333 -58 -159 -128.667 -191 -212c-57.333 -158.667 -86 -257 -86 -295l9 -441c19.333 -115.333 51.333 -189 96 -221c48 -32.667 147 -49 297 -49c14.667 -16 37 -24 67 -24h38c230 22 345 54.667 345 98c40.667 39.333 72.667 85.666 96 138.999
c0 162 -28.667 273.667 -86 335c-42.667 81.333 -84.334 135.666 -125.001 162.999h-48c-38 0 -124 -54.333 -258 -163c-12.667 -1.33301 -22.334 -20.333 -29.001 -57c0 -29.333 32 -51.333 96 -66v-8l-58 -41h-19c-76.667 0 -115 32.667 -115 98
c0 64.667 28.667 116.667 86 156c104.667 120 223 180 355 180c97.333 -54 167.333 -133 210 -237c44.667 -51.333 76.667 -160.333 96 -327v-49l-96 -180l10 -41c-64 -54 -112 -81 -144 -81c-32 3.33301 -48 11.333 -48 24c-119.333 -5.33301 -221.333 -16.333 -306 -33
h-29c-269.333 0 -429 68 -479 204c-31.333 82 -47 150.333 -47 205v139z" />
    <glyph glyph-name="H" unicode="H" horiz-adv-x="1479" 
d="M262 766v21.001c0 14 34.333 23.333 103 28l26 182l-9 56l9 21c0 34.667 -17.333 65 -52 91v162l-8 147c8.66699 18.667 17.334 28 26.001 28h34c57.333 -33.333 86 -105.666 86 -216.999l-17 -92l26 -105v-7l-9 -7l9 -7v-56l8 -42c-11.333 -20 -20 -73.667 -26 -161h121
l69 -7l94 7h258l52 -7c34 0 51 37.333 51 112l43 294l-8 78l8 28l-25 63v49c11.333 42 25.666 63 42.999 63h17c34 -16.667 51 -37.667 51 -63v-21l9 -225l-43 -266v-70l-9 -7l9 -7l-9 -49v-253l52 -463c-11.333 -26.667 -31.333 -45.334 -60 -56.001
c-10.667 0 -28 11.667 -52 35l9 49c0 72.667 -14.333 189.667 -43 351v224l-26 21h-60l-189 21h-241l-146 -7l-35 -322v-49l9 -253c0 -20 -26 -34 -78 -42c-26 9.33301 -40.333 18.666 -43 27.999l26 70v112l-8 162c11.333 61.333 17 171 17 329l-9 7l-8 -7h-18z" />
    <glyph glyph-name="I" unicode="I" horiz-adv-x="861" 
d="M15 34c0 86.667 11.665 129.998 34.998 129.998l210 27h84l28 27v116c33.333 200 50 329.333 50 388l-7 41v62l21 156l-7 191v7l7 7l-14 81c18.667 64 37.334 105 56.001 123c-59.333 14 -111 21 -155 21l-7 -7v-7l7 -48l-35 -13
c-11.333 0.666992 -41.666 43.667 -90.999 129v21l21 20h28c26 -22.667 54 -34 84 -34h85c176.667 -20 277 -40.333 301 -61c46.667 -39.333 70 -71.333 70 -96v-48l-119 -143h-21c-9.33301 0 -14 7 -14 21c51.333 62.667 77 110.334 77 143.001
c0 54.667 -67.667 86.334 -203 95.001v-6l28 -144l-28 -47v-14h7l-7 -68v-143l-14 -164v-143l-42 -415v-7c0 -32 65.333 -48 196 -48l63 14c21.333 -9.33301 33 -18.666 35 -27.999c-7.33301 -40.667 -26 -61 -56 -61l-210 20c-260 0 -391 -36.333 -393 -109
c0 -10.667 -16.333 -17.334 -49 -20.001z" />
    <glyph glyph-name="J" unicode="J" horiz-adv-x="1079" 
d="M68 1261l-0.000976562 7c0 69.333 25.667 111.333 77 126c0 14 20.333 36.333 61 67h39l15 -15v-15c0 -16 -7.66699 -33.333 -23 -52v-14l54 -8l76 15c38 0 107.333 -14.667 208 -44l222 -38h77l69 8c46 -8 69 -30.333 69 -67c-3.33301 -14.667 -23.666 -22 -60.999 -22
h-169c-10.667 0 -23.667 -29.667 -39 -89v-8c0 -46 61.667 -154.667 185 -326c50.667 -94 76 -259.667 76 -497c-24 -112.667 -72.333 -191.667 -145 -237c-52.667 -34.667 -116.667 -52 -192 -52h-200c-50.667 0 -145.334 57 -284.001 171l-8 29l23 15h23
c18 0 95 -44.333 231 -133l76 -15c178.667 0 291.334 29.667 338.001 89l62 133c0 297.333 -51.333 492.666 -154 585.999c-71.333 84 -107 173 -107 267l23 89l-323 59c0 -9.33301 -30.667 -16.666 -92 -21.999c-4.66699 -14.667 -20 -22 -46 -22h-31l-53 15v-8l-39 -37
h-15c-15.333 5.33301 -23 20.333 -23 45z" />
    <glyph glyph-name="K" unicode="K" horiz-adv-x="1366" 
d="M172 1214c0 184.667 31.332 277 93.999 277c42 0 66.333 -35.667 73 -107l-10 -63l10 -9l-10 -44l31 -509l-21 -330h21c28.667 118 157.334 305.333 386.001 562c220.667 178.667 342.667 268 366 268h42c14.667 0 32 -21 52 -63c0 -83.333 -38.333 -125 -115 -125l-10 9
l10 9v45h-10c-244 -183.333 -369.333 -296.333 -376 -339c-76.667 -76 -115 -132.667 -115 -170c1.33301 -36.667 71 -87.334 209 -152.001c126.667 -112.667 245 -243.667 355 -393v-26c0 -31.333 -10.667 -49.333 -32 -54h-41c-10 0 -34.333 35.667 -73 107
c-125.333 180 -268.333 305 -429 375l-31 45h-42c-122 -298 -198.667 -447 -230 -447h-20l-42 36v27c0 50.667 7 89.334 21 116.001l-11 9l11 134v241l10 36l-10 8l10 134v241z" />
    <glyph glyph-name="L" unicode="L" horiz-adv-x="1139" 
d="M120 39l114.999 996l-17 61v24c24.667 17.333 45.334 74 62.001 170l-18 169c8 26 28.667 39 62 39c47.333 0 71 -59.333 71 -178l-9 -54l18 -38l-9 -39v-38l9 -47l-71 -92l-98 -749l-8 -70h26c36 26 62.667 39 80 39c256.667 0 484.667 -23.333 684 -70l9 -8v-38
c0 -12 -14.667 -19.667 -44 -23l-320 38l-267 -7l-9 -8h-8l-80 15c-42 -26 -74.667 -67 -98 -123l-27 -8c-23.333 0 -41 13 -53 39z" />
    <glyph glyph-name="M" unicode="M" horiz-adv-x="1521" 
d="M367 1356c0 82 22.666 123.001 67.999 123.001h8c26.667 0 44.334 -59 53.001 -177l23 -61l-38 -176v-62l-8 -69l8 -30l-8 -8v-8l8 -7l-15 -192v-76l30 -330h-7l7 -8v-7l-7 -54c0 -26.667 15 -80.334 45 -161.001c0 -30.667 -17.667 -46 -53 -46h-8
c-40 30.667 -62.667 122.667 -68 276l-23 406l15 146c-6 347.333 -16 521 -30 521zM510.999 1364l31.001 76l-8 8v8c10 23.333 20.333 36 31 38h30c64.667 0 107.667 -71.667 129 -215c16 -15.333 31.333 -97 46 -245c45.333 -102.667 68 -174.334 68 -215.001l61 -61
c129.333 98 225.666 202.667 288.999 314c34 32.667 66.667 76.334 98 131.001c32 21.333 65 67.333 99 138h15c21.333 -7.33301 36.666 -20.333 45.999 -39v-7l-84 -1035v-77l46 -46v-15c0 -15.333 -20.333 -25.666 -61 -30.999c-40.667 0 -61 25.667 -61 77v107
c0 107.333 10.333 204.666 31 291.999v84c0 94.667 12.667 253 38 475l-8 8h-7c-23.333 -48 -66.666 -99.333 -129.999 -154v-38c-179.333 -188.667 -293 -283 -341 -283c-46 21.333 -69 52 -69 92c-21.333 14.667 -59.333 109 -114 283c0 140 -27.667 244.667 -83 314h-8
c-4 -25.333 -11.667 -38 -23 -38h-7c-31.333 16 -49.333 34 -54 54z" />
    <glyph glyph-name="N" unicode="N" horiz-adv-x="1505" 
d="M85 360c0 58.667 40 131.998 120 219.998l166 517c56 228 124 342 204 342c36.667 -47.333 73.334 -170 110.001 -368l10 -79v-333c0 -259.333 33.667 -449.666 101 -570.999h28c68 56.667 142 247 222 571c0 102.667 77 321.667 231 657
c29.333 111.333 78.333 167 147 167l28 -44c0 -36 -34 -97.333 -102 -184c-147.333 -296.667 -221 -510 -221 -640c-114.667 -409.333 -210.334 -614 -287.001 -614l-27 -9h-28c-52 0 -110.667 125.667 -176 377v272l-9 88l9 79v35c0 170.667 -24.333 319.667 -73 447h-10
c-36.667 -68 -98 -258 -184 -570v-53l-37 -44l9 -52l-102 -176c80 -9.33301 120 -23.666 120 -42.999v-18c-6 -17.333 -24.333 -26 -55 -26h-102c-61.333 4 -92 21.333 -92 52z" />
    <glyph glyph-name="O" unicode="O" horiz-adv-x="1593" 
d="M112 722v7.99902c0 116 34.333 274.333 103 475c0 17.333 26.667 36 80 56c1.33301 29.333 57 61 167 95c92.667 88 164 133 214 135h95c57.333 0 105 -18.667 143 -56l8 8h8c53.333 0 159.333 -105.667 318 -317l127 -309v-135c0 -180.667 -84.667 -355 -254 -523
c-145.333 -106 -251.333 -159 -318 -159l-8 8h-8l-24 -8v8l-8 -8h-47c-92 0 -192.667 26.333 -302 79c-105.333 88.667 -177 202.334 -215 341.001zM247 768.999l8.00098 -39.002v-96c0 -139.333 42.333 -268.666 127 -387.999c101.333 -95.333 196.666 -143 285.999 -143
h119c88 0 196.667 55.667 326 167c88.667 98.667 141.667 204.334 159 317.001c8.66699 0 16.667 42.333 24 127c0 82 -29.333 174.333 -88 277c-26.667 76 -77 150 -151 222c-54.667 84.667 -99.667 127 -135 127h-214l-88 -39c-50.667 0 -95.667 -24 -135 -72h-16l-15 -24
l8 -7v-96l-24 -23l-88 15c-68.667 -124 -103 -232.333 -103 -325z" />
    <glyph glyph-name="P" unicode="P" horiz-adv-x="1366" 
d="M105 201l0.00195312 17.001c0 72.667 54 114.667 162 126h67l19 -17l-143 -92v-17c0 -65.333 63.667 -104.333 191 -117c0 -12.667 38 -21.334 114 -26.001c25.333 28 38 98 38 210c0 249.333 -25.333 461.666 -76 636.999c0 145.333 -41.333 265.333 -124 360v17l19 50
l-9 75l28 17h19l48 -33h10c0 40 57 65 171 75h19c161.333 0 377.666 -145.333 648.999 -436v-201c-54.667 -124 -137.334 -207.667 -248.001 -251h-162c-89.333 9.33301 -134 48.333 -134 117l38 34h10c56.667 -50.667 101 -76 133 -76h67
c127.333 46.667 191 108.334 191 185.001c12.667 0 19 19.333 19 58v67c0 58 -127 178.333 -381 361c-78 44.667 -141.667 67 -191 67l-143 -51v-8c63.333 -52.667 95 -103 95 -151v-33c0 -43.333 -16 -71.333 -48 -84c0 -54.667 22.333 -191.667 67 -411l29 -318l-10 -8v-9
l10 -25c0 -206.667 -44.667 -310 -134 -310h-19c-222.667 36.667 -334 75.667 -334 117c-38 26.667 -57 54.667 -57 84z" />
    <glyph glyph-name="Q" unicode="Q" horiz-adv-x="1565" 
d="M232 720l0.00195312 7.99902c0 116 32 274 96 474c0 16.667 24.667 35.334 74 56.001c1.33301 29.333 53 61 155 95c86.667 87.333 153.334 132 200.001 134h89c53.333 0 97.666 -18.333 132.999 -55l7 8h8c49.333 0 148 -105.667 296 -317l118 -308v-135
c0 -138 -54.333 -285.667 -163 -443v-16c64 -57.333 96 -94 96 -110c-9.33301 -33.333 -21.666 -52 -36.999 -56h-7c-14.667 0 -22 16 -22 48c-40.667 42 -70.334 63 -89.001 63c-146.667 -110.667 -250.334 -166 -311.001 -166l-7 8h-7l-23 -8v8l-7 -8h-44
c-85.333 -0 -179 26.333 -281 79c-98.667 88 -165.334 201.333 -200.001 340zM358.002 766.999l7.00195 -39.001v-95c0 -139.333 39.333 -268.666 118 -387.999c94.667 -94.667 183.667 -142 267 -142h111c68 0 154.333 42 259 126v8
c-126.667 106 -193.334 169.333 -200.001 190v16l22 24h30c69.333 -69.333 135.666 -127.333 198.999 -174h8c68 78.667 109.667 165.667 125 261c15.333 36 25.333 88.667 30 158c0 82 -27 174.333 -81 277c-24.667 75.333 -71.667 149 -141 221
c-51.333 84.667 -93.333 127 -126 127h-199l-82 -40c-47.333 0 -89 -23.667 -125 -71h-15l-15 -24l7 -8v-95l-22 -23l-81 16c-64 -124.667 -96 -233 -96 -325z" />
    <glyph glyph-name="R" unicode="R" horiz-adv-x="1364" 
d="M151 1370l32 21.001h16c21.333 0 48.333 -79 81 -237l8 -7v-7l16 14v49c0 98.667 53.667 198.667 161 300l89 7c152.667 0 243.667 -42 273 -126c80.667 -147.333 121 -254.333 121 -321v-56c0 -80.667 -16 -141.334 -48 -182.001v-14
c139.333 -142.667 209 -263.667 209 -363c14.667 -28.667 31 -91.667 49 -189l8 -6l40 6l24 -20v-14c-41.333 -144.667 -68.333 -217 -81 -217h-16c-30 0 -48.667 11.667 -56 35l16 49c0 102 -32.333 260.333 -97 475c-75.333 107.333 -129 170.333 -161 189
c-37.333 -18.667 -96.333 -37.334 -177 -56.001h-64c-118 12.667 -177 42.667 -177 90v14c13.333 102.667 56.333 154 129 154h48c24 0 96.333 -32.667 217 -98c33.333 0 52.333 42 57 126v63c-54.667 260.667 -146 391 -274 391h-73
c-53.333 -21.333 -96 -81.666 -128 -180.999l-17 -77l-16 -461l-24 -105l8 -252l-8 -98l8 -41c-12 -107.333 -33.333 -161 -64 -161h-32c-32.667 0 -49 95.333 -49 286v7l24 266l-8 49v377l-56 237zM529 825.001c0 -24.667 11 -40.999 33 -48.999h88
c70 3.33301 105 12.666 105 27.999c-51.333 35.333 -94.333 54 -129 56h-24c-48.667 -9.33301 -73 -21 -73 -35z" />
    <glyph glyph-name="S" unicode="S" horiz-adv-x="1366" 
d="M247 268l0.000976562 58.999l20 15h39l426 -178v-15l-10 -22h10l158 -45c52.667 0 79 24.667 79 74c0 47.333 -105.333 233 -316 557c-206 246.667 -325 429.667 -357 549c0 70.667 92.667 137.334 278 200.001c113.333 34.667 205.666 52 276.999 52
c91.333 0 177 -64.333 257 -193v-7c0 -78.667 -82.333 -155.334 -247 -230.001h-20l-20 29c0 12 59.333 69 178 171l10 22c-86.667 74.667 -185.667 112 -297 112c-111.333 -22 -210.333 -64.333 -297 -127l-10 -37c0 -45.333 132 -240.666 396 -585.999
c178 -271.333 267 -449.333 267 -534v-37c0 -41.333 -42.667 -71 -128 -89h-99c-233.333 52 -388.333 101.333 -465 148c-19.333 0 -62.333 37.333 -129 112z" />
    <glyph glyph-name="T" unicode="T" horiz-adv-x="1251" 
d="M150 1377c10 58 110.669 92.333 302.002 103c133.333 -8.66699 252 -25.667 356 -51l28 6h20c68.667 -25.333 126 -38 172 -38c64 -36.667 96 -68.667 96 -96v-13c-21.333 -81.333 -51 -122 -89 -122h-14l-20 19c0 12 13.667 35.667 41 71l7 32
c0 28.667 -80.333 52 -241 70c-97.333 21.333 -227.333 40.666 -390 57.999l-117 -19v-7c13.333 0 24.666 -8.33301 33.999 -25v-13c-4.66699 -12.667 -18.334 -19 -41.001 -19h-89c-36.667 2.66699 -55 17.334 -55 44.001zM562.002 102
c18 82.667 29.334 264.333 34.001 545c6 0 10.667 38.333 14 115c-4.66699 135.333 -16.334 274.333 -35.001 417v32c12 81.333 30.333 122 55 122h21c9.33301 0 25.333 -28 48 -84c40.667 -54.667 61 -108 61 -160l-41 -32c-16 14.667 -34.333 55.334 -55 122.001h-6l-7 -7
v-12c18 -92.667 29.333 -225.334 34 -398.001c-14 -96.667 -21 -180 -21 -250v-19l7 -51l-7 -52v-57l7 -77h-7l7 -7v-32l-7 -19l7 -32v-13c0 -106.667 -18.333 -160 -55 -160c-23.333 0 -41.333 36.333 -54 109z" />
    <glyph glyph-name="U" unicode="U" horiz-adv-x="1251" 
d="M146 650l-0.00195312 136.002c0 332 27.667 549.333 83 652c6 45.333 17.333 68 34 68h17c42 0 89 -62 141 -186c0 -28.667 17 -62.667 51 -102l16 -85l-33 -17c-78 58 -117 128.667 -117 212l-8 9c0 16.667 -5.66699 25 -17 25h-8c0 -30 -19.667 -78 -59 -144l-8 -25
l-9 -475c0 -124 53 -203 159 -237l75 -17c200.667 91.333 301 164.666 301 219.999c74 96 121.333 144 142 144l-9 60c46.667 316 105.334 474 176.001 474h8c16.667 0 30.667 -25.333 42 -76v-381l8 -51c-22 -116.667 -41.333 -314.334 -58 -593.001v-9
c0 -23.333 19.333 -48.666 58 -75.999v-17c-26.667 -96 -46 -144 -58 -144h-9c-38.667 0 -58 36.667 -58 110c-9.33301 0 -15 56.667 -17 170v8l59 576l-9 34l9 8v9l-9 8l9 43l-9 34l9 25l-9 76h-8l-67 -254c-25.333 -10.667 -39.333 -22 -42 -34v-8l9 -34
c0 -22.667 -25 -62.334 -75 -119.001c-29.333 -90.667 -143.666 -183.667 -342.999 -279h-92c-68 0 -148.667 48 -242 144z" />
    <glyph glyph-name="V" unicode="V" horiz-adv-x="1366" 
d="M75 1338c44 34.667 75.3379 88.002 94.0049 160.002l11 11h35c16 -3.33301 31.667 -21.333 47 -54l-23 -428l11 -42h-11l82 -439c59.333 -79.333 117.666 -197 174.999 -353h12c163.333 250.667 280.333 471.667 351 663c78 84 183 241 315 471
c41.333 36 72.666 54 93.999 54l35 -43c0 -18.667 -46.667 -97.334 -140 -236.001c-42 -88.667 -120 -210 -234 -364c-72.667 -187.333 -209.334 -433.333 -410.001 -738h-58c-34.667 7.33301 -89.334 135.666 -164.001 384.999c-43.333 18.667 -78.333 86.667 -105 204
l-94 674c-12.667 0 -20.334 25 -23.001 75z" />
    <glyph glyph-name="W" unicode="W" horiz-adv-x="1933" 
d="M210 1151l-0.000976562 10l36 40h35l80 -10l35 10c27.333 -12.667 42.333 -26 45 -40v-31l-18 -81l266 -844c12 -2 21 -22.333 27 -61h27c119.333 342.667 208 542.667 266 600h27c17.333 -6.66699 26 -27 26 -61c-6 -88 -14.667 -132 -26 -132
c42.667 -203.333 98.667 -305 168 -305l400 1108c13.333 88 31 132 53 132h18c14.667 0 29.334 -27 44.001 -81c0 -56.667 -20.667 -117.667 -62 -183l-391 -1057c-34 -27.333 -60.667 -41 -80 -41c-95.333 54.667 -157.333 129.334 -186 224.001l-27 91h-8
c-16.667 -8.66699 -73 -137.334 -169 -386.001c-19.333 -40.667 -40 -61 -62 -61c-68 0 -186.333 305 -355 915c-40 135.333 -87.333 203 -142 203z" />
    <glyph glyph-name="X" unicode="X" horiz-adv-x="1670" 
d="M71 1217c10 33.333 34.666 49.9971 73.999 49.9971l584 -469l32 -40c14.667 0 78.334 73 191.001 219l467 529h21c21.333 -5.33301 39 -28.666 53 -69.999c0 -49.333 -42.333 -95.666 -127 -138.999l-478 -579v-30c138 -99.333 258.333 -205.666 361 -318.999
c240.667 -183.333 361 -286.333 361 -309v-10c-14 -30.667 -28 -47.334 -42 -50.001h-11c-30 0 -118.333 69.667 -265 209l-383 310l-106 89l-552 -568h-10l-43 40v30c0 99.333 39 149 117 149c238 246 362 385.667 372 419l-467 389l-11 10h-21
c42 -103.333 63 -169.666 63 -198.999l-31 -30h-22c-84.667 59.333 -127 182.333 -127 369z" />
    <glyph glyph-name="Y" unicode="Y" horiz-adv-x="1366" 
d="M194 1426v7.99805c8.66699 22.667 27.334 34 56.001 34h24l111 -152c25.333 0 166.333 -127 423 -381c44 53.333 99.667 152 167 296c75.333 130 117.666 195 126.999 195h72l32 -34l-24 -59h-8h-8c-18 0 -100.333 -129.667 -247 -389l-48 -76v-26
c54.667 -53.333 84 -92.666 88 -117.999c-12.667 -34 -31.334 -51 -56.001 -51c-12 0 -41 28.333 -87 85c-150 -280.667 -259 -500.667 -327 -660c-46 -56.667 -86 -85 -120 -85h-8c-27.333 0 -43 8.66699 -47 26v25l111 85c68 159.333 179.667 390.333 335 693
c-63.333 82 -222.666 237 -477.999 465c-58.667 50.667 -88 90.334 -88 119.001z" />
    <glyph glyph-name="Z" unicode="Z" horiz-adv-x="1460" 
d="M134 69v25.999c0 44 110.667 174.333 332 391l285 303c93.333 120 229.333 270.333 408 451c-312 98.667 -533.333 148 -664 148l-95 -9h-38l-29 -26l19 -61c-12 -26 -24.667 -40.333 -38 -43h-57c-52 39.333 -86.667 79.666 -104 120.999
c6.66699 71.333 104.667 109 294 113h38c12 -10 94.333 -18.667 247 -26c9.33301 -13.333 82 -30.666 218 -51.999c0.666992 -10 86 -36 256 -78c50.667 -21.333 76 -47.333 76 -78v-18c-322.667 -338.667 -484 -515 -484 -529l-446 -468l-76 -87v-26l238 9h237
c74 0 150 11.667 228 35h180l218 17l38 -43v-18c0 -46 -25.333 -69 -76 -69h-313l-38 9c-94 -21.333 -321.667 -41.666 -683 -60.999c-71.333 0 -128.333 23 -171 69z" />
    <glyph glyph-name="bracketleft" unicode="[" horiz-adv-x="928" 
d="M187 -324l12 474.999v109l70 1042c-8 256 -19.667 384 -35 384l46 73l316 9h105c46 0 77 -18.333 93 -55c0 -27.333 -35 -45.666 -105 -54.999l-140 9c-68.667 0 -123.334 -12 -164.001 -36l12 -155v-238c-31.333 -348.667 -54.666 -735.667 -69.999 -1161v-264
c0 -22 11.667 -40.333 35 -55l117 9h152c77.333 -7.33301 116 -19.333 116 -36v-37c-10 -24 -45 -36 -105 -36l-408 -10z" />
    <glyph glyph-name="backslash" unicode="\" horiz-adv-x="569" 
d="M-149 1141c0 56.667 8.00098 88.333 24.001 95h6l35 -19c43.333 -114.667 117 -245 221 -391c154.667 -232 293 -458 415 -678c62 -146 93 -238 93 -276c-6.66699 -44.667 -14.334 -67 -23.001 -67h-30l-17 20c-39.333 142 -70.333 215 -93 219
c-11.333 49.333 -64 154 -158 314c-296 444.667 -453.667 705.667 -473 783z" />
    <glyph glyph-name="bracketright" unicode="]" horiz-adv-x="861" 
d="M142 1713c16 36.667 47 55.001 93 55.001h105l316 -9l46 -73c-15.333 0 -27 -128 -35 -384l70 -1042v-109l12 -475l-47 -28l-408 10c-60 0 -95 12 -105 36v37c0 16.667 38.667 28.667 116 36h152l117 -9c23.333 14.667 35 33 35 55v264
c-15.333 425.333 -38.666 812.333 -69.999 1161v238l12 155c-40.667 24 -95.334 36 -164.001 36l-140 -9c-70 9.33301 -105 27.666 -105 54.999z" />
    <glyph glyph-name="asciicircum" unicode="^" horiz-adv-x="961" 
 />
    <glyph glyph-name="underscore" unicode="_" horiz-adv-x="1139" 
 />
    <glyph glyph-name="grave" unicode="`" 
 />
    <glyph glyph-name="a" unicode="a" horiz-adv-x="1034" 
d="M82 479v80c0 9.33301 19 39.666 57 90.999l-13 32v11c25.333 12.667 38 73.334 38 182.001c53.333 74.667 93 122.667 119 144h44c16.667 0 90.334 -37.333 221.001 -112l125 -75h13c0 22 16.667 38 50 48c38 0 57 -44.667 57 -134c11.333 -16.667 24 -89.667 38 -219
c16.667 -38.667 25 -72.667 25 -102v-64c0 -60 29.333 -165.333 88 -316v-16c-6 -14.667 -16.333 -25 -31 -31h-19c-28 12 -53.333 63.333 -76 154c-14 0 -30.667 53.667 -50 161l-6 59c-6 0 -23 -37.667 -51 -113c-50 -62.667 -110.667 -119.667 -182 -171
c0 -44 -14.667 -76 -44 -96h-51c-17.333 21.333 -38.333 32 -63 32c-76.667 0 -160.334 112.333 -251.001 337c-25.333 34 -38 73.333 -38 118zM132 602l38.002 -37.998v-10l-6 -22c11.333 -113.333 70 -245.333 176 -396c22.667 -17.333 41.667 -26 57 -26
c33.333 7.33301 96 53.666 188 138.999c61.333 105.333 97 158.666 107 159.999c34 0 51 23.333 51 70c0 44 -17 122.333 -51 235c-112.667 92.667 -234.334 164 -365.001 214h-18l-51 -139l6 -5v-6l-12 -42v-43c0 -24 10.333 -56.333 31 -97v-53l70 -225
c-4.66699 -21.333 -11 -32 -19 -32h-7l-31 43c-32.667 0 -70.334 78.333 -113.001 235c0 28 -8.33301 44 -25 48h-26v-10z" />
    <glyph glyph-name="b" unicode="b" horiz-adv-x="1139" 
d="M180 890c22.667 261.333 42.3311 392.001 58.998 392.001l40 6h26l33 -32l-66 -360l7 -25l-7 -32l27 -184h13c46.667 102.667 99.334 170.334 158.001 203.001c56.667 54.667 105 82 145 82h26c57.333 0 138.333 -67.333 243 -202
c78.667 -68.667 129.334 -157.334 152.001 -266.001l13 -63v-32c0 -190 -79 -318.333 -237 -385l-39 -7h-60c-118 0 -177 17 -177 51c-12 0 -75.667 40 -191 120l-60 88c-30.667 70 -46 127 -46 171c-39.333 219.333 -59 377.666 -59 474.999zM337.997 402.001
c10.667 -74 32.667 -126.668 66 -158.001c150 -118 242 -177 276 -177c116 0 195 44.333 237 133c26.667 73.333 40 124 40 152v57c-21.333 105.333 -58.666 185.333 -111.999 240c-110 135.333 -182.333 203 -217 203c-80.667 -25.333 -166.334 -124.666 -257.001 -297.999
c-8.66699 0 -13 -12.667 -13 -38l13 -57c0 -18.667 -11 -37.667 -33 -57z" />
    <glyph glyph-name="c" unicode="c" horiz-adv-x="1024" 
d="M90 637c40 153.333 103.333 253.668 190 301.001c30 28.667 61.667 43 95 43h13c82.667 -16.667 184.334 -53.667 305.001 -111c44 0 80.333 -20.333 109 -61c0 -69.333 -25 -143 -75 -221c-22.667 0 -34 55.333 -34 166h7c0 21.333 -97 64.333 -291 129h-48
c-112.667 -78 -169 -182.667 -169 -314c111.333 -298.667 206 -456.334 284 -473.001h82l81 -18l7 6h61l197 6c31.333 -12 47 -30.333 47 -55v-6c-14 -24.667 -39 -37 -75 -37l-189 7l-7 -7h-7l-7 7h-7l-6 -7l-34 7c-158.667 0 -251.334 20.333 -278.001 61
c-90 122.667 -171.333 278 -244 466v25z" />
    <glyph glyph-name="d" unicode="d" horiz-adv-x="1139" 
d="M165 421c16 182.667 37.333 274.001 64 274.001c0 43.333 40.667 76.666 122 99.999c0 14.667 38.333 23.667 115 27c92 -24.667 158.667 -69.334 200 -134.001l86 -107h15c-14.667 374.667 -29 562 -43 562v20c0 133.333 21.333 200 64 200h7l43 -47v-173l7 -141l-7 -20
l36 -608l7 -7v-6l-7 -87c3.33301 -40 24.666 -60 63.999 -60l29 -54c-42.667 -13.333 -64 -46.666 -64 -99.999c0 -30 -12 -50 -36 -60h-22c-18 0 -34.667 40 -50 120c-20.667 9.33301 -58.667 14 -114 14h-158l-29 -7c-155.333 11.333 -250.666 60.333 -285.999 147z
M265 421.001c14 -129.333 81 -194 201 -194l172 -7h107l36 7v20c-34.667 168 -101.667 299.333 -201 394c-30 46.667 -65.667 75.667 -107 87h-43c-52 0 -104.667 -55.667 -158 -167z" />
    <glyph glyph-name="e" unicode="e" horiz-adv-x="1139" 
d="M105 425v35c13.333 162.667 33.333 244 60 244c86.667 95.333 187 180.666 301 255.999l93 29h7c87.333 0 167.666 -54.333 240.999 -163c31.333 -44.667 47 -75.667 47 -93c0 -158.667 -87 -238 -261 -238h-187c-80.667 0 -121 21 -121 63v12l21 18l66 -6h7l127 11h7
l160 -5c49.333 17.333 74 46.333 74 87c0 45.333 -24.667 103.333 -74 174c-28.667 35.333 -62 53 -100 53c-32 0 -65.333 -19.333 -100 -58c-34 0 -114.333 -70 -241 -210c-13.333 -28.667 -22.333 -75 -27 -139c0 -132 18 -213.667 54 -245c34 -48 94 -81 180 -99
c64.667 -19.333 171.667 -36.666 321 -51.999l94 17h33c98 -18.667 147 -47.667 147 -87v-6c-7.33301 -15.333 -23 -23 -47 -23h-6l-107 29h-34c-31.333 0 -55.666 -4 -72.999 -12c-192.667 16 -324.334 39.333 -395.001 70c-61.333 0 -128 39 -200 117
c-31.333 33.333 -53.666 107 -66.999 221z" />
    <glyph glyph-name="f" unicode="f" horiz-adv-x="861" 
d="M67 720l-0.00195312 20.002c0 22 31.667 35.333 95 40h83c21.333 0 34 8.66699 38 26c-12.667 29.333 -19 60.666 -19 93.999l-6 306c14 113.333 50 204.666 108 273.999c36 22 91 33 165 33c110 -15.333 182.333 -88.666 217 -219.999
c8.66699 -10 21.334 -67.667 38.001 -173c-37.333 -213.333 -82 -320 -134 -320l-12 26l6 7v7l-6 6c0 42 14.667 106.667 44 194c8.66699 19.333 13 54.666 13 105.999v7c-34 155.333 -68 233 -102 233c-18.667 22.667 -37.667 34 -57 34h-57c-54 0 -98.667 -58 -134 -174
l6 -6l-6 -87c5.33301 -244.667 18 -367 38 -367l64 7c62.667 0 109.334 -22 140.001 -66v-27c0 -8.66699 -6.33301 -13 -19 -13l-128 13c-31.333 0 -48 -6.66699 -50 -20v-13l63 -440c0 -29.333 15 -78.333 45 -147v-13c-16 -44.667 -37.333 -67 -64 -67
c-28 0 -53.333 100 -76 300l-70 387l-19 6l-140 -6c-32 0 -53.333 11 -64 33z" />
    <glyph glyph-name="g" unicode="g" horiz-adv-x="1086" 
d="M59 602c0 96 42.332 214.336 126.999 355.003c21.333 52.667 63.666 98.334 126.999 137.001h63c40.667 0 117.334 -45.667 230.001 -137c93.333 -60 170 -151 230 -273l39 -96l-31 -54c26 0 39 -20.667 39 -62v-13c-31.333 -72 -47 -129 -47 -171
c5.33301 -32 13 -48 23 -48h16c18.667 14 45.334 21 80.001 21c35.333 -12 56.333 -28 63 -48c0 -18 -45 -43 -135 -75l-8 -7v-7c58.667 -206.667 88 -357 88 -451c0 -50 -32 -91 -96 -123h-63l-269 123c-142.667 37.333 -214 96.666 -214 177.999
c0 67.333 42 128.666 126 183.999c44 51.333 142 110.666 294 177.999v13l-16 14h-24c-31.333 -22.667 -92 -34 -182 -34c-145.333 27.333 -259 72.666 -341 135.999c-58 72 -97.667 158.667 -119 260zM177.999 568.003c42 -127.333 87.001 -191 135.001 -191
c97.333 -50 173.666 -77.333 228.999 -82h8c100 11.333 150.333 31.666 151 60.999l8 21v6c-78 342 -133.667 513 -167 513l-174 109h-16c-24 0 -45 -34 -63 -102c79.333 -52 127 -106.667 143 -164l31 -34v-14l-16 -14c-36.667 23.333 -55 46.333 -55 69l-95 88h-8
c-58 -33.333 -95 -78.666 -111 -135.999c0 -44.667 31.667 -85.667 95 -123l8 -21l-8 -7h-32l-39 28h-8l-8 -7h-8zM432 -148.997c0 -30.667 47.332 -62.667 141.999 -96c140 -68 222 -102 246 -102h16c10.667 0 18.334 16 23.001 48c-31.333 199.333 -63 338 -95 416
c-205.333 -91.333 -316 -180 -332 -266zM779.999 534.003l16 -14v7l-8 34h-8v-27z" />
    <glyph glyph-name="h" unicode="h" horiz-adv-x="877" 
d="M119 1396c10 21.333 20.333 33.002 31 35.002h8c46.667 0 70 -44.667 70 -134c16.667 -289.333 32 -454 46 -494h16c67.333 56.667 142.333 85 225 85c94 0 179.333 -113 256 -339l23 -261l-16 -162l16 -134v-63c-10.667 -42.667 -23.667 -64 -39 -64h-8
c-41.333 0 -62 35.333 -62 106l-7 169l7 219v99c-6 87.333 -55 193 -147 317l-8 7l-23 14c-35.333 -2.66699 -82 -21.334 -140 -56.001c-39.333 -14.667 -65 -33.667 -77 -57c0 -128.667 15.333 -234.334 46 -317.001l8 -78l-8 -106v-105c0 -42.667 -18 -64 -54 -64h-8
l-39 35l-7 311l-31 155v71l-47 331l8 7v7l-31 409z" />
    <glyph glyph-name="i" unicode="i" horiz-adv-x="455" 
d="M83 1120c0 46 22.001 91.333 66.001 136l20 10h33c56.667 -16 85 -53 85 -111l7 -15c-10.667 -74 -50.334 -111 -119.001 -111h-46c-30.667 6.66699 -46 37 -46 91zM149.001 702c13.333 60.667 39.666 91 78.999 91h7c30 0 47.333 -111 52 -333
c16.667 -32.667 34.334 -148.334 53.001 -347.001c13.333 -31.333 20 -61.666 20 -90.999v-5l-33 -25h-26c-34 0 -58.333 100.667 -73 302c-13.333 98 -37.333 207 -72 327z" />
    <glyph glyph-name="j" unicode="j" horiz-adv-x="455" 
d="M-8 20c0 19.333 12.335 35.998 37.002 49.998h60c30 -20 45 -41.667 45 -65l-7 -6v-8c31.333 -76.667 78.666 -115 141.999 -115c0 -14.667 27.333 -22 82 -22h8c50 44.667 75 116.667 75 216c0 116.667 -22.667 210.334 -68 281.001
c-30 96.667 -84.667 233.667 -164 411v29c3.33301 24 10.666 36 21.999 36h30c34.667 0 99.667 -144 195 -432c54.667 -67.333 82 -187.666 82 -360.999v-35c-4 -49.333 -26.333 -109.666 -67 -180.999c-41.333 -40.667 -79 -62.334 -113 -65.001h-45
c-82 11.333 -164.333 57 -247 137c-44.667 72 -67 115.333 -67 130zM142.002 1195v14c0 58 22.333 87 67 87h15c34.667 0 74.667 -36 120 -108v-43c0 -29.333 -17.667 -56 -53 -80h-37c-74.667 30 -112 73.333 -112 130z" />
    <glyph glyph-name="k" unicode="k" horiz-adv-x="1024" 
d="M209 1177l28.001 21.999h14c53.333 0 90.666 -75 111.999 -225l-21 -247l14 -127h21l111 127c122 160.667 212.667 298 272 412l56 23c18.667 0 32.667 -10 42 -30v-15c0 -19.333 -67.333 -127 -202 -323c-42 -45.333 -63 -85 -63 -119l286 -660
c32.667 -34 49 -61.333 49 -82v-15c0 -14.667 -18.667 -24.667 -56 -30c-40.667 0 -108 125 -202 375c-56 120.667 -98 223 -126 307l-35 30h-7l-98 -120c-28 0 -46.333 -87.333 -55 -262v-30l21 -143v-7c-8 -20 -24.333 -30 -49 -30c-42 14.667 -63 67 -63 157l14 307
l-35 292c14 50.667 21 108.334 21 173.001v30z" />
    <glyph glyph-name="l" unicode="l" horiz-adv-x="455" 
d="M153 1420l42.999 21l23 3h3c20.667 0 37.667 -35.667 51 -107l30 -210l2 -21c0 -32.667 -10.667 -65.334 -32 -98.001c4.66699 -46.667 6.66699 -88.667 6 -126c0 -46.667 -3.33301 -85.667 -10 -117l23 -54c-0.666992 -10.667 -1 -21.667 -1 -33
c0 -50.667 5 -110.667 15 -180l1 -7c-6 -42 -9 -81 -9 -117c0 -26.667 1.66699 -52 5 -76l14 -99c-1.33301 -119.333 -10.666 -180 -27.999 -182l-30 -12h-6c-38 0 -57.667 6.66699 -59 20l-3 21c9.33301 63.333 14 121.666 14 174.999c0 37.333 -2.33301 72.333 -7 105
l-8 6v50l-21 154c-8.66699 58.667 -13 116.334 -13 173.001c0 62.667 5.33301 124.334 16 185.001l-5 42c-13.333 205.333 -20 345.333 -20 420c0 42 2 63.333 6 64z" />
    <glyph glyph-name="m" unicode="m" horiz-adv-x="1191" 
d="M101 898v11.999c6.66699 20.667 23 31 49 31l85 -49h7c98.667 104.667 157.334 162 176.001 172c16.667 12.667 33 19 49 19c36.667 0 64.667 -51.333 84 -154c8.66699 0 18 -20.667 28 -62l-7 -25c6 -20.667 13.333 -31 22 -31h14l91 216c28 62 58.667 93 92 93
c40.667 -13.333 118 -85.333 232 -216c12.667 -16.667 22 -47.667 28 -93l-7 -55v-19l14 -216v-74l-7 -6l7 -6v-31l28 -266c-10.667 -82 -29.334 -123 -56.001 -123c-42.667 0 -64 14.333 -64 43v25l14 99c-18.667 62 -28 127.667 -28 197v185l-14 118l7 129
c-14 48 -60.667 107.667 -140 179h-7c-33.333 -47.333 -68.666 -133.666 -105.999 -258.999c-26.667 -16 -47.667 -73.667 -63 -173l14 -43l-7 -179v-62c0 -54.667 -16.667 -91.667 -50 -111h-14c-32.667 16.667 -49 43.334 -49 80.001l14 272
c-37.333 248.667 -72.333 392.667 -105 432h-7c-98.667 -98.667 -148 -176.667 -148 -234c9.33301 -48 14 -138.667 14 -272v-136l-7 -25l7 -6c-8.66699 -158 -32 -244.333 -70 -259h-29c-23.333 10.667 -35 27 -35 49l14 136v37
c-18.667 55.333 -37.334 156.333 -56.001 303c0 47.333 18.667 129.666 56 246.999c0 18 -23.333 55 -70 111z" />
    <glyph glyph-name="n" unicode="n" horiz-adv-x="847" 
d="M91 762c10 36.667 39.3369 55 88.0039 55c8.66699 0 29 -16.333 61 -49h7c39.333 125.333 75.666 188 108.999 188c37.333 36.667 71.333 55 102 55c113.333 0 194.666 -54.667 243.999 -164c18.667 -52.667 34.667 -139.667 48 -261c-27.333 -376 -50 -564 -68 -564
l-7 -6h-27c-16.667 0 -30.334 22.333 -41.001 67l41 491c-16 194 -41 291 -75 291c-19.333 36.667 -46.333 55 -81 55h-21c-54.667 0 -102 -66.667 -142 -200c-36.667 -36 -68.334 -161.333 -95.001 -376c0 -299.333 -18.333 -449 -55 -449h-20c-10 0 -23.667 20.333 -41 61
l7 72v225l-7 67c9.33301 22 14 78.333 14 169v140z" />
    <glyph glyph-name="o" unicode="o" horiz-adv-x="802" 
d="M113 346l0.00195312 74.001l5 238h5l-5 5v27c26.667 148 56.334 222 89.001 222c24 46 47 69 69 69c135.333 0 223 -37 263 -111c67.333 -44 121.666 -148 162.999 -312l10 -59c-6.66699 -98 -18.334 -173.667 -35.001 -227
c-58.667 -120 -101.334 -192.333 -128.001 -217c-27.333 -32 -65.333 -48 -114 -48c-69.333 6.66699 -135.333 43.667 -198 111c-38 19.333 -64.333 46 -79 80c-30 69.333 -45 118.666 -45 147.999zM192.002 325.001c14.667 -60 41 -106.002 79 -138.002
c75.333 -65.333 131.666 -100.666 168.999 -105.999c52 16 104.667 86.667 158 212c26.667 88.667 40 155.667 40 201c-27.333 133.333 -68.666 234 -123.999 302c-46 63.333 -89 95 -129 95l-89 16c0 -47.333 -19.667 -89.666 -59 -126.999c-30 -15.333 -45 -130 -45 -344
v-80l5 -21l-5 -5v-5z" />
    <glyph glyph-name="p" unicode="p" horiz-adv-x="884" 
d="M91 607l8.00098 242.999c42 94 116.667 141 224 141l77 13c141.333 0 231.666 -42.667 270.999 -128c72.667 -152.667 109 -257 109 -313c10 0 15 -36.333 15 -109v-13c0 -126.667 -54 -212 -162 -256l-55 -6c-59.333 0 -134 17 -224 51
c-22.667 0 -58.667 12.667 -108 38v-13h-8l8 -6l-8 -26c0 -103.333 18 -226.666 54 -369.999c-26.667 -111.333 -55 -167 -85 -167h-23c-15.333 3.33301 -28.333 18.333 -39 45l31 90l-46 358l7 32l-7 51h7zM192.001 613.999c16.667 -145.333 42.333 -218.001 77 -218.001
h77c10.667 -2 21 -12.667 31 -32l-15 -45c95.333 -34 159.666 -51 192.999 -51h31c61.333 0 97.333 68.333 108 205c-30.667 176.667 -82 315.334 -154 416.001c-27.333 16.667 -55.666 25 -84.999 25h-93c-103.333 -16.667 -155 -52.667 -155 -108v-32
c0 -85.333 -5 -128 -15 -128l7 -7z" />
    <glyph glyph-name="q" unicode="q" horiz-adv-x="1139" 
d="M179 489l0.00195312 65.0029c18 133.333 65.667 243.666 143 330.999c103.333 59.333 171.666 89 204.999 89h37c104.667 0 193.667 -67 267 -201c62 -84.667 93 -167.667 93 -249l-12 -65l6 -30c0 -110 -33 -202.667 -99 -278l-7 -24c42.667 -62 71.667 -119 87 -171
c24.667 -34 58 -67.333 100 -100l12 -36c-10.667 -20 -29.334 -30 -56.001 -30c-58 21.333 -111.667 80.666 -161 177.999c-24 74.667 -44.667 112 -62 112c-41.333 -20 -85 -33.667 -131 -41l-56 6h-43c-106 27.333 -170.333 60.666 -193 99.999
c-78.667 94 -118 185 -118 273c-7.33301 0 -11.333 23.667 -12 71zM266.002 494.003c16.667 -127.333 43.667 -212 81 -254c34.667 -63.333 76 -95 124 -95c16 -12 32.333 -18 49 -18h106c11.333 0 32 10 62 30v12l-105 201l-7 24c8.66699 23.333 17 35 25 35h13
c38.667 0 75.667 -47.333 111 -142c22.667 -39.333 37.334 -59 44.001 -59c41.333 44.667 62 108 62 190l-6 47l12 35v24c-15.333 86.667 -36 130 -62 130c0 46 -29 105.333 -87 178l-105 59c-14 0 -24.333 -13.667 -31 -41h-13c-14.667 0 -31.334 7.66699 -50.001 23
c-83.333 0 -149.333 -80.667 -198 -242c-16.667 -62 -25 -107.667 -25 -137z" />
    <glyph glyph-name="r" unicode="r" 
d="M90 753c0 135.333 23.667 203.001 71 203.001l131 28l18 5h12c8 -10 65.667 -21 173 -33c79.333 -18.667 119 -44.334 119 -77.001c0 -17.333 -29.667 -37.333 -89 -60l-18 -17h-24l-12 11v6l42 38v6c0 12 -55.667 24.667 -167 38c-115.333 0 -173 -16.333 -173 -49v-182
c16 -133.333 32 -230.333 48 -291c44 -208 66 -325.333 66 -352c-8 -16.667 -16 -25.667 -24 -27h-24c-32.667 13.333 -58.667 101.333 -78 264c-47.333 172 -71 335 -71 489z" />
    <glyph glyph-name="s" unicode="s" horiz-adv-x="1024" 
d="M225 185c0 25.333 17 40.332 51 44.999h6c29.333 -22 56.666 -49.667 81.999 -83l273 -58c24.667 0 41.667 17 51 51c-32 74.667 -80.667 128 -146 160c-37.333 8.66699 -73.333 32 -108 70c-84.667 95.333 -127 182.666 -127 261.999l-6 38h-6
c14 149.333 30.667 224 50 224c0 32 61.333 66 184 102h64c59.333 -4.66699 124.666 -41 195.999 -109l13 -51v-32c-17.333 -29.333 -42.666 -44 -75.999 -44c-21.333 6 -32 20.667 -32 44l13 39c-32 28 -72.333 49.333 -121 64h-50c-63.333 0 -110 -32 -140 -96l7 -109
v-127c62.667 -117.333 134.334 -189.666 215.001 -216.999c67.333 -39.333 122.333 -107.666 165 -204.999c0 -74 -38 -125 -114 -153h-6c-250 36 -375 68 -375 96c-16 10 -37 39.667 -63 89z" />
    <glyph glyph-name="t" unicode="t" horiz-adv-x="771" 
d="M52 1073l24 20.002h35l94 -34l30 174c16 22 27.667 33 35 33c23.333 0 39 -24.333 47 -73l-24 -160c0 -30 63 -56.667 189 -80c7.33301 -10.667 32.666 -21.667 75.999 -33l6 -34c-7.33301 -26.667 -28.666 -40 -63.999 -40l-201 60h-11v-46l-18 -440
c0 -218 31.333 -327 94 -327c66 0 172 33.333 318 100l24 7c23.333 -9.33301 35 -18.333 35 -27v-13c0 -38.667 -57 -74.334 -171 -107.001c-65.333 -35.333 -136 -53 -212 -53c-74.667 21.333 -112 48 -112 80c-35.333 57.333 -53 152.666 -53 285.999
c0 266 6 450.667 18 554c0 39.333 -45 70.333 -135 93c-16 20 -24 40 -24 60z" />
    <glyph glyph-name="u" unicode="u" horiz-adv-x="974" 
d="M119 399v80.999c26.667 141.333 51 241.333 73 300c0 62.667 19.667 120.334 59 173.001c0 14.667 17.667 34 53 58h33l27 -23v-12c-97.333 -276 -146 -470 -146 -582c0 -87.333 20 -147 60 -179c36.667 -34.667 65.334 -52 86.001 -52
c106.667 41.333 214.667 120 324 236c44 162.667 66 295.667 66 399c22 43.333 39.667 66.333 53 69h20c10.667 0 19.334 -17.333 26.001 -52c0 -92.667 -15.333 -212 -46 -358l-33 -288v-23l-7 -6l7 -6v-46c17.333 -74 39.333 -135.333 66 -184v-23
c0 -8 -13.333 -16 -40 -24c-62.667 0 -104.667 86.667 -126 260v52l14 86h-14c-134.667 -115.333 -240.334 -173 -317.001 -173c-88.667 0 -159.334 55.667 -212.001 167c-17.333 60 -26 110 -26 150z" />
    <glyph glyph-name="v" unicode="v" horiz-adv-x="942" 
d="M98 916c0 38.667 27.3359 72.6641 82.0029 101.997h5c17.333 0 31.666 -14.333 42.999 -43c-14 -122.667 -21 -216 -21 -280c10.667 -129.333 25 -220.666 43 -273.999l93 -253c22 15.333 61.667 78.333 119 189c50.667 81.333 116 201.333 196 360l136 199l27 5
c32.667 -5.33301 49 -19.666 49 -42.999c0 -8 -32.667 -51 -98 -129l-147 -253c-16.667 -50 -83.667 -170 -201 -360c-38.667 -86 -71.334 -129 -98.001 -129c-30.667 0 -50.334 48.333 -59.001 145l-87 231c-32.667 118.667 -49 228 -49 328v22l5 145
c-25.333 8.66699 -38 21.334 -38 38.001z" />
    <glyph glyph-name="w" unicode="w" horiz-adv-x="1266" 
d="M131 863l0.00292969 36c2.66699 24 9 36 19 36h20c38 0 64 -52 78 -156c11.333 -30 24.333 -209.667 39 -539c9.33301 -36 17.666 -54 24.999 -54h13l227 425l26 6c13.333 0 28.666 -14 45.999 -42l-7 -42l7 -257v-24l19 -132h13c73.333 172 168.333 425.667 285 761
c15.333 36 50 74 104 114c26 16 45.333 24 58 24c35.333 0 57 -24 65 -72c-10 -52 -31.667 -78 -65 -78c-17.333 6.66699 -26 18.667 -26 36h-6c-30 0 -90.667 -139.667 -182 -419c-112.667 -324 -190.334 -486 -233.001 -486h-19c-53.333 0 -86 82 -98 246v138h-6
c-14.667 0 -45 -56 -91 -168c-44.667 -96 -88 -144 -130 -144h-19c-58.667 29.333 -93.334 125.333 -104.001 288c-5.33301 335.333 -24.666 503 -57.999 503z" />
    <glyph glyph-name="x" unicode="x" horiz-adv-x="1024" 
d="M45 26l-0.00195312 7c0 87.333 65.333 159.666 196 216.999c82.667 73.333 161.334 150 236.001 230c0 40.667 -69.667 137.334 -209 290.001l-176 197l-7 20c6.66699 18 18 31 34 39c38.667 0 144.334 -105.333 317.001 -316l121 -144h14
c203.333 180.667 320.333 296.667 351 348h33c22.667 -11.333 34 -28.666 34 -51.999v-14c0 -12.667 -123.667 -133 -371 -361v-20c76.667 -100.667 164.334 -199.334 263.001 -296.001v-39c0 -10.667 -18 -21.667 -54 -33c-42.667 8.66699 -89.667 56.667 -141 144
c-90.667 105.333 -140.334 158 -149.001 158c-11.333 0 -65.333 -50.333 -162 -151c-123.333 -94 -193 -168.667 -209 -224l-60 -26h-14c-24 0 -39.667 8.66699 -47 26z" />
    <glyph glyph-name="y" unicode="y" horiz-adv-x="879" 
d="M98 711c0 132.667 29.3311 260.333 87.998 383l8 8h16c32 -3.33301 48 -11 48 -23v-24c0 -38.667 -16 -124.667 -48 -258l-8 -109c18.667 -94 48.334 -141 89.001 -141c12 -25.333 49.333 -51.333 112 -78h48c85.333 58 128 102.333 128 133
c-5.33301 93.333 -18.666 197.333 -39.999 312c0 52.667 21.333 79 64 79c49.333 0 84.333 -122.667 105 -368c0 -109.333 10.667 -164 32 -164c42.667 0 64 -15.667 64 -47l-72 -93l32 -321c-56 -239.333 -98.667 -359 -128 -359l-137 -16c-190 0 -321 130.333 -393 391
c0 62 75 135 225 219c88.667 69.333 182 126.333 280 171v32l-16 15c-60.667 -62 -116.667 -93 -168 -93c-71.333 0 -170.333 62.333 -297 187zM225.998 -0.000976562c54 -161.333 107.667 -242.001 161 -242.001c0 -10 37.333 -17.667 112 -23v-8c69.333 0 104 39 104 117
c22 24.667 38.333 89.667 49 195c-8 166.667 -19 250 -33 250c-33.333 0 -156.333 -78 -369 -234c-16 -19.333 -24 -37.666 -24 -54.999z" />
    <glyph glyph-name="z" unicode="z" horiz-adv-x="816" 
d="M89 68c0 45.333 65.002 177.666 195.002 396.999l6 6l7 17h-7c-50 17.333 -75 38.666 -75 63.999c0 17.333 10.333 29 31 35l107 -35h7c95.333 122.667 170.666 208.334 225.999 257.001l32 18h6v17c0 12 -88 27.667 -264 47l-95 -6c-32.667 0 -62 27.333 -88 82
c8 17.333 16.333 27 25 29h19c11.333 0 36.666 -11.667 75.999 -35l44 6c256 -18.667 388 -50 396 -94l19 -46l-182 -129c0 -11.333 -33.667 -60 -101 -146c0 -6 27.333 -17.667 82 -35c12.667 -14 19 -27.667 19 -41c0 -24.667 -10.667 -42 -32 -52h-6
c-31.333 27.333 -67 41 -107 41c-52 0 -110.667 -76 -176 -228c-17.333 -16 -36.333 -53 -57 -111v-6l13 -11h31l19 6l302 -35h19l38 5c50 -7.33301 75 -20.666 75 -39.999c-21.333 -35.333 -59 -53 -113 -53c-42 15.333 -165.667 29 -371 41h-7l-25 -6
c-28 0 -57.333 13.667 -88 41z" />
    <glyph glyph-name="braceleft" unicode="{" horiz-adv-x="684" 
 />
    <glyph glyph-name="bar" unicode="|" horiz-adv-x="532" 
 />
    <glyph glyph-name="braceright" unicode="}" horiz-adv-x="684" 
 />
    <glyph glyph-name="asciitilde" unicode="~" horiz-adv-x="1196" 
 />
    <glyph glyph-name="uni00A0" unicode="&#xa0;" horiz-adv-x="569" 
 />
    <glyph glyph-name="cent" unicode="&#xa2;" horiz-adv-x="1139" 
 />
    <glyph glyph-name="sterling" unicode="&#xa3;" horiz-adv-x="1139" 
 />
    <glyph glyph-name="yen" unicode="&#xa5;" horiz-adv-x="1139" 
 />
    <glyph glyph-name="dieresis" unicode="&#xa8;" 
 />
    <glyph glyph-name="copyright" unicode="&#xa9;" horiz-adv-x="1509" 
d="M98 774c16.667 14 34.999 96.001 54.999 246.001c78.667 171.333 182.334 285.666 311.001 342.999l192 53h183c244 -31.333 366 -66.666 366 -105.999c140.667 -92.667 211 -224.334 211 -395.001c0 -290 -24.333 -457.333 -73 -502
c-115.333 -140.667 -240.333 -211 -375 -211h-303c-268 81.333 -402 146 -402 194c-104 88.667 -156 170.667 -156 246zM198.999 695.001c0 -82 39.667 -152.331 119 -210.998c0 -48.667 115.667 -110.334 347 -185.001h266c117.333 0 205.666 35 264.999 105
c73.333 47.333 110 132.333 110 255l9 264c0 165.333 -85.333 285.666 -256 360.999l-229 35h-165c-121.333 -20.667 -212.666 -61.667 -273.999 -123c-116 -97.333 -174 -247 -174 -449c-8 0 -14 -17.333 -18 -52zM481.999 818.003l-0.00292969 79
c0 147.333 67.333 247 202 299c0 10 21.333 16 64 18h18c112.667 0 204.334 -50 275.001 -150c42.667 -33.333 64 -71.333 64 -114v-35c0 -41.333 -18.333 -62 -55 -62c-30.667 0 -49 41 -55 123c-71.333 94 -147.666 141 -228.999 141h-36c-98 -46.667 -147 -114 -147 -202
v-124c0 -165.333 52 -253.333 156 -264c0 -9.33301 27.333 -18 82 -26c108 0 175 23.333 201 70l46 18c30.667 -9.33301 46 -27 46 -53c-43.333 -88 -131.666 -132 -264.999 -132h-46c-171.333 42.667 -257 92.667 -257 150c-38 0 -59.333 88 -64 264z" />
    <glyph glyph-name="guillemotleft" unicode="&#xab;" horiz-adv-x="1139" 
 />
    <glyph glyph-name="uni00AD" unicode="&#xad;" 
d="M60 489v36c0 28.667 28 48 84 58l443 24c28 -16 42 -31.667 42 -47c0 -62.667 -35 -94 -105 -94l-429 -24c-21.333 15.333 -33 31 -35 47z" />
    <glyph glyph-name="registered" unicode="&#xae;" horiz-adv-x="1509" 
 />
    <glyph glyph-name="acute" unicode="&#xb4;" 
 />
    <glyph glyph-name="cedilla" unicode="&#xb8;" 
 />
    <glyph glyph-name="guillemotright" unicode="&#xbb;" horiz-adv-x="1139" 
 />
    <glyph glyph-name="circumflex" unicode="&#x2c6;" 
 />
    <glyph glyph-name="ring" unicode="&#x2da;" 
 />
    <glyph glyph-name="tilde" unicode="&#x2dc;" 
 />
    <glyph glyph-name="afii10023" unicode="&#x401;" horiz-adv-x="1367" 
 />
    <glyph glyph-name="afii10051" unicode="&#x402;" horiz-adv-x="1771" 
 />
    <glyph glyph-name="afii10052" unicode="&#x403;" horiz-adv-x="1109" 
 />
    <glyph glyph-name="afii10053" unicode="&#x404;" horiz-adv-x="1472" 
 />
    <glyph glyph-name="afii10054" unicode="&#x405;" horiz-adv-x="1366" 
 />
    <glyph glyph-name="afii10055" unicode="&#x406;" horiz-adv-x="569" 
 />
    <glyph glyph-name="afii10056" unicode="&#x407;" horiz-adv-x="569" 
 />
    <glyph glyph-name="afii10057" unicode="&#x408;" horiz-adv-x="1024" 
 />
    <glyph glyph-name="afii10058" unicode="&#x409;" horiz-adv-x="2165" 
 />
    <glyph glyph-name="afii10059" unicode="&#x40a;" horiz-adv-x="2069" 
 />
    <glyph glyph-name="afii10060" unicode="&#x40b;" horiz-adv-x="1749" 
 />
    <glyph glyph-name="afii10061" unicode="&#x40c;" horiz-adv-x="1193" 
 />
    <glyph glyph-name="afii10062" unicode="&#x40e;" horiz-adv-x="1301" 
 />
    <glyph glyph-name="afii10145" unicode="&#x40f;" horiz-adv-x="1472" 
 />
    <glyph glyph-name="afii10017" unicode="&#x410;" horiz-adv-x="1366" 
d="M164 670c11.333 10.667 33.999 158.667 67.999 444c28.667 14.667 51.334 99 68.001 253l9 9l-9 35c0 92.667 45 139 135 139l39 -17c60 34.667 121.333 55 184 61l29 17c122.667 -62.667 184 -120.667 184 -174c21.333 0 92.333 -171.333 213 -514
c0 -93.333 16 -140 48 -140c41.333 -15.333 64 -29.666 68 -42.999v-18c0 -13.333 -26 -27.666 -78 -42.999v-9l49 -227l-10 -61c0 -60.667 32.333 -156.334 97 -287.001l-39 -35c-96.667 11.333 -154.667 145 -174 401l-39 253v8l-29 9
c-471.333 -46.667 -707 -90.334 -707 -131.001v-113l-9 -9c23.333 -121.333 62 -205.333 116 -252l68 -44c105.333 -4 176.333 -21.333 213 -52v-9c0 -15.333 -26 -27 -78 -35h-38c-160 0 -270 61 -330 183c-24 29.333 -40 163 -48 401zM289.999 722
c69.333 24.667 243.666 51.001 522.999 79.001c64.667 0 119.334 11.667 164.001 35c0 100.667 -48.333 251.667 -145 453c0 34.667 -16 63.667 -48 87c-26 0 -55.333 -23.333 -88 -70h-19c-9.33301 0 -25.333 35 -48 105c-17.333 0 -43.333 14.333 -78 43h-19v-26
c0 -40.667 -6.33301 -61 -19 -61l9 -9v-43l-29 -26l-19 17v44h-29c-38.667 -46.667 -58 -119.334 -58 -218.001c-45.333 -46.667 -68 -84.667 -68 -114zM676.999 1428c6.66699 -17.333 26 -26 58 -26h10v61l-39 17h-10l-19 -17v-35z" />
    <glyph glyph-name="afii10018" unicode="&#x411;" horiz-adv-x="1288" 
d="M131 1267l7.00098 6v7l-7 33c6 98 19.667 147 41 147h6c167.333 -48.667 427 -113 779 -193c40.667 -14.667 61 -41.334 61 -80.001v-7c-6 -15.333 -26.333 -28.666 -61 -39.999c-36 0 -54 17.667 -54 53c-80.667 26.667 -297.334 80 -650.001 160h-27l-14 -13l109 -700
l74 -613l-27 -20h-20c-30 0 -50.333 86.667 -61 260c-42 302 -69.333 459.667 -82 473c-18 0 -27 6.66699 -27 20c1.33301 66.667 6 100 14 100l-7 7v40c0 44.667 -15.667 149 -47 313zM388.001 274v13.001c0 12 20.333 21 61 27l115 -20h156c166.667 0 266 24.333 298 73
c36 44 54 75 54 93v34c0 121.333 -81.333 214.333 -244 279c-58.667 22.667 -117.334 34 -176.001 34l-162 -34c-18 9.33301 -27 22.666 -27 39.999c46.667 44.667 100.667 67 162 67h27c118.667 0 233.667 -35.667 345 -107c104 -85.333 156 -174 156 -266v-53
c0 -53.333 -52 -120 -156 -200c-65.333 -22.667 -139.666 -34 -222.999 -34h-237c-69.333 0 -119 18 -149 54z" />
    <glyph glyph-name="afii10019" unicode="&#x412;" horiz-adv-x="1366" 
d="M30 1323c0 46.667 90.333 91.334 271 134.001h289c84.667 0 178 -39.333 280 -118c60 -76.667 90 -155.334 90 -236.001c-24 -129.333 -45 -200.333 -63 -213c90.667 0 184 -47.333 280 -142c0 -12.667 18 -39 54 -79c48 -98 72 -205.667 72 -323v-8
c0 -76.667 -42 -160.667 -126 -252c-64.667 -15.333 -149 -25.666 -253 -30.999c-99.333 0 -268 47.333 -506 142l-54 7l-9 -23c26 -138 53 -214 81 -228c8 0 14 -15.667 18 -47c-12.667 -37.333 -30.667 -56 -54 -56c-79.333 17.333 -127.333 140.666 -144 369.999
c-48.667 180 -73 324.667 -73 434v23l-9 40l9 47v86c-24 130 -66 258.667 -126 386zM156 1299l27.001 -23.0039l37 16l9 -56l-55 8v-8l46 -94l-9 -8v-8c21.333 -29.333 39.333 -76.666 54 -141.999c18 -20 27 -41 27 -63l-9 -39c19.333 -82 37.333 -134.667 54 -158l-27 -47
l-9 8h-18v-118l54 -236l199 -32l63 8c73.333 -9.33301 178.666 -64.666 315.999 -165.999c162.667 0 244 18.667 244 56c30 60.667 45 107.667 45 141c0 204.667 -57.333 341.334 -172 410.001c-72 42 -144.333 63 -217 63c0 -10.667 -9 -16 -27 -16l-9 -8v-7l9 -71l-45 -16
l-45 16l-144 -48h-109c-30 14 -45 35 -45 63v16c38 94.667 110.333 142 217 142h54l45 -8c60 0 90 21 90 63c0 16.667 15.333 48.334 46 95.001v23c0 142 -21.333 213 -64 213c-80 58 -134 87 -162 87l-136 31c-160 0 -271.333 -23.667 -334 -71v-16z" />
    <glyph glyph-name="afii10020" unicode="&#x413;" horiz-adv-x="1153" 
d="M75 1219c0 99.333 48.332 148.999 144.999 148.999l410 100c260.667 -9.33301 405.334 -39.666 434.001 -90.999v-33l-24 -25c-170 38.667 -301.333 58 -394 58l-338 -75c32 -42.667 48 -75.667 48 -99l-8 -75l81 -241c53.333 -306.667 80 -500 80 -580l8 -8v-9
c-14 -188 -35.333 -282 -64 -282l-8 -8h-8c-14.667 0 -28 13.667 -40 41l24 208c0 113.333 -24.333 298.333 -73 555c0 48.667 -26.667 129 -80 241c-90 0 -151.667 41.333 -185 124zM170.999 1203l89 -108v41l-8 91l24 42v8l-8 9v8c-64.667 -18 -97 -32 -97 -42v-49z" />
    <glyph glyph-name="afii10021" unicode="&#x414;" horiz-adv-x="1479" 
d="M104 -39c0 14.667 27.999 22.001 83.999 22.001c37.333 24 81 107.333 131 250c8.66699 0 15 22 19 66c56 53.333 84 127 84 221v132c0 131.333 -28 281 -84 449v44c0 10 -19 15 -57 15l-28 30v14c0 18 12.667 40 38 66v89c14.667 29.333 39.667 44 75 44h9v37
c62 58.667 139.667 88 233 88h10l102 -15l66 8c234.667 -66 384 -139.667 448 -221c44 -44.667 75.333 -118.334 94 -221.001c30.667 -80 52.334 -163.333 65.001 -250v-37c0 -146 -46.667 -295.667 -140 -449c-173.333 -127.333 -310.333 -191 -411 -191l-150 -7
c-30.667 0 -89.667 17 -177 51c-99.333 -9.33301 -149 -48.333 -149 -117c-50 -118 -106.333 -177 -169 -177c-30.667 0 -61.667 12.333 -93 37v22zM383.999 1396l94.001 -449c24.667 0 37 -90.667 37 -272v-148c0 -110.667 -15.667 -184 -47 -220
c17.333 -12.667 54.666 -22.667 111.999 -30c0 -12.667 46.667 -32.334 140 -59.001c175.333 0 331.333 66.333 468 199c62 132.667 93 245.334 93 338.001c0 134.667 -40.667 299 -122 493c-71.333 68 -177 127 -317 177l-112 -7h-10l-205 14c-41.333 -24 -85 -36 -131 -36
z" />
    <glyph glyph-name="afii10022" unicode="&#x415;" horiz-adv-x="1366" 
d="M135 409c0 168.667 81.001 279.334 243.001 332.001l57 7h65c0 15.333 -28 53 -84 113c-56 90.667 -84 147.334 -84 170.001c0 88.667 31 152.334 93 191.001c125.333 141.333 237.666 212 336.999 212c152 0 252 -49.333 300 -148v-22
c-30.667 -150.667 -90 -226 -178 -226c-81.333 -36 -122 -64.333 -122 -85l-37 -21h-19l-37 28v7c0 54.667 68.667 97.334 206 128.001c40.667 26 68.667 82.333 84 169v22c0 14 -37.333 28 -112 42c-218.667 -39.333 -328 -84 -328 -134
c-56 -44.667 -84 -82.334 -84 -113.001v-43c26.667 -108.667 114 -212.334 262 -311.001c118.667 -42.667 178 -73.334 178 -92.001l-56 -42h-38c-174 56.667 -289.333 85 -346 85c-112.667 -40 -169 -89.667 -169 -149c-10.667 0 -17 -11.667 -19 -35v-42
c0 -142.667 56.333 -227.667 169 -255c84 -32.667 152.667 -51.334 206 -56.001l56 7l384 -29l103 29c36 -10 61 -26.667 75 -50v-21l-131 -92h-47c-18.667 0 -28 21.333 -28 64l-9 7h-94c-304 0 -475.667 21 -515 63c-138 0 -231.667 96.667 -281 290z" />
    <glyph glyph-name="afii10024" unicode="&#x416;" horiz-adv-x="2030" 
d="M86 1349c0 45.333 19.665 68.001 58.998 68.001l58 -9l9 9c162 0 315.333 -104 460 -312c16 0 57.667 -104.333 125 -313c2.66699 -26 11 -39 25 -39h143l8 -10h8l9 10v9l-34 685l34 29h25c38.667 0 58 -176 58 -528l9 -186v-39c0 -14.667 33.333 -34 100 -58h34
c44 0 66 22.667 66 68c0 191.333 75.333 380.333 226 567l101 49h8c46.667 0 77.334 -42.333 92.001 -127c-12 -84.667 -39.667 -127 -83 -127l-26 39v59h-8c-61.333 -30 -120 -111.667 -176 -245l-41 -234l100 9h17c30 0 49.333 -13 58 -39c0 -29.333 -58.333 -62 -175 -98
v-9c46.667 -222 138.667 -333 276 -333c30.667 -19.333 80.667 -32.333 150 -39l42 30h34l33 -40c0 -56.667 -36.333 -89 -109 -97h-17c-176 29.333 -295.667 75 -359 137c-54 52.667 -101.667 153.667 -143 303l-16 19v10c-128.667 -8.66699 -193 -21.667 -193 -39v-245
c0 -12.667 22.333 -22.334 67 -29.001l9 -10v-9c-25.333 -117.333 -53.333 -176 -84 -176h-17c-44.667 0 -67 58.667 -67 176v381c-5.33301 19.333 -22 29 -50 29h-92l8 -98v-234c-28 -182.667 -81 -274 -159 -274c-40.667 -26 -76.667 -39 -108 -39h-109
c-111.333 27.333 -206.333 82.666 -285 165.999v39l34 39h8c16 0 58 -26 126 -78l125 -58h92c112 16.667 168 65.334 168 146.001c10.667 0 16 32.667 16 98v186c0 78 -19.333 117 -58 117h-9c-78.667 0 -153.667 -9.66699 -225 -29c-26 12.667 -40 25.667 -42 39v49
c6 32 92.333 48 259 48v-9l25 9c-37.333 164.667 -109.666 305 -216.999 421c-102 91.333 -230.333 137 -385 137z" />
    <glyph glyph-name="afii10025" unicode="&#x417;" horiz-adv-x="1192" 
d="M113 1319c36 94 87 140.999 153 140.999h153c97.333 0 179 -59 245 -177c27.333 -84 41 -148.667 41 -194c0 -42 -13.667 -98 -41 -168c170.667 -82.667 293 -192 367 -328c27.333 -86.667 41 -166 41 -238c0 -165.333 -61.333 -280.333 -184 -345l-153 -18h-122
c-82 0 -160.333 32.333 -235 97c0 10.667 -47.667 52 -143 124l-10 35c11.333 24 35.333 36 72 36c70 0 131 -47.333 183 -142c26.667 -19.333 67.667 -37 123 -53c197.333 0 296 23.667 296 71c23.333 0 43.666 70.667 60.999 212c0 122 -47.667 231 -143 327l-204 133
l-112 -18h-62c-53.333 0 -90.666 17.667 -111.999 53v36c0 29.333 51 47 153 53h51c41.333 28 62 66.333 62 115c-23.333 194.667 -95 292 -215 292h-92c-22 -11.333 -52.333 -49.666 -91 -114.999h-21c-40.667 12 -61 35.667 -61 71z" />
    <glyph glyph-name="afii10026" unicode="&#x418;" horiz-adv-x="1251" 
d="M146 650l-0.00195312 136.002c0 332 27.667 549.333 83 652c6 45.333 17.333 68 34 68h17c42 0 89 -62 141 -186c0 -28.667 17 -62.667 51 -102l16 -85l-33 -17c-78 58 -117 128.667 -117 212l-8 9c0 16.667 -5.66699 25 -17 25h-8c0 -30 -19.667 -78 -59 -144l-8 -25
l-9 -475c0 -124 53 -203 159 -237l75 -17c200.667 91.333 301 164.666 301 219.999c74 96 121.333 144 142 144l-9 60c46.667 316 105.334 474 176.001 474h8c16.667 0 30.667 -25.333 42 -76v-381l8 -51c-22 -116.667 -41.333 -314.334 -58 -593.001v-9
c0 -23.333 19.333 -48.666 58 -75.999v-17c-26.667 -96 -46 -144 -58 -144h-9c-38.667 0 -58 36.667 -58 110c-9.33301 0 -15 56.667 -17 170v8l59 576l-9 34l9 8v9l-9 8l9 43l-9 34l9 25l-9 76h-8l-67 -254c-25.333 -10.667 -39.333 -22 -42 -34v-8l9 -34
c0 -22.667 -25 -62.334 -75 -119.001c-29.333 -90.667 -143.666 -183.667 -342.999 -279h-92c-68 0 -148.667 48 -242 144z" />
    <glyph glyph-name="afii10027" unicode="&#x419;" horiz-adv-x="1251" 
d="M146 650l-0.00195312 136.002c0 332 27.667 549.333 83 652c6 45.333 17.333 68 34 68h17c42 0 89 -62 141 -186c0 -28.667 17 -62.667 51 -102l16 -85l-33 -17c-78 58 -117 128.667 -117 212l-8 9c0 16.667 -5.66699 25 -17 25h-8c0 -30 -19.667 -78 -59 -144l-8 -25
l-9 -475c0 -124 53 -203 159 -237l75 -17c200.667 91.333 301 164.666 301 219.999c74 96 121.333 144 142 144l-9 60c46.667 316 105.334 474 176.001 474h8c16.667 0 30.667 -25.333 42 -76v-381l8 -51c-22 -116.667 -41.333 -314.334 -58 -593.001v-9
c0 -23.333 19.333 -48.666 58 -75.999v-17c-26.667 -96 -46 -144 -58 -144h-9c-38.667 0 -58 36.667 -58 110c-9.33301 0 -15 56.667 -17 170v8l59 576l-9 34l9 8v9l-9 8l9 43l-9 34l9 25l-9 76h-8l-67 -254c-25.333 -10.667 -39.333 -22 -42 -34v-8l9 -34
c0 -22.667 -25 -62.334 -75 -119.001c-29.333 -90.667 -143.666 -183.667 -342.999 -279h-92c-68 0 -148.667 48 -242 144zM366.998 1745l23 -82l142 -120l195 -37l217 7l90 98l-53 59l-82 -22l-68 -67h-157l-120 30l-97 82l-45 52h-45z" />
    <glyph glyph-name="afii10028" unicode="&#x41a;" horiz-adv-x="1366" 
d="M172 1214c0 184.667 31.332 277 93.999 277c42 0 66.333 -35.667 73 -107l-10 -63l10 -9l-10 -44l31 -509l-21 -330h21c28.667 118 157.334 305.333 386.001 562c220.667 178.667 342.667 268 366 268h42c14.667 0 32 -21 52 -63c0 -83.333 -38.333 -125 -115 -125l-10 9
l10 9v45h-10c-244 -183.333 -369.333 -296.333 -376 -339c-76.667 -76 -115 -132.667 -115 -170c1.33301 -36.667 71 -87.334 209 -152.001c126.667 -112.667 245 -243.667 355 -393v-26c0 -31.333 -10.667 -49.333 -32 -54h-41c-10 0 -34.333 35.667 -73 107
c-125.333 180 -268.333 305 -429 375l-31 45h-42c-122 -298 -198.667 -447 -230 -447h-20l-42 36v27c0 50.667 7 89.334 21 116.001l-11 9l11 134v241l10 36l-10 8l10 134v241z" />
    <glyph glyph-name="afii10029" unicode="&#x41b;" horiz-adv-x="1426" 
d="M82 36l-0.000976562 35.001c0 18 59.333 30 178 36c106 74.667 159 184.667 159 330c-12.667 158.667 -34.334 304.667 -65.001 438c0 123.333 74.667 299 224 527c64 59.333 132.667 89 206 89c68.667 -8.66699 103 -74 103 -196
c37.333 -132.667 62.333 -287.667 75 -465v-401c0 -96 22 -152.667 66 -170c42 0 104.333 35.667 187 107l56 9c16.667 0 32.334 -15 47.001 -45c0 -44 -84.333 -100.333 -253 -169l-37 -9c-106 34 -159 90.333 -159 169l-10 72v384c0 146.667 -31 349 -93 607h-10
c-82 0 -172.333 -128 -271 -384c-12.667 -26 -19 -73.667 -19 -143c24.667 -126.667 43.334 -263.667 56.001 -411c0 -188.667 -59.333 -319.334 -178 -392.001c-35.333 -36 -76 -54 -122 -54h-74c-34 0 -56 12 -66 36z" />
    <glyph glyph-name="afii10030" unicode="&#x41c;" horiz-adv-x="1521" 
d="M367 1356c0 82 22.666 123.001 67.999 123.001h8c26.667 0 44.334 -59 53.001 -177l23 -61l-38 -176v-62l-8 -69l8 -30l-8 -8v-8l8 -7l-15 -192v-76l30 -330h-7l7 -8v-7l-7 -54c0 -26.667 15 -80.334 45 -161.001c0 -30.667 -17.667 -46 -53 -46h-8
c-40 30.667 -62.667 122.667 -68 276l-23 406l15 146c-6 347.333 -16 521 -30 521zM510.999 1364l31.001 76l-8 8v8c10 23.333 20.333 36 31 38h30c64.667 0 107.667 -71.667 129 -215c16 -15.333 31.333 -97 46 -245c45.333 -102.667 68 -174.334 68 -215.001l61 -61
c129.333 98 225.666 202.667 288.999 314c34 32.667 66.667 76.334 98 131.001c32 21.333 65 67.333 99 138h15c21.333 -7.33301 36.666 -20.333 45.999 -39v-7l-84 -1035v-77l46 -46v-15c0 -15.333 -20.333 -25.666 -61 -30.999c-40.667 0 -61 25.667 -61 77v107
c0 107.333 10.333 204.666 31 291.999v84c0 94.667 12.667 253 38 475l-8 8h-7c-23.333 -48 -66.666 -99.333 -129.999 -154v-38c-179.333 -188.667 -293 -283 -341 -283c-46 21.333 -69 52 -69 92c-21.333 14.667 -59.333 109 -114 283c0 140 -27.667 244.667 -83 314h-8
c-4 -25.333 -11.667 -38 -23 -38h-7c-31.333 16 -49.333 34 -54 54z" />
    <glyph glyph-name="afii10031" unicode="&#x41d;" horiz-adv-x="1479" 
d="M262 766v21.001c0 14 34.333 23.333 103 28l26 182l-9 56l9 21c0 34.667 -17.333 65 -52 91v162l-8 147c8.66699 18.667 17.334 28 26.001 28h34c57.333 -33.333 86 -105.666 86 -216.999l-17 -92l26 -105v-7l-9 -7l9 -7v-56l8 -42c-11.333 -20 -20 -73.667 -26 -161h121
l69 -7l94 7h258l52 -7c34 0 51 37.333 51 112l43 294l-8 78l8 28l-25 63v49c11.333 42 25.666 63 42.999 63h17c34 -16.667 51 -37.667 51 -63v-21l9 -225l-43 -266v-70l-9 -7l9 -7l-9 -49v-253l52 -463c-11.333 -26.667 -31.333 -45.334 -60 -56.001
c-10.667 0 -28 11.667 -52 35l9 49c0 72.667 -14.333 189.667 -43 351v224l-26 21h-60l-189 21h-241l-146 -7l-35 -322v-49l9 -253c0 -20 -26 -34 -78 -42c-26 9.33301 -40.333 18.666 -43 27.999l26 70v112l-8 162c11.333 61.333 17 171 17 329l-9 7l-8 -7h-18z" />
    <glyph glyph-name="afii10032" unicode="&#x41e;" horiz-adv-x="1593" 
d="M112 722v7.99902c0 116 34.333 274.333 103 475c0 17.333 26.667 36 80 56c1.33301 29.333 57 61 167 95c92.667 88 164 133 214 135h95c57.333 0 105 -18.667 143 -56l8 8h8c53.333 0 159.333 -105.667 318 -317l127 -309v-135c0 -180.667 -84.667 -355 -254 -523
c-145.333 -106 -251.333 -159 -318 -159l-8 8h-8l-24 -8v8l-8 -8h-47c-92 0 -192.667 26.333 -302 79c-105.333 88.667 -177 202.334 -215 341.001zM247 768.999l8.00098 -39.002v-96c0 -139.333 42.333 -268.666 127 -387.999c101.333 -95.333 196.666 -143 285.999 -143
h119c88 0 196.667 55.667 326 167c88.667 98.667 141.667 204.334 159 317.001c8.66699 0 16.667 42.333 24 127c0 82 -29.333 174.333 -88 277c-26.667 76 -77 150 -151 222c-54.667 84.667 -99.667 127 -135 127h-214l-88 -39c-50.667 0 -95.667 -24 -135 -72h-16l-15 -24
l8 -7v-96l-24 -23l-88 15c-68.667 -124 -103 -232.333 -103 -325z" />
    <glyph glyph-name="afii10033" unicode="&#x41f;" horiz-adv-x="1472" 
d="M67 1119c0 62 79.667 115.334 239 160.001l-8 9v9c0 41.333 17 62 51 62c19.333 -4.66699 36.333 -22.334 51 -53.001c276 100.667 577.667 151 905 151c51.333 -12 77 -38.667 77 -80v-18l-43 -53h-34c-22.667 12 -34 26.667 -34 44h-68
c-279.333 0 -538.333 -47.333 -777 -142c96.667 -338.667 145 -566.667 145 -684l-17 -302v-27c-28.667 -124 -63 -186 -103 -186c-91.333 0 -196.666 59.333 -315.999 178v26c11.333 24 28.666 36 51.999 36l196 -134h51l26 98l17 311c0 116 -48.333 335.333 -145 658h-9
c-94.667 -31.333 -148.667 -55 -162 -71l8 -89v-98c0 -32 -11.333 -52.667 -34 -62c-39.333 0 -59 20.667 -59 62v27zM827 204.001l17 160.001l-8 240c0 198 22.667 411.333 68 640l43 18c28 -8.66699 42 -29.667 42 -63l-51 -382l-9 -195l9 -249l-17 -160l51 -106
c114 20.667 171 53 171 97l26 18c39.333 0 59 -14.667 59 -44c0 -68.667 -34 -113.334 -102 -134.001l-179 -44c-36.667 0 -76.667 68 -120 204z" />
    <glyph glyph-name="afii10034" unicode="&#x420;" horiz-adv-x="1366" 
d="M105 201l0.00195312 17.001c0 72.667 54 114.667 162 126h67l19 -17l-143 -92v-17c0 -65.333 63.667 -104.333 191 -117c0 -12.667 38 -21.334 114 -26.001c25.333 28 38 98 38 210c0 249.333 -25.333 461.666 -76 636.999c0 145.333 -41.333 265.333 -124 360v17l19 50
l-9 75l28 17h19l48 -33h10c0 40 57 65 171 75h19c161.333 0 377.666 -145.333 648.999 -436v-201c-54.667 -124 -137.334 -207.667 -248.001 -251h-162c-89.333 9.33301 -134 48.333 -134 117l38 34h10c56.667 -50.667 101 -76 133 -76h67
c127.333 46.667 191 108.334 191 185.001c12.667 0 19 19.333 19 58v67c0 58 -127 178.333 -381 361c-78 44.667 -141.667 67 -191 67l-143 -51v-8c63.333 -52.667 95 -103 95 -151v-33c0 -43.333 -16 -71.333 -48 -84c0 -54.667 22.333 -191.667 67 -411l29 -318l-10 -8v-9
l10 -25c0 -206.667 -44.667 -310 -134 -310h-19c-222.667 36.667 -334 75.667 -334 117c-38 26.667 -57 54.667 -57 84z" />
    <glyph glyph-name="afii10035" unicode="&#x421;" horiz-adv-x="1479" 
d="M225 417l-0.00195312 139l66 156c0 41.333 83.667 154.333 251 339c182.667 232 327.334 348 434.001 348h44l81 -9l45 26h29c12 0 24.333 -37.667 37 -113c62 0 103.667 -75.333 125 -226c-32.667 -208.667 -57.334 -313 -74.001 -313c-24 0 -80.333 -69.333 -169 -208
l-29 -35c-38 0 -60.333 11.667 -67 35v26c0 36 59 114.333 177 235c33.333 32.667 58 102 74 208v9c0 104 -19.667 156 -59 156c-59.333 0 -120.666 32 -183.999 96h-8c-12.667 0 -93.667 -58 -243 -174c-41.333 0 -132 -92.667 -272 -278c-64 -49.333 -96 -119 -96 -209
c-49.333 -46 -74 -86.333 -74 -121c0 -137.333 54 -236 162 -296c71.333 -46 157.333 -83.333 258 -112h354l36 43h23c14.667 0 26.667 -26 36 -78v-26l-14 -26l-273 -9h-110c-167.333 0 -319.666 66.667 -456.999 200c-19.333 0 -29 17.333 -29 52
c-49.333 62.667 -74 117.667 -74 165z" />
    <glyph glyph-name="afii10036" unicode="&#x422;" horiz-adv-x="1251" 
d="M150 1377c10 58 110.669 92.333 302.002 103c133.333 -8.66699 252 -25.667 356 -51l28 6h20c68.667 -25.333 126 -38 172 -38c64 -36.667 96 -68.667 96 -96v-13c-21.333 -81.333 -51 -122 -89 -122h-14l-20 19c0 12 13.667 35.667 41 71l7 32
c0 28.667 -80.333 52 -241 70c-97.333 21.333 -227.333 40.666 -390 57.999l-117 -19v-7c13.333 0 24.666 -8.33301 33.999 -25v-13c-4.66699 -12.667 -18.334 -19 -41.001 -19h-89c-36.667 2.66699 -55 17.334 -55 44.001zM562.002 102
c18 82.667 29.334 264.333 34.001 545c6 0 10.667 38.333 14 115c-4.66699 135.333 -16.334 274.333 -35.001 417v32c12 81.333 30.333 122 55 122h21c9.33301 0 25.333 -28 48 -84c40.667 -54.667 61 -108 61 -160l-41 -32c-16 14.667 -34.333 55.334 -55 122.001h-6l-7 -7
v-12c18 -92.667 29.333 -225.334 34 -398.001c-14 -96.667 -21 -180 -21 -250v-19l7 -51l-7 -52v-57l7 -77h-7l7 -7v-32l-7 -19l7 -32v-13c0 -106.667 -18.333 -160 -55 -160c-23.333 0 -41.333 36.333 -54 109z" />
    <glyph glyph-name="afii10037" unicode="&#x423;" horiz-adv-x="1366" 
d="M194 1426v7.99805c8.66699 22.667 27.334 34 56.001 34h24l111 -152c25.333 0 166.333 -127 423 -381c44 53.333 99.667 152 167 296c75.333 130 117.666 195 126.999 195h72l32 -34l-24 -59h-8h-8c-18 0 -100.333 -129.667 -247 -389l-48 -76v-26
c54.667 -53.333 84 -92.666 88 -117.999c-12.667 -34 -31.334 -51 -56.001 -51c-12 0 -41 28.333 -87 85c-150 -280.667 -259 -500.667 -327 -660c-46 -56.667 -86 -85 -120 -85h-8c-27.333 0 -43 8.66699 -47 26v25l111 85c68 159.333 179.667 390.333 335 693
c-63.333 82 -222.666 237 -477.999 465c-58.667 50.667 -88 90.334 -88 119.001z" />
    <glyph glyph-name="afii10038" unicode="&#x424;" horiz-adv-x="1557" 
d="M71 929l0.000976562 231.002c36.667 119.333 108 211.333 214 276c69.333 36 126.666 54 171.999 54c119.333 0 195.333 -28.333 228 -85c35.333 56.667 123.666 85 264.999 85h7c176.667 -5.33301 312.334 -77 407.001 -215c66.667 -123.333 100 -228.333 100 -315v-123
c-40 -189.333 -121 -284 -243 -284h-86c-109.333 0 -183 28 -221 84l-57 54h-14l-29 -31c18 -180.667 39.333 -311.334 64 -392.001c0 -48.667 16.667 -120.334 50 -215.001v-23l-21 -23h-22c-41.333 0 -74.666 107.667 -99.999 323c-17.333 0 -34 99.667 -50 299l-178 -38
h-272c-23.333 0 -85 59 -185 177c-14.667 0 -24.334 53.667 -29.001 161zM149.001 944.002c0 -101.333 21.334 -159.999 64.001 -175.999c45.333 -61.333 80.666 -92 105.999 -92h220l184 38c-28.667 188 -43 352 -43 492l8 7v8c-54 118 -106 177 -156 177l-85 7
c-64 0 -144.333 -48.667 -241 -146c0 -16.667 -19 -52.334 -57 -107.001v-208zM758.002 1313l15.001 -115.001l-7 -115l21 -215c12.667 0 34 -15.667 64 -47c15.333 30 31.666 50.667 48.999 62h43l14 -15v-31l-50 -85c61.333 -76.667 132.333 -115 213 -115h92
c74.667 0 129 69.333 163 208v107c0 88 -37.667 193 -113 315c-24 26 -80.667 64.333 -170 115c0 8.66699 -52 16.334 -156 23.001c-118.667 0 -178 -23 -178 -69v-23z" />
    <glyph glyph-name="afii10039" unicode="&#x425;" horiz-adv-x="1670" 
d="M71 1217c10 33.333 34.666 49.9971 73.999 49.9971l584 -469l32 -40c14.667 0 78.334 73 191.001 219l467 529h21c21.333 -5.33301 39 -28.666 53 -69.999c0 -49.333 -42.333 -95.666 -127 -138.999l-478 -579v-30c138 -99.333 258.333 -205.666 361 -318.999
c240.667 -183.333 361 -286.333 361 -309v-10c-14 -30.667 -28 -47.334 -42 -50.001h-11c-30 0 -118.333 69.667 -265 209l-383 310l-106 89l-552 -568h-10l-43 40v30c0 99.333 39 149 117 149c238 246 362 385.667 372 419l-467 389l-11 10h-21
c42 -103.333 63 -169.666 63 -198.999l-31 -30h-22c-84.667 59.333 -127 182.333 -127 369z" />
    <glyph glyph-name="afii10040" unicode="&#x426;" horiz-adv-x="1650" 
d="M79 1060c0 103.333 19.667 264.665 59 483.998l43 20c45.333 -17.333 68 -47.666 68 -90.999c-34.667 0 -60.334 -144.333 -77.001 -433v-10c0 -368 56.667 -603.333 170 -706c30.667 -46.667 87 -70 169 -70c140.667 0 228.334 63.667 263.001 191
c34 38.667 76.333 109.334 127 212.001l-25 433l8 51l-50 191v10l33 41c66.667 0 123.334 -181.667 170.001 -545l-42 -181l8 -172l-8 -221l-9 -10l271 -71c178.667 194.667 280.667 292 306 292c25.333 -12.667 39.333 -26 42 -40v-40
c-28.667 -52.667 -116.334 -153.667 -263.001 -303c62 -36.667 93 -110.334 93 -221.001l17 -181c0 -46.667 -67.667 -90.667 -203 -132h-68l-212 142c-50.667 11.333 -76 41.333 -76 90c0.666992 18 94 122 280 312c-181.333 20.667 -272 44.334 -272 71.001l-8 40l17 242
c-30.667 -34 -73 -108 -127 -222c-94.667 -60 -193.667 -90 -297 -90c-190.667 0 -315 157.667 -373 473c-22.667 179.333 -34 327.333 -34 444zM1029 -237.001v-9l101 -59l102 -34h17c68 7.33301 102 24.333 102 51c0 158.667 -34 238 -102 238z" />
    <glyph glyph-name="afii10041" unicode="&#x427;" horiz-adv-x="952" 
d="M60 1309c53.333 176 117 264 191 264c36.667 -12 55 -35.333 55 -70v-53l-36 -35l-64 9l-46 -132l9 -88v-167c0.666992 -39.333 73.667 -124.333 219 -255l137 -53h18c70 0 130.667 35.333 182 106l-9 149v413c0 41.333 21.333 62 64 62
c66.667 0 118.334 -73.333 155.001 -220l9 -88c0 -97.333 -39.333 -217.333 -118 -360v-202l27 -554l-46 -35h-18c-36.667 0 -55 131.667 -55 395l-9 185v105h-9c-60.667 -34.667 -112.334 -52 -155.001 -52h-54c-94 0 -218.667 85 -374 255
c-42.667 64.667 -64 105.667 -64 123v70zM816 1028h10l18 123l-18 132h-10v-255z" />
    <glyph glyph-name="afii10042" unicode="&#x428;" horiz-adv-x="1723" 
d="M109 883c91.333 402.667 176.002 604 254.002 604c33.333 -10 50 -28 50 -54c-121.333 -266 -182 -443.333 -182 -532l-10 -9v-9c0 -287.333 43.667 -506.666 131 -657.999c0 -78 24 -117 72 -117l10 -9c76 14 174 143.333 294 388c0 134 50.667 410.333 152 829l51 18
c34 -10 51 -28 51 -54c-102 -462 -153 -777.667 -153 -947c48 -102 109 -153 183 -153c12.667 0 60 45 142 135c19.333 0 49.666 24.333 90.999 73v45l102 576c20 0 33.333 33 40 99l-20 163c18 45.333 35 69.333 51 72h10c47.333 -44.667 71 -107.667 71 -189v-82l-81 -459
c-40.667 -60 -61 -126 -61 -198v-109c0 -90 23.667 -135 71 -135l71 -9c45.333 30 79 45 101 45l41 -36v-9c0 -58 -23.667 -94 -71 -108c-202.667 12 -304 42 -304 90l-21 99c-115.333 -114 -196.333 -171 -243 -171c-90.667 0 -175.334 57 -254.001 171v18
c-130 -162 -211 -243 -243 -243l-71 -18c-128.667 0 -193 75 -193 225c-88 101.333 -132 320.666 -132 657.999z" />
    <glyph glyph-name="afii10043" unicode="&#x429;" horiz-adv-x="1589" 
d="M76 582c0 292.667 46.666 596.002 139.999 910.002l43 9c19.333 0 37.333 -15.333 54 -46c-78.667 -362.667 -118 -638.334 -118 -827.001v-36c0 -338.667 68.333 -510.334 205 -515.001l97 -18c78.667 0 118 79.667 118 239c14.667 0 22 113.333 22 340v312l32 413v9
l43 37h33l43 -37v-9l-32 -386v-349c0 -152 -7.33301 -268.333 -22 -349l11 -156v-46c28.667 -42.667 57.334 -64 86.001 -64l76 64l-11 28c122 111.333 183 322.666 183 633.999c16.667 428.667 34.667 643 54 643l11 9h43l43 -37l-11 -138v-46
c-20 -594 -48.667 -891 -86 -891l-21 -55h75c66 0 105.667 -52 119 -156c83.333 24.667 148 37 194 37h11l32 -28v-27c0 -22 -72 -49.667 -216 -83v-36c0 -158 -50.333 -244 -151 -258h-11c-107.333 6.66699 -161 28.334 -161 65.001c12.667 171.333 52 257 118 257
c0 8 25.333 17 76 27l-22 101h-32c-52 0 -109.667 -45.667 -173 -137c-57.333 -42.667 -104 -67.334 -140 -74.001c-76 0 -133.667 33.667 -173 101l-151 -55c-186.667 16.667 -280 47.334 -280 92.001c-100.667 76.667 -151 254 -151 532zM1133 -206.998v-17.999h22
c36 13.333 54 43.666 54 90.999v46c-50.667 0 -76 -39.667 -76 -119z" />
    <glyph glyph-name="afii10044" unicode="&#x42a;" horiz-adv-x="1621" 
 />
    <glyph glyph-name="afii10045" unicode="&#x42b;" horiz-adv-x="1813" 
 />
    <glyph glyph-name="afii10046" unicode="&#x42c;" horiz-adv-x="1344" 
 />
    <glyph glyph-name="afii10047" unicode="&#x42d;" horiz-adv-x="1251" 
d="M85 1414l0.000976562 20.9971c10 27.333 72.333 41 187 41l380 -130c132 -63.333 209.333 -134.333 232 -213c124.667 -169.333 187 -322.666 187 -459.999c79.333 0 119 -25.333 119 -76c0 -18 -10 -31.667 -30 -41c-20.667 0 -40.667 11.333 -60 34h-22v-27
c-18.667 -195.333 -46 -323.666 -82 -384.999c0 -45.333 -64.667 -100 -194 -164l-127 -14c-59.333 0 -146.333 29.667 -261 89c-44.667 0 -119.334 62 -224.001 186c-25.333 0 -45.333 11.333 -60 34v21l30 27h104c20 -7.33301 30 -23.333 30 -48l-7 -7
c0 -22.667 17.333 -34 52 -34l15 -21l-8 -7v-7c0 -18 30 -40.667 90 -68l7 7h15c78 -64 155.333 -96 232 -96c125.333 0 210 64 254 192c14.667 38.667 32 148.334 52 329.001l-754 28l-23 27v28c2.66699 9.33301 15.334 18.333 38.001 27l724 -34l7 7v7
c0 124 -84.333 297.667 -253 521c-128.667 76 -238.334 122 -329.001 138l-142 54l-119 -20c-25.333 0 -45.333 11.333 -60 34z" />
    <glyph glyph-name="afii10048" unicode="&#x42e;" horiz-adv-x="1753" 
d="M82 597c0 39.333 22.333 59 67 59h85l67 -8l19 102l-19 204l9 120c-18.667 84.667 -28 206.667 -28 366l38 25h28c38 0 57 -119 57 -357l10 -51l-10 -111l19 -196l-9 -94h28l257 -8v34c17.333 329.333 39.333 494 66 494c101.333 210 212.333 315 333 315h95
c110.667 -38 243.667 -148.667 399 -332c56.667 -156 85 -309.333 85 -460c-50.667 -353.333 -123.334 -552.333 -218.001 -597c-62 -56.667 -128.667 -85 -200 -85c-104 0 -252.667 93.667 -446 281c-59.333 62.667 -100.666 145 -123.999 247l-228 17
c-50.667 0 -76 -19.667 -76 -59l-114 -613l-38 -9c-31.333 6.66699 -47 29.667 -47 69l104 604c-139.333 0 -209 14.333 -209 43zM804 545c0 -102.667 98.332 -221.669 294.999 -357.002c94.667 -45.333 151.667 -68 171 -68c164.667 50.667 247 161.334 247 332.001
c38 116.667 57 204.667 57 264c-12.667 170.667 -38 304 -76 400c-73.333 94 -174.666 185 -303.999 273h-86c-68 0 -125 -48.333 -171 -145h10l28 -26v-42l-28 -26l-10 9v8c-56.667 -26 -85 -65.667 -85 -119c-18.667 0 -34.667 -136.333 -48 -409h10
c88.667 0 133 -19.667 133 -59c0 -17.333 -19 -34.666 -57 -51.999l-76 17h-10z" />
    <glyph glyph-name="afii10049" unicode="&#x42f;" horiz-adv-x="1364" 
d="M151 225v13.999l24 20l40 -6l8 6c18 97.333 34.333 160.333 49 189c0 99.333 69.667 220.333 209 363v14c-32 40.667 -48 101.334 -48 182.001v56c0 66.667 40.333 173.667 121 321c29.333 84 120.333 126 273 126l89 -7c107.333 -101.333 161 -201.333 161 -300v-49
l16 -14v7l8 7c32.667 158 59.667 237 81 237h16l32 -21l-8 -84l-56 -237v-377l-8 -49l24 -266v-7c0 -190.667 -16.333 -286 -49 -286h-32c-30.667 0 -52 53.667 -64 161l8 41l-8 98l8 252l-24 105l-16 461l-17 77c-32 99.333 -74.667 159.666 -128 180.999h-73
c-128 0 -219.333 -130.333 -274 -391v-63c4.66699 -84 23.667 -126 57 -126c120.667 65.333 193 98 217 98h48c72.667 0 115.667 -51.333 129 -154v-14c0 -47.333 -59 -77.333 -177 -90h-64c-80.667 18.667 -139.667 37.334 -177 56.001
c-32 -18.667 -85.667 -81.667 -161 -189c-64.667 -214.667 -97 -373 -97 -475l16 -49c-7.33301 -23.333 -26 -35 -56 -35h-16c-12.667 0 -39.667 72.333 -81 217zM626 803.999c0 -15.333 35 -24.667 105 -28h88c22 8 33 24.333 33 49c0 14 -24.333 25.667 -73 35h-24
c-34.667 -2 -77.667 -20.667 -129 -56z" />
    <glyph glyph-name="afii10065" unicode="&#x430;" horiz-adv-x="1034" 
d="M82 479v80c0 9.33301 19 39.666 57 90.999l-13 32v11c25.333 12.667 38 73.334 38 182.001c53.333 74.667 93 122.667 119 144h44c16.667 0 90.334 -37.333 221.001 -112l125 -75h13c0 22 16.667 38 50 48c38 0 57 -44.667 57 -134c11.333 -16.667 24 -89.667 38 -219
c16.667 -38.667 25 -72.667 25 -102v-64c0 -60 29.333 -165.333 88 -316v-16c-6 -14.667 -16.333 -25 -31 -31h-19c-28 12 -53.333 63.333 -76 154c-14 0 -30.667 53.667 -50 161l-6 59c-6 0 -23 -37.667 -51 -113c-50 -62.667 -110.667 -119.667 -182 -171
c0 -44 -14.667 -76 -44 -96h-51c-17.333 21.333 -38.333 32 -63 32c-76.667 0 -160.334 112.333 -251.001 337c-25.333 34 -38 73.333 -38 118zM132 602l38.002 -37.998v-10l-6 -22c11.333 -113.333 70 -245.333 176 -396c22.667 -17.333 41.667 -26 57 -26
c33.333 7.33301 96 53.666 188 138.999c61.333 105.333 97 158.666 107 159.999c34 0 51 23.333 51 70c0 44 -17 122.333 -51 235c-112.667 92.667 -234.334 164 -365.001 214h-18l-51 -139l6 -5v-6l-12 -42v-43c0 -24 10.333 -56.333 31 -97v-53l70 -225
c-4.66699 -21.333 -11 -32 -19 -32h-7l-31 43c-32.667 0 -70.334 78.333 -113.001 235c0 28 -8.33301 44 -25 48h-26v-10z" />
    <glyph glyph-name="afii10066" unicode="&#x431;" horiz-adv-x="802" 
d="M0 276l0.000976562 260.999c0 96 14.333 155.333 43 178c24 68.667 62.333 103 115 103l29 5h91l110 -34c0 46 -24 88.667 -72 128c-89.333 96.667 -134 182 -134 256c8 102 22.333 153 43 153c20.667 56 44.667 84 72 84c104 48.667 168 73 192 73
c52 9.33301 171.667 19.333 359 30h29c44.667 0 67 -16.333 67 -49v-54c0 -7.33301 -11.333 -15.666 -34 -24.999c-108.667 13.333 -201 20 -277 20h-115c-56 -26.667 -107.333 -45 -154 -55c0 -6 -25.333 -24 -76 -54c-22.667 -22.667 -34 -40.667 -34 -54v-118
c62 -94 220 -301 474 -621v-89c0 -14 -14.333 -53.333 -43 -118c0 -89.333 -38.333 -152 -115 -188c-11.333 -10 -72 -34.667 -182 -74l-86 -34c-84.667 0 -142.334 19.667 -173.001 59c-38.667 0 -65.667 36.333 -81 109c-9.33301 9.33301 -25.333 45.333 -48 108z
M72.001 541.999l44 127.999c7.33301 0 17 15 29 45h-10c-42 -15.333 -63 -56.666 -63 -123.999v-49zM126.001 314.998c0 -51.333 12.666 -87.334 37.999 -108.001c15.333 -46 31.333 -69 48 -69h29c40 -13.333 91.667 -21.666 155 -24.999l82 59l34 114v118
c-6 161.333 -15.667 242 -29 242c-24.667 25.333 -52 43.333 -82 54c-17.333 24 -49.666 45.333 -96.999 64c-64 0 -96 -13.333 -96 -40c-42 -73.333 -68 -139 -78 -197l-4 -34v-178zM579 536.997l9.99902 -98l-5 -5l10 -64l-5 -89v-59h10
c12.667 50.667 25.334 131 38.001 241c0 34.667 -19.333 67.667 -58 99v-25z" />
    <glyph glyph-name="afii10067" unicode="&#x432;" horiz-adv-x="772" 
d="M0 513c0 229.333 12.002 434.334 36.002 615.001c0 50 18 184 54 402c39.333 100.667 69.333 151 90 151c22.667 38 64.667 57 126 57c60 -53.333 90.333 -84.333 91 -93l36 -124c0 -96.667 -13.667 -176.334 -41 -239.001l-99 -336c-42 -90.667 -73.667 -145 -95 -163
v-5h54c147.333 -22 221 -41 221 -57c83.333 -32.667 133 -62.334 149 -89.001c56.667 -29.333 85 -55.666 85 -78.999c33.333 -72.667 50 -114 50 -124v-106c-32 -72 -74 -134 -126 -186c-74.667 -62 -127.334 -93 -158.001 -93c-62.667 -29.333 -136.334 -44 -221.001 -44
c-102 65.333 -153 105 -153 119c-60 110.667 -93 242 -99 394zM72.002 469.001c33.333 -209.333 68.001 -314 104.001 -314c30 -34.667 61.333 -62.667 94 -84h9c62.667 2 141 25.667 235 71c40 18.667 92.333 71.667 157 159l5 115c0 92 -63 164 -189 216
c-88.667 30 -165.334 45 -230.001 45c-75.333 -8.66699 -113 -20.667 -113 -36c-40 -19.333 -61 -37 -63 -53zM95.0029 730.001l99 44v9c-25.333 0 -43.333 19 -54 57v5l135 318c42 168.667 63 266 63 292v111l-23 75h-9c-40 0 -76 -26.667 -108 -80
c-42 -118 -63 -230 -63 -336c-26.667 -276 -40 -441 -40 -495z" />
    <glyph glyph-name="afii10068" unicode="&#x433;" 
d="M90 753c0 135.333 23.667 203.001 71 203.001l131 28l18 5h12c8 -10 65.667 -21 173 -33c79.333 -18.667 119 -44.334 119 -77.001c0 -17.333 -29.667 -37.333 -89 -60l-18 -17h-24l-12 11v6l42 38v6c0 12 -55.667 24.667 -167 38c-115.333 0 -173 -16.333 -173 -49v-182
c16 -133.333 32 -230.333 48 -291c44 -208 66 -325.333 66 -352c-8 -16.667 -16 -25.667 -24 -27h-24c-32.667 13.333 -58.667 101.333 -78 264c-47.333 172 -71 335 -71 489z" />
    <glyph glyph-name="afii10069" unicode="&#x434;" horiz-adv-x="1086" 
d="M59 602c0 96 42.332 214.336 126.999 355.003c21.333 52.667 63.666 98.334 126.999 137.001h63c40.667 0 117.334 -45.667 230.001 -137c93.333 -60 170 -151 230 -273l39 -96l-31 -54c26 0 39 -20.667 39 -62v-13c-31.333 -72 -47 -129 -47 -171
c5.33301 -32 13 -48 23 -48h16c18.667 14 45.334 21 80.001 21c35.333 -12 56.333 -28 63 -48c0 -18 -45 -43 -135 -75l-8 -7v-7c58.667 -206.667 88 -357 88 -451c0 -50 -32 -91 -96 -123h-63l-269 123c-142.667 37.333 -214 96.666 -214 177.999
c0 67.333 42 128.666 126 183.999c44 51.333 142 110.666 294 177.999v13l-16 14h-24c-31.333 -22.667 -92 -34 -182 -34c-145.333 27.333 -259 72.666 -341 135.999c-58 72 -97.667 158.667 -119 260zM177.999 568.003c42 -127.333 87.001 -191 135.001 -191
c97.333 -50 173.666 -77.333 228.999 -82h8c100 11.333 150.333 31.666 151 60.999l8 21v6c-78 342 -133.667 513 -167 513l-174 109h-16c-24 0 -45 -34 -63 -102c79.333 -52 127 -106.667 143 -164l31 -34v-14l-16 -14c-36.667 23.333 -55 46.333 -55 69l-95 88h-8
c-58 -33.333 -95 -78.666 -111 -135.999c0 -44.667 31.667 -85.667 95 -123l8 -21l-8 -7h-32l-39 28h-8l-8 -7h-8zM432 -148.997c0 -30.667 47.332 -62.667 141.999 -96c140 -68 222 -102 246 -102h16c10.667 0 18.334 16 23.001 48c-31.333 199.333 -63 338 -95 416
c-205.333 -91.333 -316 -180 -332 -266zM779.999 534.003l16 -14v7l-8 34h-8v-27z" />
    <glyph glyph-name="afii10070" unicode="&#x435;" horiz-adv-x="1139" 
d="M105 425v35c13.333 162.667 33.333 244 60 244c86.667 95.333 187 180.666 301 255.999l93 29h7c87.333 0 167.666 -54.333 240.999 -163c31.333 -44.667 47 -75.667 47 -93c0 -158.667 -87 -238 -261 -238h-187c-80.667 0 -121 21 -121 63v12l21 18l66 -6h7l127 11h7
l160 -5c49.333 17.333 74 46.333 74 87c0 45.333 -24.667 103.333 -74 174c-28.667 35.333 -62 53 -100 53c-32 0 -65.333 -19.333 -100 -58c-34 0 -114.333 -70 -241 -210c-13.333 -28.667 -22.333 -75 -27 -139c0 -132 18 -213.667 54 -245c34 -48 94 -81 180 -99
c64.667 -19.333 171.667 -36.666 321 -51.999l94 17h33c98 -18.667 147 -47.667 147 -87v-6c-7.33301 -15.333 -23 -23 -47 -23h-6l-107 29h-34c-31.333 0 -55.666 -4 -72.999 -12c-192.667 16 -324.334 39.333 -395.001 70c-61.333 0 -128 39 -200 117
c-31.333 33.333 -53.666 107 -66.999 221z" />
    <glyph glyph-name="afii10072" unicode="&#x436;" horiz-adv-x="1805" 
d="M75 1089c0 36 17.9961 53.999 53.9961 53.999l53 -7l8 7c148.667 0 289.334 -83.667 422.001 -251c14 0 52 -84.333 114 -253c2.66699 -20.667 10.334 -31 23.001 -31h131l7 -8h7l9 8v7l-31 553l31 23h23c35.333 0 53 -142 53 -426l8 -150v-32
c0 -11.333 30.333 -26.666 91 -45.999h32c40 0 60 18 60 54c0 154.667 69 307.334 207 458.001l92 40h8c42.667 0 70.667 -34.333 84 -103c-11.333 -68 -36.666 -102 -75.999 -102l-24 31v48h-7c-56 -24.667 -109.667 -90.667 -161 -198l-38 -189l92 7h15
c27.333 0 45 -10.333 53 -31c0 -24 -53.333 -50.333 -160 -79v-7c42.667 -179.333 127 -269 253 -269c28 -16 73.667 -26.667 137 -32l39 25h31l30 -33c0 -45.333 -33.333 -71.333 -100 -78h-15c-161.333 24 -271 61 -329 111c-49.333 42 -93 123.333 -131 244l-15 15v9
c-117.333 -7.33301 -176 -18 -176 -32v-198c0 -10 20.333 -17.667 61 -23l8 -8v-7c-23.333 -94.667 -49 -142 -77 -142h-15c-41.333 0 -62 47.333 -62 142v307c-4.66699 15.333 -19.667 23 -45 23h-85l8 -79v-188c-26 -148 -74.667 -222 -146 -222
c-37.333 -20.667 -70.333 -31 -99 -31h-100c-101.333 22 -188 66.667 -260 134v31l31 32h7c14.667 0 53 -21 115 -63l115 -47h84c102.667 13.333 154 52.666 154 117.999c10 0 15 26.333 15 79v150c0 63.333 -18 95 -54 95h-8c-72 0 -140.667 -8 -206 -24
c-24 10 -36.667 20.667 -38 32v39c5.33301 26 84.333 39 237 39v-7l23 7c-34.667 132.667 -101 246 -199 340c-93.333 73.333 -210.666 110 -351.999 110z" />
    <glyph glyph-name="afii10073" unicode="&#x437;" horiz-adv-x="921" 
d="M90 913c28.667 65.333 69.6699 98.001 123.003 98.001h123c78.667 0 144.667 -41 198 -123c22 -58 33 -103 33 -135c0 -28.667 -11 -67.334 -33 -116.001c137.333 -57.333 235.666 -133.333 294.999 -228c22 -60 33 -115 33 -165c0 -114.667 -49.333 -194.667 -148 -240
l-123 -12h-98c-66.667 0 -128.667 20.333 -186 61c-4.66699 1.33301 -44.334 32 -119.001 92l-8 25c9.33301 16.667 28.666 25 57.999 25c56.667 0 106.667 -24 150 -72c28 -16.667 64.333 -31 109 -43c126 6 199.333 22.667 220 50c14.667 -6 30 39 46 135
c6 78.667 -33.333 142.334 -118 191.001l-143 89l-64 6l-86 -3c-40.667 0 -70.667 17 -90 51v25c0 20.667 41 38 123 52l11 22c23.333 4.66699 42.333 24 57 58c-3.33301 125.333 -58.333 175.666 -165 150.999l-36 -15c-8 6.66699 -30 -5 -66 -35l-47 7
c-32.667 8 -49 24.333 -49 49z" />
    <glyph glyph-name="afii10074" unicode="&#x438;" horiz-adv-x="974" 
d="M119 399v80.999c26.667 141.333 51 241.333 73 300c0 62.667 19.667 120.334 59 173.001c0 14.667 17.667 34 53 58h33l27 -23v-12c-97.333 -276 -146 -470 -146 -582c0 -87.333 20 -147 60 -179c36.667 -34.667 65.334 -52 86.001 -52
c106.667 41.333 214.667 120 324 236c44 162.667 66 295.667 66 399c22 43.333 39.667 66.333 53 69h20c10.667 0 19.334 -17.333 26.001 -52c0 -92.667 -15.333 -212 -46 -358l-33 -288v-23l-7 -6l7 -6v-46c17.333 -74 39.333 -135.333 66 -184v-23
c0 -8 -13.333 -16 -40 -24c-62.667 0 -104.667 86.667 -126 260v52l14 86h-14c-134.667 -115.333 -240.334 -173 -317.001 -173c-88.667 0 -159.334 55.667 -212.001 167c-17.333 60 -26 110 -26 150z" />
    <glyph glyph-name="afii10075" unicode="&#x439;" horiz-adv-x="974" 
d="M119 399v80.999c26.667 141.333 51 241.333 73 300c0 62.667 19.667 120.334 59 173.001c0 14.667 17.667 34 53 58h33l27 -23v-12c-97.333 -276 -146 -470 -146 -582c0 -87.333 20 -147 60 -179c36.667 -34.667 65.334 -52 86.001 -52
c106.667 41.333 214.667 120 324 236c44 162.667 66 295.667 66 399c22 43.333 39.667 66.333 53 69h20c10.667 0 19.334 -17.333 26.001 -52c0 -92.667 -15.333 -212 -46 -358l-33 -288v-23l-7 -6l7 -6v-46c17.333 -74 39.333 -135.333 66 -184v-23
c0 -8 -13.333 -16 -40 -24c-62.667 0 -104.667 86.667 -126 260v52l14 86h-14c-134.667 -115.333 -240.334 -173 -317.001 -173c-88.667 0 -159.334 55.667 -212.001 167c-17.333 60 -26 110 -26 150zM397 1177l27 -62l133 -119h187l20 56l-27 31l-73 -6h-87l-60 31l-26 37
l-27 32h-67z" />
    <glyph glyph-name="afii10076" unicode="&#x43a;" horiz-adv-x="896" 
d="M-8 175c34.667 100 51.999 196.001 51.999 288.001l19 361v30l-9 273c6 42.667 15.333 64 28 64c28.667 0 55.667 -33 81 -99c8.66699 0 20 -53 34 -159c-43.333 -150.667 -65.666 -264.334 -66.999 -341.001l5 -15h24c0 48.667 58.667 142.667 176 282
c82 72.667 140.667 109 176 109c55.333 16.667 106 26.667 152 30c32 -16.667 48 -41.667 48 -75l5 -4v-5c-9.33301 -126 -25.333 -189 -48 -189l-38 -29c-25.333 0 -38 14.667 -38 44l47 139v5c-2.66699 10 -12 15 -28 15h-10c-133.333 -33.333 -200 -63 -200 -89
c-88.667 -76 -137.667 -137.333 -147 -184v-25h109l91 10c14 0 58.333 -19.667 133 -59c6.66699 -4.66699 17.667 -57.667 33 -159c-47.333 -156.667 -71 -262.334 -71 -317.001c0 -42.667 25.333 -64 76 -64c58.667 0 119 23 181 69l43 15h5
c19.333 0 36.666 -11.333 51.999 -34v-5c0 -20 -20.667 -41.667 -62 -65c-29.333 -29.333 -92.666 -59 -189.999 -89c-117.333 24.667 -176 49.334 -176 74.001v104c0 68.667 15.667 186 47 352c0 62.667 -27 94 -81 94h-95c-68 -10.667 -125 -23.667 -171 -39
c-38 -109.333 -63.667 -223.333 -77 -342c-10 -26.667 -25.667 -40 -47 -40h-5c-28.667 0 -47.667 23 -57 69z" />
    <glyph glyph-name="afii10077" unicode="&#x43b;" horiz-adv-x="1034" 
d="M7 81l0.000976562 26.999l8 13c123.333 -78.667 213.333 -118 270 -118c42.667 0 67.667 110 75 330v31l-11 156v109c14 118.667 41.667 214.334 83 287.001l98 65c92.667 -9.33301 139 -23.666 139 -42.999c55.333 -44.667 83 -73.667 83 -87l18 -166v-52l-22 -217v-104
c8.66699 -55.333 16 -83 22 -83h12c34 0 71.333 27.667 112 83c16.667 8.66699 30.667 29 42 61l22 8c19.333 0 32 -16 38 -48c-52 -92.667 -86 -139 -102 -139l-97 -43c-30.667 0 -57 17.333 -79 52c-22.667 13.333 -34 30.666 -34 51.999v87
c17.333 155.333 26 288.666 26 399.999v17l4 48c-8.66699 18 -41.334 45.667 -98.001 83l-124 -9c-60 -155.333 -90 -246.666 -90 -273.999l15 -191c0 -158 -12.667 -288.333 -38 -391c-20 -66.667 -42.333 -100 -67 -100c-135.333 31.333 -237 83.333 -305 156z" />
    <glyph glyph-name="afii10078" unicode="&#x43c;" horiz-adv-x="1397" 
d="M60 198l0.000976562 16.0029c32.667 45.333 60.667 68 84 68c85.333 -78 151.666 -125.333 198.999 -142c38 9.33301 57.333 39.333 58 90c25.333 0 44.333 134.667 57 404c18.667 129.333 44.334 228.666 77.001 297.999c0 23.333 31.333 67.333 94 132h30
c52 -28.667 78 -55 78 -79c5.33301 -0.666992 19.333 -42.334 42 -125.001l-1 -6l12 -173l-6 -194c4.66699 -154 13.667 -231 27 -231l26 -11h23c13.333 0 63 38.667 149 116c65.333 107.333 98 175.666 98 204.999l24 120l-12 179c7.33301 31.333 15 47 23 47h12
c26.667 0 47.334 -113.667 62.001 -341l52 -414c23.333 -60 37.666 -90 42.999 -90h30c22.667 20.667 43.334 31 62.001 31h4c16 0 26.333 -6.66699 31 -20c-0.666992 -42.667 -30.334 -72.667 -89.001 -90c0 -6.66699 -7.33301 -10 -22 -10h-4
c-54.667 0 -97.334 73.333 -128.001 220l-25 194c-1.33301 74 -8 111 -20 111h-13c-14.667 -73.333 -69.667 -161 -165 -263c0 -14 -46.667 -43.333 -140 -88h-22c-52 0 -77.333 87.333 -76 262v336v62c-28 115.333 -47.667 173 -59 173l-21 11
c-35.333 0 -74 -75.333 -116 -226c-32 -436.667 -72.333 -664 -121 -682c-19.333 -20.667 -40 -31 -62 -31h-26c-14.667 0 -87 45.333 -217 136l-39 -5h-4z" />
    <glyph glyph-name="afii10079" unicode="&#x43d;" horiz-adv-x="854" 
d="M127 529l0.000976562 14.001c0 9.33301 21.667 15.666 65 18.999l17 125l-6 39l6 14c0 24 -11 45 -33 63v111l-5 101c5.33301 12.667 10.666 19 15.999 19h22c36 -22.667 54 -72.334 54 -149.001l-11 -63l17 -72v-5l-6 -5l6 -5v-38l5 -29c-7.33301 -14 -13 -51 -17 -111
h77l44 -4l59 4h163l33 -4c22 0 33 25.667 33 77l27 201l-5 54l5 19l-16 43v34c7.33301 28.667 16.333 43 27 43h11c21.333 -11.333 32 -25.666 32 -42.999v-14l6 -155l-27 -182v-49l-6 -4l6 -5l-6 -34v-174l33 -318c-7.33301 -18 -20 -30.667 -38 -38
c-6.66699 0 -17.667 8 -33 24l6 34c0 50 -9.33301 130.333 -28 241v154l-16 14h-38l-120 14h-152l-92 -4l-23 -222v-33l6 -174c0 -14 -16.333 -23.667 -49 -29c-16.667 6.66699 -25.667 13 -27 19l16 49v76l-5 112c7.33301 42 11 117.333 11 226l-6 4l-5 -4h-11z
M127.001 873.001v137l65 18l66 -373l-60 -306v-248l-45 -56l-13 286l13 205l19 175zM682.001 20.001l6 81l33 915h58v-143l-6 -125l-13 -168l-7 -124l13 -205l13 -182l-32 -55z" />
    <glyph glyph-name="afii10080" unicode="&#x43e;" horiz-adv-x="802" 
d="M113 346l0.00195312 74.001l5 238h5l-5 5v27c26.667 148 56.334 222 89.001 222c24 46 47 69 69 69c135.333 0 223 -37 263 -111c67.333 -44 121.666 -148 162.999 -312l10 -59c-6.66699 -98 -18.334 -173.667 -35.001 -227
c-58.667 -120 -101.334 -192.333 -128.001 -217c-27.333 -32 -65.333 -48 -114 -48c-69.333 6.66699 -135.333 43.667 -198 111c-38 19.333 -64.333 46 -79 80c-30 69.333 -45 118.666 -45 147.999zM192.002 325.001c14.667 -60 41 -106.002 79 -138.002
c75.333 -65.333 131.666 -100.666 168.999 -105.999c52 16 104.667 86.667 158 212c26.667 88.667 40 155.667 40 201c-27.333 133.333 -68.666 234 -123.999 302c-46 63.333 -89 95 -129 95l-89 16c0 -47.333 -19.667 -89.666 -59 -126.999c-30 -15.333 -45 -130 -45 -344
v-80l5 -21l-5 -5v-5z" />
    <glyph glyph-name="afii10081" unicode="&#x43f;" horiz-adv-x="847" 
d="M91 762c10 36.667 39.3369 55 88.0039 55c8.66699 0 29 -16.333 61 -49h7c39.333 125.333 75.666 188 108.999 188c37.333 36.667 71.333 55 102 55c113.333 0 194.666 -54.667 243.999 -164c18.667 -52.667 34.667 -139.667 48 -261c-27.333 -376 -50 -564 -68 -564
l-7 -6h-27c-16.667 0 -30.334 22.333 -41.001 67l41 491c-16 194 -41 291 -75 291c-19.333 36.667 -46.333 55 -81 55h-21c-54.667 0 -102 -66.667 -142 -200c-36.667 -36 -68.334 -161.333 -95.001 -376c0 -299.333 -18.333 -449 -55 -449h-20c-10 0 -23.667 20.333 -41 61
l7 72v225l-7 67c9.33301 22 14 78.333 14 169v140z" />
    <glyph glyph-name="afii10082" unicode="&#x440;" horiz-adv-x="884" 
d="M91 607l8.00098 242.999c42 94 116.667 141 224 141l77 13c141.333 0 231.666 -42.667 270.999 -128c72.667 -152.667 109 -257 109 -313c10 0 15 -36.333 15 -109v-13c0 -126.667 -54 -212 -162 -256l-55 -6c-59.333 0 -134 17 -224 51
c-22.667 0 -58.667 12.667 -108 38v-13h-8l8 -6l-8 -26c0 -103.333 18 -226.666 54 -369.999c-26.667 -111.333 -55 -167 -85 -167h-23c-15.333 3.33301 -28.333 18.333 -39 45l31 90l-46 358l7 32l-7 51h7zM192.001 613.999c16.667 -145.333 42.333 -218.001 77 -218.001
h77c10.667 -2 21 -12.667 31 -32l-15 -45c95.333 -34 159.666 -51 192.999 -51h31c61.333 0 97.333 68.333 108 205c-30.667 176.667 -82 315.334 -154 416.001c-27.333 16.667 -55.666 25 -84.999 25h-93c-103.333 -16.667 -155 -52.667 -155 -108v-32
c0 -85.333 -5 -128 -15 -128l7 -7z" />
    <glyph glyph-name="afii10083" unicode="&#x441;" horiz-adv-x="1024" 
d="M90 637c40 153.333 103.333 253.668 190 301.001c30 28.667 61.667 43 95 43h13c82.667 -16.667 184.334 -53.667 305.001 -111c44 0 80.333 -20.333 109 -61c0 -69.333 -25 -143 -75 -221c-22.667 0 -34 55.333 -34 166h7c0 21.333 -97 64.333 -291 129h-48
c-112.667 -78 -169 -182.667 -169 -314c111.333 -298.667 206 -456.334 284 -473.001h82l81 -18l7 6h61l197 6c31.333 -12 47 -30.333 47 -55v-6c-14 -24.667 -39 -37 -75 -37l-189 7l-7 -7h-7l-7 7h-7l-6 -7l-34 7c-158.667 0 -251.334 20.333 -278.001 61
c-90 122.667 -171.333 278 -244 466v25z" />
    <glyph glyph-name="afii10084" unicode="&#x442;" horiz-adv-x="1191" 
d="M101 898v11.999c6.66699 20.667 23 31 49 31l85 -49h7c98.667 104.667 157.334 162 176.001 172c16.667 12.667 33 19 49 19c36.667 0 64.667 -51.333 84 -154c8.66699 0 18 -20.667 28 -62l-7 -25c6 -20.667 13.333 -31 22 -31h14l91 216c28 62 58.667 93 92 93
c40.667 -13.333 118 -85.333 232 -216c12.667 -16.667 22 -47.667 28 -93l-7 -55v-19l14 -216v-74l-7 -6l7 -6v-31l28 -266c-10.667 -82 -29.334 -123 -56.001 -123c-42.667 0 -64 14.333 -64 43v25l14 99c-18.667 62 -28 127.667 -28 197v185l-14 118l7 129
c-14 48 -60.667 107.667 -140 179h-7c-33.333 -47.333 -68.666 -133.666 -105.999 -258.999c-26.667 -16 -47.667 -73.667 -63 -173l14 -43l-7 -179v-62c0 -54.667 -16.667 -91.667 -50 -111h-14c-32.667 16.667 -49 43.334 -49 80.001l14 272
c-37.333 248.667 -72.333 392.667 -105 432h-7c-98.667 -98.667 -148 -176.667 -148 -234c9.33301 -48 14 -138.667 14 -272v-136l-7 -25l7 -6c-8.66699 -158 -32 -244.333 -70 -259h-29c-23.333 10.667 -35 27 -35 49l14 136v37
c-18.667 55.333 -37.334 156.333 -56.001 303c0 47.333 18.667 129.666 56 246.999c0 18 -23.333 55 -70 111z" />
    <glyph glyph-name="afii10085" unicode="&#x443;" horiz-adv-x="879" 
d="M98 711c0 132.667 29.3311 260.333 87.998 383l8 8h16c32 -3.33301 48 -11 48 -23v-24c0 -38.667 -16 -124.667 -48 -258l-8 -109c18.667 -94 48.334 -141 89.001 -141c12 -25.333 49.333 -51.333 112 -78h48c85.333 58 128 102.333 128 133
c-5.33301 93.333 -18.666 197.333 -39.999 312c0 52.667 21.333 79 64 79c49.333 0 84.333 -122.667 105 -368c0 -109.333 10.667 -164 32 -164c42.667 0 64 -15.667 64 -47l-72 -93l32 -321c-56 -239.333 -98.667 -359 -128 -359l-137 -16c-190 0 -321 130.333 -393 391
c0 62 75 135 225 219c88.667 69.333 182 126.333 280 171v32l-16 15c-60.667 -62 -116.667 -93 -168 -93c-71.333 0 -170.333 62.333 -297 187zM225.998 -0.000976562c54 -161.333 107.667 -242.001 161 -242.001c0 -10 37.333 -17.667 112 -23v-8c69.333 0 104 39 104 117
c22 24.667 38.333 89.667 49 195c-8 166.667 -19 250 -33 250c-33.333 0 -156.333 -78 -369 -234c-16 -19.333 -24 -37.666 -24 -54.999z" />
    <glyph glyph-name="afii10086" unicode="&#x444;" horiz-adv-x="1100" 
d="M0 708l2.99805 100.997c46.667 90 77.334 135 92.001 135c82 -14.667 169.333 -65.667 262 -153c82.667 -114 127.334 -173 134.001 -177h10l6 7v11l-23 201v42c0 44 31.667 81 95 111c20 4.66699 116 9.33398 288 14.001c80 -38 125 -69.333 135 -94
c45.333 -47.333 68 -85.666 68 -114.999c13.333 -39.333 20 -94.666 20 -165.999c-33.333 -76.667 -53 -118.334 -59 -125.001c-32 -27.333 -50.667 -46 -56 -56l-49 -4h-49l-29 -7c-129.333 40.667 -197 65 -203 73l-7 28c12 12 20.667 18 26 18l138 -35
c111.333 0 174.666 14 189.999 42c15.333 34.667 23 61.334 23 80.001v27c0 80.667 -14.333 133 -43 157c-43.333 55.333 -76 83 -98 83c0 4.66699 -3.33301 7 -10 7l-239 4c-43.333 -8.66699 -65 -32 -65 -70l29 -156v-7c0 -46 -19.667 -131.667 -59 -257
c-6.66699 -71.333 -10 -140 -10 -206v-125c0 -94 -10.667 -148.333 -32 -163h-7c-33.333 0 -51.666 52 -54.999 156c10.667 66 18 163.333 22 292c3.33301 0 6.66602 35 9.99902 105h-13c-7.33301 0 -40 -17.667 -98 -53c-19.333 0 -45.666 -8 -78.999 -24
c-50.667 0 -91 17.333 -121 52c-30.667 0 -79.667 82.333 -147 247zM81.998 752.997c4.66699 -90 12.334 -135.001 23.001 -135.001c35.333 -67.333 65.666 -101 90.999 -101c0 -3.33301 22 -12.666 66 -27.999c76.667 18 136.667 40 180 66v18
c-59.333 79.333 -118.333 152 -177 218c-68.667 42 -106.667 63 -114 63h-14c-21.333 0 -32 -11.667 -32 -35c-6 -8.66699 -13.667 -30.667 -23 -66z" />
    <glyph glyph-name="afii10087" unicode="&#x445;" horiz-adv-x="1024" 
d="M45 26l-0.00195312 7c0 87.333 65.333 159.666 196 216.999c82.667 73.333 161.334 150 236.001 230c0 40.667 -69.667 137.334 -209 290.001l-176 197l-7 20c6.66699 18 18 31 34 39c38.667 0 144.334 -105.333 317.001 -316l121 -144h14
c203.333 180.667 320.333 296.667 351 348h33c22.667 -11.333 34 -28.666 34 -51.999v-14c0 -12.667 -123.667 -133 -371 -361v-20c76.667 -100.667 164.334 -199.334 263.001 -296.001v-39c0 -10.667 -18 -21.667 -54 -33c-42.667 8.66699 -89.667 56.667 -141 144
c-90.667 105.333 -140.334 158 -149.001 158c-11.333 0 -65.333 -50.333 -162 -151c-123.333 -94 -193 -168.667 -209 -224l-60 -26h-14c-24 0 -39.667 8.66699 -47 26z" />
    <glyph glyph-name="afii10088" unicode="&#x446;" horiz-adv-x="1173" 
d="M66 656c0 72.667 13.667 186.33 41 340.997l30 14c31.333 -12 47 -33.333 47 -64l-29 -217l5 -204c1.33301 -178 30.333 -294.667 87 -350c34 -40.667 74.333 -65 121 -73c72 6.66699 128.333 44.334 169 113.001c32 32 62.667 81 92 147l-9 314l-20 102l-16 64l7 12
l23 29c46 0 85.333 -128 118 -384l-29 -127l5 -121l-5 -156l-6 -7l188 -50c124 136.667 195 205 213 205c17.333 -8.66699 27 -18 29 -28v-28c-20 -36.667 -81 -107.667 -183 -213c43.333 -26 65 -78 65 -156l12 -127c0 -32.667 -47.333 -63.667 -142 -93h-47l-147 100
c-35.333 8 -53 29 -53 63c0.666992 12.667 65.667 86 195 220c-126 14.667 -189 31.334 -189 50.001l-6 28l-11 130c-6 2.66699 -27.333 -25.666 -64 -84.999c-66.667 -62.667 -136 -94 -208 -94c-132.667 0 -219 111 -259 333c-16 126 -24 230 -24 312zM727 -257.004
v-6.00098l70 -42l71 -23h11c47.333 4.66699 71 16.334 71 35.001c0 112 -23.667 168 -71 168z" />
    <glyph glyph-name="afii10089" unicode="&#x447;" horiz-adv-x="817" 
d="M38 936c44.667 125.333 97.667 188.001 159 188.001c30 -8.66699 45 -25.334 45 -50.001v-38l-30 -25l-53 6l-38 -94l8 -63v-119c0 -28 60.333 -88.667 181 -182l114 -38h15c58 0 108.333 25.333 151 76l-7 106v295c0 29.333 17.667 44 53 44
c55.333 0 98 -52.333 128 -157l8 -62c0 -70 -32.667 -156 -98 -258v-144l22 -396l-38 -25h-15c-30 -0 -45 94.333 -45 283l-8 131v76h-7c-50.667 -25.333 -93.667 -38 -129 -38h-45c-78 0 -181.333 60.667 -310 182c-35.333 46.667 -53 76 -53 88v50zM666 735.001h8l15 88
l-15 94h-8v-182z" />
    <glyph glyph-name="afii10090" unicode="&#x448;" horiz-adv-x="1464" 
d="M15 281l3.99707 17.9961l-4 99l26 365v154c6 34 20.667 51 44 51c43.333 -12 65 -33.667 65 -65v-84l-4 -136l4 -14c-26 -81.333 -39 -182.666 -39 -303.999c0 -85.333 10 -136.666 30 -153.999c58 -59.333 98.667 -89 122 -89h96c26.667 0 118.334 84 275.001 252
c8.66699 0 17.334 57.667 26.001 173c14.667 73.333 22 128 22 164v42l-13 220c5.33301 40.667 21.333 61 48 61c28.667 0 43 -60.667 43 -182l5 -197l-26 -346c10.667 -72 23.667 -108 39 -108h13c84.667 27.333 151.334 60 200.001 98c134 110 201 177.333 201 202l39 145
v84l-4 215c7.33301 20.667 16 33.334 26 38.001h4c40.667 -12.667 61 -34.667 61 -66c0 -148 23.333 -335 70 -561l61 -230v-14c-6 -34 -20.667 -51 -44 -51c-22 0 -43.667 43.667 -65 131c-17.333 63.333 -32 158.333 -44 285l-13 5l-74 -94
c-106 -111.333 -201.667 -186 -287 -224c0 -12 -38 -29.333 -114 -52h-8c-99.333 0 -149 40.667 -149 122c-153.333 -148 -240.333 -224.333 -261 -229l-26 -5c-102 9.33301 -169 28 -201 56c-62.667 28.667 -101.667 66 -117 112c-14 30.667 -24.333 68.334 -31 113.001z
" />
    <glyph glyph-name="afii10091" unicode="&#x449;" horiz-adv-x="1965" 
d="M82 985c-5.33301 66.667 15.3311 86.334 61.998 59.001c28 -143.333 47 -333.333 57 -570c-1.33301 -50.667 24.667 -85.667 78 -105c62 -40 118.667 -58.667 170 -56c101.333 26.667 152.333 50.334 153 71.001l97 99l8 311l-18 98c13.333 27.333 30.333 41.333 51 42
l20 1c20.667 0.666992 42.334 -79 65.001 -239l-1 -45c-2 -93.333 -14 -172.666 -36 -237.999v-5c35.333 -41.333 73.333 -66 114 -74l81 4c50.667 2 89.667 26.667 117 74c31.333 37.333 47.333 74.333 48 111c17.333 17.333 27 60.666 29 129.999l11 45h5v223l1 44
c0.666992 18 9.33398 31.667 26.001 41h5c36.667 2 54.334 -31.667 53.001 -101l-9 -193l4 -222c14.667 -42.667 53 -62.334 115 -59.001l50 -8l91 4c73.333 4 140.666 -50.333 201.999 -163h5c10.667 0.666992 60 32.667 148 96l51 2c26 1.33301 44.333 -7.66699 55 -27
l-1 -5c-116 -99.333 -192.667 -154 -230 -164c18.667 -57.333 29 -190 31 -398c-2 -80 -42 -138 -120 -174l-132 -41c-120 16.667 -180 33.667 -180 51c-68.667 78.667 -102.667 128.334 -102 149.001l-27 112c63.333 118 105 177.667 125 179
c77.333 59.333 169 109.666 275 150.999l5 20c1.33301 48 -31.334 82.667 -98.001 104l-176 -13c-28 9.33301 -58 26 -90 50l-90 26c-74 -98.667 -139 -154.667 -195 -168c-51.333 -2 -132.666 35.333 -243.999 112c0 8 -8.33301 12.667 -25 14l-112 -64l-147 -52
c-127.333 20 -199 38 -215 54c-67.333 -2.66699 -109 92.666 -125 285.999c-4 0 -15.667 140.333 -35 421zM1334 -170c30.667 -79.333 94.667 -135.334 192 -168.001l25 1c63.333 2.66699 111.333 41 144 115v25c-9.33301 31.333 -14 113.333 -14 246
c-13.333 14 -19.666 32 -18.999 54l-5 4h-5c-64 -13.333 -147.333 -61.666 -250 -144.999c-42.667 -68.667 -65.334 -112.667 -68.001 -132z" />
    <glyph glyph-name="afii10092" unicode="&#x44a;" horiz-adv-x="800" 
d="M-16 980l16.001 64.002c179.333 13.333 268.333 -15 267 -85c-2.66699 -21.333 -12.334 -152 -29.001 -392c110.667 0 178.667 -10.667 204 -32c72 -34.667 117.333 -71.667 136 -111c39.333 -36 59 -71.333 59 -106l9 -86c-36 -92.667 -61.667 -140.334 -77 -143.001
c-72.667 -57.333 -118 -86 -136 -86l-118 -21c-111.333 36 -167 68.667 -167 98c-39.333 44 -59 79.667 -59 107l-14 155c68.667 393.333 99.667 590.666 93 591.999zM179.001 191.002c31.333 -74 81.333 -111 150 -111h36c16.667 0 66.667 27.333 150 82
c20.667 44 31 72.667 31 86v45c-29.333 90 -67 135 -113 135l-199 25l-5 4c-18 0 -27 -38.333 -27 -115z" />
    <glyph glyph-name="afii10093" unicode="&#x44b;" horiz-adv-x="1094" 
d="M169 342c50 392.667 78.667 589.001 86 589.001l50 91l27 8c21.333 0 36.333 -34.333 45 -103c-13.333 0 -28.333 -120 -45 -360c110.667 0 178.667 -10.667 204 -32c72 -34.667 117.333 -71.667 136 -111c39.333 -36 59 -71.333 59 -106l9 -86
c-36 -92.667 -61.667 -140.334 -77 -143.001c-72.667 -57.333 -118 -86 -136 -86l-118 -21c-111.333 36 -167 68.667 -167 98c-39.333 44 -59 79.667 -59 107zM273 191.001c31.333 -74 81.333 -111 150 -111h36c16.667 0 66.667 27.333 150 82c20.667 44 31 72.667 31 86v45
c-29.333 90 -67 135 -113 135l-199 25l-5 4c-18 0 -27 -38.333 -27 -115zM894 980.001c0 66 15.001 99 45.001 99h4c12.667 -2 37 -31.333 73 -88l-5 -192v-110l14 -173c-15.333 -326.667 -27.333 -490 -36 -490c-12.667 -15.333 -23.334 -24 -32.001 -26h-14
c-20.667 0 -35.667 12.333 -45 37l27 648c0 80 -10.333 178.333 -31 295z" />
    <glyph glyph-name="afii10094" unicode="&#x44c;" horiz-adv-x="800" 
d="M75 342c50 392.667 78.667 589.001 86 589.001l50 91l27 8c21.333 0 36.333 -34.333 45 -103c-13.333 0 -28.333 -120 -45 -360c110.667 0 178.667 -10.667 204 -32c72 -34.667 117.333 -71.667 136 -111c39.333 -36 59 -71.333 59 -106l9 -86
c-36 -92.667 -61.667 -140.334 -77 -143.001c-72.667 -57.333 -118 -86 -136 -86l-118 -21c-111.333 36 -167 68.667 -167 98c-39.333 44 -59 79.667 -59 107zM179 191.001c31.333 -74 81.333 -111 150 -111h36c16.667 0 66.667 27.333 150 82c20.667 44 31 72.667 31 86v45
c-29.333 90 -67 135 -113 135l-199 25l-5 4c-18 0 -27 -38.333 -27 -115z" />
    <glyph glyph-name="afii10095" unicode="&#x44d;" horiz-adv-x="861" 
d="M0 998l2 47.999c12.667 39.333 68.667 45 168 17l236 -82c87.333 -57.333 152 -116 194 -176c61.333 -123.333 102.333 -229.333 123 -318c34.667 -8 52 -24.333 52 -49c0 -24 -7 -39.333 -21 -46c-14.667 0 -28.667 8 -42 24l40 -16l-34 -6
c-12.667 -133.333 -30.667 -214.666 -54 -243.999c-16.667 -48 -65 -97.667 -145 -149l-105 -4c-42 2 -107 22 -195 60c-23.333 4 -77 43.667 -161 119l-26 42v15l21 19h73c14 -5.33301 28.333 -22 43 -50l-12 12c10.667 -10.667 17.667 -19 21 -25l38 -35l-33 16l27 -9
c-1.33301 -1.33301 1.33398 -2 8.00098 -2l23 -21l21 -16c84 -36.667 138 -53.667 162 -51c84 3.33301 140 45 168 125c15.333 23.333 29.666 93.333 42.999 210l-523 16l-18 38v20c2 6.66699 11 13 27 19l507 -24l5 5l-6 -11c4 98 -58 221.333 -186 370
c-80 62.667 -152 99.667 -216 111l-103 20l-80 4c-16.667 1.33301 -30.667 9.33301 -42 24z" />
    <glyph glyph-name="afii10096" unicode="&#x44e;" horiz-adv-x="1348" 
d="M52 883l0.000976562 4.00098l17 18h16c36.667 -17.333 55 -62 55 -134l16 -390c24.667 25.333 87.334 50.666 188.001 75.999c100 0 150 10.333 150 31l46 45l-4 72c0 81.333 15.333 150 46 206c0 38 54.333 102.333 163 193h66c89.333 -25.333 164.666 -79 225.999 -161
c130.667 -174.667 196 -281 196 -319l25 -116c-11.333 -14.667 -22.333 -52 -33 -112c-78 -98 -128.333 -147.333 -151 -148c-46.667 -27.333 -117.334 -51.333 -212.001 -72c-106 23.333 -159 44.333 -159 63l-109 94l-58 152c-250.667 -25.333 -376 -64 -376 -116
l-20 -242c-14 -48 -30.667 -72 -50 -72c-16.667 22 -25 40 -25 54v103l20 197zM636.001 462.001c11.333 -71.333 26.667 -122.332 46 -152.999c0 -16.667 40.333 -52.334 121 -107.001l159 -9c48.667 16 109.667 66.667 183 152c20 30.667 30 50 30 58v27
c0 101.333 -74 236 -222 404l-96 62c-81.333 0 -134 -22.333 -158 -67c-9.33301 0 -29 -21 -59 -63l-4 -197v-54l4 -40z" />
    <glyph glyph-name="afii10097" unicode="&#x44f;" horiz-adv-x="884" 
d="M-44 21l0.00195312 12.998c4.66699 11.333 15 17 31 17h104c75.333 16 175.666 77 300.999 183c144 181.333 216 291 216 329c4.66699 0 16.667 28.333 36 85v30l-4 30h-5c-23.333 0 -89.333 -39.667 -198 -119c-54.667 -34.667 -114.667 -52 -180 -52
c-114 22.667 -171 51.334 -171 86.001l-13 51c21.333 110.667 42.333 166 63 166c44 74 95 121 153 141c58 40 127 60 207 60c38.667 0 94 -24.333 166 -73c30.667 -45.333 48.667 -68 54 -68l36 4c16 0 28 -7 36 -21v-4l-49 -90v-13l-5 -153c51.333 -356 89 -581 113 -675
c7.33301 0 14.666 -25.667 21.999 -77c-18 -14 -37.333 -21 -58 -21c-26 0 -42.667 37 -50 111c-36 140.667 -61.333 314.334 -76 521.001h-18c-8 -4 -42.667 -54 -104 -150c-56.667 -82 -115 -147.333 -175 -196c-144.667 -110.667 -240.667 -166 -288 -166l-54 -5
c-20 0 -50 18.667 -90 56zM158.002 652.998c8.66699 -26 28.333 -39 59 -39l63 -4c68.667 8.66699 122.667 27 162 55c0 7.33301 16.333 16 49 26c8.66699 20.667 34.334 40.667 77.001 60c36 50 54 81.333 54 94v25c-18.667 65.333 -83.334 98 -194.001 98h-4
c-66.667 0 -135.667 -45.333 -207 -136c-28 -30.667 -46 -79 -54 -145z" />
    <glyph glyph-name="afii10071" unicode="&#x451;" horiz-adv-x="1139" 
 />
    <glyph glyph-name="afii10099" unicode="&#x452;" horiz-adv-x="1139" 
 />
    <glyph glyph-name="afii10100" unicode="&#x453;" horiz-adv-x="747" 
 />
    <glyph glyph-name="afii10101" unicode="&#x454;" horiz-adv-x="1045" 
 />
    <glyph glyph-name="afii10102" unicode="&#x455;" horiz-adv-x="1024" 
 />
    <glyph glyph-name="afii10103" unicode="&#x456;" horiz-adv-x="455" 
 />
    <glyph glyph-name="afii10104" unicode="&#x457;" horiz-adv-x="569" 
 />
    <glyph glyph-name="afii10105" unicode="&#x458;" horiz-adv-x="455" 
 />
    <glyph glyph-name="afii10106" unicode="&#x459;" horiz-adv-x="1856" 
 />
    <glyph glyph-name="afii10107" unicode="&#x45a;" horiz-adv-x="1664" 
 />
    <glyph glyph-name="afii10108" unicode="&#x45b;" horiz-adv-x="1139" 
 />
    <glyph glyph-name="afii10109" unicode="&#x45c;" horiz-adv-x="896" 
 />
    <glyph glyph-name="afii10110" unicode="&#x45e;" horiz-adv-x="1024" 
 />
    <glyph glyph-name="afii10193" unicode="&#x45f;" horiz-adv-x="1131" 
 />
    <glyph glyph-name="afii10050" unicode="&#x490;" horiz-adv-x="1001" 
 />
    <glyph glyph-name="afii10098" unicode="&#x491;" horiz-adv-x="842" 
 />
    <glyph glyph-name="uni2000" unicode="&#x2000;" horiz-adv-x="884" 
 />
    <glyph glyph-name="uni2001" unicode="&#x2001;" horiz-adv-x="1768" 
 />
    <glyph glyph-name="uni2002" unicode="&#x2002;" horiz-adv-x="884" 
 />
    <glyph glyph-name="uni2003" unicode="&#x2003;" horiz-adv-x="1768" 
 />
    <glyph glyph-name="uni2004" unicode="&#x2004;" horiz-adv-x="589" 
 />
    <glyph glyph-name="uni2005" unicode="&#x2005;" horiz-adv-x="442" 
 />
    <glyph glyph-name="uni2006" unicode="&#x2006;" horiz-adv-x="294" 
 />
    <glyph glyph-name="uni2007" unicode="&#x2007;" horiz-adv-x="294" 
 />
    <glyph glyph-name="uni2008" unicode="&#x2008;" horiz-adv-x="221" 
 />
    <glyph glyph-name="uni2009" unicode="&#x2009;" horiz-adv-x="353" 
 />
    <glyph glyph-name="uni200A" unicode="&#x200a;" horiz-adv-x="98" 
 />
    <glyph glyph-name="uni2010" unicode="&#x2010;" 
d="M60 489v36c0 28.667 28 48 84 58l443 24c28 -16 42 -31.667 42 -47c0 -62.667 -35 -94 -105 -94l-429 -24c-21.333 15.333 -33 31 -35 47z" />
    <glyph glyph-name="uni2011" unicode="&#x2011;" 
d="M60 489v36c0 28.667 28 48 84 58l443 24c28 -16 42 -31.667 42 -47c0 -62.667 -35 -94 -105 -94l-429 -24c-21.333 15.333 -33 31 -35 47z" />
    <glyph glyph-name="figuredash" unicode="&#x2012;" 
d="M60 489v36c0 28.667 28 48 84 58l443 24c28 -16 42 -31.667 42 -47c0 -62.667 -35 -94 -105 -94l-429 -24c-21.333 15.333 -33 31 -35 47z" />
    <glyph glyph-name="endash" unicode="&#x2013;" horiz-adv-x="1139" 
d="M97 439l-0.000976562 31c0 28 25 45.667 75 53c108.667 0 223.334 10.333 344.001 31l103 -21h378c34.667 0 52 -24.333 52 -73c-6 -28 -19.333 -42 -40 -42h-224l-350 -11l-5 11l-29 -11l-275 -10c-17.333 13.333 -27 27.333 -29 42z" />
    <glyph glyph-name="emdash" unicode="&#x2014;" horiz-adv-x="2048" 
 />
    <glyph glyph-name="quoteleft" unicode="&#x2018;" horiz-adv-x="455" 
 />
    <glyph glyph-name="quoteright" unicode="&#x2019;" horiz-adv-x="455" 
 />
    <glyph glyph-name="quotesinglbase" unicode="&#x201a;" horiz-adv-x="455" 
 />
    <glyph glyph-name="quotedblleft" unicode="&#x201c;" 
d="M127 995v5c0 23.333 17.333 42.333 52 57c16 164.667 33 247 51 247h29c15.333 -6 23 -19 23 -39v-163l11 -51v-6l-6 -5c11.333 0 19 -9.33301 23 -28c0 -75.333 -30.333 -113 -91 -113h-40c-34.667 33.333 -52 65.333 -52 96zM385 967l5 39.002
c34.667 39.333 52 65.666 52 78.999v11l-6 62l6 73v90c0 20.667 9.33301 35.667 28 45h18l28 -23c0 -150.667 15.333 -257.334 46 -320.001c0 -26.667 -3.66699 -40 -11 -40c0 -56 -36.333 -84 -109 -84c-27.333 21.333 -46.333 44 -57 68z" />
    <glyph glyph-name="quotedblright" unicode="&#x201d;" 
d="M127 1265v5c0 30.667 17.333 62.667 52 96h40c60.667 0 91 -37.667 91 -113c-4 -18.667 -11.667 -28 -23 -28l6 -5v-6l-11 -51v-163c0 -20 -7.66699 -33 -23 -39h-29c-18 0 -35 82.333 -51 247c-34.667 14.667 -52 33.667 -52 57zM385 1298
c10.667 24 29.667 46.6689 57 68.002c72.667 0 109 -28 109 -84c7.33301 0 11 -13.333 11 -40c-30.667 -62.667 -46 -169.334 -46 -320.001l-28 -23h-18c-18.667 9.33301 -28 24.333 -28 45v90l-6 73l6 62v11c0 13.333 -17.333 39.666 -52 78.999z" />
    <glyph glyph-name="quotedblbase" unicode="&#x201e;" 
 />
    <glyph glyph-name="bullet" unicode="&#x2022;" horiz-adv-x="717" 
 />
    <glyph glyph-name="ellipsis" unicode="&#x2026;" horiz-adv-x="2048" 
 />
    <glyph glyph-name="uni202F" unicode="&#x202f;" horiz-adv-x="353" 
 />
    <glyph glyph-name="guilsinglleft" unicode="&#x2039;" 
 />
    <glyph glyph-name="guilsinglright" unicode="&#x203a;" 
 />
    <glyph glyph-name="uni205F" unicode="&#x205f;" horiz-adv-x="442" 
 />
    <glyph glyph-name="Euro" unicode="&#x20ac;" horiz-adv-x="1139" 
 />
    <glyph glyph-name="trademark" unicode="&#x2122;" horiz-adv-x="2048" 
 />
    <glyph glyph-name="uniE000" unicode="&#xe000;" horiz-adv-x="1025" 
d="M0 0v1025h1025v-1025h-1025z" />
  </font>
</defs>
</svg>
