<svg width="110" height="146" viewBox="0 0 110 146" fill="none" xmlns="http://www.w3.org/2000/svg">
<path fill-rule="evenodd" clip-rule="evenodd" d="M1 0H109V145.104H1V0ZM54.7176 4.74543C71.1353 4.74543 87.5529 4.7464 103.97 4.73762C104.276 4.7375 104.321 4.83567 104.321 5.10601C104.315 27.9104 104.315 50.7147 104.315 73.519C104.315 83.5141 104.313 93.5092 104.324 103.504C104.325 103.86 104.239 103.938 103.887 103.938C71.0635 103.929 38.2405 103.929 5.41755 103.935C5.15447 103.935 5.01948 103.892 5.07071 103.603C5.08131 103.544 5.07229 103.481 5.07229 103.42C5.07216 70.657 5.07271 37.8941 5.06338 5.13121C5.06332 4.7983 5.15471 4.73998 5.46479 4.7401C21.8824 4.74791 38.3 4.74694 54.7176 4.74694V4.74543ZM104.875 112.961C104.875 113.543 104.875 114.057 104.875 114.57C104.874 122.961 104.875 131.352 104.873 139.743C104.873 140.317 104.929 140.231 104.389 140.231C100.842 140.233 97.2947 140.228 93.7476 140.239C93.4245 140.24 93.3182 140.174 93.3196 139.824C93.334 136.473 93.3274 133.121 93.3269 129.77C93.3268 129.648 93.3269 129.527 93.3269 129.35C92.8953 129.489 92.497 129.616 92.1 129.747C90.6875 130.211 89.2738 130.672 87.8649 131.147C87.6153 131.231 87.5304 131.219 87.5311 130.922C87.5393 127.583 87.5382 124.243 87.5291 120.904C87.5286 120.676 87.6214 120.59 87.8105 120.507C91.3363 118.951 94.8592 117.389 98.3826 115.828C100.389 114.939 102.395 114.049 104.402 113.16C104.544 113.097 104.688 113.04 104.875 112.961ZM75.9023 127.628C75.9022 126.454 75.9094 125.279 75.8963 124.105C75.8936 123.854 75.9538 123.776 76.2162 123.777C78.5892 123.788 80.9623 123.786 83.3353 123.779C83.5508 123.778 83.6313 123.819 83.6304 124.057C83.6214 126.454 83.6227 128.852 83.6288 131.25C83.6293 131.453 83.5797 131.517 83.3657 131.517C80.9683 131.509 78.5706 131.509 76.1731 131.519C75.9318 131.52 75.8962 131.437 75.8979 131.224C75.9074 130.026 75.9025 128.827 75.9023 127.628ZM54.2175 140.548C51.0894 140.44 48.4377 140.343 45.7855 140.266C45.424 140.255 45.2978 140.171 45.3013 139.777C45.3231 137.417 45.3198 135.056 45.3051 132.695C45.3033 132.388 45.4066 132.344 45.6756 132.345C49.8097 132.364 53.9438 132.374 58.0778 132.384C58.2972 132.384 58.5195 132.379 58.7353 132.344C58.9159 132.315 59.0615 132.181 59.064 131.998C59.0667 131.796 58.9152 131.667 58.7182 131.63C58.5753 131.604 58.426 131.607 58.2796 131.607C56.3226 131.608 54.3675 131.578 52.4301 131.255C50.9417 131.006 49.4982 130.615 48.1604 129.895C46.0304 128.75 44.6935 127.017 44.2436 124.619C43.8441 122.49 44.0881 120.482 45.344 118.666C46.365 117.189 47.7529 116.151 49.3673 115.408C51.219 114.555 53.1714 114.102 55.2091 114.071C56.9206 114.046 58.6347 114.027 60.3447 114.087C63.1167 114.185 65.8862 114.352 68.6568 114.489C69.3895 114.525 70.122 114.571 70.8552 114.59C71.0787 114.596 71.1412 114.656 71.1405 114.882C71.1322 117.328 71.1292 119.775 71.1432 122.221C71.1449 122.524 71.0051 122.513 70.7917 122.512C66.5722 122.493 62.3527 122.479 58.1332 122.466C57.9763 122.466 57.8146 122.483 57.6634 122.523C57.5155 122.562 57.4069 122.67 57.3934 122.835C57.3793 123.007 57.4879 123.105 57.627 123.173C57.7728 123.245 57.9311 123.251 58.0911 123.258C60.2892 123.355 62.4839 123.496 64.6488 123.916C66.1993 124.217 67.7138 124.631 69.0898 125.445C70.6503 126.367 71.6851 127.687 72.0894 129.464C72.5298 131.401 72.5673 133.316 71.6703 135.155C70.8448 136.848 69.5032 138.028 67.8694 138.896C65.4142 140.2 62.7589 140.648 60.0129 140.638C57.9223 140.63 55.8318 140.574 54.2175 140.548ZM24.3179 126.128C25.6227 122.321 26.8911 118.631 28.146 114.936C28.2378 114.666 28.361 114.596 28.6366 114.597C33.2854 114.607 37.9342 114.607 42.583 114.596C42.8976 114.596 42.9945 114.661 42.9942 114.993C42.9851 123.275 42.986 131.558 42.9959 139.84C42.9962 140.168 42.9026 140.241 42.5842 140.24C38.9508 140.228 35.3173 140.229 31.6839 140.243C31.3676 140.244 31.3049 140.148 31.3059 139.852C31.3169 136.451 31.3141 133.05 31.3149 129.649C31.315 129.468 31.3149 129.287 31.2384 129.093C31.0085 129.773 30.7764 130.453 30.5491 131.134C29.5729 134.059 28.5938 136.984 27.63 139.913C27.5447 140.172 27.4329 140.241 27.1694 140.239C25.2855 140.226 23.4013 140.226 21.5175 140.239C21.2405 140.241 21.1127 140.166 21.0233 139.896C19.9244 136.575 18.8128 133.258 17.7042 129.94C17.6049 129.643 17.5037 129.346 17.3343 129.051C17.3343 129.186 17.3343 129.321 17.3343 129.456C17.335 132.93 17.3321 136.405 17.3433 139.879C17.3442 140.166 17.2736 140.24 16.9848 140.239C13.3146 140.228 9.64445 140.229 5.97435 140.238C5.71806 140.239 5.65265 140.177 5.65283 139.92C5.65998 131.589 5.6607 123.257 5.65132 114.926C5.65101 114.629 5.75336 114.598 6.00621 114.598C10.6795 114.605 15.3528 114.606 20.0261 114.595C20.3013 114.595 20.4013 114.695 20.4833 114.936C21.5086 117.948 22.5435 120.957 23.5759 123.966C23.8121 124.654 24.0483 125.343 24.3179 126.128Z" fill="white" stroke="white" stroke-width="0.2" stroke-miterlimit="22.9256"/>
<path d="M88.9418 70.3711C90.1898 70.4255 91.3863 70.4574 92.5791 70.5403C93.0143 70.5705 93.346 70.4641 93.6782 70.1924C94.3385 69.6526 95.0265 69.1466 95.7765 68.5703C95.3178 68.5408 94.9379 68.5111 94.5574 68.493C92.2488 68.3834 89.9404 68.2713 87.6314 68.1745C87.2603 68.1589 86.9363 68.0617 86.6525 67.8335C85.9157 67.2411 85.1159 67.0366 84.1471 67.1405C82.5082 67.3161 80.8538 67.3485 79.2059 67.44C79.1128 67.4452 79.0191 67.4407 78.9135 67.3987C79.8382 67.1035 80.7628 66.8076 81.688 66.5135C81.9314 66.4361 82.1877 66.389 82.4193 66.2857C83.3221 65.8826 84.2663 65.9138 85.2229 65.9534C86.7381 66.0159 88.2549 66.0386 89.7709 66.0809C89.9 66.0845 90.0002 66.0562 90.0978 65.9609C90.8933 65.184 91.6942 64.4128 92.4977 63.636C92.3975 63.5065 92.2653 63.5664 92.1552 63.56C89.592 63.4092 87.0286 63.2639 84.4653 63.1148C84.2918 63.1046 84.1264 63.1137 83.9611 63.1744C80.4024 64.4811 76.8431 65.7858 73.2839 67.0911C73.241 67.1069 73.1986 67.1243 73.1003 67.1625C73.2406 67.2602 73.3441 67.334 73.4492 67.4054C76.9255 69.7665 80.3791 72.1617 83.8865 74.4755C86.0138 75.8789 86.3363 79.3353 84.6424 80.9785C84.0735 81.5306 83.3628 81.8715 82.6705 82.2275C81.5527 82.8025 80.4162 83.3414 79.2868 83.8938C79.167 83.9523 79.044 84.0165 78.8508 83.929C79.8272 82.814 80.877 81.7837 81.8122 80.5539C78.3628 80.1236 74.968 79.7001 71.5734 79.2765C71.5725 79.2596 71.5716 79.2426 71.5707 79.2255C72.3405 79.1243 73.1101 79.0223 73.8799 78.9218C76.7021 78.5533 79.5242 78.1837 82.347 77.819C82.7768 77.7635 82.7448 77.3773 82.8575 77.1113C82.956 76.8789 82.8155 76.6856 82.5998 76.5687C82.0669 76.2798 81.4744 76.2404 80.892 76.2153C78.7538 76.1228 76.6146 76.0549 74.4758 75.9785C71.2978 75.8652 68.1198 75.7518 64.9418 75.6396C63.5973 75.5922 62.2529 75.5408 60.908 75.508C60.6348 75.5014 60.5067 75.4012 60.4115 75.1486C59.6435 73.1093 58.7644 71.1249 57.488 69.34C56.5745 68.0628 55.526 66.9044 54.4151 65.7993C54.3231 65.7077 54.2235 65.6237 54.0767 65.49C54.5363 65.49 54.909 65.4782 55.2809 65.4918C60.5847 65.6859 65.8885 65.8835 71.1923 66.0802C71.8265 66.1037 72.3663 65.7816 72.9356 65.5834C76.7124 64.2695 80.4835 62.9395 84.2559 61.613C84.455 61.543 84.6541 61.5148 84.866 61.5255C88.2854 61.6975 91.7049 61.8682 95.1249 62.0293C95.3569 62.0403 95.3924 62.1241 95.4119 62.3335C95.4581 62.8283 95.3204 63.1886 94.9207 63.5282C94.0457 64.2717 93.2228 65.0767 92.3816 65.86C92.2956 65.94 92.1765 65.9957 92.1361 66.1528C92.8558 66.2404 93.563 66.3621 94.2479 66.585C95.8554 67.1083 97.2727 67.9415 98.4628 69.1529C98.6202 69.3132 98.6465 69.4233 98.5092 69.6101C98.3069 69.8849 98.142 70.1868 97.9535 70.472C97.8269 70.6634 97.8038 70.7644 98.0984 70.7524C98.5503 70.7341 99.0038 70.7556 99.456 70.7421C99.6397 70.7366 99.7456 70.8057 99.8389 70.9552C100.383 71.8276 100.841 72.7418 101.225 73.6951C101.3 73.8797 101.264 74.0145 101.164 74.1697C100.846 74.6584 100.539 75.1544 100.192 75.7049C100.701 75.7049 101.147 75.7151 101.593 75.7006C101.81 75.6937 101.916 75.7518 101.974 75.9785C102.258 77.1066 102.451 78.248 102.543 79.4075C102.561 79.6243 102.519 79.8066 102.398 79.9919C102.045 80.5313 101.711 81.0821 101.336 81.6805C101.686 81.6999 101.983 81.7249 102.28 81.73C102.48 81.7335 102.554 81.7992 102.539 82.0134C102.469 82.9888 102.379 83.9617 102.239 84.9299C102.211 85.1277 102.13 85.2937 101.997 85.4492C101.541 85.983 101.097 86.5278 100.583 87.1475C100.967 87.1475 101.255 87.1507 101.543 87.1463C101.708 87.1438 101.745 87.1838 101.697 87.3617C101.491 88.1283 101.296 88.9142 100.899 89.5918C100.533 90.2164 99.9932 90.7391 99.5297 91.3065C99.4841 91.3622 99.4376 91.417 99.357 91.5137C99.553 91.5315 99.7097 91.5458 99.8991 91.563C99.3212 92.5425 98.6206 93.3817 97.7942 94.1154C96.4883 95.2751 95.0014 96.0887 93.2577 96.3412C92.4717 96.455 91.6701 96.3589 90.8756 96.3594C89.0176 96.3605 87.1596 96.3598 85.2877 96.3119C85.7759 95.8913 86.2732 95.5138 86.7383 95.097C86.8029 95.0392 86.9496 95.0654 87.0583 95.0656C88.881 95.069 90.7039 95.0723 92.5266 95.0821C92.7519 95.0834 92.9567 95.0404 93.1644 94.9531C94.3787 94.443 95.5968 93.9418 96.8135 93.3672H88.4095C88.3571 93.1857 88.4528 93.1274 88.5019 93.0513C88.7339 92.6923 89.0323 92.3608 89.1884 91.9717C89.452 91.3147 89.8905 91.184 90.5486 91.2262C91.5969 91.2933 92.6518 91.2476 93.7037 91.267C94.0642 91.2736 94.401 91.2154 94.7389 91.0941C96.2626 90.5469 97.79 90.0106 99.3134 89.3869H90.5044C90.719 88.7186 90.9159 88.1333 91.0944 87.5424C91.311 86.8255 91.3043 86.82 92.0383 86.8314C93.3837 86.8525 94.729 86.8775 96.0743 86.9025C96.2214 86.9053 96.3644 86.9089 96.5028 86.8408C97.8159 86.1946 99.1303 85.5507 100.439 84.8306C97.5439 84.7675 94.6488 84.7044 91.7177 84.6406C91.8396 83.6327 91.9346 82.6424 91.9294 81.646C91.9281 81.3885 92.1318 81.4834 92.2522 81.4853C93.4996 81.5046 94.7469 81.5296 95.994 81.5631C96.2104 81.5689 96.3914 81.5186 96.5764 81.4069C97.8521 80.6368 99.1339 79.8768 100.411 79.1086C100.519 79.0434 100.653 79.0037 100.743 78.8504C99.4774 78.816 98.2363 78.7837 96.9953 78.7482C95.3571 78.7014 93.7189 78.6537 92.0809 78.6007C91.954 78.5967 91.7784 78.6709 91.7464 78.4306C91.614 77.4392 91.4079 76.4613 91.1632 75.5C91.746 75.5 92.3065 75.4893 92.8665 75.5024C93.759 75.5233 94.6511 75.5595 95.5434 75.5909C95.6672 75.5952 95.7794 75.5833 95.8911 75.5134C97.0718 74.776 98.2555 74.0434 99.4375 73.3081C99.4633 73.292 99.4784 73.2587 99.5233 73.2023C98.2871 73.1476 97.0842 73.0924 95.8811 73.0415C94.0726 72.9652 92.264 72.8925 90.4555 72.8163C90.3389 72.8113 90.2227 72.8263 90.1478 72.6797C89.7652 71.931 89.3704 71.1884 88.9418 70.3711Z" fill="#FEFEFE"/>
<path d="M43.3766 90.9805C45.0877 90.9805 46.7988 90.9725 48.5098 90.9826C50.6747 90.9952 52.8396 91.0219 55.0045 91.0466C55.0937 91.0477 55.221 90.9883 55.2686 91.0978C55.3122 91.1976 55.1991 91.2684 55.1456 91.3449C54.7746 91.8756 54.3924 92.3984 54.0314 92.9357C53.8948 93.139 53.7468 93.2163 53.4946 93.2144C49.7759 93.1871 46.0571 93.1741 42.3383 93.1499C42.1163 93.1485 41.9468 93.2046 41.7737 93.3435C41.1083 93.8776 40.4309 94.3967 39.7712 94.9986H51.4388C51.4455 95.0326 51.4523 95.0667 51.459 95.1008C51.1267 95.2503 50.7837 95.3801 50.4639 95.5529C49.2317 96.2185 47.9386 96.4312 46.528 96.3907C42.8604 96.2853 39.1895 96.2976 35.5199 96.2623C35.4396 96.2616 35.3592 96.2529 35.2607 96.1905C35.5044 96.0688 35.7453 95.9413 35.9921 95.8262C39.2784 94.2941 41.4012 91.7301 42.6002 88.3552C43.5979 85.5465 44.1693 82.6524 44.1198 79.6676C44.0641 76.3072 43.0156 73.2416 41.1445 70.4578C39.9137 68.6269 38.4159 67.0452 36.6516 65.7159C36.4341 65.552 36.2775 65.5474 36.0389 65.6873C30.7627 68.7813 25.4807 71.8654 20.1996 74.951C20.1158 75 20.0292 75.0442 19.9383 75.0937C19.8197 74.8724 19.9957 74.8077 20.117 74.7239C21.5539 73.73 22.9921 72.7379 24.43 71.7453C27.8582 69.3788 31.2875 67.0138 34.7122 64.6422C34.9141 64.5024 35.1089 64.4381 35.3556 64.4488C38.6786 64.5922 42.002 64.7275 45.3252 64.8652C46.5224 64.915 47.7194 64.9683 48.9167 65.0144C49.1195 65.0223 49.29 65.0907 49.4647 65.1896C50.558 65.8087 51.6567 66.4185 52.8568 67.0892C52.5796 67.0892 52.4069 67.0963 52.2349 67.0881C49.6089 66.9619 46.9828 66.8371 44.3572 66.7008C44.103 66.6876 43.9263 66.7394 43.7551 66.9409C43.2209 67.5697 42.6646 68.1795 42.0589 68.8619C43.2011 68.9119 44.2571 68.96 45.3133 69.004C48.4289 69.1338 51.5445 69.2617 54.66 69.3916C54.803 69.3976 54.9375 69.3911 55.0266 69.5633C55.4192 70.3226 55.829 71.073 56.2303 71.8278C56.2455 71.8564 56.2372 71.8975 56.2393 71.9255C55.7979 71.9255 55.3618 71.9407 54.927 71.923C52.4956 71.8238 50.0645 71.7182 47.6336 71.6082C47.4962 71.6019 47.4026 71.6351 47.3108 71.7304C46.5231 72.5477 45.7325 73.3621 44.944 74.1762C45.0251 74.3233 45.1496 74.2688 45.246 74.2718C48.8643 74.386 52.4827 74.4958 56.1011 74.6071C56.4311 74.6173 56.7611 74.6472 57.0908 74.6423C57.3019 74.6393 57.3811 74.71 57.4251 74.9216C57.6139 75.8296 57.813 76.7361 58.0372 77.6359C58.1126 77.9381 58.0053 77.9503 57.7597 77.9423C54.7649 77.8451 51.7696 77.7606 48.7749 77.6594C48.4653 77.649 48.2628 77.7268 48.0673 77.9807C47.48 78.743 46.86 79.4801 46.2504 80.23C46.3718 80.3522 46.5002 80.2987 46.6124 80.3013C50.342 80.3857 54.0715 80.4716 57.8013 80.5393C58.161 80.5459 58.2565 80.6377 58.2091 80.9945C58.0952 81.8544 58.0066 82.7182 57.9363 83.5828C57.9155 83.8374 57.8451 83.9025 57.5918 83.8959C54.8652 83.8252 52.1383 83.7664 49.4114 83.7065C48.7144 83.6911 48.0172 83.6824 47.3199 83.6748C47.2165 83.6736 47.1021 83.6372 47.0227 83.7569C46.5054 84.5367 45.9847 85.3143 45.4055 86.1817C46.0504 86.1817 46.6081 86.1742 47.1656 86.1829C50.529 86.2358 53.8923 86.2969 57.2558 86.3408C57.5917 86.3452 57.5847 86.436 57.4658 86.6918C57.1469 87.3778 56.8431 88.071 56.5481 88.7677C56.4678 88.9576 56.3794 89.041 56.1553 89.0382C52.7183 88.995 49.2811 88.9719 45.8443 88.9172C45.3891 88.9101 45.0672 89.0193 44.7682 89.367C44.3172 89.8915 43.8152 90.3719 43.3349 90.8711C43.3488 90.9075 43.3627 90.944 43.3766 90.9805Z" fill="#FEFEFE"/>
<path d="M58.3686 16.2224C57.1269 12.9261 55.2847 10.1433 52.5154 8.02026C52.437 7.96018 52.2331 7.94219 52.3217 7.78564C52.4094 7.63066 52.4707 7.42506 52.7213 7.41216C53.0107 7.39714 53.2729 7.45322 53.5256 7.59378C53.7296 7.70715 53.9467 7.83536 54.0875 7.49888C54.1339 7.38793 54.2544 7.41724 54.3492 7.41688C54.7894 7.41513 55.2296 7.41609 55.697 7.41609C55.6345 7.69031 55.4295 7.87848 55.3261 8.14228C55.8815 8.29944 56.4398 8.35383 56.9913 8.44346C57.1425 8.46805 57.2264 8.38762 57.2699 8.26408C57.5351 7.51051 58.0742 7.2811 58.8298 7.4098C59.0674 7.45025 59.3177 7.41609 59.6288 7.41609C59.413 7.77837 59.2264 8.11122 59.0197 8.43116C58.9017 8.61376 58.9558 8.65094 59.1452 8.6633C59.6331 8.69509 60.1206 8.73427 60.6067 8.78502C60.7626 8.80132 60.8676 8.76613 60.9379 8.62684C60.9598 8.58336 60.9894 8.54381 61.0149 8.50208C61.7625 7.27874 61.8328 7.24634 63.338 7.45442C63.1818 7.71242 63.0327 7.95994 62.8823 8.20678C62.7374 8.44479 62.5913 8.68208 62.418 8.96472C63.0324 9.04781 63.5979 9.12454 64.1634 9.20072C64.3248 9.22246 64.3652 9.08735 64.4273 8.98846C64.6613 8.616 64.8972 8.24427 65.1193 7.86467C65.2102 7.70921 65.2945 7.6406 65.4945 7.6836C65.9467 7.78098 66.4069 7.8413 66.9232 7.92644C66.652 8.364 66.4158 8.76934 66.1544 9.15785C65.9923 9.39888 65.9241 9.53387 66.3147 9.57772C66.7129 9.62229 67.1058 9.72694 67.4964 9.82378C67.6855 9.87059 67.7892 9.81094 67.8832 9.65245C68.1015 9.28466 68.3394 8.92832 68.5569 8.5601C68.6622 8.38181 68.7706 8.29315 68.9936 8.36849C69.2701 8.46187 69.5567 8.53024 69.8432 8.58832C70.0816 8.63659 70.0687 8.72422 69.9512 8.90076C69.6742 9.317 69.4163 9.74596 69.1366 10.1922C69.6631 10.3676 70.1698 10.5354 70.6757 10.7057C70.8249 10.7561 70.8697 10.64 70.9262 10.5516C71.1499 10.2014 71.3853 9.85721 71.5846 9.49342C71.714 9.25717 71.8507 9.22604 72.078 9.34226C72.3162 9.46399 72.5692 9.5564 72.8155 9.6622C73.2198 9.83565 73.2186 9.8351 72.9697 10.2203C72.7775 10.518 72.5965 10.8233 72.3953 11.1147C72.2804 11.281 72.271 11.3694 72.4857 11.4567C72.8576 11.6082 73.2226 11.7799 73.5787 11.9658C73.7662 12.0638 73.8544 12.0133 73.9533 11.8478C74.1726 11.4808 74.4175 11.1291 74.6355 10.7613C74.7324 10.5981 74.8245 10.5749 74.9822 10.6708C75.2619 10.8409 75.6868 10.9364 75.7948 11.1777C75.8998 11.4124 75.5163 11.6956 75.3717 11.9711C75.2482 12.2067 74.9385 12.429 75.0084 12.6523C75.0654 12.8344 75.4104 12.9328 75.6353 13.054C75.8891 13.1907 76.1399 13.5136 76.3808 13.4378C76.5889 13.3724 76.7015 13.0051 76.8578 12.7722C77.0141 12.5394 77.1396 12.1578 77.338 12.1146C77.5723 12.0638 77.8216 12.3811 78.0565 12.5501C78.5822 12.9282 78.5811 12.93 78.2294 13.4726C78.1695 13.565 78.1048 13.6541 78.0468 13.7476C77.9188 13.9538 77.6977 14.1605 77.6948 14.3695C77.6919 14.5732 78.0015 14.6852 78.1814 14.8242C78.3663 14.9669 78.2454 15.0409 78.1461 15.1187C77.1593 15.8902 76.169 16.6574 75.1831 17.4301C75.1178 17.4811 75.0801 17.5675 75.013 17.6604C73.8922 15.96 72.7974 14.3145 71.7241 12.6551C71.5532 12.3909 71.406 12.354 71.118 12.4439C67.9124 13.4429 64.7673 14.5917 61.7822 16.1459C61.6218 16.2294 61.4644 16.3192 61.2384 16.4429C65.0368 17.5335 68.7495 18.6734 72.3417 20.2036C72.2922 20.4428 72.1024 20.5807 71.9596 20.7464C71.4129 21.3812 71.2173 22.1661 70.9853 22.9415C70.6672 24.0047 70.0522 24.8554 69.0676 25.3999C68.407 25.7652 67.9509 25.4894 67.7003 24.8929C67.3078 23.9587 67.2236 23.0002 67.6949 22.0409C67.8551 21.7147 67.9472 21.3493 68.0296 20.9924C68.1295 20.5599 67.8254 20.3265 67.511 20.1377C67.1198 19.9026 66.691 19.7308 66.2379 19.6839C65.7819 19.6367 65.4084 19.8212 65.1111 20.1955C64.6885 20.7274 64.5584 21.3289 64.4136 21.9842C64.2491 22.7283 63.9869 23.5093 63.4772 24.1317C63.0581 24.6431 62.425 24.5239 62.1818 23.897C61.9556 23.3139 61.4939 23.0108 60.9711 22.7387C60.519 22.5033 60.0931 22.2209 59.5905 22.0921C58.8608 21.905 58.1516 21.8535 57.4088 22.1101C57.0825 22.2229 56.6776 22.1301 56.3067 22.1602C55.4267 22.2316 54.5349 22.3692 53.6807 22.022C53.1982 21.8258 52.7129 21.6484 52.351 21.2097C52.0596 20.8563 51.6709 20.5693 51.218 20.4132C50.9766 20.33 50.8715 20.087 50.6611 19.9673C49.9873 19.5834 49.3504 19.7153 48.7321 20.0973C48.5371 20.2178 48.344 20.3175 48.2841 20.5987C48.2333 20.8369 48.2191 21.0422 48.3225 21.2562C48.6204 21.8725 48.4395 22.2937 47.7825 22.5102C47.2008 22.7018 47.1966 22.7039 46.912 22.1394C46.4857 21.2935 46.3677 20.4049 46.5267 19.4696C46.5732 19.1959 46.5523 18.9084 46.5431 18.6279C46.5065 17.5064 46.8315 16.453 47.1249 15.3912C47.1718 15.2218 47.2761 15.2579 47.3683 15.2464C49.6473 14.9629 51.9232 14.8948 54.1982 15.3055C55.5776 15.5546 56.9411 15.8736 58.3686 16.2224Z" fill="#FEFEFE"/>
<path d="M32.0899 41.5895C31.5725 42.4959 31.116 43.3857 30.8807 44.3672C30.7118 45.0721 30.6057 45.7817 30.8198 46.5016C30.9247 46.8547 31.0896 47.1604 31.4274 47.3322C31.5632 47.4012 31.5759 47.4571 31.4978 47.5789C30.6865 48.846 29.8433 50.0869 28.7705 51.1562C28.5094 51.4164 28.2582 51.4762 27.9277 51.3194C27.7003 51.2115 27.4553 51.1409 27.1176 51.0167C27.6293 51.8339 28.0693 52.5864 28.558 53.3059C29.4176 54.5713 30.2342 55.8598 30.8336 57.2716C31.3681 58.531 31.8466 59.8095 32.034 61.1785C32.2207 62.5423 31.7761 63.6467 30.7267 64.5272C30.0223 65.1181 29.2355 65.5908 28.4883 66.1203C27.9395 66.5091 27.3887 66.8966 26.9065 67.3662C26.5255 67.7372 26.1262 67.7671 25.6723 67.5339C24.8133 67.0928 24.1765 66.4039 23.5894 65.6634C22.9187 64.8176 22.4084 63.8691 21.883 62.9316C21.0126 61.3784 20.1916 59.7992 19.4448 58.1662C20.978 59.8689 22.5112 61.5716 24.0888 63.3238C24.0719 63.0472 23.9363 62.8878 23.8578 62.708C23.7993 62.5738 23.7456 62.4355 23.6703 62.3109C22.7861 60.8473 23.2055 59.9066 24.3599 58.9195C24.413 58.8742 24.4883 58.8438 24.4814 58.7502C23.5951 58.8014 22.8523 59.2061 22.1307 59.7456C21.9697 58.9199 21.8059 58.1368 21.5613 57.3747C21.4755 57.1076 21.3716 56.8455 21.2633 56.5866C21.0788 56.146 20.811 55.802 20.3373 55.6096C18.6312 54.917 17.8866 53.4188 17.2567 51.8405C17.0428 51.3043 16.9421 50.7403 16.9627 50.1572C16.9724 49.8845 17.0612 49.6808 17.2919 49.5071C19.5863 47.7799 21.9357 46.1292 24.2792 44.4704C25.1956 43.8219 26.0768 43.1201 27.0891 42.6147C28.626 41.8475 30.6164 41.4289 32.0899 41.5895Z" fill="#FEFEFE"/>
<path d="M52.4499 63.7062C53.0175 63.3988 53.5032 63.126 53.9987 62.8723C54.1785 62.7802 54.2718 62.6609 54.3064 62.4624C54.4006 61.9215 54.5092 61.3831 54.6162 60.8446C54.6534 60.6578 54.6285 60.5705 54.3958 60.5591C50.9891 60.3916 47.583 60.2138 44.1769 60.0359C41.9186 59.918 39.6603 59.7986 37.4024 59.6715C37.1803 59.6591 37.0067 59.7131 36.8283 59.8428C36.0975 60.3741 35.3574 60.8925 34.5326 61.4781C34.8458 60.7142 35.1646 60.0579 35.3842 59.37C35.6551 58.5212 36.1576 57.9451 36.9441 57.5146C37.9808 56.9472 38.9605 56.2747 39.9558 55.6337C40.1226 55.5262 40.2808 55.4858 40.4683 55.4977C43.0783 55.6639 45.6882 55.832 48.2986 55.9932C50.8481 56.1507 53.3981 56.2983 55.9477 56.455C58.5583 56.6154 61.1684 56.7821 63.7788 56.9451C64.3401 56.9801 64.9012 57.0182 65.463 57.0394C65.6473 57.0464 65.7397 57.1101 65.8141 57.2834C66.7765 59.524 67.7482 61.7607 68.7161 63.9991C68.7834 64.1547 68.9413 64.3339 68.5661 64.3197C63.2636 64.1199 57.9607 63.929 52.6579 63.7354C52.6217 63.7341 52.5858 63.7257 52.4499 63.7062Z" fill="#FEFEFE"/>
<path d="M49.866 48.8826C49.1512 47.7669 49.266 46.6669 49.7938 45.5764C50.272 44.5887 51.0736 43.8951 51.9799 43.311C52.2623 43.1291 52.5442 42.9463 52.8721 42.7343C51.9809 42.3413 51.1127 42.0675 50.2299 41.8416C48.0693 41.289 45.8801 41.0478 43.6567 41.337C41.2296 41.6527 38.9239 42.3016 36.9856 43.8981C36.8635 43.9987 36.7479 44.1072 36.5862 44.2499C36.5174 43.6323 36.555 43.0578 36.6826 42.4951C37.0891 40.7018 38.209 39.4102 39.6711 38.3913C41.4347 37.1622 43.4361 36.8362 45.5357 36.9576C46.8478 37.0335 48.1314 37.2584 49.3318 37.822C51.2247 38.7108 52.4991 40.1085 52.894 42.2154C52.9075 42.2871 52.9126 42.3606 52.9209 42.4334C52.9286 42.5015 52.9353 42.5696 52.9476 42.6862C53.9855 42.015 54.9893 41.3692 55.9896 40.718C57.3913 39.8056 58.7923 38.8921 60.1895 37.9728C60.6865 37.6457 61.2437 37.4059 61.8051 37.3163C62.7264 37.1691 63.7276 37.9126 64.0849 38.8754C64.4706 39.915 64.4418 41.1962 63.2046 42.1752C59.7849 44.8816 56.3741 47.5991 52.9149 50.2552C52.3652 50.6773 52.0802 50.6942 51.559 50.3272C51.7554 50.0735 52.0238 49.9016 52.2637 49.7001C55.099 47.3205 57.9351 44.9417 60.7768 42.5699C60.9727 42.4063 60.9497 42.3241 60.7491 42.2146C60.665 42.1685 60.5719 42.1094 60.5243 42.031C60.3018 41.6647 60.0958 41.7047 59.7606 41.9416C56.4796 44.2612 53.1838 46.5598 49.866 48.8826Z" fill="#FEFEFE"/>
<path d="M17.0579 94.215C17.5888 93.7822 18.1673 93.8013 18.6684 94.2561C19.2352 94.7704 19.453 95.446 19.5275 96.1824C19.5385 96.2901 19.5417 96.3987 19.5496 96.5231C21.2006 96.1165 22.8331 95.714 24.4659 95.3135C24.5886 95.2834 24.6972 95.2695 24.6688 95.0896C24.5688 94.4582 24.3717 93.8799 23.8481 93.4644C23.6119 93.2769 23.3397 93.1928 23.0221 93.2079C23.4953 92.6064 24.3553 92.6498 24.8955 93.2829C25.2971 93.7534 25.5066 94.3082 25.5585 94.9192C25.5797 95.1699 25.6293 95.2428 25.912 95.1601C27.3163 94.7499 28.7183 94.3333 30.1151 93.8979C30.3639 93.8203 30.4465 93.7154 30.383 93.461C30.1894 92.6843 29.8875 91.9989 29.04 91.7351C29.419 91.33 29.9995 91.2909 30.5011 91.6597C31.0421 92.0576 31.3142 92.6255 31.4229 93.2693C31.4713 93.5559 31.5282 93.6555 31.8549 93.5477C32.6671 93.2798 33.4795 93.0244 34.2176 92.5774C34.4496 92.4369 34.5427 92.3526 34.297 92.0882C32.2158 89.8497 30.9375 87.1951 30.3302 84.2144C29.5901 80.5822 30.0527 77.0498 31.2725 73.5881C31.3021 73.5043 31.3474 73.426 31.3847 73.3467C31.0657 77.616 30.7274 81.8804 32.5151 85.9483C32.8042 85.1062 33.542 85.0446 34.2179 84.8791C34.8258 84.7302 34.828 84.7225 35.1117 85.2604C36.1064 87.1466 37.2383 88.9408 38.6601 90.5386C38.82 90.7184 38.7885 90.8415 38.6687 91.0108C38.2154 91.6511 37.6206 92.1329 36.9643 92.5438C35.1271 93.6937 33.1034 94.4119 31.0506 95.048C27.2582 96.2231 23.3799 97.0331 19.4715 97.708C17.5462 98.0406 15.616 98.3393 13.6735 98.5547C13.1855 98.6088 12.7019 98.617 12.2133 98.534C11.3918 98.3944 10.8408 97.9505 10.5538 97.1669C10.4067 96.7654 10.3139 96.3519 10.218 95.9281C10.2523 95.9377 10.2809 95.9368 10.2886 95.9491C11.1288 97.2891 12.441 97.4818 13.8524 97.3935C15.3695 97.2985 16.8422 96.9499 18.3035 96.5501C18.4043 96.5227 18.5066 96.529 18.5297 96.3691C18.6497 95.5356 17.915 94.4291 17.0579 94.215Z" fill="#FEFEFE"/>
<path d="M48.967 26.6576C48.6384 26.6952 48.5246 26.8948 48.383 27.0524C46.8847 28.7188 45.6983 30.5791 44.8768 32.6696C44.7 33.1195 44.3777 33.4778 44.0015 33.7743C43.493 34.1751 43.1637 34.0553 42.9905 33.4285C42.9679 33.3466 42.9522 33.2627 42.9273 33.1538C42.7807 33.3063 42.7731 33.4935 42.7151 33.6595C42.6527 33.8375 42.5812 34.0127 42.5069 34.1861C42.3607 34.5275 42.1887 34.8579 41.9253 35.1224C41.5186 35.5308 41.0907 35.512 40.7727 35.0355C40.4579 34.5633 40.3823 34.058 40.565 33.4746C40.8789 32.4732 41.2553 31.5027 41.7205 30.5649C42.2918 29.4133 43.1655 28.4524 43.7737 27.3229C43.9054 27.078 44.0516 26.8465 44.1526 26.5814C44.4073 25.9125 44.8696 25.3955 45.4511 24.9874C46.0934 24.5366 46.7998 24.6384 47.4898 24.8152C47.6828 24.8646 47.7382 24.8118 47.8426 24.6994C48.3363 24.1681 48.8963 23.8089 49.6777 23.9367C49.967 23.984 50.2342 24.034 50.4139 24.2751C50.6348 24.5718 50.9962 24.7534 51.1314 25.1507C51.2338 24.9941 51.3314 24.8397 51.4342 24.6887C51.8331 24.1025 52.2675 23.987 52.893 24.2987C53.7791 24.7402 53.8444 24.8586 53.3615 25.7224C52.8699 26.6018 52.3274 27.4549 51.7687 28.294C51.4304 28.8021 51.1026 29.3116 50.8592 29.8707C50.3856 30.9591 49.8018 31.9961 49.373 33.106C49.1656 33.6431 48.85 34.1463 48.4494 34.5417C47.9609 35.0242 47.2995 35.1995 46.6024 35.1837C45.4587 35.1578 45.4356 35.0532 45.7035 33.9831C46.0072 32.7701 46.2696 31.5389 46.8585 30.432C47.4684 29.2858 48.0377 28.1136 48.7551 27.026C48.8209 26.9263 48.8749 26.8188 48.967 26.6576Z" fill="#FEFEFE"/>
<path d="M46.4655 44.3535C46.2476 45.0254 46.0394 45.6844 45.8195 46.3396C45.6753 46.7695 45.577 47.1993 45.5604 47.6601C45.4869 49.7121 45.3817 51.7628 45.3043 53.8147C45.2947 54.069 45.2142 54.1084 44.9867 54.096C43.5222 54.0152 42.0571 53.9499 40.5926 53.8735C40.4008 53.8635 40.2387 53.9067 40.0742 54.0059C39.3651 54.4336 38.6499 54.8514 37.8442 55.3276C38.1716 54.6708 38.4366 54.0896 38.7456 53.533C39.0941 52.905 39.3022 52.2672 39.3217 51.5293C39.3657 49.8698 39.491 48.2125 39.5877 46.4711C37.2331 47.6395 34.931 48.7819 32.6288 49.9242L32.5971 49.8698C33.7014 48.9259 34.8059 47.9823 35.91 47.0383C37.0887 46.0304 38.2683 45.0233 39.4442 44.0121C39.5698 43.9041 39.686 43.8325 39.8661 43.8465C41.9975 44.0118 44.1295 44.1691 46.2613 44.3289C46.3213 44.3334 46.3809 44.3432 46.4655 44.3535Z" fill="#FEFEFE"/>
<path d="M22.3439 66.4481C21.5791 66.0827 20.8142 65.7173 19.9536 65.3061C20.1193 65.5379 20.2296 65.6957 20.3438 65.8507C20.4894 66.0483 20.6275 66.25 20.6791 66.4953C20.7309 66.742 20.6947 66.9192 20.4283 67.0616C19.3637 67.6309 18.9032 68.7999 19.2637 70.0085C19.6785 69.356 20.187 68.8294 20.8249 68.4346C21.7316 67.8733 21.7313 67.8721 22.2274 68.7854C22.2913 68.9032 22.3492 69.0243 22.4111 69.1434C22.6847 69.6703 22.6843 69.6696 22.2537 70.1005C21.7888 70.5655 21.272 70.9381 20.6091 71.0709C19.9447 71.2042 19.3416 71.011 18.8689 70.5883C16.2641 68.2595 14.106 65.611 13.1288 62.1731C12.8294 61.1199 12.7871 60.0524 13.2687 59.0218C13.2983 58.9584 13.3088 58.8764 13.4195 58.8452C14.1141 61.4361 15.0102 63.9342 16.8695 65.9716C16.7986 65.7656 16.7256 65.5604 16.6574 65.3535C16.3 64.2698 16.3634 63.216 16.8771 62.1914C17.0993 61.7483 16.9526 61.489 16.4698 61.4503C15.7705 61.3944 15.7662 61.3954 15.6301 60.689C15.4592 59.8026 15.2461 58.9221 15.2084 58.0149C15.1862 57.481 15.308 56.9747 15.5444 56.4419C17.7803 59.8111 20.114 63.0771 22.3439 66.4481Z" fill="#FEFEFE"/>
<path d="M69.9854 62.535C69.6867 60.5881 69.07 58.8196 67.8552 57.2986C66.9696 56.19 65.8529 55.4085 64.4918 54.9987C64.2311 54.9202 64.1249 54.797 64.0829 54.5343C64.0004 54.0171 63.8963 53.5015 63.7651 52.9946C63.703 52.7538 63.7619 52.6726 63.9895 52.6173C65.0611 52.3565 66.1214 52.4379 67.1755 52.7059C68.5469 53.0548 69.7906 53.6574 70.8036 54.661C72.8636 56.7017 72.9137 58.8464 71.3908 61.1694C71.0344 61.713 70.6023 62.1889 69.9854 62.535Z" fill="#FEFEFE"/>
<path d="M57.2493 27.0498C57.3227 27.6704 57.1059 28.3149 56.6791 28.9165C55.996 29.8795 55.6128 31.0301 54.8339 31.9336C53.9582 32.9494 53.0396 33.9294 52.0336 34.8151C51.7192 35.0918 51.3561 35.3589 50.9167 35.4812C50.5977 35.57 50.3539 35.5008 50.1692 35.2572C49.9012 34.9035 49.8007 34.5365 49.9914 34.0778C51.0992 31.4141 52.4332 28.8746 54.111 26.5252C54.449 26.052 54.8914 25.6534 55.2842 25.2193C55.501 24.9795 55.7486 24.9641 56.0417 25.0724C56.9403 25.4044 57.2685 25.8995 57.2493 27.0498Z" fill="#FEFEFE"/>
<path d="M55.1186 36.0692C54.9882 34.9195 55.3644 33.916 55.906 32.967C56.7466 31.494 57.7121 30.1074 58.9696 28.955C59.4607 28.5051 59.9941 28.0881 60.6719 27.9313C61.1851 27.8126 61.747 27.9449 61.7459 28.7464C61.7448 29.587 61.5671 30.3683 61.1077 31.078C60.2812 32.3553 59.5602 33.6949 58.7836 35.0013C58.1991 35.9846 57.5082 36.8972 56.6417 37.6687C56.2596 38.0089 55.7331 37.9378 55.4794 37.4449C55.2538 37.0064 55.1027 36.5471 55.1186 36.0692Z" fill="#FEFEFE"/>
<path d="M61.4033 55.1224C60.0241 55.0469 58.6453 54.9639 57.2656 54.9024C56.9902 54.8901 56.9574 54.7918 56.9835 54.5483C57.2039 52.4956 57.4162 50.442 57.6168 48.3873C57.6368 48.1816 57.7095 48.0568 57.8678 47.9398C58.4371 47.5185 59.0053 47.0948 59.5578 46.6521C59.7212 46.5211 59.8153 46.5455 59.9576 46.6636C60.6764 47.2603 61.0048 48.0683 61.1482 48.9507C61.3928 50.4565 61.596 51.969 61.815 53.479C61.8781 53.9138 61.9163 54.3533 62.0027 54.7833C62.0607 55.0726 62.0185 55.2028 61.6959 55.1383C61.6018 55.1194 61.5008 55.1353 61.403 55.1353L61.4033 55.1224Z" fill="#FEFEFE"/>
<path d="M74.8727 29.5183C74.6275 29.5376 74.4223 29.4311 74.2525 29.2803C73.7617 28.8445 73.1918 28.5352 72.5769 28.3502C71.9618 28.1653 71.4332 27.2108 71.7199 26.5251C71.7561 26.4388 71.7763 26.3631 71.8778 26.3578C73.1035 26.2924 74.0372 25.5825 75.0057 24.9467C75.7446 24.4617 76.5045 24.014 77.3812 23.8248C78.2584 23.6356 79.0672 23.8344 79.828 24.2882C79.952 24.3622 79.9667 24.4636 79.9405 24.5664C79.654 25.6935 79.3964 26.8331 78.6713 27.7874C78.4657 28.0582 78.1364 28.1452 77.8613 28.3045C77.0167 28.7938 76.1056 29.1397 75.1886 29.4693C75.08 29.5083 74.9777 29.5052 74.8727 29.5183Z" fill="#FEFEFE"/>
<path d="M76.8872 84.6063C76.2827 85.0721 75.6784 85.5383 75.0734 86.0036C74.9673 86.0851 74.8407 86.065 74.7196 86.0641C69.7913 86.0302 64.863 85.9942 59.9346 85.9658C59.6951 85.9644 59.6166 85.9157 59.6794 85.6651C59.7682 85.3106 59.8472 84.95 59.884 84.5873C59.9113 84.3162 60.0146 84.2494 60.2763 84.2555C61.9144 84.2929 63.5528 84.3133 65.191 84.3393C68.8957 84.3978 72.6004 84.4563 76.3051 84.5143C76.4932 84.5173 76.6813 84.5147 76.8694 84.5147C76.8754 84.5452 76.8813 84.5758 76.8872 84.6063Z" fill="#FEFEFE"/>
<path d="M28.606 90.4002C27.7687 89.9309 26.9237 89.4532 26.0733 88.985C25.9336 88.9081 25.9394 88.7995 25.9391 88.677C25.9331 86.2461 25.928 83.815 25.9176 81.3841C25.9169 81.2207 25.9486 81.1271 26.1224 81.0645C26.8891 80.7879 27.651 80.498 28.4103 80.2016C28.6222 80.1189 28.6856 80.1581 28.6852 80.3907C28.6799 83.6524 28.6816 86.9141 28.6803 90.1758C28.6803 90.2459 28.6993 90.3244 28.606 90.4002Z" fill="#FEFEFE"/>
<path d="M71.2087 7.43187H74.5158C74.5213 7.44895 74.5408 7.47747 74.5333 7.49079C74.2584 7.98128 74.2532 7.99285 74.7698 8.20796C75.1136 8.35107 75.4776 8.71868 75.7826 8.60144C76.0604 8.49467 76.2237 8.0456 76.3971 7.72553C76.5328 7.47469 76.7016 7.40431 76.9785 7.4091C77.9927 7.42672 79.0074 7.42418 80.0219 7.41C80.2529 7.40679 80.37 7.48165 80.4637 7.68695C80.6452 8.08515 80.8546 8.47044 81.064 8.88371C81.3711 8.50417 81.6782 8.16012 81.943 7.78621C82.1565 7.4848 82.4085 7.35393 82.7732 7.41243C82.9154 7.4352 83.0643 7.41606 83.2256 7.41606C83.0089 9.11923 82.3187 10.5879 81.239 11.8847C81.0296 12.1362 80.8221 12.3895 80.6161 12.644C80.5427 12.7348 80.4906 12.818 80.3714 12.6783C78.7057 10.7269 76.4357 9.72419 74.1604 8.73007C73.1953 8.30844 72.2323 7.88227 71.2087 7.43187Z" fill="#FEFEFE"/>
<path d="M22.2108 92.0051C21.3168 91.5433 20.4636 91.1003 19.6074 90.6629C19.4815 90.5985 19.4844 90.4985 19.4845 90.3864C19.4856 88.1963 19.487 86.0064 19.4827 83.8164C19.4824 83.6749 19.5161 83.5955 19.655 83.5436C20.4979 83.229 21.3381 82.9068 22.2108 82.5751V92.0051Z" fill="#FEFEFE"/>
<path d="M55.8008 49.5959C55.6937 50.3145 55.5872 51.0448 55.4755 51.7742C55.3962 52.2924 55.2983 52.8079 55.2324 53.3276C55.2059 53.5368 55.1193 53.583 54.9281 53.5694C53.4058 53.4613 51.8831 53.3603 50.3606 53.2563C49.4956 53.1973 48.6313 53.124 47.7654 53.084C47.5119 53.0723 47.4696 52.9871 47.4835 52.7598C47.5936 50.9436 47.6925 49.1268 47.798 47.3103C47.8036 47.2137 47.7541 47.081 47.9291 47.0595C48.1298 47.0348 48.1037 47.1923 48.1212 47.2973C48.2818 48.2606 48.5864 49.1697 49.1682 49.9632C49.9667 51.0523 51.0029 51.7306 52.4031 51.5967C53.4763 51.494 54.3393 50.9088 55.1257 50.2079C55.3498 50.0081 55.5707 49.8046 55.8008 49.5959Z" fill="#FEFEFE"/>
<path d="M16.3631 84.7919V93.3463C16.1018 93.2838 15.9095 93.113 15.6968 92.9866C15.1406 92.6559 14.5929 92.311 14.0347 91.9838C13.8677 91.886 13.8031 91.774 13.804 91.5766C13.8117 89.73 13.8082 87.8832 13.8095 86.0365C13.8096 85.9086 13.781 85.7802 13.9611 85.7132C14.7473 85.421 15.528 85.1138 16.3631 84.7919Z" fill="#FEFEFE"/>
<path d="M36.3651 78.6303C36.4209 77.7056 37.0198 77.0092 37.8822 76.8515C39.4618 76.5625 40.6346 77.4619 40.8694 79.1855C41.0048 80.1806 40.8843 81.1569 40.487 82.0916C40.4072 82.2795 40.3082 82.3777 40.0911 82.3898C39.8587 82.4027 39.6317 82.4211 39.3992 82.3802C38.6822 82.2538 38.5682 82.1312 38.6342 81.4246C38.7027 80.6908 38.7282 79.9618 38.5482 79.2402C38.5102 79.0876 38.4603 78.935 38.3931 78.7931C38.0763 78.1225 37.4953 77.9368 36.8503 78.3011C36.6834 78.3955 36.5315 78.5164 36.3651 78.6303Z" fill="#FEFEFE"/>
<path d="M53.0291 12.1056C52.3945 11.122 51.4804 10.5311 50.6143 9.87713C50.7645 9.66752 50.9114 9.45253 51.069 9.24541C51.2029 9.06954 51.3279 8.97936 51.5731 9.1427C52.3042 9.6301 52.9168 10.2356 53.4644 10.9139C54.1569 11.7716 54.7266 12.7067 55.2379 13.7273C52.8767 13.0256 50.5013 13.2606 48.1173 13.3537C48.2189 12.924 48.532 12.6155 48.7289 12.2445C48.8292 12.0555 49.0105 12.1411 49.1579 12.1495C50.4259 12.2216 51.6917 12.1875 53.0291 12.1056Z" fill="#FEFEFE"/>
<path d="M18.2971 72.8395C17.5909 73.1244 17.0074 73.3999 16.3576 73.4808C15.0365 73.6452 13.9055 72.4982 13.5911 71.4134C13.4474 70.9172 13.3898 70.4095 13.3946 69.893C13.3996 69.3439 13.3957 68.7946 13.4322 68.2336C13.7868 68.6553 14.0149 69.1432 14.2416 69.6291C14.4727 70.125 14.682 70.6309 14.9224 71.1817C15.1146 70.862 15.2753 70.595 15.4488 70.3064C16.2261 71.3283 16.8952 72.4275 18.2971 72.8395Z" fill="#FDFDFD"/>
<path d="M66.1556 16.1491C67.4448 15.6853 68.6316 15.2584 69.8184 14.8311C70.0704 14.7404 70.3285 14.6628 70.5719 14.5527C70.7972 14.4507 70.9111 14.5126 71.0274 14.7228C71.6591 15.8643 72.2008 17.0493 72.7935 18.283C70.6226 17.45 68.439 16.8431 66.1556 16.1491Z" fill="#FEFEFE"/>
<path d="M9.47668 90.6187C9.57546 90.7437 9.61634 90.8011 9.66291 90.8535C10.0345 91.2719 10.4269 91.2637 10.7617 90.8136C11.1157 90.3376 11.2244 89.7692 11.3059 89.2007C11.384 88.6567 11.4412 88.107 11.3376 87.5588C11.3073 87.3992 11.3774 87.3455 11.5088 87.2954C12.3045 86.9915 12.3852 87.0488 12.4152 87.9084C12.455 89.0475 12.3015 90.1501 11.8131 91.1895C11.5973 91.6488 11.3002 92.0528 10.8623 92.3254C10.3515 92.6435 9.94507 92.5067 9.71584 91.9545C9.54978 91.5547 9.48922 91.1342 9.47668 90.6187Z" fill="#FDFDFD"/>
<path d="M21.7872 94.323C21.448 93.8912 21.0457 93.64 20.4771 93.7279C20.7921 93.288 21.5575 93.2503 22.0062 93.6047C22.0887 93.6697 22.151 93.7285 22.0739 93.8444C21.9743 93.9938 21.8884 94.1524 21.7872 94.323Z" fill="#F5F5F5"/>
<path d="M15.6637 95.3547C15.3628 95.0155 15.0355 94.7588 14.5612 94.7591C14.9534 94.4472 15.4343 94.4244 15.8213 94.6733C15.9339 94.7457 15.9807 94.8062 15.8996 94.9324C15.8173 95.0604 15.7502 95.1982 15.6637 95.3547Z" fill="#F3F3F3"/>
<path d="M26.4843 92.2654C26.8531 91.9854 27.2101 91.9708 27.5879 92.0866C27.8185 92.1572 27.9145 92.2629 27.7311 92.4889C27.6496 92.5893 27.6042 92.719 27.5233 92.8714C27.2399 92.5639 26.9499 92.2951 26.4843 92.2654Z" fill="#F6F6F6"/>
<path d="M80.8706 12.0783C80.8226 12.0382 80.7852 12.0075 80.7484 11.976C80.4154 11.691 80.0869 11.4003 79.747 11.1236C79.6312 11.0292 79.6444 10.9615 79.7181 10.8529C79.9095 10.5709 80.0961 10.2851 80.2724 9.99331C80.3589 9.84996 80.4334 9.88388 80.5278 9.97272C80.847 10.2734 81.1677 10.5723 81.4867 10.8731C81.5619 10.944 81.6097 11.0154 81.5352 11.1253C81.3439 11.4076 81.1627 11.6966 80.9744 11.981C80.9496 12.0185 80.9075 12.0445 80.8706 12.0783Z" fill="#1C1C1C"/>
<path d="M70.6911 16.7343C70.011 16.5495 69.3928 16.382 68.7753 16.2123C68.7436 16.2036 68.7172 16.1762 68.6408 16.1267C69.1367 15.9469 69.5971 15.7867 70.0515 15.6112C70.1965 15.5552 70.2176 15.6441 70.2563 15.7332C70.3916 16.0447 70.5269 16.3562 70.6911 16.7343Z" fill="#1E1E1E"/>
<path d="M26.1031 58.3944C27.0915 59.0758 28.0502 59.7736 28.7837 60.7243C29.1451 61.1926 29.4379 61.6941 29.5243 62.2946C29.55 62.4733 29.5261 62.5721 29.3244 62.6467C27.5415 63.3066 26.1477 64.4357 25.2153 66.1089C25.1992 66.1378 25.1724 66.1608 25.1458 66.1922C24.7255 64.8561 25.2732 63.3869 26.5196 62.5016C26.7277 62.3538 26.9377 62.1867 27.1734 62.1051C27.5096 61.9886 27.5696 61.7811 27.5452 61.4657C27.5003 60.889 27.2793 60.3762 27.0045 59.8856C26.7208 59.3791 26.405 58.8907 26.1031 58.3944Z" fill="#1C1C1C"/>
<path d="M63.3049 39.9596C63.3024 40.4641 63.196 40.8713 62.776 41.1082C62.3519 41.3473 61.9477 41.2038 61.5694 40.9768C60.9569 40.6093 60.5783 39.7362 60.7248 39.047C60.8153 38.6213 61.0528 38.3049 61.485 38.2012C62.0028 38.0769 62.4576 38.2414 62.7977 38.6416C63.1285 39.031 63.3215 39.4887 63.3049 39.9596Z" fill="#1C1C1C"/>
</svg>
