<svg width="104" height="217" viewBox="0 0 104 217" fill="none" xmlns="http://www.w3.org/2000/svg">
<g filter="url(#filter0_f_344_133)">
<path d="M50.6235 43.1115C50.6235 43.1115 49.652 44.7322 48.3833 52.2899C47.1141 59.85 52.3515 73.8874 48.3833 75.2367C44.4141 76.586 44.2769 77.6665 42.9959 84.1462C41.7149 90.6264 45.8968 94.1337 42.9959 100.073C40.095 106.013 39.2851 109.993 40.6347 118.801C41.9848 127.611 38.8914 145.967 43.0026 147.588C47.1141 149.209 40.095 167.834 41.9848 173.774C43.8744 179.713 48.9657 176.066 49.0956 173.774C49.4619 167.294 46.5744 150.421 46.5744 149.071C46.5744 149.071 47.3166 151.703 49.1392 149.883C50.9613 148.058 50.6235 143.672 50.6235 143.672C50.6235 143.672 51.5007 145.9 52.918 144.484C54.3357 143.065 53.323 139.353 54.1332 137.464C54.9426 135.575 57.1026 136.655 57.1026 140.568C57.1026 144.484 55.5218 153.732 55.8878 156.092C56.948 162.916 61.4161 158.831 61.4161 155.861C61.4161 152.891 58.3848 137.937 59.2625 137.058C59.2625 137.058 61.152 138.813 61.152 135.98C61.152 133.145 61.287 129.634 61.287 129.634C61.287 129.634 63.4465 128.286 63.4465 123.56C63.4465 118.836 64.5533 104.608 62.2319 102.287C59.911 99.965 57.7789 100.339 59.2625 98.8552C60.7457 97.3717 63.1771 89.4787 61.8267 84.517C60.4771 79.5555 58.7424 73.6013 56.563 70.5119C53.7573 66.5373 58.0976 50.6165 59.0312 45.5413C60.0372 40.0713 52.918 37.5776 50.6235 43.1115Z" fill="#81E03D"/>
<path d="M59.262 122.188C57.6588 122.188 56.3584 117.925 56.3584 112.665C56.3584 107.406 57.6588 103.143 59.262 103.143C60.8654 103.143 62.1653 107.406 62.1653 112.665C62.1653 117.925 60.8654 122.188 59.262 122.188Z" fill="#81E03D"/>
<path d="M56.3581 96.6535C54.7549 96.6535 53.4551 92.3901 53.4551 87.1309C53.4551 81.8718 54.7549 77.6084 56.3581 77.6084C57.9618 77.6084 59.2617 81.8718 59.2617 87.1309C59.2617 92.3901 57.9618 96.6535 56.3581 96.6535Z" fill="#81E03D"/>
<path d="M44.2313 169.072C44.6817 170.731 46.3819 171.282 47.0862 170.556C49.9258 173.356 45.6949 177.655 42.8513 174.851C41.7684 172.451 42.6867 169.957 44.2313 169.072Z" fill="#81E03D"/>
<path d="M56.3586 72.708C56.3586 73.6279 55.6138 74.3721 54.6939 74.3721C53.7742 74.3721 53.0283 73.6279 53.0283 72.708C53.0283 71.7878 53.7742 71.0435 54.6939 71.0435C55.6138 71.0435 56.3586 71.7878 56.3586 72.708Z" fill="#81E03D"/>
<path d="M54.3217 66.5171C54.3217 66.8734 54.0324 67.1622 53.6753 67.1622C53.3182 67.1622 53.0283 66.8734 53.0283 66.5171C53.0283 66.1605 53.3182 65.8688 53.6753 65.8688C54.0324 65.8688 54.3217 66.1605 54.3217 66.5171Z" fill="#81E03D"/>
<path d="M55.9289 51.7376C55.9289 53.1923 54.9463 54.372 53.7335 54.372C52.5216 54.372 51.5391 53.1923 51.5391 51.7376C51.5391 50.2836 52.5216 49.1037 53.7335 49.1037C54.9463 49.1037 55.9289 50.2836 55.9289 51.7376Z" fill="#81E03D"/>
<path d="M56.8697 44.0779C56.8697 44.598 56.2988 45.0183 55.5953 45.0183C54.8916 45.0183 54.3213 44.598 54.3213 44.0779C54.3213 43.5584 54.8916 43.1376 55.5953 43.1376C56.2988 43.1376 56.8697 43.5584 56.8697 44.0779Z" fill="#81E03D"/>
</g>
<path d="M50.6235 43.1115C50.6235 43.1115 49.652 44.7322 48.3833 52.2899C47.1141 59.85 52.3515 73.8874 48.3833 75.2367C44.4141 76.586 44.2769 77.6665 42.9959 84.1462C41.7149 90.6264 45.8968 94.1337 42.9959 100.073C40.095 106.013 39.2851 109.993 40.6347 118.801C41.9848 127.611 38.8914 145.967 43.0026 147.588C47.1141 149.209 40.095 167.834 41.9848 173.774C43.8744 179.713 48.9657 176.066 49.0956 173.774C49.4619 167.294 46.5744 150.421 46.5744 149.071C46.5744 149.071 47.3166 151.703 49.1392 149.883C50.9613 148.058 50.6235 143.672 50.6235 143.672C50.6235 143.672 51.5007 145.9 52.918 144.484C54.3357 143.065 53.323 139.353 54.1332 137.464C54.9426 135.575 57.1026 136.655 57.1026 140.568C57.1026 144.484 55.5218 153.732 55.8878 156.092C56.948 162.916 61.4161 158.831 61.4161 155.861C61.4161 152.891 58.3848 137.937 59.2625 137.058C59.2625 137.058 61.152 138.813 61.152 135.98C61.152 133.145 61.287 129.634 61.287 129.634C61.287 129.634 63.4465 128.286 63.4465 123.56C63.4465 118.836 64.5533 104.608 62.2319 102.287C59.911 99.965 57.7789 100.339 59.2625 98.8552C60.7457 97.3717 63.1771 89.4787 61.8267 84.517C60.4771 79.5555 58.7424 73.6013 56.563 70.5119C53.7573 66.5373 58.0976 50.6165 59.0312 45.5413C60.0372 40.0713 52.918 37.5776 50.6235 43.1115Z" fill="#27E7DB"/>
<path d="M59.262 122.188C57.6588 122.188 56.3584 117.925 56.3584 112.665C56.3584 107.406 57.6588 103.143 59.262 103.143C60.8654 103.143 62.1653 107.406 62.1653 112.665C62.1653 117.925 60.8654 122.188 59.262 122.188Z" fill="white"/>
<path d="M56.3581 96.6535C54.7549 96.6535 53.4551 92.3901 53.4551 87.1309C53.4551 81.8718 54.7549 77.6084 56.3581 77.6084C57.9618 77.6084 59.2617 81.8718 59.2617 87.1309C59.2617 92.3901 57.9618 96.6535 56.3581 96.6535Z" fill="white"/>
<path d="M44.2313 169.072C44.6817 170.731 46.3819 171.282 47.0862 170.556C49.9258 173.356 45.6949 177.655 42.8513 174.851C41.7684 172.451 42.6867 169.957 44.2313 169.072Z" fill="white"/>
<path d="M56.3586 72.708C56.3586 73.6279 55.6138 74.3721 54.6939 74.3721C53.7742 74.3721 53.0283 73.6279 53.0283 72.708C53.0283 71.7878 53.7742 71.0435 54.6939 71.0435C55.6138 71.0435 56.3586 71.7878 56.3586 72.708Z" fill="white"/>
<path d="M54.3217 66.5171C54.3217 66.8734 54.0324 67.1622 53.6753 67.1622C53.3182 67.1622 53.0283 66.8734 53.0283 66.5171C53.0283 66.1605 53.3182 65.8688 53.6753 65.8688C54.0324 65.8688 54.3217 66.1605 54.3217 66.5171Z" fill="white"/>
<path d="M55.9289 51.7376C55.9289 53.1923 54.9463 54.372 53.7335 54.372C52.5216 54.372 51.5391 53.1923 51.5391 51.7376C51.5391 50.2836 52.5216 49.1037 53.7335 49.1037C54.9463 49.1037 55.9289 50.2836 55.9289 51.7376Z" fill="white"/>
<path d="M56.8697 44.0779C56.8697 44.598 56.2988 45.0183 55.5953 45.0183C54.8916 45.0183 54.3213 44.598 54.3213 44.0779C54.3213 43.5584 54.8916 43.1376 55.5953 43.1376C56.2988 43.1376 56.8697 43.5584 56.8697 44.0779Z" fill="white"/>
<defs>
<filter id="filter0_f_344_133" x="0" y="0" width="103.71" height="217" filterUnits="userSpaceOnUse" color-interpolation-filters="sRGB">
<feFlood flood-opacity="0" result="BackgroundImageFix"/>
<feBlend mode="normal" in="SourceGraphic" in2="BackgroundImageFix" result="shape"/>
<feGaussianBlur stdDeviation="20" result="effect1_foregroundBlur_344_133"/>
</filter>
</defs>
</svg>
