<svg width="152" height="139" viewBox="0 0 152 139" fill="none" xmlns="http://www.w3.org/2000/svg">
<g filter="url(#filter0_d_344_152)">
<path d="M128.675 24.9277C125.913 24.883 122.848 23.3042 120.075 22.8118C112.592 21.4181 107.483 25.118 98.3003 20.8188C89.2167 16.3128 85.2907 31.9582 76.6525 30.1277C68.0683 28.2301 63.3208 23.3884 50.5613 23.6849C44.2577 24.1606 32.934 22.0168 24.1522 21.1492C20.5773 20.7908 18.5654 24.7764 21.2094 26.9821C26.0619 31.0235 31.4077 36.8617 31.5513 43.0359C31.7676 54.5783 23.5939 66.8484 27.0706 72.1493C30.5568 77.7961 34.7562 75.7917 35.0997 70.4868C35.4214 65.1128 32.0922 49.5516 34.4483 43.0697C36.7837 36.4587 42.0917 36.7779 43.8456 42.9241C45.6219 49.1709 40.1082 59.6833 42.6857 63.2267C45.2951 66.9098 49.1583 64.4468 49.296 61.2506C49.4211 58.0599 45.961 50.3465 47.9272 45.2694C49.8718 40.17 56.0631 41.6981 57.1132 49.2606C58.0423 56.6607 61.2588 83.9384 55.3321 102.219C49.1724 120.095 59.5126 121.201 64.0413 116.887C68.4129 112.748 62.6433 95.8097 63.134 78.672C63.4811 61.4689 62.4394 46.859 68.3493 46.9823C74.2774 47.0606 73.8543 50.0776 73.842 56.2297C73.8234 62.37 73.1314 70.0219 78.5571 66.3835C81.1626 64.6315 78.4459 47.1108 80.0238 44.9502C81.2433 43.288 82.4548 44.5583 83.4315 50.8949C84.4118 57.2259 85.0916 67.6095 87.882 67.4359C90.662 67.2511 89.4668 55.4962 91.6961 52.5798C93.9087 49.6693 95.3699 61.0323 96.7271 65.8072C98.0844 70.5762 98.2367 61.0658 101.737 58.7148C105.234 56.3526 106.995 85.7301 110.134 84.3174C113.267 82.8906 115.239 35.6752 117.262 32.9268C119.805 29.4784 121.708 32.3948 123.462 30.0495C125.218 27.7376 127.79 28.3031 129.445 27.5472C131.104 26.8029 133.399 25.0003 128.675 24.9277Z" fill="#27E7DB"/>
<path d="M30.2056 66.3107C30.6807 67.8891 32.473 68.4154 33.2145 67.727C36.2075 70.3968 31.7482 74.4945 28.7513 71.8187C27.6107 69.5292 28.5786 67.1559 30.2056 66.3107Z" fill="white"/>
<path d="M94.2368 26.271C94.2368 26.271 91.3758 25.5043 88.3028 29.2433C85.2296 32.9771 80.5624 35.3783 75.7437 33.8447C70.9253 32.311 70.9252 32.311 70.9252 32.311C70.9252 32.311 64.3548 29.266 61.7054 30.2566C59.0566 31.2531 66.0509 32.8817 68.0639 36.5261C70.0765 40.1701 74.1036 37.8694 74.8451 42.1794C75.587 46.4954 79.1899 40.7579 79.1899 38.7873C79.1899 36.8114 80.4613 36.1398 80.4613 36.1398C80.4613 36.1398 83.1104 32.7476 84.8061 40.9144C86.5014 49.0815 92.1169 43.4277 92.1169 36.6211C92.1169 29.8144 90.74 29.8144 97.522 31.1577C104.303 32.5014 101.124 27.805 106.846 27.805C112.568 27.805 114.317 30.055 117.019 27.6146C119.721 25.1683 99.1639 21.8153 94.2368 26.271Z" fill="white"/>
<path d="M29.6655 26.3719C30.4626 28.7955 32.4977 30.6651 35.3271 31.0794C37.2042 31.3536 38.669 30.6708 40.4523 30.2621C43.7571 29.4951 44.5288 31.1968 46.7908 32.6019C49.9466 34.561 52.4972 31.8576 55.8744 32.4734C59.1919 33.0776 62.034 34.8635 65.4755 33.7552C66.6238 33.3857 66.1287 31.7175 64.9688 32.0926C61.7083 33.145 58.7248 31.0515 55.5396 30.6707C54.5076 30.5475 53.5455 30.5701 52.5397 30.7996C51.9276 30.9393 51.3664 31.3089 50.7528 31.4266C49.3592 31.7008 48.1764 31.2865 47.0031 30.5139C45.2812 29.3889 44.3111 28.1462 41.976 28.23C40.6315 28.2751 39.4316 28.8234 38.1525 29.1315C35.1705 29.8478 32.4142 28.6781 31.5051 25.9129C31.1558 24.849 29.314 25.3027 29.6655 26.3719Z" fill="white"/>
<path d="M57.241 111.211C57.7164 112.792 59.508 113.318 60.2499 112.627C63.2429 115.296 58.7833 119.394 55.786 116.722C54.6461 114.431 55.614 112.055 57.241 111.211Z" fill="white"/>
</g>
<defs>
<filter id="filter0_d_344_152" x="0" y="0" width="151.486" height="139" filterUnits="userSpaceOnUse" color-interpolation-filters="sRGB">
<feFlood flood-opacity="0" result="BackgroundImageFix"/>
<feColorMatrix in="SourceAlpha" type="matrix" values="0 0 0 0 0 0 0 0 0 0 0 0 0 0 0 0 0 0 127 0" result="hardAlpha"/>
<feOffset/>
<feGaussianBlur stdDeviation="10"/>
<feComposite in2="hardAlpha" operator="out"/>
<feColorMatrix type="matrix" values="0 0 0 0 0.504125 0 0 0 0 0.879167 0 0 0 0 0.238108 0 0 0 1 0"/>
<feBlend mode="normal" in2="BackgroundImageFix" result="effect1_dropShadow_344_152"/>
<feBlend mode="normal" in="SourceGraphic" in2="effect1_dropShadow_344_152" result="shape"/>
</filter>
</defs>
</svg>
