<svg width="98" height="128" viewBox="0 0 98 128" fill="none" xmlns="http://www.w3.org/2000/svg">
<g filter="url(#filter0_d_348_2142)">
<mask id="path-1-inside-1_348_2142" fill="white">
<path fill-rule="evenodd" clip-rule="evenodd" d="M43.2395 98.6755C42.9751 99.1407 42.8429 99.6724 42.8429 100.27C42.8429 100.802 43.0081 101.201 43.3386 101.467C43.7352 101.733 44.1649 101.865 44.6276 101.865C45.1564 101.865 45.52 101.666 45.7183 101.267C45.9827 100.869 46.1149 100.403 46.1149 99.8717C46.1149 99.3401 46.0157 98.8749 45.8174 98.4761C45.6852 98.0774 45.6191 97.6122 45.6191 97.0805V95.6266C45.7897 95.3756 45.875 95.0959 45.875 94.7877C45.875 94.4674 45.7897 94.2329 45.6191 94.0841V91.3984C45.6852 89.4711 45.9496 90.6444 46.4123 88.7835C46.4784 88.7171 46.5445 88.5842 46.6106 88.3848C46.7428 88.1854 46.8089 88.0525 46.8089 87.9861C46.8089 87.9196 46.7428 87.7867 46.6106 87.5873C46.4784 87.3879 46.4123 87.255 46.4123 87.1886V86.1917C46.4123 86.0588 46.6767 85.8594 47.2055 85.5936C47.8004 85.3278 48.4614 85.0619 49.1886 84.7961C49.2482 84.7743 49.3074 84.7527 49.3661 84.7314C49.4248 84.7527 49.484 84.7743 49.5436 84.7961C50.2707 85.0619 50.9317 85.3278 51.5266 85.5936C52.0555 85.8594 52.3199 86.0588 52.3199 86.1917V87.1886C52.3199 87.255 52.2537 87.3879 52.1215 87.5873C51.9893 87.7867 51.9232 87.9196 51.9232 87.9861C51.9232 88.0525 51.9893 88.1854 52.1215 88.3848C52.1876 88.5842 52.2538 88.7171 52.3199 88.7835C52.7826 90.6444 53.047 92.5384 53.1131 94.4657V100.219C52.9425 100.367 52.8571 100.602 52.8571 100.922C52.8571 101.23 52.9425 101.51 53.1131 101.761V103.215C53.1131 103.747 53.047 104.212 52.9148 104.611C52.7165 105.009 52.6173 105.475 52.6173 106.006C52.6173 106.538 52.7495 107.003 53.0139 107.402C53.2122 107.801 53.5758 108 54.1046 108C54.5673 108 54.9969 107.867 55.3935 107.601C55.724 107.335 55.8893 106.937 55.8893 106.405C55.8893 105.807 55.7571 105.275 55.4927 104.81V95.2632V90.1792C55.4838 89.9386 55.4785 89.7017 55.4768 89.4683C55.5504 89.188 55.6026 88.8933 55.6334 88.5842C55.7656 87.9861 55.8317 87.3547 55.8317 86.6901C55.8832 86.2243 55.9146 85.7786 55.926 85.3531C57.0389 84.107 58.2165 82.9909 59.4587 82.0049C60.6486 81.008 58.8206 80.1441 60.0765 79.413C60.3409 79.413 60.4731 79.546 60.4731 79.8118C60.4731 79.9447 60.4401 80.2105 60.374 80.6093C60.2418 81.008 60.1426 81.2738 60.0765 81.4068V89.558L60.4731 89.9568L61.2663 90.3555C61.6629 90.3555 62.0595 90.1229 62.4562 89.6577C62.7867 89.259 62.9519 88.8935 62.9519 88.5612V88.3618H62.8528C62.8528 88.2953 62.8197 88.1624 62.7536 87.9631C62.6214 87.7637 62.5223 87.6308 62.4562 87.5643C62.3901 87.232 62.324 86.6339 62.2579 85.77C62.1256 84.9725 62.0595 84.474 62.0595 84.2747V76.5221L61.2663 73.3322C61.2002 73.2657 61.068 73.1993 60.8697 73.1328C60.6714 73.0663 60.5392 72.9999 60.4731 72.9334C60.2087 72.8005 59.8782 72.5679 59.4816 72.2356L58.8867 71.7372L59.6494 64.4601C59.9799 63.862 60.2443 63.2639 60.4426 62.6657C60.5748 62.0012 59.9443 61.3698 60.0765 60.7717C60.1426 60.1736 60.2748 59.5755 59.7104 58.9773C60.6053 58.3792 59.3443 57.7811 59.7409 57.183V51.8996L59.4587 41.8697C60.3841 40.8728 62.0291 40.4051 64.618 41.8697C66.0722 41.1386 69.7332 44.9216 71.0552 44.9216L74.2323 46.2175C74.5628 46.2175 74.7611 46.3504 74.8272 46.6162C74.6289 48.5435 74.695 48.3032 75.0255 50.4963C75.356 52.6894 75.5543 50.0823 75.6204 51.8766C75.7526 52.2089 75.9178 52.4415 76.1161 52.5744C76.2483 52.6409 76.4797 52.6741 76.8102 52.6741C77.2729 52.6741 77.5373 52.5412 77.6034 52.2754V48.886C77.6034 47.4904 77.5373 50.6957 77.4051 49.3001C77.2729 47.9045 77.2068 48.8093 77.2068 47.4137C77.2068 46.284 77.339 45.1542 77.6034 44.0244C77.8678 42.8282 78 41.6652 78 40.5354C78 39.2727 77.5042 38.4752 76.5127 38.1429C75.5212 37.7442 74.5297 37.4783 73.5382 37.3454C73.3399 37.146 72.9102 36.847 72.2492 36.4482C71.5882 35.983 70.8611 35.5178 70.0679 35.0526C69.2747 34.5874 68.5476 34.1555 67.8866 33.7567C67.1595 33.358 66.6307 33.0921 66.3002 32.9592C65.1765 32.2946 64.1188 31.8294 63.1273 31.5636C62.0697 31.2978 61.0121 30.7993 59.9545 30.0683C59.0291 29.4702 58.2689 28.6063 57.674 27.4765C57.013 26.3467 56.385 25.2501 55.7901 24.1868C55.1291 23.057 54.369 22.0934 53.5097 21.2959C52.6504 20.432 51.5266 20 50.1385 20C49.9244 20 49.6669 20.0218 49.3661 20.0654C49.0653 20.0218 48.8078 20 48.5936 20C47.2055 20 46.0818 20.432 45.2225 21.2959C44.3632 22.0934 43.603 23.057 42.942 24.1868C42.3471 25.2501 41.7192 26.3467 41.0582 27.4765C40.4632 28.6063 39.7031 29.4702 38.7777 30.0683C37.7201 30.7993 36.6625 31.2978 35.6048 31.5636C34.6133 31.8294 33.5557 32.2946 32.432 32.9592C32.1015 33.0921 31.5727 33.358 30.8456 33.7567C30.1846 34.1555 29.4575 34.5874 28.6643 35.0526C27.871 35.5178 27.1439 35.983 26.4829 36.4482C25.8219 36.847 25.3923 37.146 25.194 37.3454C24.2025 37.4783 23.2109 39.2778 22.2194 39.6765C21.2279 40.0088 20 40.607 20 41.8697C20 42.9995 20.8644 42.8282 21.1288 44.0244C21.3932 45.1542 21.5254 46.284 21.5254 47.4137C21.5254 48.8093 21.4593 45.604 21.3271 46.9997C21.1949 48.3953 21.1288 49.7909 21.1288 51.1865V54.5758C21.1949 54.8416 21.4593 54.9746 21.922 54.9746C22.2525 54.9746 22.4838 54.9413 22.616 54.8749C22.8143 54.742 22.9796 54.5093 23.1118 54.1771C23.1779 52.3827 23.3762 50.389 23.7067 48.1959C24.0372 46.0028 24.1033 48.5435 23.905 46.6162C23.9711 46.3504 24.1694 46.2175 24.4999 46.2175H25.0948C26.4168 46.2175 34.1812 40.2261 35.6354 40.9571C37.0896 41.6882 40.1327 39.5385 41.0582 40.5354L40.3641 48.2112L38.259 55.657C38.6556 56.2551 38.1268 58.3792 38.259 58.9773C38.4573 59.5755 38.5895 60.1736 38.6556 60.7717C38.7878 61.3698 38.92 62.0012 39.0522 62.6657C39.2506 63.2639 37.9896 63.862 38.3201 64.4601L39.0828 71.7372L38.4879 72.2356C38.0912 72.5679 37.7607 72.8005 37.4963 72.9334C37.4302 72.9999 37.298 73.0663 37.0997 73.1328C36.9014 73.1993 36.7692 73.2657 36.7031 73.3322L35.9099 76.5221V88.1087C35.9099 88.3081 35.8438 88.8066 35.7116 89.604C35.6455 90.468 35.5794 91.0661 35.5133 91.3984C35.4472 91.4649 35.3481 91.5978 35.2159 91.7971C35.1498 91.9965 35.1167 92.1294 35.1167 92.1959H35.0176V92.3953C35.0176 92.7275 35.1828 93.0931 35.5133 93.4918C35.9099 93.957 36.3065 94.1896 36.7031 94.1896L37.4963 93.7909L37.8929 93.3921V81.4068C37.8268 81.2738 37.7277 81.008 37.5955 80.6093C37.5294 80.2105 37.4963 79.9447 37.4963 79.8118C37.4963 79.546 37.6285 79.413 37.8929 79.413C39.1489 80.1441 38.0836 81.008 39.2734 82.0049C40.5157 82.9909 41.6933 84.107 42.8062 85.3531C42.8176 85.7786 42.849 86.2243 42.9005 86.6901C42.9005 87.3547 42.9666 87.9861 43.0988 88.5842C43.1295 88.8933 43.1817 89.188 43.2554 89.4683C43.2536 89.7017 43.2483 89.9386 43.2395 90.1792V92.1959V98.6755Z"/>
</mask>
<path fill-rule="evenodd" clip-rule="evenodd" d="M43.2395 98.6755C42.9751 99.1407 42.8429 99.6724 42.8429 100.27C42.8429 100.802 43.0081 101.201 43.3386 101.467C43.7352 101.733 44.1649 101.865 44.6276 101.865C45.1564 101.865 45.52 101.666 45.7183 101.267C45.9827 100.869 46.1149 100.403 46.1149 99.8717C46.1149 99.3401 46.0157 98.8749 45.8174 98.4761C45.6852 98.0774 45.6191 97.6122 45.6191 97.0805V95.6266C45.7897 95.3756 45.875 95.0959 45.875 94.7877C45.875 94.4674 45.7897 94.2329 45.6191 94.0841V91.3984C45.6852 89.4711 45.9496 90.6444 46.4123 88.7835C46.4784 88.7171 46.5445 88.5842 46.6106 88.3848C46.7428 88.1854 46.8089 88.0525 46.8089 87.9861C46.8089 87.9196 46.7428 87.7867 46.6106 87.5873C46.4784 87.3879 46.4123 87.255 46.4123 87.1886V86.1917C46.4123 86.0588 46.6767 85.8594 47.2055 85.5936C47.8004 85.3278 48.4614 85.0619 49.1886 84.7961C49.2482 84.7743 49.3074 84.7527 49.3661 84.7314C49.4248 84.7527 49.484 84.7743 49.5436 84.7961C50.2707 85.0619 50.9317 85.3278 51.5266 85.5936C52.0555 85.8594 52.3199 86.0588 52.3199 86.1917V87.1886C52.3199 87.255 52.2537 87.3879 52.1215 87.5873C51.9893 87.7867 51.9232 87.9196 51.9232 87.9861C51.9232 88.0525 51.9893 88.1854 52.1215 88.3848C52.1876 88.5842 52.2538 88.7171 52.3199 88.7835C52.7826 90.6444 53.047 92.5384 53.1131 94.4657V100.219C52.9425 100.367 52.8571 100.602 52.8571 100.922C52.8571 101.23 52.9425 101.51 53.1131 101.761V103.215C53.1131 103.747 53.047 104.212 52.9148 104.611C52.7165 105.009 52.6173 105.475 52.6173 106.006C52.6173 106.538 52.7495 107.003 53.0139 107.402C53.2122 107.801 53.5758 108 54.1046 108C54.5673 108 54.9969 107.867 55.3935 107.601C55.724 107.335 55.8893 106.937 55.8893 106.405C55.8893 105.807 55.7571 105.275 55.4927 104.81V95.2632V90.1792C55.4838 89.9386 55.4785 89.7017 55.4768 89.4683C55.5504 89.188 55.6026 88.8933 55.6334 88.5842C55.7656 87.9861 55.8317 87.3547 55.8317 86.6901C55.8832 86.2243 55.9146 85.7786 55.926 85.3531C57.0389 84.107 58.2165 82.9909 59.4587 82.0049C60.6486 81.008 58.8206 80.1441 60.0765 79.413C60.3409 79.413 60.4731 79.546 60.4731 79.8118C60.4731 79.9447 60.4401 80.2105 60.374 80.6093C60.2418 81.008 60.1426 81.2738 60.0765 81.4068V89.558L60.4731 89.9568L61.2663 90.3555C61.6629 90.3555 62.0595 90.1229 62.4562 89.6577C62.7867 89.259 62.9519 88.8935 62.9519 88.5612V88.3618H62.8528C62.8528 88.2953 62.8197 88.1624 62.7536 87.9631C62.6214 87.7637 62.5223 87.6308 62.4562 87.5643C62.3901 87.232 62.324 86.6339 62.2579 85.77C62.1256 84.9725 62.0595 84.474 62.0595 84.2747V76.5221L61.2663 73.3322C61.2002 73.2657 61.068 73.1993 60.8697 73.1328C60.6714 73.0663 60.5392 72.9999 60.4731 72.9334C60.2087 72.8005 59.8782 72.5679 59.4816 72.2356L58.8867 71.7372L59.6494 64.4601C59.9799 63.862 60.2443 63.2639 60.4426 62.6657C60.5748 62.0012 59.9443 61.3698 60.0765 60.7717C60.1426 60.1736 60.2748 59.5755 59.7104 58.9773C60.6053 58.3792 59.3443 57.7811 59.7409 57.183V51.8996L59.4587 41.8697C60.3841 40.8728 62.0291 40.4051 64.618 41.8697C66.0722 41.1386 69.7332 44.9216 71.0552 44.9216L74.2323 46.2175C74.5628 46.2175 74.7611 46.3504 74.8272 46.6162C74.6289 48.5435 74.695 48.3032 75.0255 50.4963C75.356 52.6894 75.5543 50.0823 75.6204 51.8766C75.7526 52.2089 75.9178 52.4415 76.1161 52.5744C76.2483 52.6409 76.4797 52.6741 76.8102 52.6741C77.2729 52.6741 77.5373 52.5412 77.6034 52.2754V48.886C77.6034 47.4904 77.5373 50.6957 77.4051 49.3001C77.2729 47.9045 77.2068 48.8093 77.2068 47.4137C77.2068 46.284 77.339 45.1542 77.6034 44.0244C77.8678 42.8282 78 41.6652 78 40.5354C78 39.2727 77.5042 38.4752 76.5127 38.1429C75.5212 37.7442 74.5297 37.4783 73.5382 37.3454C73.3399 37.146 72.9102 36.847 72.2492 36.4482C71.5882 35.983 70.8611 35.5178 70.0679 35.0526C69.2747 34.5874 68.5476 34.1555 67.8866 33.7567C67.1595 33.358 66.6307 33.0921 66.3002 32.9592C65.1765 32.2946 64.1188 31.8294 63.1273 31.5636C62.0697 31.2978 61.0121 30.7993 59.9545 30.0683C59.0291 29.4702 58.2689 28.6063 57.674 27.4765C57.013 26.3467 56.385 25.2501 55.7901 24.1868C55.1291 23.057 54.369 22.0934 53.5097 21.2959C52.6504 20.432 51.5266 20 50.1385 20C49.9244 20 49.6669 20.0218 49.3661 20.0654C49.0653 20.0218 48.8078 20 48.5936 20C47.2055 20 46.0818 20.432 45.2225 21.2959C44.3632 22.0934 43.603 23.057 42.942 24.1868C42.3471 25.2501 41.7192 26.3467 41.0582 27.4765C40.4632 28.6063 39.7031 29.4702 38.7777 30.0683C37.7201 30.7993 36.6625 31.2978 35.6048 31.5636C34.6133 31.8294 33.5557 32.2946 32.432 32.9592C32.1015 33.0921 31.5727 33.358 30.8456 33.7567C30.1846 34.1555 29.4575 34.5874 28.6643 35.0526C27.871 35.5178 27.1439 35.983 26.4829 36.4482C25.8219 36.847 25.3923 37.146 25.194 37.3454C24.2025 37.4783 23.2109 39.2778 22.2194 39.6765C21.2279 40.0088 20 40.607 20 41.8697C20 42.9995 20.8644 42.8282 21.1288 44.0244C21.3932 45.1542 21.5254 46.284 21.5254 47.4137C21.5254 48.8093 21.4593 45.604 21.3271 46.9997C21.1949 48.3953 21.1288 49.7909 21.1288 51.1865V54.5758C21.1949 54.8416 21.4593 54.9746 21.922 54.9746C22.2525 54.9746 22.4838 54.9413 22.616 54.8749C22.8143 54.742 22.9796 54.5093 23.1118 54.1771C23.1779 52.3827 23.3762 50.389 23.7067 48.1959C24.0372 46.0028 24.1033 48.5435 23.905 46.6162C23.9711 46.3504 24.1694 46.2175 24.4999 46.2175H25.0948C26.4168 46.2175 34.1812 40.2261 35.6354 40.9571C37.0896 41.6882 40.1327 39.5385 41.0582 40.5354L40.3641 48.2112L38.259 55.657C38.6556 56.2551 38.1268 58.3792 38.259 58.9773C38.4573 59.5755 38.5895 60.1736 38.6556 60.7717C38.7878 61.3698 38.92 62.0012 39.0522 62.6657C39.2506 63.2639 37.9896 63.862 38.3201 64.4601L39.0828 71.7372L38.4879 72.2356C38.0912 72.5679 37.7607 72.8005 37.4963 72.9334C37.4302 72.9999 37.298 73.0663 37.0997 73.1328C36.9014 73.1993 36.7692 73.2657 36.7031 73.3322L35.9099 76.5221V88.1087C35.9099 88.3081 35.8438 88.8066 35.7116 89.604C35.6455 90.468 35.5794 91.0661 35.5133 91.3984C35.4472 91.4649 35.3481 91.5978 35.2159 91.7971C35.1498 91.9965 35.1167 92.1294 35.1167 92.1959H35.0176V92.3953C35.0176 92.7275 35.1828 93.0931 35.5133 93.4918C35.9099 93.957 36.3065 94.1896 36.7031 94.1896L37.4963 93.7909L37.8929 93.3921V81.4068C37.8268 81.2738 37.7277 81.008 37.5955 80.6093C37.5294 80.2105 37.4963 79.9447 37.4963 79.8118C37.4963 79.546 37.6285 79.413 37.8929 79.413C39.1489 80.1441 38.0836 81.008 39.2734 82.0049C40.5157 82.9909 41.6933 84.107 42.8062 85.3531C42.8176 85.7786 42.849 86.2243 42.9005 86.6901C42.9005 87.3547 42.9666 87.9861 43.0988 88.5842C43.1295 88.8933 43.1817 89.188 43.2554 89.4683C43.2536 89.7017 43.2483 89.9386 43.2395 90.1792V92.1959V98.6755Z" fill="#27E7DB"/>
<path fill-rule="evenodd" clip-rule="evenodd" d="M43.2395 98.6755C42.9751 99.1407 42.8429 99.6724 42.8429 100.27C42.8429 100.802 43.0081 101.201 43.3386 101.467C43.7352 101.733 44.1649 101.865 44.6276 101.865C45.1564 101.865 45.52 101.666 45.7183 101.267C45.9827 100.869 46.1149 100.403 46.1149 99.8717C46.1149 99.3401 46.0157 98.8749 45.8174 98.4761C45.6852 98.0774 45.6191 97.6122 45.6191 97.0805V95.6266C45.7897 95.3756 45.875 95.0959 45.875 94.7877C45.875 94.4674 45.7897 94.2329 45.6191 94.0841V91.3984C45.6852 89.4711 45.9496 90.6444 46.4123 88.7835C46.4784 88.7171 46.5445 88.5842 46.6106 88.3848C46.7428 88.1854 46.8089 88.0525 46.8089 87.9861C46.8089 87.9196 46.7428 87.7867 46.6106 87.5873C46.4784 87.3879 46.4123 87.255 46.4123 87.1886V86.1917C46.4123 86.0588 46.6767 85.8594 47.2055 85.5936C47.8004 85.3278 48.4614 85.0619 49.1886 84.7961C49.2482 84.7743 49.3074 84.7527 49.3661 84.7314C49.4248 84.7527 49.484 84.7743 49.5436 84.7961C50.2707 85.0619 50.9317 85.3278 51.5266 85.5936C52.0555 85.8594 52.3199 86.0588 52.3199 86.1917V87.1886C52.3199 87.255 52.2537 87.3879 52.1215 87.5873C51.9893 87.7867 51.9232 87.9196 51.9232 87.9861C51.9232 88.0525 51.9893 88.1854 52.1215 88.3848C52.1876 88.5842 52.2538 88.7171 52.3199 88.7835C52.7826 90.6444 53.047 92.5384 53.1131 94.4657V100.219C52.9425 100.367 52.8571 100.602 52.8571 100.922C52.8571 101.23 52.9425 101.51 53.1131 101.761V103.215C53.1131 103.747 53.047 104.212 52.9148 104.611C52.7165 105.009 52.6173 105.475 52.6173 106.006C52.6173 106.538 52.7495 107.003 53.0139 107.402C53.2122 107.801 53.5758 108 54.1046 108C54.5673 108 54.9969 107.867 55.3935 107.601C55.724 107.335 55.8893 106.937 55.8893 106.405C55.8893 105.807 55.7571 105.275 55.4927 104.81V95.2632V90.1792C55.4838 89.9386 55.4785 89.7017 55.4768 89.4683C55.5504 89.188 55.6026 88.8933 55.6334 88.5842C55.7656 87.9861 55.8317 87.3547 55.8317 86.6901C55.8832 86.2243 55.9146 85.7786 55.926 85.3531C57.0389 84.107 58.2165 82.9909 59.4587 82.0049C60.6486 81.008 58.8206 80.1441 60.0765 79.413C60.3409 79.413 60.4731 79.546 60.4731 79.8118C60.4731 79.9447 60.4401 80.2105 60.374 80.6093C60.2418 81.008 60.1426 81.2738 60.0765 81.4068V89.558L60.4731 89.9568L61.2663 90.3555C61.6629 90.3555 62.0595 90.1229 62.4562 89.6577C62.7867 89.259 62.9519 88.8935 62.9519 88.5612V88.3618H62.8528C62.8528 88.2953 62.8197 88.1624 62.7536 87.9631C62.6214 87.7637 62.5223 87.6308 62.4562 87.5643C62.3901 87.232 62.324 86.6339 62.2579 85.77C62.1256 84.9725 62.0595 84.474 62.0595 84.2747V76.5221L61.2663 73.3322C61.2002 73.2657 61.068 73.1993 60.8697 73.1328C60.6714 73.0663 60.5392 72.9999 60.4731 72.9334C60.2087 72.8005 59.8782 72.5679 59.4816 72.2356L58.8867 71.7372L59.6494 64.4601C59.9799 63.862 60.2443 63.2639 60.4426 62.6657C60.5748 62.0012 59.9443 61.3698 60.0765 60.7717C60.1426 60.1736 60.2748 59.5755 59.7104 58.9773C60.6053 58.3792 59.3443 57.7811 59.7409 57.183V51.8996L59.4587 41.8697C60.3841 40.8728 62.0291 40.4051 64.618 41.8697C66.0722 41.1386 69.7332 44.9216 71.0552 44.9216L74.2323 46.2175C74.5628 46.2175 74.7611 46.3504 74.8272 46.6162C74.6289 48.5435 74.695 48.3032 75.0255 50.4963C75.356 52.6894 75.5543 50.0823 75.6204 51.8766C75.7526 52.2089 75.9178 52.4415 76.1161 52.5744C76.2483 52.6409 76.4797 52.6741 76.8102 52.6741C77.2729 52.6741 77.5373 52.5412 77.6034 52.2754V48.886C77.6034 47.4904 77.5373 50.6957 77.4051 49.3001C77.2729 47.9045 77.2068 48.8093 77.2068 47.4137C77.2068 46.284 77.339 45.1542 77.6034 44.0244C77.8678 42.8282 78 41.6652 78 40.5354C78 39.2727 77.5042 38.4752 76.5127 38.1429C75.5212 37.7442 74.5297 37.4783 73.5382 37.3454C73.3399 37.146 72.9102 36.847 72.2492 36.4482C71.5882 35.983 70.8611 35.5178 70.0679 35.0526C69.2747 34.5874 68.5476 34.1555 67.8866 33.7567C67.1595 33.358 66.6307 33.0921 66.3002 32.9592C65.1765 32.2946 64.1188 31.8294 63.1273 31.5636C62.0697 31.2978 61.0121 30.7993 59.9545 30.0683C59.0291 29.4702 58.2689 28.6063 57.674 27.4765C57.013 26.3467 56.385 25.2501 55.7901 24.1868C55.1291 23.057 54.369 22.0934 53.5097 21.2959C52.6504 20.432 51.5266 20 50.1385 20C49.9244 20 49.6669 20.0218 49.3661 20.0654C49.0653 20.0218 48.8078 20 48.5936 20C47.2055 20 46.0818 20.432 45.2225 21.2959C44.3632 22.0934 43.603 23.057 42.942 24.1868C42.3471 25.2501 41.7192 26.3467 41.0582 27.4765C40.4632 28.6063 39.7031 29.4702 38.7777 30.0683C37.7201 30.7993 36.6625 31.2978 35.6048 31.5636C34.6133 31.8294 33.5557 32.2946 32.432 32.9592C32.1015 33.0921 31.5727 33.358 30.8456 33.7567C30.1846 34.1555 29.4575 34.5874 28.6643 35.0526C27.871 35.5178 27.1439 35.983 26.4829 36.4482C25.8219 36.847 25.3923 37.146 25.194 37.3454C24.2025 37.4783 23.2109 39.2778 22.2194 39.6765C21.2279 40.0088 20 40.607 20 41.8697C20 42.9995 20.8644 42.8282 21.1288 44.0244C21.3932 45.1542 21.5254 46.284 21.5254 47.4137C21.5254 48.8093 21.4593 45.604 21.3271 46.9997C21.1949 48.3953 21.1288 49.7909 21.1288 51.1865V54.5758C21.1949 54.8416 21.4593 54.9746 21.922 54.9746C22.2525 54.9746 22.4838 54.9413 22.616 54.8749C22.8143 54.742 22.9796 54.5093 23.1118 54.1771C23.1779 52.3827 23.3762 50.389 23.7067 48.1959C24.0372 46.0028 24.1033 48.5435 23.905 46.6162C23.9711 46.3504 24.1694 46.2175 24.4999 46.2175H25.0948C26.4168 46.2175 34.1812 40.2261 35.6354 40.9571C37.0896 41.6882 40.1327 39.5385 41.0582 40.5354L40.3641 48.2112L38.259 55.657C38.6556 56.2551 38.1268 58.3792 38.259 58.9773C38.4573 59.5755 38.5895 60.1736 38.6556 60.7717C38.7878 61.3698 38.92 62.0012 39.0522 62.6657C39.2506 63.2639 37.9896 63.862 38.3201 64.4601L39.0828 71.7372L38.4879 72.2356C38.0912 72.5679 37.7607 72.8005 37.4963 72.9334C37.4302 72.9999 37.298 73.0663 37.0997 73.1328C36.9014 73.1993 36.7692 73.2657 36.7031 73.3322L35.9099 76.5221V88.1087C35.9099 88.3081 35.8438 88.8066 35.7116 89.604C35.6455 90.468 35.5794 91.0661 35.5133 91.3984C35.4472 91.4649 35.3481 91.5978 35.2159 91.7971C35.1498 91.9965 35.1167 92.1294 35.1167 92.1959H35.0176V92.3953C35.0176 92.7275 35.1828 93.0931 35.5133 93.4918C35.9099 93.957 36.3065 94.1896 36.7031 94.1896L37.4963 93.7909L37.8929 93.3921V81.4068C37.8268 81.2738 37.7277 81.008 37.5955 80.6093C37.5294 80.2105 37.4963 79.9447 37.4963 79.8118C37.4963 79.546 37.6285 79.413 37.8929 79.413C39.1489 80.1441 38.0836 81.008 39.2734 82.0049C40.5157 82.9909 41.6933 84.107 42.8062 85.3531C42.8176 85.7786 42.849 86.2243 42.9005 86.6901C42.9005 87.3547 42.9666 87.9861 43.0988 88.5842C43.1295 88.8933 43.1817 89.188 43.2554 89.4683C43.2536 89.7017 43.2483 89.9386 43.2395 90.1792V92.1959V98.6755Z" stroke="black" stroke-width="2" mask="url(#path-1-inside-1_348_2142)"/>
</g>
<defs>
<filter id="filter0_d_348_2142" x="0" y="0" width="98" height="128" filterUnits="userSpaceOnUse" color-interpolation-filters="sRGB">
<feFlood flood-opacity="0" result="BackgroundImageFix"/>
<feColorMatrix in="SourceAlpha" type="matrix" values="0 0 0 0 0 0 0 0 0 0 0 0 0 0 0 0 0 0 127 0" result="hardAlpha"/>
<feOffset/>
<feGaussianBlur stdDeviation="10"/>
<feComposite in2="hardAlpha" operator="out"/>
<feColorMatrix type="matrix" values="0 0 0 0 0.504125 0 0 0 0 0.879167 0 0 0 0 0.238108 0 0 0 1 0"/>
<feBlend mode="normal" in2="BackgroundImageFix" result="effect1_dropShadow_348_2142"/>
<feBlend mode="normal" in="SourceGraphic" in2="effect1_dropShadow_348_2142" result="shape"/>
</filter>
</defs>
</svg>
