<svg width="225" height="198" viewBox="0 0 225 198" fill="none" xmlns="http://www.w3.org/2000/svg">
<path d="M123.804 2.15712C123.69 2.14837 123.57 2.14346 123.446 2.13979C123.468 2.10514 123.492 2.0775 123.512 2.0404C123.556 1.96324 123.69 2.03848 123.804 2.15712ZM126.839 4.74424C126.836 4.74109 126.833 4.73915 126.831 4.73617C126.835 4.7367 126.839 4.73669 126.843 4.73792C126.842 4.73914 126.84 4.74179 126.839 4.74424ZM111.494 2.65021C111.481 2.65021 111.469 2.65021 111.457 2.65021C111.458 2.64286 111.461 2.63483 111.462 2.62748C111.425 2.60211 111.436 2.56642 111.45 2.55715C111.454 2.56817 111.46 2.57742 111.465 2.58862C111.465 2.60035 111.467 2.60648 111.462 2.62748C111.468 2.63185 111.478 2.63361 111.487 2.63729C111.489 2.64166 111.492 2.64653 111.494 2.65021ZM111.537 2.7447C111.533 2.74908 111.528 2.74909 111.524 2.75154C111.527 2.74664 111.53 2.74175 111.534 2.73667C111.535 2.73912 111.536 2.74225 111.537 2.7447ZM171.4 1.61573C171.41 1.59789 171.418 1.57428 171.427 1.55521C171.48 1.58058 171.534 1.59719 171.587 1.62431C171.525 1.62186 171.462 1.61871 171.4 1.61573ZM166.069 5.16942C170.262 5.02139 174.372 4.99848 178.338 3.65095C179.423 4.21509 180.4 3.87002 181.361 3.37132C182.495 3.51078 183.564 3.19793 184.65 3.00335C185.511 3.58796 185.991 3.59284 186.053 2.95888C187.695 3.10097 188.726 3.19163 189.757 3.28175C189.98 3.31324 190.204 3.37867 190.425 3.37132C191.087 3.3491 192.15 3.91445 192.255 2.96938C192.333 2.2775 191.243 2.11444 190.508 2.03237C190.278 2.00648 190.004 2.26577 189.75 2.39351C188.719 2.44968 187.603 2.02185 186.053 2.95642C186.069 2.78232 186.061 2.57061 186.013 2.29782C185.896 2.00332 185.779 1.70952 185.662 1.41451C184.633 0.737853 184.637 1.8448 184.151 2.10517C183.384 2.60649 182.707 1.9559 181.979 1.97007C181.934 1.73857 181.893 1.50514 181.849 1.27312C178.754 0.217457 175.478 0.48482 172.321 0.582285C166.523 0.760766 160.749 0.312633 154.96 0.388575C151.844 0.429171 148.707 0.16253 145.711 1.22432C145.305 1.22012 144.899 1.21625 144.493 1.21328C144.196 1.07119 143.918 0.96814 143.728 1.05091C142.414 0.82798 141.093 0.903386 139.766 1.09219C138.129 0.194013 136.723 1.96254 135.115 1.41327C132.954 0.411332 130.818 1.56936 128.645 1.50217C124.079 1.36078 119.492 0.545897 114.925 1.51809C113.123 1.72615 111.322 1.64355 109.517 1.64967C107.908 1.65404 106.203 1.32861 104.614 1.92127C104 1.75398 103.385 1.61572 102.742 1.7984C101.797 1.51563 100.877 0.882395 99.8614 1.64164C97.2328 1.97428 94.6418 1.33244 92.0223 1.41871C91.5355 1.77007 91.0495 2.12072 90.5626 2.47191C90.5662 2.47996 90.5717 2.48539 90.5758 2.49344C89.2008 1.66578 87.7299 2.19911 86.2925 2.25212C85.2389 2.34294 84.107 1.81819 83.1389 2.57061C83.0507 2.0126 82.7749 1.64968 82.1633 2.11023C81.5883 2.54295 81.9597 2.88978 82.4603 3.14788C82.4367 3.24237 82.4647 3.32076 82.5444 3.3855C83.0812 3.67072 83.6188 3.82923 84.1631 3.57306C84.2306 3.96519 84.3306 4.36329 83.8147 4.64728C83.2499 4.78062 82.6424 4.39233 81.9757 4.83853C82.8222 5.46951 82.7235 6.61459 83.709 7.18923C86.1076 9.81517 89.5162 9.98877 92.9168 10.201C93.2987 10.2257 93.6981 10.3097 94.0473 10.4479C97.4204 11.7849 101.145 11.6912 104.579 11.6098C111.8 11.4381 119.108 10.9456 125.937 8.45541C128.197 7.63195 130.782 8.18749 132.888 6.93988C138.091 6.86761 143.123 5.26269 148.37 5.5836C150.755 6.55842 153.121 5.98748 155.49 5.52448C155.49 5.52693 155.49 5.52815 155.491 5.5306C159.035 5.71153 162.552 5.29419 166.069 5.16942Z" fill="white"/>
<path d="M197.475 9.91501C199.579 10.6527 201.384 10.1348 203.013 8.87544C203.214 7.73894 202.921 7.65808 200.995 8.31741C200.673 8.46492 200.447 8.82485 199.992 8.68224C199.108 8.10323 198.188 8.16624 197.253 8.56799C195.837 9.77676 194.985 7.58335 193.684 8.10077C192.286 8.05318 190.855 8.46931 189.496 7.8693C188.657 7.95451 188.075 7.0915 187.182 7.37357C185.398 7.13892 183.611 6.71056 181.845 7.44705C181.093 7.32912 180.33 7.06734 179.592 7.11616C176.261 7.33716 172.562 5.67974 169.734 8.57288C169.374 8.5699 169.068 8.48663 168.922 8.15504C168.462 6.87856 167.588 7.12545 166.635 7.66246C166.424 8.2378 164.876 7.75063 165.389 8.90131C166.554 9.41243 167.736 9.58654 168.956 9.05145C168.957 9.05075 168.958 9.05076 168.96 9.05076C169.225 9.05146 169.49 9.05267 169.754 9.05442C170.215 9.26615 170.682 9.4471 171.211 9.23712C172.768 9.47982 174.306 10.2212 175.904 9.37482C175.906 9.37482 175.907 9.37484 175.908 9.37554C179.104 8.91061 182.301 8.60315 185.526 9.18531C185.715 9.22048 185.95 9.05077 186.165 8.97482C187.847 9.22925 189.529 9.48225 191.211 9.73527C192.098 10.1983 193.013 10.5131 194.056 10.1805C194.739 10.1267 195.422 10.0742 196.105 10.0212C196.569 10.0632 197.03 10.0791 197.475 9.91501Z" fill="white"/>
<path d="M38.1075 9.04342C39.7339 8.02486 41.418 8.11005 43.1909 8.3545C43.9735 8.58408 44.8541 9.22784 45.2854 7.965C45.3381 7.48345 44.8181 7.34157 44.584 7.02922C43.568 6.42361 42.5194 6.40872 41.445 6.89587C41.0208 6.89149 40.5977 6.8866 40.1741 6.881C39.8567 6.59701 39.538 6.31249 39.2207 6.0292C38.8304 5.79892 38.5034 5.68344 38.2213 5.65142C36.1724 4.93102 35.8945 5.32103 35.8081 7.50253C35.2224 7.81872 34.7708 8.21243 35.3519 8.8044C36.1602 9.62926 37.3262 9.53407 38.1075 9.04342Z" fill="white"/>
<path d="M62.3406 7.23092C62.2434 8.67486 64.2863 8.00503 65.3558 8.34519C66.4135 8.37109 67.5364 8.78404 68.4449 7.9562C68.6894 7.7352 68.6067 7.46243 68.4303 7.20556C67.6518 6.07536 66.5017 6.70003 65.4844 6.70317C65.4058 6.70317 65.3143 6.68096 65.2525 6.71001C64.2934 7.16496 62.4393 5.77158 62.3406 7.23092Z" fill="white"/>
<path d="M26.143 6.52472C27.3841 6.69078 28.9113 7.44144 29.6137 5.96792C30.3383 4.4475 28.1054 4.78959 27.6225 3.95563C26.9379 3.68528 26.5595 4.07969 26.5695 4.5476C26.589 5.38768 25.8786 5.56616 25.3183 5.91122C25.4374 6.28026 25.7237 6.46855 26.143 6.52472Z" fill="white"/>
<path d="M14.2108 6.55442C14.1771 5.63525 13.031 5.85134 12.3702 5.93638C11.3489 6.06552 10.3631 6.42231 9.36268 6.68269C9.35933 6.86484 9.35657 7.04578 9.35303 7.22776C10.379 7.43214 11.395 7.72049 12.434 7.8148C13.3877 7.90002 14.2387 7.29022 14.2108 6.55442Z" fill="white"/>
<path d="M49.0272 8.15822C50.3173 8.22366 50.8723 7.64954 50.5223 6.49327C50.0258 6.04147 49.3868 5.87858 48.7104 5.79266C47.7596 6.1001 46.3062 6.18039 46.595 7.39651C46.7958 8.24709 48.1374 8.11307 49.0272 8.15822Z" fill="white"/>
<path d="M62.0629 5.0539C62.1017 5.18286 62.1614 5.30448 62.2657 5.40947C63.6364 5.94824 64.3094 5.28715 64.6081 4.23166C64.8969 3.20383 63.9878 3.39018 63.3254 3.37723C63.1657 3.24757 63.0045 3.11983 62.8448 2.99087C62.5899 2.68535 62.2559 2.64389 61.8767 2.7662C61.3649 3.14083 61.1495 3.6292 61.1712 4.20873C61.1377 4.82851 61.2822 5.26563 62.0629 5.0539Z" fill="white"/>
<path d="M76.0748 3.96863C75.5561 4.0507 75.0992 4.28585 74.6651 4.57597C74.6318 4.51123 74.5866 4.4568 74.5248 4.41603C74.545 4.41305 74.5631 4.40694 74.5824 4.40379C75.0498 4.04088 75.5484 3.90074 76.0748 3.96863ZM74.4686 5.15256C75.3693 5.35868 76.2701 5.56375 77.172 5.76988C78.2339 6.12352 79.1603 5.84704 80.0229 5.28027C80.6325 4.65139 80.2292 3.84457 80.0611 3.32838C79.8089 2.56178 79.0819 1.46482 77.8506 2.72346C76.5498 1.82773 75.022 2.44507 73.6415 2.36913C72.0582 2.28093 71.5936 3.72101 72.5318 5.11421C73.1574 5.91615 73.8165 5.43463 74.4686 5.15256Z" fill="white"/>
<path d="M21.423 6.92975C21.7604 7.3686 22.0998 7.80747 22.7933 7.80694C23.2591 7.98963 23.7183 8.29078 24.2248 7.88097C25.276 7.23336 24.8207 6.40063 24.3309 5.80009C23.6799 5.00305 23.0191 5.70876 22.4185 6.06677C21.6697 5.98208 21.146 5.57594 20.6625 5.10752C20.3253 4.91609 19.9933 4.90557 19.6665 5.12587C19.7692 6.09824 21.1041 6.12221 21.423 6.92975Z" fill="white"/>
<path d="M17.9091 5.63581C17.9774 4.91419 17.451 4.92102 16.8737 5.04508C16.5396 4.91734 16.2046 4.78837 15.8705 4.66046C14.751 4.92713 15.3014 5.64211 15.341 6.22043C15.6705 6.53889 16.0223 6.51368 16.3908 6.27781C17.066 6.3779 17.8203 6.58334 17.9091 5.63581Z" fill="white"/>
<path d="M204.793 3.9352C204.801 3.92785 204.807 3.91926 204.814 3.91121C204.817 3.91541 204.822 3.91979 204.826 3.92416C204.815 3.92906 204.804 3.9303 204.793 3.9352ZM207.104 3.29019C205.419 3.33464 205.793 2.33639 205.711 1.51923C205.902 1.00128 205.826 0.574658 205.179 0.37098C204.857 0.269666 204.415 0.37834 204.461 0.631538C204.731 2.12973 203.037 2.19082 202.367 2.98716C201.138 2.67656 199.908 2.36787 198.679 2.05798C198.419 1.74686 198.106 1.76858 197.77 1.94321C197.325 2.48023 196.642 2.61984 195.977 2.79447C195.677 3.479 196.121 3.73762 196.767 3.88216C197.198 3.82476 197.376 3.02842 197.86 3.4055C199.576 4.73886 201.433 4.12591 203.28 3.85137C203.698 3.90753 204.117 3.963 204.534 4.01794C205.356 4.66047 206.189 4.26678 207.019 4.03896C207.555 3.81306 207.743 3.27165 207.104 3.29019Z" fill="white"/>
<path d="M211.426 3.61312C211.477 3.15939 211.119 3.04267 210.724 3.01992C210.309 2.99647 209.745 2.73715 209.569 3.30444C209.439 3.72299 209.895 3.87609 210.245 3.99893C210.737 4.17111 211.138 4.04025 211.426 3.61312Z" fill="white"/>
<path d="M40.5082 5.55258C40.8277 5.67979 41.086 5.59385 41.2285 5.18597C41.2903 4.88272 41.0659 4.62971 40.6909 4.49445C40.3903 4.38526 40.0757 4.44265 39.9903 4.76304C39.8909 5.14205 40.1409 5.40437 40.5082 5.55258Z" fill="white"/>
<path d="M54.312 5.01993C54.3405 4.87907 54.3702 4.73716 54.3974 4.597C54.1112 4.26559 53.757 4.0304 53.2806 4.21116C53.1682 4.25385 53.0641 4.58527 53.1342 4.69078C53.3974 5.08712 53.8738 5.02973 54.312 5.01993Z" fill="white"/>
<path d="M161.893 8.39946C161.735 8.39701 161.469 8.54821 161.437 8.66983C161.356 8.97114 161.594 9.17849 161.919 9.13964C162.16 9.11182 162.378 8.92842 162.561 8.83708C162.516 8.31249 162.136 8.40383 161.893 8.39946Z" fill="white"/>
<path d="M214.891 151.881C214.894 151.56 214.988 151.288 215.362 151.159C216.797 150.75 216.52 149.974 215.916 149.126C215.267 148.939 215.816 147.562 214.522 148.018C213.946 149.054 213.751 150.106 214.354 151.19C214.354 151.191 214.354 151.192 214.354 151.192C214.353 151.427 214.352 151.664 214.35 151.898C214.111 152.309 213.907 152.722 214.144 153.194C213.871 154.578 213.037 155.945 213.989 157.363C213.988 157.365 213.988 157.366 213.988 157.368C214.511 160.208 214.857 163.051 214.201 165.917C214.163 166.086 214.354 166.296 214.439 166.486C214.154 167.98 213.869 169.477 213.583 170.971C213.063 171.759 212.709 172.572 213.083 173.501C213.143 174.107 213.203 174.715 213.263 175.321C213.216 175.734 213.197 176.145 213.381 176.539C212.552 178.409 213.134 180.014 214.551 181.462C215.83 181.64 215.921 181.38 215.178 179.669C215.012 179.382 214.608 179.182 214.768 178.775C215.42 177.99 215.348 177.173 214.897 176.341C213.538 175.083 216.005 174.325 215.422 173.169C215.476 171.926 215.008 170.656 215.682 169.448C215.586 168.701 216.559 168.184 216.241 167.391C216.504 165.805 216.986 164.216 216.157 162.646C216.291 161.977 216.585 161.298 216.53 160.642C216.282 157.681 218.147 154.395 214.891 151.881Z" fill="white"/>
<path d="M215.137 39.3983C214.879 40.0926 214.154 40.8755 215.575 41.2594C216.117 41.3068 216.276 40.844 216.627 40.6365C217.309 39.7321 217.325 38.8013 216.778 37.8452C216.784 37.4691 216.789 37.092 216.794 36.7167C217.114 36.4334 217.434 36.1512 217.753 35.8679C218.012 35.5211 218.143 35.2297 218.179 34.9797C218.988 33.1586 218.55 32.9117 216.096 32.8351C215.741 32.3147 215.296 31.9135 214.631 32.4297C213.703 33.1481 213.811 34.1839 214.363 34.8796C215.509 36.3247 215.412 37.8217 215.137 39.3983Z" fill="white"/>
<path d="M216.401 56.4196C214.776 56.3325 215.53 58.1498 215.148 59.0998C215.118 60.04 214.654 61.0381 215.584 61.8461C215.834 62.0635 216.141 61.99 216.43 61.8332C217.7 61.1399 216.998 60.1184 216.995 59.2128C216.995 59.1442 217.02 59.0622 216.987 59.0079C216.475 58.156 218.042 56.5078 216.401 56.4196Z" fill="white"/>
<path d="M219.582 67.3019C219.99 67.7173 220.148 68.1598 220.071 68.6277C219.979 68.1661 219.714 67.7605 219.388 67.3754C219.46 67.3451 219.522 67.3048 219.568 67.2499C219.571 67.2672 219.578 67.2839 219.582 67.3019ZM218.782 65.4789C217.881 66.0345 218.421 66.6198 218.739 67.2C218.507 68.0013 218.277 68.8018 218.045 69.6025C217.648 70.5476 217.958 71.3711 218.595 72.1364C219.304 72.679 220.211 72.321 220.791 72.1711C221.654 71.9464 222.889 71.3007 221.471 70.2062C222.479 69.05 221.784 67.6926 221.87 66.4642C221.97 65.0579 220.35 64.6432 218.782 65.4789Z" fill="white"/>
<path d="M217.886 23.5103C217.47 23.6164 217.258 23.8714 217.195 24.243C217.009 25.3468 216.163 26.7036 217.823 27.3283C219.533 27.9732 219.148 25.9881 220.086 25.5597C220.39 24.951 219.947 24.6147 219.42 24.6227C218.475 24.6413 218.274 24.009 217.886 23.5103Z" fill="white"/>
<path d="M217.162 13.6378C218.195 13.6083 217.952 12.589 217.858 12.0007C217.713 11.0932 217.311 10.2173 217.018 9.32785C216.813 9.3254 216.61 9.32295 216.405 9.31927C216.174 10.2322 215.849 11.1352 215.745 12.0581C215.647 12.9057 216.334 13.6618 217.162 13.6378Z" fill="white"/>
<path d="M218.019 44.3038C217.673 43.4587 217.582 42.1673 216.215 42.4235C215.258 42.6025 215.408 43.7952 215.358 44.5859C215.284 45.7329 215.929 46.2248 217.23 45.9144C217.74 45.4736 217.922 44.9056 218.019 44.3038Z" fill="white"/>
<path d="M220.136 183.063C220.131 183.066 220.126 183.07 220.121 183.074C220.116 183.064 220.115 183.054 220.109 183.045C220.118 183.051 220.127 183.057 220.136 183.063ZM223.825 182.749C222.14 182.989 222.07 181.483 221.175 180.888C221.524 179.795 221.873 178.701 222.221 177.608C222.571 177.378 222.546 177.101 222.35 176.802C221.745 176.406 221.588 175.798 221.393 175.208C220.622 174.94 220.33 175.336 220.169 175.908C220.233 176.293 221.129 176.451 220.705 176.882C219.204 178.405 219.893 180.057 220.203 181.699C220.141 182.071 220.078 182.442 220.016 182.814C219.293 183.544 219.735 184.284 219.993 185.023C220.246 185.5 220.855 185.667 220.835 185.098C220.785 183.599 221.908 183.932 222.826 183.861C223.409 184.029 223.889 183.961 224.119 183.387C224.232 183.102 224.111 182.708 223.825 182.749Z" fill="white"/>
<path d="M218.85 56.1725C218.705 56.2072 218.569 56.2602 218.45 56.3522C217.843 57.5708 218.587 58.1701 219.775 58.435C220.931 58.6924 220.723 57.8844 220.736 57.2949C220.881 57.1529 221.026 57.0103 221.171 56.8677C221.514 56.6399 221.562 56.3449 221.423 56.0072C221.003 55.5529 220.454 55.3608 219.802 55.38C219.105 55.351 218.612 55.4794 218.85 56.1725Z" fill="white"/>
<path d="M218.011 22.6325C218.907 22.0547 218.114 21.4664 217.71 20.9325C217.806 20.2683 218.264 19.8016 218.79 19.3719C219.005 19.0725 219.018 18.7775 218.769 18.4861C217.675 18.5787 217.648 19.7652 216.74 20.0473C216.246 20.3484 215.752 20.649 215.752 21.2664C215.548 21.6812 215.208 22.0886 215.67 22.538C216.398 23.4739 217.335 23.0689 218.011 22.6325Z" fill="white"/>
<path d="M220.818 187.29C220.348 187.174 220.176 187.578 220.037 187.89C219.843 188.328 219.991 188.685 220.471 188.94C220.982 188.985 221.113 188.666 221.139 188.316C221.164 187.947 221.456 187.447 220.818 187.29Z" fill="white"/>
<path d="M217.473 15.5757C217.361 16.1757 217.129 16.846 218.195 16.9249C219.008 16.985 219 16.5183 218.86 16.0033C219.004 15.7071 219.148 15.4101 219.292 15.1127C218.993 14.1175 218.189 14.6077 217.538 14.6423C217.179 14.9354 217.208 15.2478 217.473 15.5757Z" fill="white"/>
<path d="M219.2 113.752C219.203 113.75 219.205 113.747 219.209 113.745C219.209 113.748 219.208 113.752 219.207 113.756C219.205 113.754 219.202 113.753 219.2 113.752ZM222.11 111.054C222.121 110.953 222.126 110.846 222.13 110.737C222.169 110.756 222.2 110.777 222.241 110.794C222.328 110.833 222.244 110.952 222.11 111.054ZM221.441 100.136C221.448 100.139 221.453 100.143 221.459 100.146C221.456 100.147 221.452 100.149 221.45 100.15C221.445 100.145 221.445 100.141 221.441 100.136ZM221.626 100.085C221.614 100.085 221.605 100.087 221.581 100.083C221.576 100.088 221.573 100.098 221.569 100.106C221.565 100.108 221.56 100.109 221.555 100.111C221.555 100.1 221.555 100.089 221.555 100.078C221.564 100.08 221.573 100.081 221.581 100.083C221.611 100.049 221.651 100.06 221.659 100.073C221.649 100.077 221.638 100.082 221.626 100.085ZM222.721 153.361C222.74 153.371 222.766 153.377 222.788 153.385C222.759 153.432 222.741 153.48 222.711 153.528C222.714 153.472 222.717 153.417 222.721 153.361ZM220.745 162.216C220.588 163.224 220.939 164.174 221.159 165.139C220.501 165.904 220.496 166.331 221.209 166.386C221.049 167.846 220.947 168.763 220.845 169.679C220.81 169.877 220.736 170.075 220.745 170.272C220.77 170.862 220.133 171.806 221.196 171.899C221.975 171.968 222.159 170.999 222.251 170.347C222.281 170.141 221.989 169.898 221.846 169.673C221.782 168.756 222.263 167.765 221.212 166.386C221.407 166.401 221.646 166.393 221.952 166.351C222.284 166.246 222.614 166.142 222.946 166.039C223.708 165.124 222.463 165.126 222.17 164.694C221.605 164.013 222.338 163.412 222.321 162.764C222.582 162.726 222.844 162.688 223.104 162.65C224.292 159.897 223.992 156.986 223.882 154.18C223.68 149.026 224.185 143.894 224.1 138.749C224.055 135.978 224.355 133.189 223.16 130.526C223.165 130.166 223.169 129.805 223.173 129.444C223.332 129.18 223.448 128.933 223.355 128.763C223.606 127.597 223.521 126.421 223.308 125.242C224.319 123.787 222.33 122.536 222.948 121.108C224.075 119.187 222.772 117.289 222.848 115.357C223.007 111.298 223.923 107.221 222.83 103.162C222.595 101.56 222.689 99.9579 222.682 98.3537C222.675 96.9239 223.044 95.4091 222.376 93.9949C222.564 93.4498 222.721 92.904 222.514 92.3326C222.833 91.4918 223.545 90.6744 222.691 89.7701C222.316 87.4348 223.039 85.1317 222.941 82.8027C222.546 82.3705 222.152 81.9385 221.757 81.5058L221.732 81.5175C222.665 80.2965 222.062 78.9885 222.002 77.7093C221.902 76.7735 222.492 75.7667 221.646 74.9056C222.273 74.8284 222.682 74.584 222.164 74.0402C221.677 73.5283 221.286 73.8587 220.996 74.3044C220.891 74.2827 220.802 74.3068 220.729 74.3784C220.409 74.8551 220.23 75.334 220.518 75.8173C220.077 75.8766 219.629 75.9655 219.309 75.5074C219.16 75.005 219.597 74.4648 219.095 73.8729C218.384 74.626 217.097 74.5376 216.448 75.4136C213.495 77.5457 213.3 80.5761 213.061 83.5978C213.033 83.9385 212.94 84.2916 212.784 84.6028C211.279 87.6016 211.385 90.912 211.476 93.964C211.67 100.384 212.223 106.88 215.026 112.95C215.951 114.958 215.327 117.257 216.731 119.128C216.811 123.753 218.617 128.227 218.257 132.891C217.159 135.009 217.802 137.114 218.323 139.219C218.32 139.22 218.319 139.22 218.316 139.22C218.111 142.37 218.582 145.497 218.722 148.622C218.889 152.35 218.914 156.003 220.431 159.528C219.795 160.492 220.184 161.361 220.745 162.216Z" fill="white"/>
<path d="M219.177 36.5525C218.752 36.4648 218.456 36.6864 218.289 37.0136C218.146 37.2969 218.241 37.5259 218.702 37.6536C219.043 37.7081 219.327 37.5086 219.48 37.176C219.602 36.9081 219.539 36.629 219.177 36.5525Z" fill="white"/>
<path d="M219.259 48.2366C218.813 48.4693 218.877 48.8935 218.889 49.2835C219.048 49.3089 219.206 49.3348 219.365 49.3594C219.737 49.1045 220.002 48.7904 219.799 48.3669C219.75 48.2668 219.377 48.1736 219.259 48.2366Z" fill="white"/>
<path d="M215.086 144.911C215.089 144.771 214.918 144.535 214.783 144.504C214.443 144.432 214.211 144.646 214.254 144.934C214.285 145.148 214.491 145.343 214.594 145.504C215.184 145.464 215.082 145.127 215.086 144.911Z" fill="white"/>
<path d="M186.054 188.548C184.427 189.566 182.743 189.482 180.971 189.237C180.188 189.008 179.307 188.363 178.876 189.626C178.823 190.107 179.343 190.25 179.577 190.562C180.593 191.167 181.641 191.182 182.716 190.696C183.141 190.7 183.563 190.705 183.987 190.71C184.304 190.995 184.623 191.279 184.94 191.563C185.33 191.792 185.657 191.908 185.939 191.94C187.989 192.66 188.266 192.271 188.353 190.088C188.939 189.773 189.391 189.378 188.81 188.787C188.001 187.963 186.835 188.058 186.054 188.548Z" fill="white"/>
<path d="M161.82 190.361C161.918 188.916 159.875 189.587 158.806 189.245C157.748 189.22 156.625 188.808 155.715 189.635C155.472 189.856 155.555 190.129 155.731 190.386C156.51 191.516 157.659 190.891 158.677 190.887C158.755 190.889 158.847 190.91 158.909 190.881C159.868 190.427 161.722 191.819 161.82 190.361Z" fill="white"/>
<path d="M19.3681 193.657C19.3604 193.664 19.3545 193.673 19.3476 193.68C19.3433 193.676 19.3395 193.672 19.3352 193.668C19.3456 193.663 19.3572 193.661 19.3681 193.657ZM27.395 193.71C26.9637 193.766 26.7857 194.562 26.3009 194.186C24.5861 192.853 22.7278 193.465 20.8817 193.74C20.4632 193.684 20.0447 193.629 19.6269 193.574C18.8057 192.931 17.972 193.324 17.142 193.552C16.6062 193.779 16.4178 194.319 17.0568 194.302C18.7433 194.257 18.3682 195.255 18.4495 196.071C18.2604 196.59 18.336 197.016 18.9826 197.221C19.3043 197.322 19.7462 197.213 19.7 196.96C19.4301 195.461 21.1236 195.4 21.7943 194.605C23.0235 194.914 24.2536 195.224 25.4831 195.534C25.7422 195.845 26.0546 195.822 26.3912 195.648C26.8359 195.111 27.5198 194.971 28.1842 194.797C28.4842 194.113 28.0407 193.853 27.395 193.71Z" fill="white"/>
<path d="M198.018 191.066C196.777 190.901 195.251 190.15 194.547 191.624C193.823 193.143 196.055 192.802 196.538 193.636C197.224 193.907 197.602 193.511 197.592 193.043C197.572 192.204 198.282 192.026 198.843 191.679C198.724 191.311 198.437 191.123 198.018 191.066Z" fill="white"/>
<path d="M209.95 191.037C209.984 191.956 211.13 191.74 211.791 191.655C212.812 191.526 213.798 191.17 214.798 190.909C214.802 190.727 214.804 190.546 214.808 190.364C213.782 190.159 212.766 189.87 211.727 189.777C210.774 189.69 209.922 190.302 209.95 191.037Z" fill="white"/>
<path d="M175.134 189.434C173.844 189.367 173.289 189.941 173.639 191.097C174.135 191.55 174.774 191.712 175.449 191.799C176.401 191.492 177.854 191.411 177.565 190.194C177.365 189.344 176.023 189.478 175.134 189.434Z" fill="white"/>
<path d="M162.099 192.537C162.06 192.408 161.999 192.287 161.897 192.181C160.524 191.642 159.851 192.304 159.553 193.359C159.265 194.387 160.173 194.202 160.835 194.214C160.995 194.343 161.156 194.472 161.317 194.601C161.572 194.906 161.904 194.948 162.284 194.825C162.797 194.451 163.01 193.963 162.99 193.382C163.024 192.763 162.879 192.325 162.099 192.537Z" fill="white"/>
<path d="M148.086 193.623C148.606 193.541 149.061 193.305 149.495 193.015C149.53 193.079 149.574 193.134 149.635 193.174C149.616 193.178 149.598 193.184 149.578 193.187C149.111 193.55 148.613 193.69 148.086 193.623ZM149.692 192.439C148.792 192.233 147.891 192.028 146.989 191.822C145.928 191.468 145.001 191.745 144.138 192.311C143.528 192.94 143.932 193.747 144.1 194.263C144.352 195.029 145.079 196.126 146.311 194.867C147.611 195.763 149.139 195.145 150.52 195.222C152.102 195.31 152.569 193.87 151.63 192.476C151.003 191.676 150.345 192.156 149.692 192.439Z" fill="white"/>
<path d="M202.738 190.662C202.401 190.223 202.062 189.784 201.367 189.784C200.901 189.602 200.443 189.3 199.937 189.711C198.885 190.357 199.341 191.19 199.831 191.792C200.481 192.587 201.142 191.883 201.744 191.524C202.492 191.608 203.017 192.016 203.499 192.484C203.836 192.676 204.168 192.686 204.495 192.465C204.392 191.493 203.057 191.468 202.738 190.662Z" fill="white"/>
<path d="M34.6648 189.721C35.5043 189.636 36.0863 190.499 36.979 190.218C38.7623 190.452 40.5499 190.88 42.3159 190.144C43.0673 190.263 43.8313 190.523 44.5687 190.475C47.9 190.255 51.5993 191.912 54.4273 189.018C54.787 189.021 55.0939 189.104 55.2391 189.437C55.6994 190.713 56.573 190.466 57.5266 189.929C57.7362 189.353 59.2857 189.841 58.7731 188.69C57.6065 188.178 56.4224 188.005 55.2015 188.541C54.9356 188.54 54.671 188.538 54.4071 188.537C53.9452 188.326 53.4793 188.144 52.9501 188.355C51.3932 188.112 49.855 187.369 48.2577 188.217C48.2556 188.216 48.2542 188.216 48.2528 188.216C45.0577 188.68 41.8604 188.989 38.6359 188.405C38.4463 188.371 38.2103 188.54 37.9963 188.616C36.314 188.363 34.6325 188.109 32.9506 187.855C32.0633 187.392 31.148 187.079 30.1046 187.411C29.422 187.464 28.7389 187.517 28.0556 187.571C27.5916 187.529 27.1296 187.513 26.6853 187.677C24.5815 186.939 22.7779 187.456 21.1488 188.716C20.9474 189.853 21.2411 189.934 23.1655 189.273C23.4886 189.126 23.7136 188.767 24.1695 188.909C25.054 189.487 25.9727 189.425 26.9077 189.024C28.3241 187.815 29.1763 190.007 30.4777 189.49C31.875 189.538 33.3057 189.123 34.6648 189.721Z" fill="white"/>
<path d="M13.9168 193.592C13.4243 193.421 13.0231 193.551 12.7351 193.979C12.6839 194.432 13.0433 194.549 13.4373 194.572C13.8522 194.595 14.4156 194.854 14.592 194.286C14.7223 193.869 14.2668 193.716 13.9168 193.592Z" fill="white"/>
<path d="M207.77 191.313C207.095 191.214 206.341 191.008 206.251 191.956C206.184 192.678 206.71 192.671 207.288 192.547C207.621 192.674 207.956 192.802 208.29 192.93C209.411 192.665 208.86 191.95 208.82 191.371C208.49 191.052 208.138 191.078 207.77 191.313Z" fill="white"/>
<path d="M183.652 192.039C183.334 191.911 183.075 191.997 182.933 192.405C182.871 192.709 183.096 192.961 183.47 193.097C183.771 193.206 184.086 193.148 184.171 192.827C184.27 192.45 184.02 192.187 183.652 192.039Z" fill="white"/>
<path d="M169.849 192.572C169.821 192.713 169.791 192.854 169.764 192.995C170.05 193.325 170.404 193.561 170.88 193.381C170.993 193.337 171.097 193.006 171.026 192.9C170.763 192.504 170.288 192.562 169.849 192.572Z" fill="white"/>
<path d="M100.356 195.435C100.47 195.444 100.591 195.45 100.714 195.453C100.693 195.487 100.67 195.515 100.649 195.552C100.606 195.63 100.472 195.555 100.356 195.435ZM52.7611 195.976C52.7515 195.994 52.7438 196.018 52.7342 196.037C52.6814 196.012 52.6273 195.995 52.5743 195.968C52.6369 195.971 52.6987 195.973 52.7611 195.976ZM112.667 194.941C112.68 194.942 112.692 194.942 112.705 194.942C112.703 194.949 112.702 194.958 112.7 194.965C112.737 194.991 112.725 195.026 112.712 195.035C112.707 195.025 112.701 195.016 112.697 195.005C112.697 194.994 112.695 194.987 112.7 194.965C112.694 194.961 112.682 194.958 112.673 194.954C112.671 194.95 112.669 194.945 112.667 194.941ZM112.624 194.848C112.628 194.844 112.632 194.844 112.638 194.841C112.634 194.846 112.63 194.851 112.627 194.856C112.625 194.853 112.625 194.85 112.624 194.848ZM97.3218 192.849C97.3245 192.852 97.3273 192.853 97.3301 192.857C97.3259 192.857 97.3218 192.856 97.3176 192.855C97.319 192.853 97.3204 192.851 97.3218 192.849ZM141.701 194.446C141.725 194.351 141.697 194.271 141.617 194.208C141.081 193.923 140.543 193.764 139.998 194.02C139.931 193.628 139.83 193.229 140.345 192.945C140.911 192.813 141.519 193.201 142.186 192.755C141.338 192.123 141.438 190.979 140.452 190.403C138.054 187.778 134.645 187.605 131.245 187.391C130.862 187.367 130.463 187.284 130.113 187.145C126.741 185.808 123.016 185.901 119.583 185.983C112.362 186.155 105.053 186.647 98.2238 189.137C95.9649 189.96 93.3794 189.405 91.2723 190.653C86.0694 190.724 81.0374 192.331 75.7909 192.01C73.4068 191.034 71.04 191.606 68.6713 192.069C68.6713 192.067 68.6713 192.065 68.6705 192.063C65.1261 191.881 61.6093 192.298 58.0925 192.423C53.8994 192.572 49.789 192.595 45.8236 193.942C44.739 193.377 43.7604 193.723 42.8007 194.221C41.6667 194.082 40.5977 194.395 39.5103 194.589C38.6513 194.005 38.1713 194 38.1089 194.634C36.4664 194.492 35.4341 194.4 34.4037 194.311C34.1809 194.279 33.9567 194.214 33.7358 194.221C33.0738 194.244 32.0106 193.678 31.9062 194.623C31.8273 195.316 32.9177 195.478 33.6529 195.56C33.8842 195.587 34.1569 195.328 34.4106 195.199C35.4423 195.144 36.5577 195.571 38.1089 194.637C38.0916 194.811 38.1007 195.023 38.1477 195.295C38.2644 195.589 38.3818 195.884 38.4991 196.178C39.5284 196.855 39.5249 195.749 40.0103 195.488C40.7777 194.987 41.4541 195.638 42.1826 195.622C42.2257 195.855 42.2686 196.087 42.3117 196.319C45.4069 197.375 48.6827 197.107 51.8391 197.01C57.6378 196.831 63.4113 197.28 69.2004 197.204C72.3172 197.164 75.4547 197.431 78.4506 196.368C78.8569 196.373 79.2616 196.377 79.6679 196.38C79.9646 196.522 80.2429 196.624 80.4325 196.542C81.7457 196.765 83.068 196.689 84.3944 196.5C86.0326 197.399 87.4383 195.631 89.0459 196.18C91.2077 197.182 93.344 196.023 95.5168 196.091C100.082 196.232 104.669 197.047 109.237 196.074C111.037 195.867 112.839 195.949 114.645 195.944C116.253 195.938 117.958 196.265 119.547 195.671C120.16 195.838 120.776 195.978 121.419 195.794C122.365 196.078 123.284 196.711 124.3 195.951C126.929 195.618 129.52 196.261 132.138 196.175C132.625 195.822 133.111 195.473 133.599 195.12C133.595 195.113 133.59 195.107 133.586 195.099C134.961 195.926 136.432 195.393 137.869 195.34C138.923 195.249 140.054 195.774 141.023 195.023C141.111 195.58 141.386 195.944 141.998 195.482C142.573 195.049 142.201 194.702 141.701 194.446Z" fill="white"/>
<path d="M61.6003 188.753C61.6448 189.278 62.0245 189.187 62.2684 189.192C62.4245 189.195 62.6912 189.043 62.7239 188.922C62.8052 188.619 62.5662 188.413 62.2426 188.452C62.0011 188.48 61.783 188.663 61.6003 188.753Z" fill="white"/>
<path d="M2.05139 86.5367C2.04017 86.638 2.03485 86.7454 2.03111 86.8553C1.99312 86.836 1.96102 86.815 1.91969 86.7972C1.83287 86.7589 1.91713 86.6392 2.05139 86.5367ZM4.9605 83.8397C4.95794 83.8423 4.95597 83.8447 4.95262 83.8472C4.95262 83.8435 4.95321 83.8397 4.9536 83.836C4.95636 83.8372 4.95853 83.8384 4.9605 83.8397ZM1.44074 44.2304C1.42105 44.2206 1.39448 44.2143 1.37322 44.2057C1.40137 44.1588 1.42047 44.1112 1.4502 44.0638C1.44744 44.1193 1.44428 44.1749 1.44074 44.2304ZM2.71871 97.4543C2.7132 97.4504 2.7079 97.4474 2.70239 97.4443C2.70515 97.4431 2.70829 97.4426 2.71104 97.4406C2.71596 97.4455 2.71596 97.4492 2.71871 97.4543ZM2.53466 97.506C2.54785 97.506 2.55553 97.5036 2.58034 97.5085C2.58487 97.5029 2.58841 97.4924 2.59176 97.4851C2.59628 97.4838 2.6012 97.4819 2.60612 97.4802C2.60612 97.4907 2.60612 97.5024 2.60612 97.5129C2.59706 97.5117 2.58841 97.5097 2.58034 97.5085C2.55042 97.5419 2.51026 97.5314 2.50081 97.5183C2.51223 97.5146 2.52305 97.5097 2.53466 97.506ZM9.13615 84.6416C8.20976 82.633 8.83419 80.3341 7.43042 78.4625C7.3503 73.8378 5.54378 69.3649 5.90481 64.7011C7.00207 62.5814 6.35915 60.4763 5.83827 58.3725C5.84103 58.372 5.84201 58.372 5.84477 58.3713C6.04989 55.2213 5.5798 52.0948 5.43964 48.9694C5.27232 45.2416 5.24673 41.5878 3.73017 38.0637C4.36581 37.0989 3.97741 36.2297 3.41637 35.376C3.57326 34.3672 3.22188 33.4178 3.00279 32.4512C3.66008 31.687 3.66538 31.2597 2.95159 31.2048C3.11203 29.7449 3.21479 28.8289 3.31558 27.9122C3.352 27.7141 3.42543 27.5153 3.41637 27.3185C3.39117 26.7302 4.02858 25.7851 2.96478 25.6924C2.18524 25.6227 2.00297 26.5917 1.91005 27.2449C1.88053 27.4499 2.17206 27.6924 2.31557 27.9185C2.37935 28.8357 1.89784 29.8277 2.94982 31.2048C2.75435 31.1901 2.51497 31.1981 2.20847 31.2406C1.87775 31.3444 1.54685 31.448 1.21495 31.553C0.453521 32.4673 1.69843 32.4641 1.99135 32.8963C2.55554 33.5772 1.82323 34.179 1.84016 34.8266C1.57932 34.8649 1.31732 34.9037 1.0563 34.942C-0.13093 37.6933 0.169262 40.605 0.27832 43.4113C0.479898 48.565 -0.0238474 53.6967 0.0607998 58.8424C0.106273 61.6134 -0.193742 64.4024 1.00116 67.0642C0.995847 67.4259 0.992108 67.7864 0.987974 68.1468C0.82931 68.411 0.713176 68.658 0.806288 68.8284C0.555299 69.995 0.640731 71.1703 0.852349 72.3488C-0.158496 73.8043 1.8313 75.0544 1.21278 76.4828C0.0859878 78.4039 1.38917 80.3033 1.31338 82.2348C1.15452 86.2929 0.237566 90.3707 1.33168 94.4301C1.56554 96.0313 1.47264 97.6333 1.47874 99.2375C1.48485 100.667 1.11809 102.183 1.78523 103.596C1.59743 104.141 1.44075 104.688 1.64686 105.259C1.32815 106.1 0.616132 106.917 1.47048 107.82C1.84529 110.157 1.12223 112.459 1.21987 114.788C1.61516 115.221 2.00907 115.652 2.40396 116.085L2.42974 116.073C1.49626 117.295 2.09803 118.602 2.15768 119.882C2.25945 120.817 1.66929 121.824 2.51498 122.685C1.88859 122.763 1.47873 123.008 1.99685 123.551C2.48406 124.063 2.87523 123.732 3.165 123.287C3.27051 123.308 3.35949 123.284 3.43173 123.213C3.7528 122.736 3.93134 122.258 3.64295 121.773C4.08449 121.714 4.53175 121.625 4.85223 122.083C5.00145 122.586 4.56461 123.126 5.0662 123.718C5.77723 122.966 7.06447 123.053 7.71192 122.177C10.6653 120.045 10.861 117.016 11.0994 113.993C11.1281 113.653 11.2214 113.299 11.3773 112.988C12.8819 109.989 12.7758 106.678 12.6852 103.627C12.4913 97.2072 11.9378 90.7121 9.13615 84.6416Z" fill="white"/>
<path d="M9.27045 45.7108C9.2673 46.0311 9.1728 46.3027 8.79898 46.4324C7.36391 46.841 7.64089 47.618 8.24583 48.4656C8.89348 48.6527 8.34485 50.03 9.64015 49.5731C10.215 48.5372 10.4098 47.4854 9.80668 46.4021C9.80668 46.4009 9.80668 46.3997 9.80668 46.399C9.80845 46.1633 9.80943 45.9279 9.8112 45.6927C10.0496 45.2822 10.2533 44.868 10.0173 44.3972C10.2896 43.0138 11.1238 41.6465 10.1717 40.2272C10.1724 40.2254 10.1732 40.2242 10.1732 40.223C9.64979 37.3822 9.30352 34.5408 9.95944 31.6734C9.99802 31.5061 9.80767 31.2963 9.72223 31.1054C10.0079 29.6104 10.2923 28.1159 10.578 26.6208C11.0982 25.832 11.4524 25.0183 11.078 24.0911C11.0183 23.4843 10.9583 22.8769 10.899 22.2696C10.9457 21.8571 10.9638 21.4466 10.7793 21.0517C11.6093 19.1824 11.027 17.5774 9.61002 16.1293C8.33106 15.9503 8.24052 16.2114 8.98286 17.9232C9.1492 18.2102 9.55334 18.4102 9.3931 18.8151C8.74092 19.6016 8.81277 20.4175 9.26455 21.2491C10.6236 22.5084 8.15646 23.2652 8.73935 24.422C8.68541 25.6647 9.15293 26.9363 8.4789 28.1444C8.57378 28.8907 7.6035 29.4079 7.92004 30.2011C7.65684 31.787 7.17416 33.376 8.0037 34.9457C7.87023 35.6136 7.57633 36.2926 7.63125 36.9482C7.87929 39.9094 6.01468 43.1971 9.27045 45.7108Z" fill="white"/>
<path d="M9.02432 158.194C9.28219 157.498 10.0078 156.716 8.58593 156.333C8.04419 156.285 7.88474 156.747 7.53374 156.955C6.85204 157.858 6.83648 158.791 7.38314 159.746C7.37783 160.123 7.37232 160.499 7.36661 160.875C7.04653 161.157 6.72664 161.441 6.40793 161.723C6.14848 162.07 6.01837 162.361 5.98254 162.612C5.17288 164.433 5.61147 164.679 8.06506 164.756C8.42058 165.277 8.86428 165.678 9.53023 165.161C10.4578 164.442 10.3505 163.407 9.79895 162.712C8.65247 161.267 8.74911 159.769 9.02432 158.194Z" fill="white"/>
<path d="M7.76035 141.171C9.38519 141.258 8.63105 139.442 9.01334 138.491C9.04306 137.552 9.50724 136.554 8.57651 135.744C8.32729 135.528 8.0208 135.603 7.73142 135.759C6.46093 136.451 7.1635 137.472 7.16685 138.378C7.16626 138.446 7.14144 138.528 7.17412 138.584C7.68535 139.436 6.11918 141.084 7.76035 141.171Z" fill="white"/>
<path d="M4.57957 130.29C4.1713 129.874 4.01322 129.431 4.09 128.963C4.18193 129.425 4.4471 129.83 4.77349 130.217C4.70006 130.247 4.63904 130.286 4.59297 130.342C4.58963 130.324 4.58292 130.307 4.57957 130.29ZM5.3786 132.113C6.28039 131.556 5.73924 130.971 5.42191 130.391C5.65381 129.591 5.88453 128.79 6.11642 127.989C6.51347 127.044 6.20322 126.221 5.56561 125.454C4.85773 124.911 3.95004 125.271 3.36971 125.42C2.50769 125.645 1.27283 126.291 2.68939 127.386C1.68248 128.541 2.37679 129.899 2.28997 131.127C2.19155 132.533 3.81164 132.947 5.3786 132.113Z" fill="white"/>
<path d="M6.27565 174.08C6.69141 173.975 6.90303 173.72 6.96603 173.348C7.15265 172.244 7.99754 170.887 6.33884 170.262C4.62897 169.618 5.01363 171.603 4.07464 172.032C3.77089 172.641 4.2148 172.977 4.74158 172.968C5.68608 172.951 5.88707 173.581 6.27565 174.08Z" fill="white"/>
<path d="M6.99928 183.954C5.96502 183.984 6.20853 185.003 6.30361 185.59C6.44869 186.498 6.84988 187.374 7.1432 188.263C7.34773 188.266 7.55146 188.269 7.75619 188.271C7.98651 187.359 8.31152 186.456 8.41684 185.533C8.51448 184.685 7.82666 183.929 6.99928 183.954Z" fill="white"/>
<path d="M6.14212 153.287C6.4876 154.132 6.57875 155.423 7.94649 155.168C8.9032 154.989 8.7528 153.796 8.803 153.006C8.8776 151.859 8.23134 151.366 6.93152 151.677C6.42107 152.118 6.23878 152.686 6.14212 153.287Z" fill="white"/>
<path d="M4.02544 14.5292C4.03036 14.5255 4.03489 14.5219 4.03941 14.5182C4.04493 14.5273 4.04649 14.5373 4.05122 14.5471C4.04374 14.5397 4.0341 14.5341 4.02544 14.5292ZM0.335217 14.8428C2.02147 14.6027 2.09075 16.107 2.98584 16.7034C2.63721 17.7966 2.28839 18.8897 1.94015 19.983C1.59015 20.2126 1.61515 20.491 1.81102 20.7899C2.41596 21.1855 2.57265 21.7929 2.76892 22.3836C3.53901 22.6503 3.83093 22.2554 3.99235 21.6825C3.92857 21.2991 3.03309 21.141 3.45652 20.7095C4.95635 19.1855 4.26757 17.5342 3.95811 15.8928C4.02071 15.5207 4.08291 15.149 4.14551 14.7773C4.86855 14.0464 4.42544 13.3063 4.16854 12.5687C3.9148 12.0921 3.3071 11.9248 3.3264 12.4928C3.37659 13.9915 2.25355 13.6589 1.33523 13.7311C0.751952 13.5619 0.272812 13.6298 0.0424929 14.2044C-0.0716823 14.4904 0.050763 14.8836 0.335217 14.8428Z" fill="white"/>
<path d="M5.31029 141.418C5.45635 141.384 5.59277 141.331 5.71088 141.238C6.31758 140.02 5.57349 139.422 4.38627 139.156C3.22975 138.899 3.4388 139.707 3.42541 140.296C3.27935 140.438 3.13506 140.581 2.98958 140.723C2.64686 140.951 2.59901 141.246 2.7374 141.583C3.15808 142.039 3.70711 142.23 4.36028 142.212C5.05714 142.241 5.54947 142.111 5.31029 141.418Z" fill="white"/>
<path d="M6.15029 174.958C5.2548 175.537 6.04714 176.124 6.45049 176.658C6.35561 177.324 5.89773 177.789 5.37174 178.22C5.15618 178.519 5.14379 178.814 5.39202 179.104C6.48672 179.013 6.51291 177.827 7.42119 177.543C7.9147 177.243 8.4084 176.941 8.4084 176.324C8.61352 175.909 8.9531 175.502 8.49128 175.052C7.76292 174.118 6.8257 174.523 6.15029 174.958Z" fill="white"/>
<path d="M3.34313 10.3021C3.81322 10.4169 3.98526 10.0125 4.12345 9.70139C4.31755 9.26376 4.16971 8.90698 3.68959 8.65151C3.17973 8.60566 3.04824 8.9243 3.02245 9.27549C2.99666 9.644 2.70512 10.1453 3.34313 10.3021Z" fill="white"/>
<path d="M6.68864 182.016C6.79967 181.416 7.03155 180.745 5.96578 180.666C5.15297 180.606 5.16145 181.074 5.30082 181.587C5.15712 181.883 5.01282 182.182 4.86853 182.478C5.16795 183.474 5.97228 182.984 6.62328 182.95C6.98214 182.656 6.95302 182.343 6.68864 182.016Z" fill="white"/>
<path d="M4.98349 161.039C5.40968 161.127 5.70536 160.904 5.8719 160.577C6.01462 160.294 5.91874 160.064 5.45987 159.938C5.11813 159.882 4.83368 160.083 4.68131 160.416C4.55926 160.683 4.62305 160.963 4.98349 161.039Z" fill="white"/>
<path d="M4.90197 149.355C5.34863 149.121 5.28328 148.698 5.27226 148.308C5.1136 148.283 4.95532 148.257 4.79666 148.232C4.42401 148.487 4.15885 148.801 4.3626 149.225C4.41142 149.325 4.78444 149.417 4.90197 149.355Z" fill="white"/>
<path d="M9.07441 52.6799C9.07165 52.8195 9.24251 53.0571 9.37814 53.0862C9.71732 53.1583 9.9508 52.946 9.9075 52.6577C9.876 52.4435 9.67008 52.2491 9.56673 52.0867C8.97676 52.1262 9.07992 52.4645 9.07441 52.6799Z" fill="white"/>
</svg>
