<svg width="52" height="106" viewBox="0 0 52 106" fill="none" xmlns="http://www.w3.org/2000/svg">
<path d="M34.6949 46.2193C34.4603 44.5143 38.9527 40.3677 38.9527 40.3677C39.3228 41.1401 38.3436 44.1796 37.0389 46.8953C35.7343 49.6077 34.9286 47.9276 34.6949 46.2193ZM43.9049 91.2403C44.1375 88.9696 51.6684 99.6225 51.6684 99.6225L51.9402 98.0137C51.9402 98.0137 40.0456 82.8227 40.9246 78.5302C41.348 76.4623 51.9402 83.2178 51.9402 83.2178L51.9402 81.9115C51.9402 81.9115 42.395 77.2239 38.5772 68.4645C37.8513 66.7989 36.0477 63.567 36.2277 60.4847C36.779 51.0419 51.9402 43.749 51.9402 43.749L51.8736 41.6276C51.8736 41.6276 40.0871 49.3336 40.0871 45.4966C40.0871 42.1366 51.8517 17.916 51.8517 17.916L51.9402 13.595C51.9402 13.595 37.1546 47.6073 29.4557 44.5998C12.7292 38.0684 1.42736 0.358152 1.42736 0.358152L1.42736 4.03124C1.42736 4.03124 13.0401 29.2236 11.7923 28.8214C9.91994 28.22 0.969844 13.4847 0.969844 13.4847L0.969844 16.8873C0.969844 16.8873 12.3524 30.8788 13.489 34.6623C14.6167 38.4138 14.6265 38.4422 14.6265 38.4422L14.1854 38.4316C11.563 36.3422 6.49408 27.5224 0.969844 26.387C2.83669 28.494 11.7552 38.613 11.1307 38.613C7.49294 38.613 0.969843 36.6591 0.969843 36.6591C0.969843 36.6591 18.3287 51.0706 16.1626 54.4803C14.7487 56.7049 0.969842 54.765 0.969842 54.765C0.969842 54.765 5.36191 57.0323 11.0204 58.8084C17.358 60.8016 25.2842 62.5776 30.4088 67.856C40.8623 78.6228 47.2992 105.94 47.2992 105.94L48.3877 105.94C48.3877 105.94 43.7029 93.2158 43.9049 91.2403Z" fill="#27E7DB"/>
<path d="M36.779 68.4396C37.9298 67.3469 38.4801 69.7743 38.253 70.5752C37.3382 73.8212 35.6296 69.5289 36.779 68.4396ZM21.4062 69.0696C22.6388 68.6568 27.1542 64.9908 28.4425 64.9908C29.8084 64.9908 31.4973 63.4068 31.4973 65.8378C31.4973 67.9699 22.94 68.8775 21.4062 69.0696C21.3319 69.0945 21.2686 69.1088 21.2195 69.1088C21.1125 69.1088 21.1901 69.0981 21.4062 69.0696ZM39.7977 63.9123C40.5533 63.4069 38.6842 62.3177 38.0019 60.7231C37.3185 59.1286 41.3438 60.7231 41.3438 60.7231C41.3438 60.7231 41.4693 62.0223 41.918 63.0722C42.3679 64.1186 43.787 63.1541 44.3624 64.496C44.9367 65.8378 39.1514 65.2542 38.5041 64.496C37.8578 63.7415 39.0435 64.4142 39.7977 63.9123ZM33.5814 66.845C33.5814 66.845 33.4372 66.5105 33.4372 65.2968C33.4372 64.0866 34.9471 66.845 34.9471 66.845C35.4143 69.1942 33.5814 66.845 33.5814 66.845ZM42.4213 56.2776C43.4279 55.6049 45.1168 56.6123 45.1168 56.6123C46.1354 57.0465 45.4038 58.8796 45.1168 59.5485C44.8296 60.2212 41.4159 56.9468 42.4213 56.2776ZM19.0339 47.1018C20.2719 46.5537 25.8169 52.1026 25.8169 52.1026C26.7438 55.0568 17.4422 47.7959 19.0339 47.1018ZM26.6096 48.942C27.6336 48.1909 30.3826 50.0774 30.3826 50.0774C34.1546 53.4729 22.3178 49.1164 22.9981 47.5289C23.6781 45.9414 25.5855 49.6965 26.6096 48.942ZM9.38181 40.0012C9.65134 38.3638 12.3 41.019 13.1014 42.1401C16.1102 46.34 9.11199 41.6349 9.38181 40.0012ZM16.4223 41.8128C16.4223 42.6776 15.976 43.379 15.4257 43.379C14.8766 43.379 14.43 42.6776 14.43 41.8128C14.43 40.9478 14.8766 40.2466 15.4257 40.2466C15.976 40.2466 16.4223 40.9478 16.4223 41.8128ZM4.2059 83.3601C4.2059 84.7233 2.21883 86.5564 0.969842 87.5742L0.969842 88.3395C3.68074 86.3783 10.1613 78.2561 18.2686 74.857C31.0267 69.5074 35.6328 70.9845 38.2203 72.7463C40.8077 74.5081 51.9402 90.45 51.9402 90.45L51.9402 89.4109C51.9402 89.4109 43.6211 76.7576 43.6211 70.3153C43.6211 68.048 51.9402 69.5787 51.9402 69.5787L51.9402 67.3078C51.9402 67.3078 47.1965 65.7097 46.3875 63.8232C45.5786 61.9368 51.9402 62.1896 51.9402 62.1896L51.9402 59.8013C51.9402 59.8013 46.797 62.0863 46.0688 60.3887C45.3417 58.6908 50.5383 55.2276 51.9402 55.2276L51.9402 52.334C51.9402 52.334 46.5808 57.4309 45.5295 54.9784C44.4792 52.5225 51.9402 47.9562 51.9402 47.9562L51.9402 46.301C51.9402 46.301 37.873 53.9748 27.4993 46.7993C20.9226 42.2505 0.969845 23.091 0.969845 23.091L0.969845 26.387C2.95572 26.5613 11.3195 34.8401 11.6362 37.588C12.014 40.8589 1.62932 33.0215 0.969844 32.3594L0.969844 36.659C2.91098 38.2427 18.2751 47.077 18.2751 53.028C18.2751 60.2141 2.40773 55.4093 0.969843 54.765L0.969843 58.2566C2.65543 58.1 11.0707 58.0787 11.0707 59.7266C11.0707 61.3745 2.65543 63.3356 0.969843 63.7271L0.969843 67.9841C3.39795 65.4962 16.6625 60.0753 14.9801 63.5705C14.2793 65.0263 2.78431 70.4257 0.969843 70.5432L0.969843 74.1132C3.75584 72.6823 16.0982 66.3255 16.5293 68.5642C17.0141 71.0842 17.1222 73.3444 13.7804 75.3589C10.956 77.0601 3.05936 77.0601 0.969842 77.1847L0.969842 77.5016C2.17409 77.6333 5.69496 78.3416 5.69496 79.3417C5.69496 80.3419 2.17409 80.9433 0.969842 81.1712L0.969842 82.7374C2.46121 82.3885 4.2059 82.2248 4.2059 83.3601Z" fill="#77FFF7"/>
<path d="M36.228 58.2208C32.3099 56.6797 28.2343 58.9719 24.1982 58.8011C21.637 58.6943 20.0396 57.4557 20.055 57.4628C19.104 56.8149 19.6314 53.7932 20.5692 54.6225C21.7178 55.6512 22.9775 56.2349 24.2692 56.5338C28.1602 57.4415 32.3873 55.943 36.228 58.2208Z" fill="white"/>
</svg>
