<svg width="64" height="131" viewBox="0 0 64 131" fill="none" xmlns="http://www.w3.org/2000/svg">
<path d="M42.603 56.9015C42.3119 54.7861 47.8858 49.6413 47.8858 49.6413C48.3451 50.5996 47.1301 54.3709 45.5113 57.7403C43.8926 61.1056 42.8929 59.0211 42.603 56.9015ZM54.0302 112.761C54.3189 109.944 63.6627 123.161 63.6627 123.161L63.9999 121.165C63.9999 121.165 49.2419 102.317 50.3324 96.991C50.8578 94.4253 63.9999 102.807 63.9999 102.807L63.9999 101.186C63.9999 101.186 52.1569 95.3702 47.4199 84.5021C46.5192 82.4354 44.2814 78.4256 44.5048 74.6012C45.1889 62.8852 63.9999 53.8366 63.9999 53.8366L63.9174 51.2045C63.9174 51.2045 49.2933 60.7656 49.2933 56.0049C49.2933 51.836 63.8902 21.7845 63.8902 21.7845L63.9999 16.4233C63.9999 16.4233 45.6549 58.6237 36.1025 54.8922C15.3492 46.7884 1.32661 -0.00024688 1.32661 -0.00024688L1.32661 4.55711C1.32661 4.55711 15.735 35.8143 14.1868 35.3152C11.8637 34.569 0.75896 16.2863 0.75896 16.2863L0.75896 20.5081C0.75896 20.5081 14.8817 37.868 16.2919 42.5623C17.6912 47.2169 17.7033 47.2522 17.7033 47.2522L17.1561 47.239C13.9023 44.6466 7.61311 33.7035 0.758959 32.2949C3.07523 34.909 14.1408 47.4641 13.366 47.4641C8.85243 47.4641 0.758959 45.0398 0.758959 45.0398C0.758959 45.0398 22.2968 62.9207 19.6092 67.1513C17.855 69.9115 0.758958 67.5046 0.758958 67.5046C0.758958 67.5046 6.20837 70.3177 13.229 72.5213C21.0924 74.9944 30.9268 77.198 37.2851 83.747C50.2551 97.1059 58.2417 131 58.2417 131L59.5922 131C59.5922 131 53.7797 115.212 54.0302 112.761Z" fill="#27E7DB"/>
<path d="M45.1889 84.4711C46.6167 83.1154 47.2994 86.1272 47.0177 87.1209C45.8826 91.1483 43.7627 85.8227 45.1889 84.4711ZM26.1152 85.2529C27.6446 84.7406 33.2469 80.1921 34.8455 80.1921C36.5401 80.1921 38.6356 78.2268 38.6356 81.243C38.6356 83.8884 28.0183 85.0145 26.1152 85.2529C26.023 85.2838 25.9445 85.3014 25.8836 85.3014C25.7507 85.3014 25.847 85.2882 26.1152 85.2529ZM48.9343 78.854C49.8718 78.2269 47.5527 76.8755 46.7061 74.8971C45.8582 72.9186 50.8526 74.8971 50.8526 74.8971C50.8526 74.8971 51.0082 76.509 51.565 77.8116C52.1232 79.11 53.8839 77.9133 54.5979 79.5782C55.3105 81.2431 48.1324 80.5189 47.3293 79.5782C46.5274 78.6421 47.9984 79.4768 48.9343 78.854ZM41.2214 82.4927C41.2214 82.4927 41.0425 82.0777 41.0425 80.5718C41.0425 79.0703 42.9159 82.4927 42.9159 82.4927C43.4956 85.4075 41.2214 82.4927 41.2214 82.4927ZM52.1894 69.3813C53.4384 68.5466 55.5339 69.7965 55.5339 69.7965C56.7977 70.3353 55.89 72.6097 55.5339 73.4397C55.1775 74.2743 50.942 70.2115 52.1894 69.3813ZM23.1718 57.9965C24.7079 57.3165 31.5877 64.2012 31.5877 64.2012C32.7377 67.8666 21.1969 58.8577 23.1718 57.9965ZM32.5712 60.2798C33.8417 59.3478 37.2525 61.6884 37.2525 61.6884C41.9326 65.9013 27.2463 60.4961 28.0903 58.5264C28.934 56.5568 31.3006 61.2158 32.5712 60.2798ZM11.196 49.1865C11.5304 47.1549 14.8168 50.4494 15.8111 51.8404C19.5442 57.0514 10.8613 51.2135 11.196 49.1865ZM19.9315 51.4342C19.9315 52.5073 19.3777 53.3774 18.6949 53.3774C18.0136 53.3774 17.4596 52.5073 17.4596 51.4342C17.4596 50.361 18.0136 49.491 18.6949 49.491C19.3777 49.491 19.9315 50.361 19.9315 51.4342ZM4.77406 102.984C4.77406 104.675 2.30863 106.949 0.758957 108.212L0.758957 109.162C4.12248 106.728 12.1632 96.6509 22.2222 92.4335C38.0517 85.796 43.7667 87.6287 46.9771 89.8147C50.1874 92.0007 63.9999 111.78 63.9999 111.78L63.9999 110.491C63.9999 110.491 53.6781 94.7917 53.6781 86.7985C53.6781 83.9853 63.9999 85.8844 63.9999 85.8844L63.9999 83.0669C63.9999 83.0669 58.1142 81.084 57.1105 78.7435C56.1069 76.4029 63.9999 76.7165 63.9999 76.7165L63.9999 73.7532C63.9999 73.7532 57.6185 76.5884 56.7151 74.4821C55.8129 72.3755 62.2605 68.0785 63.9999 68.0785L63.9999 64.4883C63.9999 64.4883 57.3504 70.8122 56.0459 67.7693C54.7428 64.7222 63.9999 59.0566 63.9999 59.0566L63.9999 57.0029C63.9999 57.0029 46.5462 66.5241 33.6751 57.6212C25.5151 51.9773 0.758961 28.2053 0.758961 28.2053L0.758961 32.2948C3.22292 32.5111 13.6002 42.7829 13.9931 46.1923C14.4619 50.2507 1.5772 40.5264 0.75896 39.705L0.75896 45.0397C3.16741 47.0047 22.2303 57.9657 22.2303 65.3494C22.2303 74.2655 2.543 68.3039 0.758959 67.5045L0.758959 71.8367C2.85034 71.6425 13.2915 71.616 13.2915 73.6606C13.2915 75.7053 2.85034 78.1384 0.758959 78.6242L0.758958 83.906C3.77161 80.8192 20.2295 74.0932 18.1421 78.4299C17.2726 80.2362 3.01025 86.9354 0.758958 87.0812L0.758958 91.5107C4.21566 89.7353 19.5294 81.8482 20.0642 84.6257C20.6657 87.7524 20.7999 90.5567 16.6535 93.0563C13.1492 95.167 3.35151 95.167 0.758958 95.3216L0.758958 95.7148C2.25312 95.8782 6.62161 96.757 6.62161 97.9978C6.62161 99.2389 2.25312 99.9851 0.758958 100.268L0.758957 102.211C2.60936 101.778 4.77406 101.575 4.77406 102.984Z" fill="#77FFF7"/>
<path d="M44.5049 71.7922C39.6435 69.8802 34.5867 72.7242 29.579 72.5123C26.4012 72.3798 24.4194 70.843 24.4384 70.8518C23.2585 70.048 23.9128 66.2988 25.0764 67.3277C26.5015 68.6041 28.0645 69.3283 29.6671 69.6991C34.4948 70.8253 39.7396 68.9662 44.5049 71.7922Z" fill="white"/>
</svg>
