<svg width="356" height="166" viewBox="0 0 356 166" fill="none" xmlns="http://www.w3.org/2000/svg">
<circle cx="282.467" cy="110.831" r="1.2317" transform="rotate(-90 282.467 110.831)" fill="white"/>
<circle cx="292.389" cy="157.977" r="1.2317" transform="rotate(-90 292.389 157.977)" fill="white"/>
<circle cx="229.05" cy="113.294" r="1.2317" transform="rotate(-90 229.05 113.294)" fill="white"/>
<circle cx="256.062" cy="35.4897" r="1.2317" transform="rotate(-90 256.062 35.4897)" fill="white"/>
<circle cx="320.326" cy="93.198" r="1.2317" transform="rotate(-90 320.326 93.198)" fill="white"/>
<circle cx="253.878" cy="88.2064" r="0.518612" transform="rotate(-90 253.878 88.2064)" fill="#8A93A7"/>
<circle cx="291.211" cy="61.1194" r="0.518612" transform="rotate(-90 291.211 61.1194)" fill="#8A93A7"/>
<circle cx="355.481" cy="85.5703" r="0.518612" transform="rotate(-90 355.481 85.5703)" fill="#8A93A7"/>
<circle cx="290.441" cy="117.119" r="0.518612" transform="rotate(-90 290.441 117.119)" fill="#8A93A7"/>
<circle cx="318.689" cy="165.21" r="0.518612" transform="rotate(-90 318.689 165.21)" fill="#8A93A7"/>
<circle cx="322.076" cy="124.12" r="0.518612" transform="rotate(-90 322.076 124.12)" fill="white"/>
<circle cx="254.916" cy="125.157" r="0.518612" transform="rotate(-90 254.916 125.157)" fill="white"/>
<circle cx="238.385" cy="95.6614" r="2.39858" transform="rotate(-90 238.385 95.6614)" fill="#BEC7D4"/>
<circle cx="208.793" cy="49.9248" r="2.39858" transform="rotate(-90 208.793 49.9248)" fill="#BEC7D4"/>
<circle cx="76.0725" cy="76.9274" r="1.2317" transform="rotate(-90 76.0725 76.9274)" fill="white"/>
<circle cx="85.9944" cy="124.074" r="1.2317" transform="rotate(-90 85.9944 124.074)" fill="white"/>
<circle cx="22.6555" cy="79.3909" r="1.2317" transform="rotate(-90 22.6555 79.3909)" fill="white"/>
<circle cx="49.6673" cy="1.58629" r="1.2317" transform="rotate(-90 49.6673 1.58629)" fill="white"/>
<circle cx="113.932" cy="59.2946" r="1.2317" transform="rotate(-90 113.932 59.2946)" fill="white"/>
<circle cx="47.4844" cy="54.303" r="0.518612" transform="rotate(-90 47.4844 54.303)" fill="#8A93A7"/>
<circle cx="84.8165" cy="27.2159" r="0.518612" transform="rotate(-90 84.8165 27.2159)" fill="#8A93A7"/>
<circle cx="149.086" cy="51.6668" r="0.518612" transform="rotate(-90 149.086 51.6668)" fill="#8A93A7"/>
<circle cx="84.0469" cy="83.2156" r="0.518612" transform="rotate(-90 84.0469 83.2156)" fill="#8A93A7"/>
<circle cx="112.294" cy="131.307" r="0.518612" transform="rotate(-90 112.294 131.307)" fill="#8A93A7"/>
<circle cx="115.682" cy="90.2169" r="0.518612" transform="rotate(-90 115.682 90.2169)" fill="white"/>
<circle cx="48.5215" cy="91.254" r="0.518612" transform="rotate(-90 48.5215 91.254)" fill="white"/>
<circle cx="31.9904" cy="61.758" r="2.39858" transform="rotate(-90 31.9904 61.758)" fill="#BEC7D4"/>
<circle cx="2.39858" cy="16.0214" r="2.39858" transform="rotate(-90 2.39858 16.0214)" fill="#BEC7D4"/>
</svg>
