<svg width="1878" height="491" viewBox="0 0 1878 491" fill="none" xmlns="http://www.w3.org/2000/svg">
<circle cx="163.976" cy="179.927" r="2.84787" transform="rotate(-180 163.976 179.927)" fill="white"/>
<circle cx="272.985" cy="156.985" r="2.84787" transform="rotate(-180 272.985 156.985)" fill="white"/>
<circle cx="169.672" cy="303.434" r="2.84787" transform="rotate(-180 169.672 303.434)" fill="white"/>
<circle cx="123.207" cy="92.3926" r="2.84787" transform="rotate(-180 123.207 92.3926)" fill="white"/>
<circle cx="111.666" cy="246.027" r="1.1991" transform="rotate(-180 111.666 246.027)" fill="#8A93A7"/>
<circle cx="49.0367" cy="159.71" r="1.1991" transform="rotate(-180 49.0367 159.71)" fill="#8A93A7"/>
<circle cx="105.571" cy="11.1074" r="1.1991" transform="rotate(-180 105.571 11.1074)" fill="#8A93A7"/>
<circle cx="178.516" cy="161.491" r="1.1991" transform="rotate(-180 178.516 161.491)" fill="#8A93A7"/>
<circle cx="289.709" cy="96.1772" r="1.1991" transform="rotate(-180 289.709 96.1772)" fill="#8A93A7"/>
<circle cx="194.703" cy="88.3456" r="1.1991" transform="rotate(-180 194.703 88.3456)" fill="white"/>
<circle cx="197.102" cy="243.629" r="1.1991" transform="rotate(-180 197.102 243.629)" fill="white"/>
<circle cx="128.903" cy="281.851" r="5.54584" transform="rotate(-180 128.903 281.851)" fill="#BEC7D4"/>
<circle cx="23.1534" cy="350.271" r="5.54584" transform="rotate(-180 23.1534 350.271)" fill="#BEC7D4"/>
<circle cx="1667.4" cy="151.918" r="3.40846" transform="rotate(90 1667.4 151.918)" fill="white"/>
<circle cx="1639.94" cy="21.4518" r="3.40846" transform="rotate(90 1639.94 21.4518)" fill="white"/>
<circle cx="1815.21" cy="145.102" r="3.40846" transform="rotate(90 1815.21 145.102)" fill="white"/>
<circle cx="1740.46" cy="360.408" r="3.40846" transform="rotate(90 1740.46 360.408)" fill="white"/>
<circle cx="1562.63" cy="200.713" r="3.40846" transform="rotate(90 1562.63 200.713)" fill="white"/>
<circle cx="1746.51" cy="214.527" r="1.43514" transform="rotate(90 1746.51 214.527)" fill="#8A93A7"/>
<circle cx="1643.2" cy="289.484" r="1.43514" transform="rotate(90 1643.2 289.484)" fill="#8A93A7"/>
<circle cx="1465.34" cy="221.821" r="1.43514" transform="rotate(90 1465.34 221.821)" fill="#8A93A7"/>
<circle cx="1645.33" cy="134.517" r="1.43514" transform="rotate(90 1645.33 134.517)" fill="#8A93A7"/>
<circle cx="1567.16" cy="1.43514" r="1.43514" transform="rotate(90 1567.16 1.43514)" fill="#8A93A7"/>
<circle cx="1557.79" cy="115.143" r="1.43514" transform="rotate(90 1557.79 115.143)" fill="white"/>
<circle cx="1743.64" cy="112.273" r="1.43514" transform="rotate(90 1743.64 112.273)" fill="white"/>
<circle cx="1789.38" cy="193.896" r="6.63754" transform="rotate(90 1789.38 193.896)" fill="#BEC7D4"/>
<circle cx="1871.27" cy="320.462" r="6.63754" transform="rotate(90 1871.27 320.462)" fill="#BEC7D4"/>
<circle cx="1082.51" cy="308.807" r="3.40846" transform="rotate(-90 1082.51 308.807)" fill="white"/>
<circle cx="1445.41" cy="315.317" r="3.40846" transform="rotate(-90 1445.41 315.317)" fill="white"/>
<circle cx="934.693" cy="315.624" r="3.40846" transform="rotate(-90 934.693 315.624)" fill="white"/>
<circle cx="1009.44" cy="100.317" r="3.40846" transform="rotate(-90 1009.44 100.317)" fill="white"/>
<circle cx="1187.28" cy="260.012" r="3.40846" transform="rotate(-90 1187.28 260.012)" fill="white"/>
<circle cx="1003.4" cy="246.199" r="1.43514" transform="rotate(-90 1003.4 246.199)" fill="#8A93A7"/>
<circle cx="1106.71" cy="171.241" r="1.43514" transform="rotate(-90 1106.71 171.241)" fill="#8A93A7"/>
<circle cx="1334.44" cy="336.343" r="1.43514" transform="rotate(-90 1334.44 336.343)" fill="#8A93A7"/>
<circle cx="1104.58" cy="326.208" r="1.43514" transform="rotate(-90 1104.58 326.208)" fill="#8A93A7"/>
<circle cx="1182.75" cy="459.29" r="1.43514" transform="rotate(-90 1182.75 459.29)" fill="#8A93A7"/>
<circle cx="811.435" cy="265.343" r="1.43514" transform="rotate(-90 811.435 265.343)" fill="white"/>
<circle cx="1226.44" cy="101.343" r="1.43514" transform="rotate(-90 1226.44 101.343)" fill="white"/>
<circle cx="1342.64" cy="140.546" r="6.63754" transform="rotate(-90 1342.64 140.546)" fill="#BEC7D4"/>
<circle cx="878.637" cy="140.263" r="6.63754" transform="rotate(-90 878.637 140.263)" fill="#BEC7D4"/>
<circle cx="543.487" cy="278.827" r="3.40846" transform="rotate(90 543.487 278.827)" fill="white"/>
<circle cx="516.029" cy="148.36" r="3.40846" transform="rotate(90 516.029 148.36)" fill="white"/>
<circle cx="691.306" cy="272.01" r="3.40846" transform="rotate(90 691.306 272.01)" fill="white"/>
<circle cx="616.555" cy="487.317" r="3.40846" transform="rotate(90 616.555 487.317)" fill="white"/>
<circle cx="438.721" cy="327.622" r="3.40846" transform="rotate(90 438.721 327.622)" fill="white"/>
<circle cx="622.599" cy="341.435" r="1.43514" transform="rotate(90 622.599 341.435)" fill="#8A93A7"/>
<circle cx="519.291" cy="416.392" r="1.43514" transform="rotate(90 519.291 416.392)" fill="#8A93A7"/>
<circle cx="341.435" cy="348.73" r="1.43514" transform="rotate(90 341.435 348.73)" fill="#8A93A7"/>
<circle cx="521.421" cy="261.426" r="1.43514" transform="rotate(90 521.421 261.426)" fill="#8A93A7"/>
<circle cx="443.251" cy="128.344" r="1.43514" transform="rotate(90 443.251 128.344)" fill="#8A93A7"/>
<circle cx="433.878" cy="242.051" r="1.43514" transform="rotate(90 433.878 242.051)" fill="white"/>
<circle cx="619.729" cy="239.181" r="1.43514" transform="rotate(90 619.729 239.181)" fill="white"/>
<circle cx="665.474" cy="320.805" r="6.63754" transform="rotate(90 665.474 320.805)" fill="#BEC7D4"/>
<circle cx="747.362" cy="447.371" r="6.63754" transform="rotate(90 747.362 447.371)" fill="#BEC7D4"/>
</svg>
