<svg width="1758" height="994" viewBox="0 0 1758 994" fill="none" xmlns="http://www.w3.org/2000/svg">
<circle cx="285.179" cy="214.844" r="4.66197" fill="white"/>
<circle cx="52.9667" cy="92.8685" r="4.66197" fill="white"/>
<circle cx="275.855" cy="12.662" r="4.66197" fill="white"/>
<circle cx="351.919" cy="358.139" r="4.66197" fill="white"/>
<circle cx="370.812" cy="106.637" r="1.96293" fill="#8A93A7"/>
<circle cx="261.378" cy="245.024" r="1.96293" fill="#8A93A7"/>
<circle cx="234.879" cy="364.763" r="1.96293" fill="white"/>
<circle cx="230.953" cy="110.563" r="1.96293" fill="white"/>
<circle cx="46.7422" cy="213.564" r="1.96293" fill="white"/>
<circle cx="131.356" cy="60.2022" r="1.96293" fill="white"/>
<circle cx="424.779" cy="23" r="7" fill="#BEC7D4"/>
<circle cx="1465.48" cy="713.111" r="4.70497" fill="white"/>
<circle cx="1285.39" cy="751.014" r="4.70497" fill="white"/>
<circle cx="1262.48" cy="421.705" r="4.70497" fill="white"/>
<circle cx="1753.28" cy="612.248" r="4.70497" fill="white"/>
<circle cx="1532.84" cy="857.727" r="4.70497" fill="white"/>
<circle cx="1551.91" cy="603.906" r="1.98104" fill="#8A93A7"/>
<circle cx="1655.38" cy="746.511" r="1.98104" fill="#8A93A7"/>
<circle cx="1561.98" cy="992.019" r="1.98104" fill="#8A93A7"/>
<circle cx="1441.46" cy="743.57" r="1.98104" fill="#8A93A7"/>
<circle cx="1257.76" cy="851.474" r="1.98104" fill="#8A93A7"/>
<circle cx="1414.72" cy="864.413" r="1.98104" fill="white"/>
<circle cx="1208.76" cy="483.981" r="1.98104" fill="white"/>
<circle cx="1421.94" cy="576.162" r="9.16232" fill="#BEC7D4"/>
<circle cx="1698.14" cy="431.685" r="9.16232" fill="#BEC7D4"/>
<circle cx="1430.52" cy="340.735" r="5.49106" transform="rotate(-180 1430.52 340.735)" fill="white"/>
<circle cx="1492.37" cy="417.032" r="5.49106" transform="rotate(-180 1492.37 417.032)" fill="white"/>
<circle cx="1402.78" cy="10.1151" r="5.49106" transform="rotate(-180 1402.78 10.1151)" fill="white"/>
<circle cx="1506.24" cy="69.0717" r="5.49106" transform="rotate(-180 1506.24 69.0717)" fill="white"/>
<circle cx="1694.15" cy="33.9557" r="5.49106" transform="rotate(-180 1694.15 33.9557)" fill="white"/>
<circle cx="1380.53" cy="306.343" r="2.31203" transform="rotate(-180 1380.53 306.343)" fill="#8A93A7"/>
<circle cx="1438.33" cy="102.885" r="2.31203" transform="rotate(-180 1438.33 102.885)" fill="#8A93A7"/>
<circle cx="1610.91" cy="141.967" r="2.31203" transform="rotate(-180 1610.91 141.967)" fill="#8A93A7"/>
<circle cx="1540.63" cy="2.312" r="2.31203" transform="rotate(-180 1540.63 2.312)" fill="white"/>
<circle cx="1545.26" cy="301.719" r="2.31203" transform="rotate(-180 1545.26 301.719)" fill="white"/>
<circle cx="1733.67" cy="362.568" r="2.31203" transform="rotate(-180 1733.67 362.568)" fill="white"/>
<circle cx="1511.44" cy="236.694" r="10.6931" transform="rotate(-180 1511.44 236.694)" fill="#BEC7D4"/>
<circle cx="223.26" cy="789.325" r="5.48689" transform="rotate(-180 223.26 789.325)" fill="white"/>
<circle cx="484.082" cy="808.655" r="5.48689" transform="rotate(-180 484.082 808.655)" fill="white"/>
<circle cx="69.8285" cy="627.089" r="5.48689" transform="rotate(-180 69.8285 627.089)" fill="white"/>
<circle cx="285.06" cy="865.564" r="5.48689" transform="rotate(-180 285.06 865.564)" fill="white"/>
<circle cx="45.266" cy="910.487" r="5.48689" transform="rotate(-180 45.266 910.487)" fill="white"/>
<circle cx="195.537" cy="458.957" r="5.48689" transform="rotate(-180 195.537 458.957)" fill="white"/>
<circle cx="75.1171" cy="272.769" r="5.48689" transform="rotate(-180 75.1171 272.769)" fill="white"/>
<circle cx="534.266" cy="484.487" r="5.48689" transform="rotate(-180 534.266 484.487)" fill="white"/>
<circle cx="173.301" cy="754.96" r="2.31027" transform="rotate(-180 173.301 754.96)" fill="#8A93A7"/>
<circle cx="231.057" cy="551.656" r="2.31027" transform="rotate(-180 231.057 551.656)" fill="#8A93A7"/>
<circle cx="2.31034" cy="428.243" r="2.31027" transform="rotate(-180 2.31034 428.243)" fill="#8A93A7"/>
<circle cx="19.9383" cy="707.644" r="2.31027" transform="rotate(-180 19.9383 707.644)" fill="#8A93A7"/>
<circle cx="484.089" cy="350.31" r="2.31027" transform="rotate(-180 484.089 350.31)" fill="white"/>
<path d="M335.597 750.339C335.597 749.063 336.631 748.029 337.907 748.029C339.183 748.029 340.217 749.063 340.217 750.339C340.217 751.615 339.183 752.649 337.907 752.649C336.631 752.649 335.597 751.615 335.597 750.339Z" fill="white"/>
<path d="M417.779 634.489C417.779 633.213 418.814 632.178 420.09 632.178C421.366 632.178 422.4 633.213 422.4 634.489C422.4 635.764 421.366 636.799 420.09 636.799C418.814 636.799 417.779 635.764 417.779 634.489Z" fill="white"/>
<path d="M251.196 989.69C251.196 988.414 252.231 987.379 253.507 987.379C254.783 987.379 255.817 988.414 255.817 989.69C255.817 990.966 254.783 992 253.507 992C252.231 992 251.196 990.966 251.196 989.69Z" fill="white"/>
<circle cx="314.464" cy="577.685" r="10.685" transform="rotate(-180 314.464 577.685)" fill="#BEC7D4"/>
</svg>
