<svg width="1920" height="1569" viewBox="0 0 1920 1569" fill="none" xmlns="http://www.w3.org/2000/svg">
<circle cx="353.4" cy="214.844" r="4.66197" fill="white"/>
<circle cx="121.187" cy="92.8686" r="4.66197" fill="white"/>
<circle cx="344.076" cy="12.662" r="4.66197" fill="white"/>
<circle cx="420.14" cy="358.139" r="4.66197" fill="white"/>
<circle cx="439.033" cy="106.638" r="1.96293" fill="#8A93A7"/>
<circle cx="329.599" cy="245.024" r="1.96293" fill="#8A93A7"/>
<circle cx="303.1" cy="364.763" r="1.96293" fill="white"/>
<circle cx="299.174" cy="110.563" r="1.96293" fill="white"/>
<circle cx="114.963" cy="213.564" r="1.96293" fill="white"/>
<circle cx="199.577" cy="60.2023" r="1.96293" fill="white"/>
<circle cx="493" cy="23" r="7" fill="#BEC7D4"/>
<circle cx="1533.71" cy="713.111" r="4.70497" fill="white"/>
<circle cx="1353.61" cy="751.014" r="4.70497" fill="white"/>
<circle cx="1524.3" cy="509.064" r="4.70497" fill="white"/>
<circle cx="1821.5" cy="612.248" r="4.70497" fill="white"/>
<circle cx="1601.06" cy="857.727" r="4.70497" fill="white"/>
<circle cx="1620.13" cy="603.906" r="1.98104" fill="#8A93A7"/>
<circle cx="1723.6" cy="746.511" r="1.98104" fill="#8A93A7"/>
<circle cx="1630.2" cy="992.019" r="1.98104" fill="#8A93A7"/>
<circle cx="1509.68" cy="743.57" r="1.98104" fill="#8A93A7"/>
<circle cx="1325.98" cy="851.475" r="1.98104" fill="#8A93A7"/>
<circle cx="1482.94" cy="864.413" r="1.98104" fill="white"/>
<circle cx="1478.98" cy="607.868" r="1.98104" fill="white"/>
<circle cx="1591.65" cy="544.723" r="9.16232" fill="#BEC7D4"/>
<circle cx="1766.36" cy="431.685" r="9.16232" fill="#BEC7D4"/>
<circle cx="1481.71" cy="1093.59" r="4.70497" fill="white"/>
<circle cx="1301.61" cy="1131.49" r="4.70497" fill="white"/>
<circle cx="1472.3" cy="889.541" r="4.70497" fill="white"/>
<circle cx="1769.5" cy="992.726" r="4.70497" fill="white"/>
<circle cx="1549.06" cy="1238.2" r="4.70497" fill="white"/>
<circle cx="1568.13" cy="984.383" r="1.98104" fill="#8A93A7"/>
<circle cx="1671.6" cy="1126.99" r="1.98104" fill="#8A93A7"/>
<circle cx="1578.2" cy="1372.5" r="1.98104" fill="#8A93A7"/>
<circle cx="1457.68" cy="1124.05" r="1.98104" fill="#8A93A7"/>
<circle cx="1273.98" cy="1231.95" r="1.98104" fill="#8A93A7"/>
<circle cx="1430.94" cy="1244.89" r="1.98104" fill="white"/>
<circle cx="1426.98" cy="988.345" r="1.98104" fill="white"/>
<circle cx="1539.65" cy="925.2" r="9.16232" fill="#BEC7D4"/>
<circle cx="1714.36" cy="812.162" r="9.16232" fill="#BEC7D4"/>
<circle cx="520.918" cy="1175.51" r="3.40846" fill="white"/>
<circle cx="390.452" cy="1202.97" r="3.40846" fill="white"/>
<circle cx="514.102" cy="1027.69" r="3.40846" fill="white"/>
<circle cx="729.408" cy="1102.44" r="3.40846" fill="white"/>
<circle cx="569.713" cy="1280.28" r="3.40846" fill="white"/>
<circle cx="583.527" cy="1096.4" r="1.43514" fill="#8A93A7"/>
<circle cx="658.484" cy="1199.71" r="1.43514" fill="#8A93A7"/>
<circle cx="590.821" cy="1377.56" r="1.43514" fill="#8A93A7"/>
<circle cx="503.517" cy="1197.58" r="1.43514" fill="#8A93A7"/>
<circle cx="370.435" cy="1275.75" r="1.43514" fill="#8A93A7"/>
<circle cx="484.143" cy="1285.12" r="1.43514" fill="white"/>
<circle cx="481.273" cy="1099.27" r="1.43514" fill="white"/>
<circle cx="562.896" cy="1053.53" r="6.63754" fill="#BEC7D4"/>
<circle cx="689.462" cy="971.638" r="6.63754" fill="#BEC7D4"/>
<circle cx="1498.74" cy="340.735" r="5.49106" transform="rotate(-180 1498.74 340.735)" fill="white"/>
<circle cx="1560.59" cy="417.032" r="5.49106" transform="rotate(-180 1560.59 417.032)" fill="white"/>
<circle cx="1471" cy="10.1151" r="5.49106" transform="rotate(-180 1471 10.1151)" fill="white"/>
<circle cx="1574.46" cy="69.0718" r="5.49106" transform="rotate(-180 1574.46 69.0718)" fill="white"/>
<circle cx="1762.37" cy="33.9557" r="5.49106" transform="rotate(-180 1762.37 33.9557)" fill="white"/>
<circle cx="1448.75" cy="306.343" r="2.31203" transform="rotate(-180 1448.75 306.343)" fill="#8A93A7"/>
<circle cx="1506.55" cy="102.885" r="2.31203" transform="rotate(-180 1506.55 102.885)" fill="#8A93A7"/>
<circle cx="1679.13" cy="141.967" r="2.31203" transform="rotate(-180 1679.13 141.967)" fill="#8A93A7"/>
<circle cx="1608.85" cy="2.312" r="2.31203" transform="rotate(-180 1608.85 2.312)" fill="white"/>
<circle cx="1613.48" cy="301.719" r="2.31203" transform="rotate(-180 1613.48 301.719)" fill="white"/>
<circle cx="1801.89" cy="362.568" r="2.31203" transform="rotate(-180 1801.89 362.568)" fill="white"/>
<circle cx="1579.66" cy="236.694" r="10.6931" transform="rotate(-180 1579.66 236.694)" fill="#BEC7D4"/>
<circle cx="291.481" cy="789.325" r="5.48689" transform="rotate(-180 291.481 789.325)" fill="white"/>
<circle cx="552.303" cy="808.655" r="5.48689" transform="rotate(-180 552.303 808.655)" fill="white"/>
<circle cx="138.049" cy="627.089" r="5.48689" transform="rotate(-180 138.049 627.089)" fill="white"/>
<circle cx="353.28" cy="865.564" r="5.48689" transform="rotate(-180 353.28 865.564)" fill="white"/>
<circle cx="113.487" cy="910.487" r="5.48689" transform="rotate(-180 113.487 910.487)" fill="white"/>
<circle cx="263.758" cy="458.957" r="5.48689" transform="rotate(-180 263.758 458.957)" fill="white"/>
<circle cx="143.338" cy="272.769" r="5.48689" transform="rotate(-180 143.338 272.769)" fill="white"/>
<circle cx="367.142" cy="517.868" r="5.48689" transform="rotate(-180 367.142 517.868)" fill="white"/>
<circle cx="241.521" cy="754.96" r="2.31027" transform="rotate(-180 241.521 754.96)" fill="#8A93A7"/>
<circle cx="299.278" cy="551.656" r="2.31027" transform="rotate(-180 299.278 551.656)" fill="#8A93A7"/>
<circle cx="70.5312" cy="428.243" r="2.31027" transform="rotate(-180 70.5312 428.243)" fill="#8A93A7"/>
<circle cx="88.159" cy="707.644" r="2.31027" transform="rotate(-180 88.159 707.644)" fill="#8A93A7"/>
<circle cx="401.507" cy="451.159" r="2.31027" transform="rotate(-180 401.507 451.159)" fill="white"/>
<path d="M403.818 750.339C403.818 749.063 404.852 748.029 406.128 748.029C407.404 748.029 408.438 749.063 408.438 750.339C408.438 751.615 407.404 752.649 406.128 752.649C404.852 752.649 403.818 751.615 403.818 750.339Z" fill="white"/>
<path d="M486 634.489C486 633.213 487.035 632.178 488.311 632.178C489.587 632.178 490.621 633.213 490.621 634.489C490.621 635.765 489.587 636.799 488.311 636.799C487.035 636.799 486 635.765 486 634.489Z" fill="white"/>
<path d="M319.417 989.69C319.417 988.414 320.452 987.379 321.728 987.379C323.004 987.379 324.038 988.414 324.038 989.69C324.038 990.966 323.004 992 321.728 992C320.452 992 319.417 990.966 319.417 989.69Z" fill="white"/>
<circle cx="372.34" cy="685.363" r="10.685" transform="rotate(-180 372.34 685.363)" fill="#BEC7D4"/>
<circle cx="9.91847" cy="1279.51" r="3.40846" fill="white"/>
<circle cx="3.10158" cy="1131.69" r="3.40846" fill="white"/>
<circle cx="218.408" cy="1206.44" r="3.40846" fill="white"/>
<circle cx="58.7134" cy="1384.28" r="3.40846" fill="white"/>
<circle cx="72.5266" cy="1200.4" r="1.43514" fill="#8A93A7"/>
<circle cx="147.484" cy="1303.71" r="1.43514" fill="#8A93A7"/>
<circle cx="79.8213" cy="1481.56" r="1.43514" fill="#8A93A7"/>
<circle cx="51.8964" cy="1157.53" r="6.63754" fill="#BEC7D4"/>
<circle cx="178.462" cy="1075.64" r="6.63754" fill="#BEC7D4"/>
<circle cx="1867.4" cy="1332.41" r="3.40846" transform="rotate(-168.923 1867.4 1332.41)" fill="white"/>
<circle cx="1845.69" cy="1478.78" r="3.40846" transform="rotate(-168.923 1845.69 1478.78)" fill="white"/>
<circle cx="1648.75" cy="1364.06" r="3.40846" transform="rotate(-168.923 1648.75 1364.06)" fill="white"/>
<circle cx="1839.64" cy="1220.22" r="3.40846" transform="rotate(-168.923 1839.64 1220.22)" fill="white"/>
<circle cx="1790.75" cy="1398.02" r="1.43514" transform="rotate(-168.923 1790.75 1398.02)" fill="#8A93A7"/>
<circle cx="1737.04" cy="1282.23" r="1.43514" transform="rotate(-168.923 1737.04 1282.23)" fill="#8A93A7"/>
<circle cx="1837.61" cy="1120.69" r="1.43514" transform="rotate(-168.923 1837.61 1120.69)" fill="#8A93A7"/>
<circle cx="1888.71" cy="1314.1" r="1.43514" transform="rotate(-168.923 1888.71 1314.1)" fill="#8A93A7"/>
<circle cx="1891.65" cy="1414.84" r="1.43514" transform="rotate(-168.923 1891.65 1414.84)" fill="white"/>
<circle cx="1802.76" cy="1444.06" r="6.63754" transform="rotate(-168.923 1802.76 1444.06)" fill="#BEC7D4"/>
<circle cx="1662.82" cy="1500.1" r="6.63754" transform="rotate(-168.923 1662.82 1500.1)" fill="#BEC7D4"/>
</svg>
