<svg width="356" height="166" viewBox="0 0 356 166" fill="none" xmlns="http://www.w3.org/2000/svg">
<circle cx="282.467" cy="110.476" r="1.2317" transform="rotate(-90 282.467 110.476)" fill="white"/>
<circle cx="292.389" cy="157.622" r="1.2317" transform="rotate(-90 292.389 157.622)" fill="white"/>
<circle cx="229.05" cy="112.94" r="1.2317" transform="rotate(-90 229.05 112.94)" fill="white"/>
<circle cx="256.062" cy="35.1351" r="1.2317" transform="rotate(-90 256.062 35.1351)" fill="white"/>
<circle cx="320.326" cy="92.8434" r="1.2317" transform="rotate(-90 320.326 92.8434)" fill="white"/>
<circle cx="253.878" cy="87.8517" r="0.518612" transform="rotate(-90 253.878 87.8517)" fill="#8A93A7"/>
<circle cx="291.211" cy="60.7648" r="0.518612" transform="rotate(-90 291.211 60.7648)" fill="#8A93A7"/>
<circle cx="355.481" cy="85.2156" r="0.518612" transform="rotate(-90 355.481 85.2156)" fill="#8A93A7"/>
<circle cx="290.441" cy="116.764" r="0.518612" transform="rotate(-90 290.441 116.764)" fill="#8A93A7"/>
<circle cx="318.689" cy="164.856" r="0.518612" transform="rotate(-90 318.689 164.856)" fill="#8A93A7"/>
<circle cx="322.076" cy="123.766" r="0.518612" transform="rotate(-90 322.076 123.766)" fill="white"/>
<circle cx="254.916" cy="124.803" r="0.518612" transform="rotate(-90 254.916 124.803)" fill="white"/>
<circle cx="238.385" cy="95.3067" r="2.39858" transform="rotate(-90 238.385 95.3067)" fill="#BEC7D4"/>
<circle cx="208.793" cy="49.5702" r="2.39858" transform="rotate(-90 208.793 49.5702)" fill="#BEC7D4"/>
<circle cx="76.0725" cy="76.5727" r="1.2317" transform="rotate(-90 76.0725 76.5727)" fill="white"/>
<circle cx="85.9944" cy="123.719" r="1.2317" transform="rotate(-90 85.9944 123.719)" fill="white"/>
<circle cx="22.6555" cy="79.0362" r="1.2317" transform="rotate(-90 22.6555 79.0362)" fill="white"/>
<circle cx="49.6673" cy="1.23168" r="1.2317" transform="rotate(-90 49.6673 1.23168)" fill="white"/>
<circle cx="113.932" cy="58.94" r="1.2317" transform="rotate(-90 113.932 58.94)" fill="white"/>
<circle cx="47.4844" cy="53.9483" r="0.518612" transform="rotate(-90 47.4844 53.9483)" fill="#8A93A7"/>
<circle cx="84.8165" cy="26.8614" r="0.518612" transform="rotate(-90 84.8165 26.8614)" fill="#8A93A7"/>
<circle cx="149.086" cy="51.3122" r="0.518612" transform="rotate(-90 149.086 51.3122)" fill="#8A93A7"/>
<circle cx="84.0469" cy="82.8609" r="0.518612" transform="rotate(-90 84.0469 82.8609)" fill="#8A93A7"/>
<circle cx="112.294" cy="130.952" r="0.518612" transform="rotate(-90 112.294 130.952)" fill="#8A93A7"/>
<circle cx="115.682" cy="89.8622" r="0.518612" transform="rotate(-90 115.682 89.8622)" fill="white"/>
<circle cx="48.5215" cy="90.8995" r="0.518612" transform="rotate(-90 48.5215 90.8995)" fill="white"/>
<circle cx="31.9904" cy="61.4033" r="2.39858" transform="rotate(-90 31.9904 61.4033)" fill="#BEC7D4"/>
<circle cx="2.39858" cy="15.6667" r="2.39858" transform="rotate(-90 2.39858 15.6667)" fill="#BEC7D4"/>
</svg>
