<svg width="124" height="258" viewBox="0 0 124 258" fill="none" xmlns="http://www.w3.org/2000/svg">
<g filter="url(#filter0_f_504_27)">
<path d="M30.3831 50.3346C28.5702 63.2013 33.6033 84.8269 36.8665 84.8269C40.1302 84.8269 39.7683 76.77 41.9419 76.77C44.1192 76.77 37.591 90.5471 44.4811 92.3644C51.37 94.1735 50.1399 81.0525 53.9087 84.8269C57.6781 88.5956 46.4762 140.769 53.9087 148.206C61.3417 155.635 66.2367 150.015 63.6981 162.523C61.1607 175.032 56.0841 233.047 70.2225 226.523C84.3654 219.999 68.6354 151.872 70.2225 150.285C71.8097 148.698 79.5829 163.07 76.1723 146.754C72.7618 130.435 78.3814 105.237 82.5557 109.405C86.7224 113.571 92.342 111.58 92.342 102.88C92.342 94.1736 97.4199 45.952 89.8027 45.952C82.1899 45.952 85.6347 75.8645 80.0164 70.2449C74.3968 64.6266 81.1041 48.8494 72.0398 44.1347C62.9736 39.4213 62.2484 30 55.7209 30C49.1952 30 44.8412 33.1064 44.8412 39.9946C44.8412 46.8841 31.2873 43.9128 30.3831 50.3346Z" fill="#81E03D"/>
<path d="M67.3681 197.198L71.5398 215.947C74.3291 223.288 65.7318 227.233 62.9363 219.878C61.797 216.879 63.1565 215.751 67.3681 197.198Z" fill="#81E03D"/>
<path d="M69.1825 107.891C64.8291 116.956 60.5006 128.572 65.2371 137.426C68.3249 143.2 71.8499 138.791 71.4855 137.022C69.4866 127.404 68.3728 119.035 70.6881 109.491C71.1142 107.743 69.6085 106.156 69.1825 107.891Z" fill="#81E03D"/>
<path d="M36.5087 52.4497C27.1658 53.2258 34.3196 65.1129 40.8988 66.9233C41.8888 67.1932 42.7241 67.0514 43.4305 66.626C45.7801 65.2205 48.8019 66.2137 50.0806 68.6317C51.187 70.7319 52.7013 72.4061 54.7679 72.9073C61.566 74.5349 58.847 37.1656 58.847 37.1656C58.847 37.1656 55.773 58.5139 52.3201 55.0629C48.8679 51.6119 46.8815 46.4041 44.4331 52.4497C41.9865 58.4872 36.5087 52.4497 36.5087 52.4497Z" fill="#81E03D"/>
<path d="M86.2959 94.8227C86.2959 97.0442 84.493 98.849 82.271 98.849C80.0489 98.849 78.2466 97.0442 78.2466 94.8227C78.2466 92.6012 80.0489 90.7971 82.271 90.7971C84.493 90.7971 86.2959 92.6012 86.2959 94.8227Z" fill="#81E03D"/>
<path d="M84.7164 82.578C84.7164 83.565 83.9192 84.361 82.9334 84.361C81.9477 84.361 81.1436 83.565 81.1436 82.578C81.1436 81.5855 81.9477 80.7882 82.9334 80.7882C83.9192 80.7882 84.7164 81.5855 84.7164 82.578Z" fill="#81E03D"/>
</g>
<path d="M30.3831 50.3346C28.5702 63.2013 33.6033 84.8269 36.8665 84.8269C40.1302 84.8269 39.7683 76.77 41.9419 76.77C44.1192 76.77 37.591 90.5471 44.4811 92.3644C51.37 94.1735 50.1399 81.0525 53.9087 84.8269C57.6781 88.5956 46.4762 140.769 53.9087 148.206C61.3417 155.635 66.2367 150.015 63.6981 162.523C61.1607 175.032 56.0841 233.047 70.2225 226.523C84.3654 219.999 68.6354 151.872 70.2225 150.285C71.8097 148.698 79.5829 163.07 76.1723 146.754C72.7618 130.435 78.3814 105.237 82.5557 109.405C86.7224 113.571 92.342 111.58 92.342 102.88C92.342 94.1736 97.4199 45.952 89.8027 45.952C82.1899 45.952 85.6347 75.8645 80.0164 70.2449C74.3968 64.6266 81.1041 48.8494 72.0398 44.1347C62.9736 39.4213 62.2484 30 55.7209 30C49.1952 30 44.8412 33.1064 44.8412 39.9946C44.8412 46.8841 31.2873 43.9128 30.3831 50.3346V50.3346Z" fill="#27E7DB"/>
<path d="M67.3681 197.198L71.5398 215.947C74.3291 223.288 65.7318 227.233 62.9363 219.878C61.797 216.879 63.1565 215.751 67.3681 197.198V197.198Z" fill="white"/>
<path d="M69.1825 107.891C64.8291 116.956 60.5006 128.572 65.2371 137.426C68.3249 143.2 71.8499 138.791 71.4855 137.022C69.4866 127.404 68.3728 119.035 70.6881 109.491C71.1142 107.743 69.6085 106.156 69.1825 107.891V107.891Z" fill="white"/>
<path d="M36.5087 52.4497C27.1658 53.2258 34.3196 65.1129 40.8988 66.9233C41.8888 67.1932 42.7241 67.0514 43.4305 66.626C45.7801 65.2205 48.8019 66.2137 50.0806 68.6317C51.187 70.7319 52.7013 72.4061 54.7679 72.9073C61.566 74.5349 58.847 37.1656 58.847 37.1656C58.847 37.1656 55.773 58.5139 52.3201 55.0629C48.8679 51.6119 46.8815 46.4041 44.4331 52.4497C41.9865 58.4872 36.5087 52.4497 36.5087 52.4497Z" fill="white"/>
<path d="M86.2959 94.8227C86.2959 97.0442 84.493 98.849 82.271 98.849C80.0489 98.849 78.2466 97.0442 78.2466 94.8227C78.2466 92.6012 80.0489 90.7971 82.271 90.7971C84.493 90.7971 86.2959 92.6012 86.2959 94.8227Z" fill="white"/>
<path d="M84.7164 82.578C84.7164 83.565 83.9192 84.361 82.9334 84.361C81.9477 84.361 81.1436 83.565 81.1436 82.578C81.1436 81.5855 81.9477 80.7882 82.9334 80.7882C83.9192 80.7882 84.7164 81.5855 84.7164 82.578Z" fill="white"/>
<defs>
<filter id="filter0_f_504_27" x="0" y="0" width="124" height="257.033" filterUnits="userSpaceOnUse" color-interpolation-filters="sRGB">
<feFlood flood-opacity="0" result="BackgroundImageFix"/>
<feBlend mode="normal" in="SourceGraphic" in2="BackgroundImageFix" result="shape"/>
<feGaussianBlur stdDeviation="15" result="effect1_foregroundBlur_504_27"/>
</filter>
</defs>
</svg>
