<svg width="225" height="198" fill="none" xmlns="http://www.w3.org/2000/svg"><path d="M123.804 2.157a7.703 7.703 0 0 0-.358-.017c.022-.035.046-.063.066-.1.044-.077.178-.002.292.117Zm3.035 2.587-.008-.008c.004 0 .008 0 .012.002a.028.028 0 0 0-.004.006ZM111.494 2.65h-.037l.005-.023c-.037-.025-.026-.06-.012-.07.004.011.01.02.015.032 0 .011.002.017-.003.038.006.005.016.007.025.01l.007.013Zm.043.095c-.004.004-.009.004-.013.007a.147.147 0 0 1 .01-.015l.003.008Zm59.863-1.13c.01-.017.018-.04.027-.06.053.026.107.042.16.07l-.187-.01Zm-5.331 3.554c4.193-.148 8.303-.17 12.269-1.518 1.085.564 2.062.219 3.023-.28 1.134.14 2.203-.173 3.289-.368.861.585 1.341.59 1.403-.044 1.642.142 2.673.233 3.704.323.223.031.447.097.668.09.662-.023 1.725.542 1.83-.403.078-.692-1.012-.855-1.747-.937-.23-.026-.504.234-.758.362-1.031.056-2.147-.372-3.697.562a2.484 2.484 0 0 0-.04-.658l-.351-.883c-1.029-.677-1.025.43-1.511.69-.767.501-1.444-.15-2.172-.135-.045-.231-.086-.465-.13-.697-3.095-1.056-6.371-.788-9.528-.69-5.798.178-11.572-.27-17.361-.194-3.116.04-6.253-.226-9.249.835-.406-.004-.812-.008-1.218-.01-.297-.143-.575-.246-.765-.163-1.314-.223-2.635-.148-3.962.041-1.637-.898-3.043.87-4.651.321-2.161-1.002-4.297.156-6.47.09-4.566-.142-9.153-.957-13.72.015-1.802.208-3.603.126-5.408.132-1.609.004-3.314-.321-4.903.271-.614-.167-1.229-.305-1.872-.123-.945-.282-1.865-.916-2.88-.156-2.63.332-5.22-.31-7.84-.223l-1.46 1.053c.004.008.01.013.014.021-1.375-.827-2.846-.294-4.283-.24-1.054.09-2.186-.435-3.154.318-.088-.558-.364-.921-.976-.46-.575.432-.203.779.297 1.037-.023.094.005.173.084.237.537.286 1.075.444 1.62.188.067.392.167.79-.35 1.074-.564.134-1.172-.255-1.838.192.846.63.748 1.776 1.733 2.35 2.399 2.626 5.807 2.8 9.208 3.012a3.82 3.82 0 0 1 1.13.247c3.373 1.337 7.098 1.243 10.532 1.162 7.221-.172 14.529-.664 21.358-3.155 2.26-.823 4.845-.268 6.951-1.515 5.203-.072 10.235-1.677 15.482-1.356 2.385.974 4.751.403 7.12-.06l.001.007c3.544.18 7.061-.237 10.578-.362Zm31.406 4.746c2.104.738 3.909.22 5.538-1.04.201-1.136-.092-1.217-2.018-.558-.322.148-.548.508-1.003.365-.884-.579-1.804-.516-2.739-.114-1.416 1.209-2.268-.985-3.569-.467-1.398-.048-2.829.368-4.188-.232-.839.086-1.421-.777-2.314-.495-1.784-.235-3.571-.663-5.337.073-.752-.118-1.515-.38-2.253-.33-3.331.22-7.03-1.437-9.858 1.456-.36-.003-.666-.086-.812-.418-.46-1.276-1.334-1.03-2.287-.493-.211.576-1.759.089-1.246 1.24 1.165.51 2.347.685 3.567.15l.004-.001c.265 0 .53.002.794.003.461.212.928.393 1.457.183 1.557.243 3.095.984 4.693.138h.004c3.196-.464 6.393-.772 9.618-.19.189.035.424-.134.639-.21l5.046.76c.887.463 1.802.778 2.845.446l2.049-.16c.464.042.925.058 1.37-.106ZM38.108 9.043c1.626-1.018 3.31-.933 5.083-.688.782.23 1.663.873 2.094-.39.053-.482-.467-.623-.701-.936-1.016-.605-2.065-.62-3.139-.133l-1.27-.015-.954-.852c-.39-.23-.718-.346-1-.378-2.049-.72-2.326-.33-2.413 1.852-.586.316-1.037.71-.456 1.301.808.825 1.974.73 2.756.24ZM62.34 7.23c-.097 1.445 1.946.775 3.016 1.115 1.058.026 2.18.439 3.089-.389.244-.22.162-.494-.015-.75-.778-1.13-1.928-.506-2.946-.503-.078 0-.17-.022-.231.007-.96.455-2.814-.938-2.912.52Zm-36.197-.705c1.241.166 2.768.916 3.47-.557.725-1.52-1.508-1.178-1.99-2.012-.685-.27-1.064.124-1.053.592.019.84-.691 1.018-1.252 1.363.12.37.406.558.825.614Zm-11.933.029c-.033-.919-1.179-.703-1.84-.618-1.021.13-2.007.486-3.007.747l-.01.545c1.026.204 2.042.492 3.081.587.954.085 1.805-.525 1.777-1.26Zm34.817 1.604c1.29.066 1.845-.508 1.495-1.665-.496-.452-1.135-.614-1.812-.7-.95.307-2.404.387-2.115 1.604.2.85 1.542.716 2.432.761Zm13.036-3.104c.039.129.098.25.203.355 1.37.54 2.043-.122 2.342-1.177.289-1.028-.62-.842-1.283-.855-.16-.13-.32-.257-.48-.386-.255-.306-.59-.347-.968-.225-.512.375-.727.863-.706 1.443-.033.62.111 1.057.892.845Zm14.012-1.085c-.519.082-.976.317-1.41.607a.412.412 0 0 0-.14-.16c.02-.003.038-.01.057-.012.468-.363.966-.503 1.493-.435Zm-1.606 1.184c.9.206 1.801.41 2.703.617 1.062.354 1.988.077 2.85-.49.61-.629.207-1.435.04-1.952-.253-.766-.98-1.863-2.211-.605-1.301-.895-2.829-.278-4.21-.354-1.583-.088-2.047 1.352-1.11 2.745.626.802 1.285.32 1.938.039ZM21.423 6.93c.337.439.677.877 1.37.877.466.183.925.484 1.432.074 1.051-.648.596-1.48.106-2.08-.651-.798-1.312-.092-1.912.266-.75-.085-1.273-.491-1.756-.96-.338-.19-.67-.201-.997.019.103.972 1.438.996 1.757 1.804ZM17.91 5.636c.067-.722-.459-.715-1.036-.59L15.87 4.66c-1.12.267-.57.982-.53 1.56.33.319.681.294 1.05.058.675.1 1.43.305 1.518-.642Zm186.883-1.701c.008-.007.014-.016.021-.024l.012.013c-.011.005-.022.006-.033.011Zm2.311-.645c-1.685.045-1.311-.954-1.393-1.77.191-.519.115-.945-.532-1.149-.322-.101-.764.007-.718.26.27 1.499-1.424 1.56-2.094 2.356l-3.688-.929c-.26-.311-.573-.29-.909-.115-.445.537-1.128.677-1.793.851-.3.685.144.944.79 1.088.431-.057.609-.854 1.093-.477 1.716 1.334 3.573.72 5.42.446.418.057.837.112 1.254.167.822.642 1.655.249 2.485.021.536-.226.724-.767.085-.749Zm4.322.323c.051-.454-.307-.57-.702-.593-.415-.024-.979-.283-1.155.284-.13.419.326.572.676.695.492.172.893.041 1.181-.386ZM40.508 5.553c.32.127.578.04.72-.367.062-.303-.162-.556-.537-.692-.3-.109-.615-.051-.7.269-.1.38.15.641.517.79Zm13.804-.533c.029-.14.058-.283.085-.423-.286-.331-.64-.567-1.116-.386-.113.043-.217.374-.147.48.263.396.74.339 1.178.329ZM161.893 8.4c-.158-.003-.424.148-.456.27-.081.301.157.508.482.47.241-.028.459-.212.642-.303-.045-.525-.425-.433-.668-.438Zm52.998 143.481c.003-.321.097-.593.471-.722 1.435-.409 1.158-1.185.554-2.033-.649-.187-.1-1.564-1.394-1.108-.576 1.036-.771 2.088-.168 3.172v.002l-.004.706c-.239.411-.443.824-.206 1.296-.273 1.384-1.107 2.751-.155 4.169l-.001.005c.523 2.84.869 5.683.213 8.549-.038.169.153.379.238.569l-.856 4.485c-.52.788-.874 1.601-.5 2.53l.18 1.82c-.047.413-.066.824.118 1.218-.829 1.87-.247 3.475 1.17 4.923 1.279.178 1.37-.082.627-1.793-.166-.287-.57-.487-.41-.894.652-.785.58-1.602.129-2.434-1.359-1.258 1.108-2.016.525-3.172.054-1.243-.414-2.513.26-3.721-.096-.747.877-1.264.559-2.057.263-1.586.745-3.175-.084-4.745.134-.669.428-1.348.373-2.004-.248-2.961 1.617-6.247-1.639-8.761Zm.246-112.483c-.258.695-.983 1.477.438 1.861.542.048.701-.415 1.052-.623.682-.904.698-1.835.151-2.79l.016-1.13.959-.848c.259-.347.39-.638.426-.888.809-1.821.371-2.068-2.083-2.145-.355-.52-.8-.922-1.465-.405-.928.718-.82 1.754-.268 2.45 1.146 1.445 1.049 2.942.774 4.518Zm1.264 17.022c-1.625-.087-.871 1.73-1.253 2.68-.03.94-.494 1.938.436 2.746.25.218.557.144.846-.013 1.27-.693.568-1.715.565-2.62 0-.069.025-.15-.008-.205-.512-.852 1.055-2.5-.586-2.588Zm3.181 10.882c.408.415.566.858.489 1.326-.092-.462-.357-.868-.683-1.253a.464.464 0 0 0 .18-.125c.003.017.01.034.014.052Zm-.8-1.823c-.901.555-.361 1.14-.043 1.721l-.694 2.403c-.397.945-.087 1.768.55 2.533.709.543 1.616.185 2.196.035.863-.225 2.098-.87.68-1.965 1.008-1.156.313-2.513.399-3.742.1-1.406-1.52-1.82-3.088-.985Zm-.896-41.969c-.416.106-.628.361-.691.733-.186 1.104-1.032 2.46.628 3.085 1.71.645 1.325-1.34 2.263-1.768.304-.609-.139-.945-.666-.937-.945.018-1.146-.614-1.534-1.113Zm-.724-9.872c1.033-.03.79-1.049.696-1.637-.145-.908-.547-1.784-.84-2.673l-.613-.009c-.231.913-.556 1.816-.66 2.74-.098.847.589 1.603 1.417 1.579Zm.857 30.666c-.346-.845-.437-2.137-1.804-1.88-.957.178-.807 1.371-.857 2.162-.074 1.147.571 1.639 1.872 1.328.51-.44.692-1.008.789-1.61Zm2.117 138.759a.143.143 0 0 0-.015.011c-.005-.01-.006-.02-.012-.029l.027.018Zm3.689-.314c-1.685.24-1.755-1.266-2.65-1.861l1.046-3.28c.35-.23.325-.507.129-.806-.605-.396-.762-1.004-.957-1.594-.771-.268-1.063.128-1.224.7.064.385.96.543.536.974-1.501 1.523-.812 3.175-.502 4.817l-.187 1.115c-.723.73-.281 1.47-.023 2.209.253.477.862.644.842.075-.05-1.499 1.073-1.166 1.991-1.237.583.168 1.063.1 1.293-.474.113-.285-.008-.679-.294-.638ZM218.85 56.172a1.03 1.03 0 0 0-.4.18c-.607 1.219.137 1.818 1.325 2.083 1.156.257.948-.55.961-1.14l.435-.427c.343-.228.391-.523.252-.86-.42-.455-.969-.647-1.621-.628-.697-.029-1.19.1-.952.792Zm-.839-33.539c.896-.578.103-1.167-.301-1.7.096-.665.554-1.131 1.08-1.561.215-.3.228-.595-.021-.886-1.094.093-1.121 1.28-2.029 1.561-.494.301-.988.602-.988 1.22-.204.414-.544.822-.082 1.271.728.936 1.665.53 2.341.095Zm2.807 164.657c-.47-.116-.642.288-.781.6-.194.438-.046.795.434 1.05.511.045.642-.274.668-.624.025-.369.317-.869-.321-1.026Zm-3.345-171.714c-.112.6-.344 1.27.722 1.349.813.06.805-.407.665-.922l.432-.89c-.299-.995-1.103-.505-1.754-.47-.359.292-.33.605-.065.933Zm1.727 98.176.009-.007-.002.011-.007-.004Zm2.91-2.698a4.49 4.49 0 0 0 .02-.317c.039.019.07.04.111.057.087.039.003.158-.131.26Zm-.669-10.918.018.01-.009.004c-.005-.005-.005-.009-.009-.014Zm.185-.051c-.012 0-.021.002-.045-.002-.005.005-.008.015-.012.023l-.014.005v-.033l.026.005c.03-.034.07-.023.078-.01-.01.004-.021.009-.033.012Zm1.095 53.276c.019.01.045.016.067.024-.029.047-.047.095-.077.143l.01-.167Zm-1.976 8.855c-.157 1.008.194 1.958.414 2.923-.658.765-.663 1.192.05 1.247-.16 1.46-.262 2.377-.364 3.293-.035.198-.109.396-.1.593.025.59-.612 1.534.451 1.627.779.069.963-.9 1.055-1.552.03-.206-.262-.449-.405-.674-.064-.917.417-1.908-.634-3.287.195.015.434.007.74-.035.332-.105.662-.209.994-.312.762-.915-.483-.913-.776-1.345-.565-.681.168-1.282.151-1.93l.783-.114c1.188-2.753.888-5.664.778-8.47-.202-5.154.303-10.286.218-15.431-.045-2.771.255-5.56-.94-8.223l.013-1.082c.159-.264.275-.511.182-.681.251-1.166.166-2.342-.047-3.521 1.011-1.455-.978-2.706-.36-4.134 1.127-1.921-.176-3.819-.1-5.751.159-4.059 1.075-8.136-.018-12.195-.235-1.602-.141-3.204-.148-4.808-.007-1.43.362-2.945-.306-4.36.188-.544.345-1.09.138-1.661.319-.841 1.031-1.659.177-2.563-.375-2.335.348-4.638.25-6.967l-1.184-1.297-.025.011c.933-1.22.33-2.528.27-3.808-.1-.936.49-1.942-.356-2.803.627-.078 1.036-.322.518-.866-.487-.512-.878-.181-1.168.264a.278.278 0 0 0-.267.074c-.32.477-.499.956-.211 1.44-.441.059-.889.148-1.209-.31-.149-.503.288-1.043-.214-1.635-.711.753-1.998.665-2.647 1.54-2.953 2.133-3.148 5.163-3.387 8.185-.028.34-.121.694-.277 1.005-1.505 2.999-1.399 6.309-1.308 9.361.194 6.42.747 12.916 3.55 18.986.925 2.008.301 4.307 1.705 6.178.08 4.625 1.886 9.099 1.526 13.763-1.098 2.118-.455 4.223.066 6.328l-.007.001c-.205 3.15.266 6.277.406 9.402.167 3.728.192 7.381 1.709 10.906-.636.964-.247 1.833.314 2.688Zm-1.568-125.663c-.425-.088-.721.133-.888.46-.143.284-.048.513.413.64.341.055.625-.144.778-.477.122-.268.059-.547-.303-.623Zm.082 11.684c-.446.232-.382.657-.37 1.046.159.026.317.052.476.076.372-.255.637-.569.434-.992-.049-.1-.422-.193-.54-.13Zm-4.173 96.674c.003-.14-.168-.376-.303-.407-.34-.072-.572.142-.529.43.031.214.237.409.34.57.59-.04.488-.377.492-.593Zm-29.032 43.637c-1.627 1.018-3.311.934-5.083.689-.783-.229-1.664-.874-2.095.389-.053.481.467.624.701.936 1.016.605 2.064.62 3.139.134l1.271.014.953.853c.39.229.717.345.999.377 2.05.72 2.327.331 2.414-1.852.586-.315 1.038-.71.457-1.301-.809-.824-1.975-.729-2.756-.239Zm-24.234 1.813c.098-1.445-1.945-.774-3.014-1.116-1.058-.025-2.181-.437-3.091.39-.243.221-.16.494.016.751.779 1.13 1.928.505 2.946.501.078.002.17.023.232-.006.959-.454 2.813.938 2.911-.52Zm-142.452 3.296c-.008.007-.013.016-.02.023l-.013-.012c.01-.005.022-.007.033-.011Zm8.027.053c-.431.056-.61.852-1.094.476-1.715-1.333-3.573-.721-5.42-.446l-1.254-.166c-.821-.643-1.655-.25-2.485-.022-.536.227-.724.767-.085.75 1.686-.045 1.311.953 1.393 1.769-.19.519-.114.945.533 1.15.321.101.763-.008.717-.261-.27-1.499 1.424-1.56 2.094-2.355l3.69.929c.258.311.57.288.907.114.445-.537 1.129-.677 1.793-.851.3-.684-.143-.944-.789-1.087Zm170.623-2.644c-1.241-.165-2.767-.916-3.471.558-.724 1.519 1.508 1.178 1.991 2.012.686.271 1.064-.125 1.054-.593-.02-.839.69-1.017 1.251-1.364-.119-.368-.406-.556-.825-.613Zm11.932-.029c.034.919 1.18.703 1.841.618 1.021-.129 2.007-.485 3.007-.746l.01-.545c-1.026-.205-2.042-.494-3.081-.587-.953-.087-1.805.525-1.777 1.26Zm-34.816-1.603c-1.29-.067-1.845.507-1.495 1.663.496.453 1.135.615 1.81.702.952-.307 2.405-.388 2.116-1.605-.2-.85-1.542-.716-2.431-.76Zm-13.035 3.103a.856.856 0 0 0-.202-.356c-1.373-.539-2.046.123-2.344 1.178-.288 1.028.62.843 1.282.855l.482.387c.255.305.587.347.967.224.513-.374.726-.862.706-1.443.034-.619-.111-1.057-.891-.845Zm-14.013 1.086c.52-.082.975-.318 1.409-.608a.43.43 0 0 0 .14.159c-.019.004-.037.01-.057.013-.467.363-.965.503-1.492.436Zm1.606-1.184-2.703-.617c-1.061-.354-1.988-.077-2.851.489-.61.629-.206 1.436-.038 1.952.252.766.979 1.863 2.211.604 1.3.896 2.828.278 4.209.355 1.582.088 2.049-1.352 1.11-2.746-.627-.8-1.285-.32-1.938-.037Zm53.046-1.777c-.337-.439-.676-.878-1.371-.878-.466-.182-.924-.484-1.43-.073-1.052.646-.596 1.479-.106 2.081.65.795 1.311.091 1.913-.268.748.084 1.273.492 1.755.96.337.192.669.202.996-.019-.103-.972-1.438-.997-1.757-1.803Zm-168.073-.941c.84-.085 1.421.778 2.314.497 1.783.234 3.57.662 5.337-.074.751.119 1.515.379 2.253.331 3.331-.22 7.03 1.437 9.858-1.457.36.003.667.086.812.419.46 1.276 1.334 1.029 2.288.492.21-.576 1.759-.088 1.246-1.239-1.167-.512-2.35-.685-3.572-.149l-.794-.004c-.462-.211-.928-.393-1.457-.182-1.557-.243-3.095-.986-4.692-.138l-.005-.001c-3.195.464-6.393.773-9.617.189-.19-.034-.426.135-.64.211l-5.045-.761c-.888-.463-1.803-.776-2.846-.444l-2.05.16c-.463-.042-.925-.058-1.37.106-2.104-.738-3.907-.221-5.536 1.039-.202 1.137.092 1.218 2.017.557.323-.147.548-.506 1.003-.364.885.578 1.804.516 2.739.115 1.416-1.209 2.268.983 3.57.466 1.397.048 2.828-.367 4.187.231Zm-20.748 3.871c-.493-.171-.894-.041-1.182.387-.051.453.308.57.702.593.415.023.979.282 1.155-.286.13-.417-.325-.57-.675-.694Zm193.853-2.279c-.675-.099-1.429-.305-1.519.643-.067.722.459.715 1.037.591l1.002.383c1.121-.265.57-.98.53-1.559-.33-.319-.682-.293-1.05-.058Zm-24.118.726c-.318-.128-.577-.042-.719.366-.062.304.163.556.537.692.301.109.616.051.701-.27.099-.377-.151-.64-.519-.788Zm-13.803.533c-.028.141-.058.282-.085.423.286.33.64.566 1.116.386.113-.044.217-.375.146-.481-.263-.396-.738-.338-1.177-.328Zm-69.493 2.863c.114.009.235.015.358.018-.021.034-.044.062-.065.099-.043.078-.177.003-.293-.117Zm-47.595.541c-.01.018-.017.042-.027.061-.053-.025-.107-.042-.16-.069l.187.008Zm59.906-1.035.038.001-.005.023c.037.026.025.061.012.07-.005-.01-.011-.019-.015-.03 0-.011-.002-.018.003-.04-.006-.004-.018-.007-.027-.011l-.006-.013Zm-.043-.093c.004-.004.008-.004.014-.007l-.011.015-.003-.008Zm-15.302-1.999.008.008-.012-.002.004-.006Zm44.379 1.597a.216.216 0 0 0-.084-.238c-.536-.285-1.074-.444-1.619-.188-.067-.392-.168-.791.347-1.075.566-.132 1.174.256 1.841-.19-.848-.632-.748-1.776-1.734-2.352-2.398-2.625-5.807-2.798-9.207-3.012a3.77 3.77 0 0 1-1.132-.246c-3.372-1.337-7.097-1.244-10.53-1.162-7.221.172-14.53.664-21.36 3.154-2.258.823-4.844.268-6.95 1.516-5.204.071-10.236 1.678-15.482 1.357-2.384-.976-4.751-.404-7.12.059v-.006c-3.545-.182-7.062.235-10.579.36-4.193.149-8.303.172-12.268 1.519-1.085-.565-2.064-.219-3.023.279-1.134-.139-2.203.174-3.29.368-.86-.584-1.34-.589-1.402.045-1.643-.142-2.675-.234-3.705-.323-.223-.032-.447-.097-.668-.09-.662.023-1.725-.543-1.83.402-.079.693 1.012.855 1.747.937.231.027.504-.232.758-.361 1.031-.055 2.147.372 3.698-.562-.017.174-.008.386.039.658l.351.883c1.03.677 1.026-.429 1.511-.69.768-.501 1.444.15 2.173.134l.129.697c3.095 1.056 6.37.788 9.527.691 5.799-.179 11.572.27 17.361.194 3.117-.04 6.255.227 9.25-.836l1.218.012c.297.142.575.244.764.162 1.314.223 2.636.147 3.962-.042 1.639.899 3.044-.869 4.652-.32 2.162 1.002 4.298-.157 6.47-.089 4.566.141 9.153.956 13.721-.017 1.8-.207 3.602-.125 5.408-.13 1.608-.006 3.313.321 4.902-.273.613.167 1.229.307 1.872.123.946.284 1.865.917 2.881.157 2.629-.333 5.22.31 7.838.224.487-.353.973-.702 1.461-1.055l-.013-.021c1.375.827 2.846.294 4.283.241 1.054-.091 2.185.434 3.154-.317.088.557.363.921.975.459.575-.433.203-.78-.297-1.036ZM61.6 188.753c.045.525.425.434.668.439.157.003.423-.149.456-.27.081-.303-.158-.509-.481-.47-.242.028-.46.211-.643.301ZM2.051 86.537a4.24 4.24 0 0 0-.02.318c-.038-.019-.07-.04-.111-.058-.087-.038-.003-.158.131-.26Zm2.91-2.697-.008.007v-.011a.044.044 0 0 1 .007.004ZM1.44 44.23c-.02-.01-.047-.016-.068-.024.028-.047.047-.095.077-.142l-.01.166Zm1.278 53.224a.18.18 0 0 0-.017-.01l.009-.003c.005.004.005.008.008.013Zm-.184.052c.013 0 .02-.002.045.002.005-.005.008-.016.012-.023l.014-.005v.033l-.026-.005c-.03.034-.07.023-.08.01.012-.003.023-.008.035-.012Zm6.601-12.864c-.926-2.009-.302-4.308-1.706-6.18-.08-4.624-1.886-9.097-1.525-13.76 1.097-2.12.454-4.226-.067-6.33h.007c.205-3.15-.265-6.277-.405-9.403-.168-3.727-.193-7.381-1.71-10.905.636-.965.247-1.834-.314-2.688.157-1.009-.194-1.958-.413-2.925.657-.764.662-1.191-.051-1.246.16-1.46.263-2.376.364-3.293.036-.198.11-.397.1-.593-.025-.589.613-1.534-.451-1.627-.78-.07-.962.9-1.055 1.553-.03.205.262.447.406.674.063.917-.418 1.909.634 3.286a3.51 3.51 0 0 0-.742.036l-.993.312c-.761.914.483.911.776 1.343.565.681-.168 1.283-.15 1.93l-.785.116C-.13 37.693.17 40.605.278 43.412c.202 5.153-.302 10.285-.217 15.43.045 2.771-.255 5.56.94 8.222l-.013 1.083c-.159.264-.275.511-.182.681-.25 1.167-.165 2.342.046 3.52-1.01 1.456.98 2.706.36 4.135-1.126 1.92.177 3.82.101 5.752-.158 4.058-1.075 8.136.019 12.195.234 1.601.14 3.203.147 4.807.006 1.43-.36 2.946.306 4.359-.188.545-.344 1.092-.138 1.663-.319.841-1.03 1.658-.177 2.561.375 2.337-.348 4.639-.25 6.968l1.184 1.297.026-.012c-.934 1.222-.332 2.529-.272 3.809.101.935-.489 1.942.357 2.803-.626.078-1.036.323-.518.866.487.512.878.181 1.168-.264a.28.28 0 0 0 .267-.074c.32-.477.5-.955.21-1.44.442-.059.89-.148 1.21.31.15.503-.287 1.043.214 1.635.711-.752 1.998-.665 2.646-1.541 2.953-2.132 3.149-5.161 3.387-8.184.03-.34.122-.694.278-1.005 1.505-2.999 1.399-6.31 1.308-9.361-.194-6.42-.747-12.915-3.549-18.985ZM9.27 45.71c-.003.321-.097.593-.471.722-1.435.409-1.158 1.186-.553 2.034.647.187.099 1.564 1.394 1.107.575-1.036.77-2.088.167-3.17v-.004l.004-.706c.239-.41.442-.825.206-1.296.273-1.383 1.107-2.75.155-4.17l.001-.004c-.523-2.84-.87-5.682-.214-8.55.039-.167-.151-.377-.237-.568l.856-4.484c.52-.789.874-1.603.5-2.53l-.179-1.821c.047-.413.065-.823-.12-1.218.83-1.87.248-3.475-1.169-4.923-1.279-.179-1.37.082-.627 1.794.166.287.57.487.41.892-.652.787-.58 1.602-.128 2.434 1.359 1.26-1.109 2.016-.526 3.173-.054 1.243.414 2.514-.26 3.722.095.747-.875 1.264-.559 2.057-.263 1.586-.746 3.175.084 4.745-.134.668-.428 1.347-.373 2.002.248 2.961-1.616 6.25 1.64 8.763Zm-.246 112.484c.258-.696.984-1.478-.438-1.861-.542-.048-.701.414-1.052.622-.682.903-.698 1.836-.15 2.791l-.017 1.129-.96.848c-.259.347-.389.638-.424.889-.81 1.821-.372 2.067 2.082 2.144.356.521.8.922 1.465.405.928-.719.82-1.754.269-2.449-1.147-1.445-1.05-2.943-.775-4.518ZM7.76 141.171c1.625.087.871-1.729 1.253-2.68.03-.939.494-1.937-.436-2.747-.25-.216-.556-.141-.846.015-1.27.692-.567 1.713-.564 2.619 0 .068-.026.15.007.206.511.852-1.055 2.5.586 2.587ZM4.58 130.29c-.409-.416-.567-.859-.49-1.327.092.462.357.867.683 1.254a.442.442 0 0 0-.18.125c-.003-.018-.01-.035-.013-.052Zm.799 1.823c.901-.557.36-1.142.043-1.722l.694-2.402c.397-.945.087-1.768-.55-2.535-.708-.543-1.616-.183-2.196-.034-.862.225-2.097.871-.68 1.966-1.008 1.155-.313 2.513-.4 3.741-.098 1.406 1.522 1.82 3.089.986Zm.897 41.967c.415-.105.627-.36.69-.732.187-1.104 1.032-2.461-.627-3.086-1.71-.644-1.325 1.341-2.264 1.77-.304.609.14.945.667.936.944-.017 1.145.613 1.534 1.112ZM7 183.954c-1.035.03-.791 1.049-.696 1.636.145.908.546 1.784.84 2.673l.612.008c.23-.912.556-1.815.66-2.738.098-.848-.59-1.604-1.417-1.579Zm-.858-30.667c.346.845.437 2.136 1.804 1.881.957-.179.807-1.372.857-2.162.075-1.147-.572-1.64-1.871-1.329-.51.441-.693 1.009-.79 1.61ZM4.025 14.53a.426.426 0 0 0 .014-.012c.006.01.007.02.012.03a.12.12 0 0 0-.026-.019Zm-3.69.313c1.686-.24 1.756 1.264 2.65 1.86l-1.045 3.28c-.35.23-.325.508-.129.807.605.396.762 1.003.958 1.594.77.266 1.062-.129 1.223-.701-.063-.384-.959-.542-.535-.974 1.5-1.523.81-3.175.501-4.816l.188-1.116c.723-.73.28-1.47.023-2.208-.254-.477-.862-.644-.843-.076.05 1.498-1.072 1.166-1.99 1.238-.584-.17-1.063-.101-1.294.473-.114.286.009.68.293.639ZM5.31 141.418a.997.997 0 0 0 .4-.18c.608-1.218-.137-1.816-1.324-2.082-1.156-.257-.947.551-.96 1.14-.147.142-.29.285-.436.427-.343.228-.391.523-.253.86.421.456.97.647 1.623.629.697.029 1.19-.101.95-.794Zm.84 33.54c-.895.579-.103 1.166.3 1.7-.094.666-.552 1.131-1.078 1.562-.216.299-.228.594.02.884 1.095-.091 1.12-1.277 2.03-1.561.493-.3.986-.602.986-1.219.206-.415.545-.822.083-1.272-.728-.934-1.665-.529-2.34-.094ZM3.343 10.302c.47.115.642-.29.78-.6.195-.438.047-.795-.433-1.05-.51-.046-.642.272-.668.623-.025.369-.317.87.321 1.027Zm3.346 171.714c.11-.6.343-1.271-.723-1.35-.813-.06-.805.408-.665.921l-.432.891c.299.996 1.103.506 1.754.472.36-.294.33-.607.066-.934Zm-1.706-20.977c.427.088.722-.135.889-.462.143-.283.047-.513-.412-.639-.342-.056-.626.145-.779.478-.122.267-.058.547.302.623Zm-.081-11.684c.447-.234.381-.657.37-1.047l-.475-.076c-.373.255-.638.569-.434.993.048.1.421.192.539.13ZM9.074 52.68c-.002.14.169.377.304.406.34.072.573-.14.53-.428-.032-.215-.238-.409-.341-.571-.59.04-.487.377-.493.593Z" fill="#fff"/></svg>