<svg width="436" height="240" fill="none" xmlns="http://www.w3.org/2000/svg"><g filter="url(#a)" fill="#81E03D"><path d="M221.756 180.954c0-3.04.169-6.06.508-9.058.339-2.997.507-5.974.507-8.93 0-.929-.168-1.499-.507-1.71-.339-.211-.677-.654-1.016-1.33-.084-.168-.169-.59-.254-1.266-.084-.676-.169-1.098-.253-1.267-.17-.422-.572-.802-1.206-1.14a12.708 12.708 0 0 0-2.158-.886 16.46 16.46 0 0 0-2.412-.57c-.804-.128-1.46-.191-1.967-.191-.17 0-.466.043-.889.127s-.635.253-.635.507v6.207c0 .422-.169.717-.508.886a2.252 2.252 0 0 1-1.015.254c-.507 0-.846-.211-1.015-.634 0-.338-.022-1.055-.064-2.153a72.834 72.834 0 0 1-.063-2.154v-3.166c0-.422.211-1.563.634-3.421 0-.084.085-.253.254-.506.17-.253.254-.422.254-.506.085-.17.19-.423.317-.761s.191-.591.191-.76v-.253c0-.591-.064-1.246-.191-1.964-.127-.717-.401-1.329-.825-1.836v-9.247c-1.1.253-1.798-.148-2.094-1.204-.296-1.055-.444-2.047-.444-2.976v-1.52c-.085-.507-.551-1.267-1.397-2.28a45.383 45.383 0 0 0-2.792-3.04 33.064 33.064 0 0 0-2.983-2.66c-.973-.76-1.671-1.183-2.094-1.267h-3.428c-.338 0-.846-.021-1.523-.063a17.412 17.412 0 0 0-2.094 0c-.72.042-1.354.211-1.904.506-.55.296-.826.74-.826 1.33 0 1.351.191 2.766.571 4.244.381 1.478.699 2.892.953 4.243v.254c0 .169-.022.591-.064 1.266a11.205 11.205 0 0 1-.317 2.027 7.882 7.882 0 0 1-.698 1.837c-.297.549-.698.823-1.206.823-.931 0-1.396-.507-1.396-1.52a2.1 2.1 0 0 1 .317-1.14c.211-.338.317-.718.317-1.14v-.887c0-.253-.042-.718-.126-1.393a53.923 53.923 0 0 0-.318-2.154c-.127-.759-.254-1.477-.38-2.153-.128-.675-.233-1.14-.318-1.393l-.19-.064a1.058 1.058 0 0 0-.318-.063c-1.185 0-2.179.507-2.983 1.52-.804 1.013-1.481 2.175-2.031 3.483a19.596 19.596 0 0 0-1.205 3.991c-.255 1.351-.382 2.406-.382 3.166 0 1.183.127 2.302.382 3.357.253 1.056.973 1.879 2.157 2.47v4.94c0 .929-.169 1.689-.508 2.281v15.073c0 .338-.211.507-.634.507h-1.397c-.169-.169-.38-.528-.634-1.077-.254-.549-.381-.908-.381-1.077v-7.727l-.508-1.519c0-.085-.465-.17-1.396-.254-.931-.085-1.692-.211-2.285-.38h-.254c-.592 0-1.312.232-2.158.697a15.243 15.243 0 0 0-2.475 1.71 20.28 20.28 0 0 0-2.158 2.09c-.635.718-1.036 1.33-1.206 1.836.17 2.111.128 4.054-.127 5.827a39.462 39.462 0 0 0-.381 5.573c0 .676.064 1.627.191 2.851a79.71 79.71 0 0 0 .317 2.723c.085.169.275.507.572 1.014.296.506.486.844.571 1.013v.76c0 .76-.381 1.435-1.143 2.027-.761.591-1.481.887-2.157.887-1.608 0-2.412-.634-2.412-1.901 0-.929.232-1.731.698-2.407.465-.675.74-1.477.825-2.406v-7.22c0-.169.085-.592.254-1.267.169-.676.254-1.098.254-1.267v-.253c0-.253-.085-.718-.254-1.393a50.941 50.941 0 0 0-.635-2.281 73.251 73.251 0 0 1-.698-2.469 33.252 33.252 0 0 1-.444-1.837c0-.085.021-.338.063-.76.042-.423.021-.676-.063-.76 0-.085-.169-.127-.508-.127h-.508a10.177 10.177 0 0 1-2.475-3.04 69.866 69.866 0 0 1-1.777-3.547 39.499 39.499 0 0 0-1.84-3.483 9.048 9.048 0 0 0-2.666-2.85v-6.08c1.184-.929 2.01-1.774 2.475-2.533.466-.761.698-1.858.698-3.294 0-1.773-.338-3.314-1.015-4.624-.677-1.308-1.227-2.807-1.65-4.496v-8.614c0-1.689.169-3.082.507-4.18.085.085.254.19.508.317s.423.19.508.19a.57.57 0 0 0 .254-.063.552.552 0 0 1 .253-.064c0-.844-.147-1.562-.444-2.153a61.019 61.019 0 0 0-.888-1.71 63.9 63.9 0 0 1-.889-1.71c-.296-.591-.444-1.267-.444-2.027 0-1.773.381-3.357 1.142-4.75.762-1.394 1.143-3.02 1.143-4.877 0-.929-.106-1.689-.318-2.28-.211-.591-.317-1.309-.317-2.153v-.76c.085-.085.275-.338.571-.76.297-.423.444-.676.444-.76a29.19 29.19 0 0 0 .381-4.814c0-1.266.106-2.512.318-3.736.211-1.225.592-2.322 1.142-3.294.55-.97 1.354-1.73 2.412-2.28 1.058-.549 2.475-.823 4.252-.823.592 0 1.079.021 1.46.063.381.042.825.19 1.332.444l12.44 1.013c.085 0 .276.57.571 1.71.297 1.14.635 2.428 1.016 3.863a144.05 144.05 0 0 1 1.016 4.054c.296 1.266.444 2.026.444 2.28a44.14 44.14 0 0 1-.254 4.75 45.346 45.346 0 0 0-.254 4.877c0 1.182.339 2.153 1.015 2.913a7.002 7.002 0 0 0 2.476 1.773c.973.423 2.009.697 3.11.823a26.67 26.67 0 0 0 3.046.19c1.185 0 2.306-.084 3.364-.253a22.25 22.25 0 0 1 3.491-.253h3.046c.254.59.592 1.245 1.015 1.963.423.718 1.016 1.077 1.777 1.077 1.185 0 2.391-.465 3.618-1.394 1.227-.928 2.179-1.815 2.856-2.66v-.76c0-1.182-.275-2.216-.825-3.103-.55-.886-.825-1.92-.825-3.103 0-1.267.212-2.534.635-3.8a46.694 46.694 0 0 1 1.459-3.8c.55-1.267 1.08-2.512 1.587-3.737.508-1.225.847-2.47 1.015-3.737 0-.169-.02-.612-.063-1.33-.042-.717-.021-1.16.063-1.33.17-.59.783-1.14 1.841-1.647 1.058-.506 2.243-.928 3.555-1.266a47.756 47.756 0 0 1 3.807-.824c1.228-.21 2.137-.316 2.73-.316h1.777c.846 0 1.438.169 1.777.506l3.046 3.04c.423.338 1.1.781 2.031 1.33.931.55 1.608 1.161 2.031 1.837v.253c0 .507-.084 1.014-.254 1.52a4.778 4.778 0 0 0-.254 1.52c.085.17.254.803.508 1.9.254 1.098.55 2.28.889 3.548.338 1.266.549 1.942.634 2.026.17.085.529.17 1.079.253.55.085.91.17 1.079.254 1.354.507 2.2 1.267 2.539 2.28.338 1.013.508 2.238.508 3.673v.127c0 .169-.085.528-.255 1.077-.168.548-.253.907-.253 1.076-.085.085-.127.845-.127 2.28 0 1.436.042 2.196.127 2.28-.085.169-.233.38-.445.633-.211.254-.401.381-.571.381-.169.084-.38.063-.634-.064-.254-.126-.381-.274-.381-.443v-6.207c-.169 0-.36-.105-.571-.316-.212-.212-.36-.232-.445-.064-.592.507-1.015 1.203-1.269 2.09a12.146 12.146 0 0 0-.444 2.85 32.211 32.211 0 0 0 0 2.85c.042.887.063 1.584.063 2.09v3.927l3.173 3.547v.506c0 1.943-.126 3.822-.38 5.637a24.966 24.966 0 0 0-.127 5.637l-.317.317c-.127.126-.191.232-.191.316h-.508c-.423-.168-.719-.675-.888-1.519-.169-.845-.254-1.521-.254-2.027v-.634h-.254c-.423 0-.656.296-.698.887a20.685 20.685 0 0 0-.064 1.267v.887c.762 2.448 1.566 4.75 2.412 6.903.846 2.153 1.269 4.581 1.269 7.283v3.294a25.802 25.802 0 0 0-3.998 4.813c-1.142 1.774-1.713 3.758-1.713 5.953 0 .507.084.951.253 1.33.17.381.254.782.254 1.204v.634c-.592.759-1.269 1.351-2.031 1.773-.761.422-1.502.865-2.221 1.33a6.634 6.634 0 0 0-1.777 1.647c-.466.633-.698 1.541-.698 2.723 0 .676.106 1.309.317 1.9.212.591.317 1.224.317 1.9 0 2.618-.359 5.13-1.078 7.537a25.713 25.713 0 0 0-1.079 7.41c0 .929.19 1.858.571 2.787.38.928.571 1.857.571 2.786 0 .591-.106 1.183-.318 1.773-.211.592-.698.887-1.459.887-.931 0-1.565-.337-1.904-1.013-.339-.675-.55-1.456-.635-2.343a13.411 13.411 0 0 1 0-2.597c.085-.844.127-1.436.127-1.773Zm-12.947-13.301c0-1.097.55-1.647 1.65-1.647 1.1 0 1.65.55 1.65 1.647 0 .422-.212.781-.635 1.077-.423.296-.846.443-1.269.443-.931 0-1.396-.506-1.396-1.52Zm-23.61-14.694c0-.422.063-.844.19-1.266.128-.422.402-.634.826-.634.676 0 1.121.212 1.332.634.212.422.317.887.317 1.394 0 .422-.042.801-.127 1.14-.084.337-.423.506-1.015.506-.508 0-.889-.19-1.142-.57a2.13 2.13 0 0 1-.381-1.204Zm110.361 43.447v-1.02c0-.68.085-1.339.256-1.977.17-.638.596-.957 1.279-.957.767 0 1.215.383 1.343 1.148.127.766.192 1.446.192 2.041 0 .596-.107 1.361-.32 2.296-.213.936-.703 1.403-1.471 1.403-.853 0-1.279-.34-1.279-1.02v-1.914Zm-21.742-8.546v-.51c.085-.17.234-.595.447-1.276.213-.68.405-1.105.576-1.275v-23.854c-.512-.34-.938-.85-1.279-1.531a26.133 26.133 0 0 1-.896-1.977 8.931 8.931 0 0 0-.959-1.786c-.383-.552-.874-.872-1.471-.957-2.728.171-5.307-.063-7.737-.701-2.43-.638-4.967-.956-7.61-.956-.085 0-.278.02-.576.063a5.223 5.223 0 0 1-.703.064c-.682 1.701-1.066 3.274-1.152 4.72-.085 1.446-.042 3.189.128 5.23l-1.023 1.02h-.256c-.426 0-.788-.276-1.086-.829a7.765 7.765 0 0 1-.704-1.913 20.102 20.102 0 0 1-.383-2.105c-.086-.68-.129-1.148-.129-1.403v-3.699c-.341-1.276-.81-2.424-1.407-3.445l-1.79-3.061a23.597 23.597 0 0 1-1.535-3.126c-.426-1.063-.64-2.317-.64-3.762 0-.34.022-.978.065-1.914.042-.935.064-1.531.064-1.786.682-.85 1.3-1.849 1.854-2.997s.831-2.275.831-3.381c0-.68-.277-1.381-.831-2.104-.554-.723-.831-1.34-.831-1.85 0-.085.085-.255.256-.51.17-.255.255-.425.255-.51.171-.34.363-1.106.576-2.297.213-1.19.362-1.956.448-2.296-1.024-1.53-1.791-2.827-2.303-3.89-.511-1.063-.767-2.7-.767-4.911 0-.426-.021-.957-.064-1.594-.043-.638.149-1.128.576-1.468l1.023-9.311 1.535-1.531V90.66l-1.024-1.531c-.255.68-.447 1.36-.575 2.041a34.63 34.63 0 0 1-.448 2.04 1.76 1.76 0 0 0-.383.065 1.744 1.744 0 0 1-.384.063c-.853 0-1.279-.467-1.279-1.403V89.64c0-1.02.064-2.275.192-3.763s.362-2.976.703-4.465a16.61 16.61 0 0 1 1.535-4.145c.682-1.276 1.577-2.169 2.686-2.679.17-.085.703-.17 1.598-.255.896-.085 1.428-.17 1.599-.255 1.194-.255 2.259-.638 3.197-1.148.938-.51 1.855-1.02 2.75-1.53s1.855-.958 2.878-1.34c1.024-.383 2.217-.574 3.581-.574h3.07c.682.425 1.386.914 2.11 1.467a306.92 306.92 0 0 0 2.11 1.594h8.698c.767-.68 1.683-1.19 2.749-1.53 1.066-.34 2.068-.51 3.006-.51 1.705 0 3.432.275 5.18.829 1.747.552 3.474.956 5.18 1.212.255.084.831.17 1.726.254a97.65 97.65 0 0 1 2.878.32c1.023.127 1.982.233 2.877.318.896.085 1.514.128 1.855.128 1.023-.255 1.641-.66 1.854-1.212.214-.553.747-.83 1.599-.83.767 0 1.62.213 2.558.639a11.25 11.25 0 0 1 2.558 1.594 9.923 9.923 0 0 1 1.983 2.232c.554.85.831 1.701.831 2.552 0 1.955-.299 3.55-.895 4.783-.597 1.233-.981 2.828-1.151 4.784v4.59c0 .255-.043.808-.128 1.658a94.44 94.44 0 0 1-.32 2.743 513.95 513.95 0 0 1-.384 2.87 36.781 36.781 0 0 1-.32 2.041c0 .17-.063.595-.191 1.275-.129.681-.235 1.106-.32 1.276v.51c.085.17.191.361.32.574.128.212.191.361.191.447.086.085.128.68.128 1.785v1.659c0 .68.022 1.679.064 2.997a41.976 41.976 0 0 1-.064 4.018c-.085 1.361-.298 2.552-.639 3.572s-.853 1.531-1.535 1.531c-.597 0-1.002-.064-1.215-.192-.213-.128-.32-.488-.32-1.084 0-.765.171-1.509.512-2.232a5.18 5.18 0 0 0 .512-2.233c0-.595-.15-1.254-.448-1.977a8.2 8.2 0 0 1-.576-2.104c-.341.17-.852.489-1.535.956-.682.468-1.023.999-1.023 1.595 0 .595.171 1.105.512 1.53.341.425.511.936.511 1.531 0 1.701-.234 3.699-.703 5.995-.469 2.297-.746 4.295-.831 5.996l-.448.893c-.213.425-.49.638-.831.638h-.256l-.512-.511c0-.255-.021-.701-.064-1.339a40.108 40.108 0 0 0-.191-2.041 39.046 39.046 0 0 1-.192-2.041 23.15 23.15 0 0 1-.064-1.34c-.085-.169-.107-.68-.064-1.53s.064-1.361.064-1.531c-.085-.17-.256-.382-.512-.638-.256-.255-.426-.382-.511-.382h-6.779l-1.535 1.53c-.085.426-.17 1.276-.256 2.551-.085 1.276-.17 2.127-.255 2.552-.171.68-.427 1.552-.767 2.615-.342 1.063-.981 1.594-1.919 1.594-.256 0-.533-.063-.831-.191-.299-.128-.448-.404-.448-.829v-7.144c-1.023 0-1.876.022-2.558.064a24.58 24.58 0 0 0-1.918.192c-.597.084-1.237.191-1.919.318-.682.128-1.535.235-2.558.32-1.364.084-2.579.148-3.645.191-1.066.042-2.004.212-2.814.51-.81.298-1.534.787-2.174 1.467-.639.68-1.215 1.658-1.727 2.934-.085.085-.191.276-.32.574-.127.298-.191.489-.191.574-.086 0-.128.085-.128.255 0 .595.277 1.318.831 2.168.555.851 1.215 1.68 1.983 2.488a14.741 14.741 0 0 0 2.366 2.041c.81.553 1.513.829 2.11.829s1.109-.383 1.535-1.148h6.267c.426.425.938.638 1.535.638h3.069c.597 0 1.108-.213 1.535-.638.426 0 1.13-.022 2.11-.064a93.235 93.235 0 0 0 3.133-.191c1.109-.085 2.132-.149 3.07-.192.938-.042 1.62-.063 2.047-.063h.895c.426 0 1.194.042 2.302.127 1.109.085 1.79.213 2.046.383.085.085.171.34.256.765.085.426.171.681.256.766.682 1.275 1.449 2.083 2.302 2.423.852.34 1.791.936 2.814 1.786 1.364.936 2.324 2.02 2.878 3.253.554 1.233 1.513 2.36 2.877 3.38v.51c0 .595-.17.936-.511 1.021l-1.024 18.751c0 .085-.127.255-.384.51-.255.255-.468.426-.639.511l-.256.127c-.085 0-.149-.021-.191-.063l-.065-.064a2.939 2.939 0 0 1-1.022-1.021c0-.17-.022-.595-.064-1.275a28.528 28.528 0 0 1-.064-1.276c0-1.446.106-2.87.319-4.273.213-1.404.32-2.828.32-4.274v-.255c0-.085-.021-.361-.064-.828-.043-.468-.107-1-.192-1.595a28.134 28.134 0 0 1-.191-1.659c-.043-.51-.064-.892-.064-1.148-.257.171-1.088.511-2.494 1.021-1.408.51-2.878 1.041-4.413 1.595a184.56 184.56 0 0 1-4.221 1.466l-1.918.638a19.644 19.644 0 0 1-.896 3.635c-.426 1.234-.639 2.445-.639 3.636v22.196c0 1.02-.511 1.53-1.534 1.53a2.92 2.92 0 0 1-1.024-.191c-.341-.128-.512-.404-.512-.83v-15.562c-.34-.34-.511-.807-.511-1.403v-1.531c0-1.275.085-2.529.256-3.763.17-1.233.255-2.53.255-3.89v-2.806c-1.534-1.021-3.367-1.531-5.499-1.531h-8.441a8.34 8.34 0 0 0-2.43 2.87 13.673 13.673 0 0 0-1.279 3.635 23.432 23.432 0 0 0-.448 3.827 109.101 109.101 0 0 0-.064 3.572v18.624c-.17.169-.426.382-.767.637s-.597.383-.768.383c-.511 0-1.065-.191-1.662-.574-.597-.383-.895-.872-.895-1.467Zm-24.941-17.603c0-1.361.725-2.041 2.175-2.041.682 0 1.023.468 1.023 1.403 0 1.191-.597 1.786-1.79 1.786-.427 0-.768-.064-1.024-.192-.256-.127-.384-.446-.384-.956Zm24.301-73.347c0 .766.405 1.552 1.215 2.36.81.808 1.769 1.552 2.878 2.232a21.63 21.63 0 0 0 3.453 1.722c1.194.468 2.174.745 2.941.829a47.46 47.46 0 0 0 9.529.319 35.406 35.406 0 0 1 9.656.702 4.33 4.33 0 0 1 1.535.765c.426.341.832.702 1.215 1.084.384.383.81.702 1.279.957.469.255 1.087.383 1.854.383h.256c.086-.17.192-.446.32-.829.128-.383.192-.659.192-.829.085-.511.192-1.467.319-2.87.128-1.403.235-2.913.321-4.529.085-1.615.17-3.147.255-4.592.085-1.446.128-2.423.128-2.934v-1.403c0-.17.021-.468.064-.893s-.149-.68-.575-.765a60.42 60.42 0 0 1-2.047-.064 62.183 62.183 0 0 0-2.046-.064c-3.752 0-7.546.723-11.383 2.169-.171.085-.512.19-1.023.319-.512.127-.853.191-1.024.191a15.83 15.83 0 0 0-.191 1.148 6.66 6.66 0 0 0-.064.765v2.296a6.61 6.61 0 0 1-.32 2.105c-.213.638-.576 1.127-1.087 1.467-.597-.425-.959-1-1.087-1.722a12.779 12.779 0 0 1-.192-2.232c0-.766-.064-1.51-.192-2.232-.128-.723-.49-1.255-1.087-1.595-1.194-.68-2.536-1.19-4.029-1.53-1.492-.34-2.92-.681-4.285-1.021 0-.085-.042-.128-.127-.128 0 1.19-.341 2.084-1.024 2.679a10.813 10.813 0 0 1-2.302 1.53c-.853.426-1.62.936-2.302 1.531-.682.596-1.023 1.489-1.023 2.679Zm90.399 100.069c0-1.604-.595-2.406-1.783-2.406-1.274 0-1.911.633-1.911 1.899s.637 1.899 1.911 1.899c.424 0 .828-.105 1.21-.316.382-.211.573-.57.573-1.076Zm25.352-10.002c0-.338-.042-.507-.127-.507 0-.168-.128-.506-.382-1.012-.255-.507-.468-.844-.638-1.013v-7.217c.085-.76.192-2.047.319-3.862.127-1.814.276-3.777.446-5.887.169-2.11.318-4.072.446-5.887.127-1.815.233-3.102.318-3.862 1.019-.928 2.378-1.519 4.077-1.772 1.698-.254 3.185-.38 4.458-.38.171 0 .489-.022.956-.064.467-.041.744.148.828.57.085 0 .128.169.128.507v.886c0 .928-.107 1.794-.319 2.596a10.116 10.116 0 0 0-.318 2.595c0 .253.127.612.382 1.076.255.464.552.696.892.696.764 0 1.401-.337 1.911-1.013.085-.253.191-.801.318-1.645.128-.844.234-1.731.319-2.659.085-.929.17-1.794.254-2.595.085-.803.128-1.288.128-1.457 0-.168-.064-.654-.192-1.456-.127-.802-.233-1.329-.318-1.582-.085-.169-.276-.444-.573-.823-.297-.38-.446-.612-.446-.696 0-.085-.021-.148-.064-.191l-.063-.063c0-.506.106-1.329.318-2.468.212-1.14.488-2.28.828-3.419.34-1.14.786-2.152 1.338-3.039.552-.886 1.125-1.329 1.72-1.329v-7.976c0-.675-.34-1.604-1.02-2.785-.679-1.183-1.358-1.984-2.038-2.406v-8.61c0-.169.149-.358.446-.569.297-.211.616-.444.955-.697.34-.253.68-.485 1.02-.696.339-.211.552-.443.637-.696 0-.169.021-.507.063-1.013.043-.507.064-.844.064-1.013 0-.76-.191-1.414-.573-1.962a14.912 14.912 0 0 0-1.274-1.583 20.32 20.32 0 0 1-1.274-1.519c-.382-.507-.573-1.14-.573-1.9 0-.59.254-1.097.764-1.519a9.026 9.026 0 0 0 1.274-1.266c.255-.253.573-.633.955-1.139.383-.507.574-.802.574-.887v-5.697l-3.058-3.039v-7.09l3.058-3.165v-.126c0-2.11-.764-4.115-2.293-6.014-1.529-1.9-3.185-3.271-4.969-4.115-1.868.169-3.503.042-4.905-.38-1.401-.422-2.951-.633-4.649-.633-.341 0-.935.19-1.784.57a52.86 52.86 0 0 0-2.739 1.329c-.977.506-1.954.992-2.93 1.456-.977.464-1.805.739-2.485.823-1.273.254-2.463.38-3.567.38s-1.996.718-2.675 2.152c0 4.052-.828 7.47-2.484 10.256-1.657 2.785-4.268 4.98-7.835 6.583l-.51 1.013a58.521 58.521 0 0 0-.764 1.582 59.31 59.31 0 0 1-.764 1.583l-.51 1.013c-.255.422-.51.95-.764 1.583-.255.633-.383 1.202-.383 1.709 0 .422.106.823.319 1.203.212.38.318.78.318 1.202 0 1.013-.658 1.773-1.974 2.279-1.317.507-2.4.76-3.249.76-.849 0-1.826-.19-2.93-.57a11.666 11.666 0 0 1-3.058-1.582 11 11 0 0 1-2.356-2.279c-.637-.844-.956-1.773-.956-2.786v-1.519c.17-.084.361-.19.574-.317.212-.126.36-.19.445-.19h.637c0 .254.128.782.383 1.583.254.802.466 1.287.636 1.456 0 .338.171.507.51.507l.51-.507v-8.736c0-.675-.192-1.266-.574-1.772a19.983 19.983 0 0 0-1.273-1.52 14.76 14.76 0 0 1-1.274-1.582c-.383-.548-.574-1.203-.574-1.962 0-1.604.276-3.187.828-4.748.552-1.562.828-3.06.828-4.495 0-1.857-.573-3.334-1.72-4.431-1.146-1.097-2.526-1.942-4.14-2.532a22.45 22.45 0 0 0-5.096-1.203c-1.783-.211-3.312-.316-4.586-.316h-.51c.34.337.51.675.51 1.012v1.013c0 .253.021.549.063.887.043.337-.148.548-.573.633-1.953.168-3.333.421-4.14.759-.807.337-1.401.823-1.784 1.456-.382.633-.721 1.456-1.019 2.47-.297 1.012-.912 2.194-1.847 3.544-.085.169-.34.527-.765 1.076-.424.549-.679.865-.764.95l-.509 1.013v5.697c0 .169.148.295.446.38.297.084.615.169.955.253.34.084.68.232 1.019.443.34.211.553.528.637.95.085.084.128.633.128 1.645v3.293c0 .759-.043 1.18-.128 1.265 0 .17-.255.676-.764 1.52-.51.844-.764 1.35-.764 1.519a52.32 52.32 0 0 0-1.147 6.774 64.427 64.427 0 0 0-.382 6.773v4.938c.085.337.467.506 1.146.506.488 0 .829-.527.998-1.582.17-1.055.297-1.752.383-2.09.679.676 1.04 1.372 1.083 2.09.042.717.063 1.498.063 2.342 0 1.434-.234 2.616-.7 3.545-.468.928-1.296 1.857-2.464 2.785 0 .169-.021.612-.063 1.33a32.16 32.16 0 0 0-.064 1.329c0 .844.149 1.646.446 2.406.297.759.616 1.477.934 2.152.34.675.658 1.371.955 2.089.298.717.446 1.456.446 2.216 0 .928-.17 1.519-.509 1.772-.34.253-1.062.464-2.145.633v4.558c1.083.675 2.166 1.793 3.228 3.355 1.061 1.561 2.038 2.849 2.972 3.862l4.056 3.671c1.168 1.351 1.89 3.081 2.144 5.191.255 2.11.552 3.967.892 5.571v.253c0 2.026-.255 4.031-.765 6.014a23.62 23.62 0 0 0-.764 5.888c0 1.519.764 2.278 2.293 2.278.659 0 1.232-.274 1.699-.823.467-.548.7-1.16.7-1.836 0-.506-.19-.907-.573-1.202-.382-.296-.573-.696-.573-1.203v-.38c0-.169.043-.253.128-.253 0-.76.063-1.836.191-3.228.127-1.393.254-2.807.382-4.242.127-1.435.233-2.701.318-3.798.085-1.098.127-1.773.127-2.026.171-1.941.637-3.376 1.381-4.305a7.17 7.17 0 0 1 2.803-2.088 32.597 32.597 0 0 1 3.545-1.266c1.253-.38 2.442-.95 3.525-1.71 2.208-1.941 3.949-3.651 5.266-5.128 1.295-1.477 2.633-3.355 3.992-5.633.169-.423.446-.95.807-1.583.381-.633.615-.95.7-.95h.764v41.275c0 .675.085 1.329.255 1.962.17.633.68.95 1.529.95.764 0 1.338-.317 1.72-.95.382-.633.573-1.287.573-1.962a5.47 5.47 0 0 0-.063-.886c-.043-.254-.192-.549-.446-.887v-43.173c0-1.013-.425-1.984-1.274-2.912-.85-.929-1.274-1.646-1.274-2.153.169-1.603.806-2.827 1.911-3.671a21.389 21.389 0 0 0 3.184-3.039c.51-.591.956-1.181 1.338-1.772a12.07 12.07 0 0 1 1.274-1.646 6.594 6.594 0 0 1 1.592-1.267c.595-.337 1.359-.506 2.294-.506.085 0 .276.021.573.063.297.043.531.064.7.064 1.784 1.434 3.101 2.722 3.95 3.861.849 1.14 1.274 2.765 1.274 4.875 0 2.194-.064 4.072-.191 5.634-.127 1.561-.446 3.608-.956 6.14-.934.169-1.422.676-1.465 1.52a46.262 46.262 0 0 0-.063 2.279v2.279c0 .337.169.506.509.506.085.084.51.127 1.274.127.85 0 1.316-.043 1.401-.127l.892 1.709a87.543 87.543 0 0 0 2.039 3.671 279.413 279.413 0 0 0 2.101 3.546c.637 1.055.998 1.54 1.083 1.456 0 .253.022.759.064 1.519.043.76.106 1.541.191 2.342.085.802.149 1.583.191 2.342.043.76.064 1.267.064 1.52v1.266c0 2.701-.17 5.402-.51 8.103a65.007 65.007 0 0 0-.509 8.103c0 .422-.021 1.013-.064 1.773-.042.759 0 1.497.127 2.215.128.717.361 1.33.701 1.836.34.506.85.76 1.529.76.68 0 1.168-.211 1.465-.633a2.37 2.37 0 0 0 .446-1.393Z"/><path d="M369.702 87.077c0-.426.084-.852.252-1.278.168-.426.504-.639 1.008-.639.923 0 1.385.554 1.385 1.662 0 .425-.063.873-.189 1.341-.126.469-.525.703-1.196.703-.504 0-.84-.192-1.008-.575a2.99 2.99 0 0 1-.252-1.214Zm-.503-8.562a228.1 228.1 0 0 1-.504-10.862 239.683 239.683 0 0 1 0-10.99c-.168-.937-.735-1.874-1.701-2.811-.965-.937-1.91-1.406-2.834-1.406a8.756 8.756 0 0 0-3.778.83c-1.176.554-2.477.831-3.905.831-1.931 0-3.778-.362-5.542-1.086-1.763-.724-3.526-1.086-5.29-1.086-.672 0-1.26.49-1.763 1.47-.504.979-.756 1.81-.756 2.491 0 .937.189 1.874.567 2.812a7.78 7.78 0 0 1 .567 2.939c0 .511-.105 1.023-.315 1.533-.21.511-.651.767-1.323.767-.672 0-1.175-.383-1.511-1.15a170.718 170.718 0 0 1-.756-6.006 52.29 52.29 0 0 1-.252-5.367c0-.937.168-1.768.504-2.492.336-.724.693-1.448 1.071-2.173.377-.724.734-1.448 1.07-2.172.336-.725.504-1.555.504-2.492 0-.597-.105-1.129-.315-1.597a3.553 3.553 0 0 1-.315-1.47v-.511c.84-1.363 1.847-2.364 3.023-3.003a12.875 12.875 0 0 1 3.842-1.342 27.71 27.71 0 0 1 4.219-.447 29.15 29.15 0 0 0 4.283-.448c.335 0 .545-.127.629-.383.084-.256.168-.554.252-.895a4.41 4.41 0 0 1 .315-.894c.126-.256.399-.383.819-.383h10.706c.755 0 1.553.34 2.393 1.022.839.681 1.595 1.193 2.267 1.533 1.092.597 2.12.81 3.086.64.966-.17 2.12-.214 3.463-.128 1.344.17 2.373.915 3.086 2.236.714 1.32 1.239 2.492 1.575 3.514 0 .341.042.958.126 1.853.084.894.189 1.832.315 2.812.126.98.251 1.916.377 2.81.127.896.19 1.513.19 1.854v.51c0 .427-.022.98-.063 1.662a9.183 9.183 0 0 1-.315 1.917 3.842 3.842 0 0 1-.819 1.534c-.378.426-.903.639-1.575.639-.419 0-.671-.192-.755-.575a6.647 6.647 0 0 0-.441-1.278c-.21-.47-.609-.895-1.197-1.278-.588-.384-1.595-.575-3.022-.575-.42 0-.987.064-1.701.191a23.29 23.29 0 0 0-2.204.512c-.756.212-1.448.49-2.078.83-.63.34-1.029.682-1.197 1.023 0 .51-.021 1.448-.063 2.811a155.714 155.714 0 0 1-.189 4.217 155.696 155.696 0 0 0-.189 4.217 114.06 114.06 0 0 0-.063 2.812v4.472c0 1.193.085 2.322.252 3.387.168 1.064.252 2.193.252 3.386v.256a2.919 2.919 0 0 1-1.007 1.022h-.252c-1.176 0-1.763-.682-1.763-2.045Zm-28.088-3.578c0-.426.126-.916.377-1.47.252-.553.841-.83 1.764-.83.504 0 .882.192 1.133.575.252.383.378.745.378 1.086 0 .511-.21 1.086-.629 1.725-.42.64-1.008.958-1.764.958-.588 0-.945-.233-1.07-.702a5.166 5.166 0 0 1-.189-1.342Zm44.461-16.357c.42 0 .756.213 1.008.639v3.578c0 .681-.105 1.384-.315 2.108-.21.725-.693 1.087-1.449 1.087h-.251a.956.956 0 0 1-.378-.32l-.126-.192v-5.75c0-.426.168-.724.504-.895.336-.17.671-.255 1.007-.255Zm-275.686 98.173a15.374 15.374 0 0 0-.976-1.08h-.274c-1.011 0-1.729.275-2.15.826-.422.552-1.097.998-2.026 1.336-.083 0-.505.021-1.264.064s-1.35.064-1.773.064c-.086 0-.202.004-.345.013.061.492.093.996.093 1.509 0 .593-.169 1.271-.507 2.034-.338.764-.886 1.145-1.645 1.145-.506 0-.844-.211-1.013-.635.086-.084.128-.933.128-2.544 0-.469-.003-.874-.01-1.214-.61.077-1.029.143-1.256.201l-1.012 1.017v14.886c0 .254-.148.594-.442 1.018-.296.425-.612.637-.95.637h-.254l-.505-.51c-.254-.253-.42-.465-.507-.635-.083-.256-.168-.913-.252-1.973-.085-1.06-.169-1.76-.254-2.1 0-.17.023-.528.064-1.08.042-.551.021-.87-.064-.954 0-.17-.168-.531-.505-1.082-.338-.552-.507-.87-.507-.955a18.967 18.967 0 0 1-.19-1.526 18.848 18.848 0 0 1-.063-1.527c0-1.527-.254-2.884-.759-4.071-.506-1.188-1.687-2.12-3.543-2.799-2.193.17-3.965.106-5.315-.191-1.35-.298-2.995-.445-4.935-.445h-1.392c-.759 0-1.18.042-1.266.126-1.35 1.103-2.447 2.311-3.29 3.626-.844 1.315-1.265 2.863-1.265 4.645v.508c0 .679.042 2.015.127 4.008.084 1.994.168 4.347.252 7.061.084 2.715.211 5.578.38 8.588.17 3.011.296 5.853.38 8.525.083 2.671.168 5.025.252 7.061.085 2.036.127 3.351.127 3.944v4.707C70.76 209.66 70 210 68.902 210c-.675 0-1.328-.212-1.96-.637-.634-.424-.95-.975-.95-1.653 0-.68.211-1.124.633-1.336.421-.212.76-.53 1.012-.954.422-.764.613-1.676.57-2.737a70.357 70.357 0 0 1-.064-2.735v-3.816c0-1.273-.062-3.329-.19-6.171a2061.48 2061.48 0 0 1-.38-8.969 986.86 986.86 0 0 1-.316-8.779c-.084-2.716-.126-4.538-.126-5.472 0-.339-.02-.805-.064-1.398a25.072 25.072 0 0 0-.19-1.783 33.856 33.856 0 0 1-.19-1.59 13.064 13.064 0 0 1-.062-.954l-.507-1.017c-.252-.51-.463-.849-.632-1.019 0-.084-.148-.254-.442-.508a12.501 12.501 0 0 1-.57-.509c-.085 0-.19-.466-.317-1.399s-.19-1.571-.19-1.909a9.641 9.641 0 0 0-.772-.445c-.127.214-.25.423-.366.63-.507.891-.887 1.38-1.14 1.464h-1.138c-.507 0-1.055.063-1.646.191a5.553 5.553 0 0 0-1.645.635c-.505.298-.76.743-.76 1.336v19.084c.338.596.507 1.274.507 2.037 0 .679-.252 1.124-.759 1.336a3.905 3.905 0 0 1-1.519.318c-.169 0-.4-.021-.696-.064a5.488 5.488 0 0 0-.57-.064c-.336-.339-.505-.635-.505-.891v-.889c0-1.357.084-2.716.253-4.072l.03-.255c-.312-.012-.553-.052-.725-.121-.21-.086-.317-.425-.317-1.019v-14.377c-.507-.763-.801-1.335-.886-1.717a4.178 4.178 0 0 1-.066-.412 7.443 7.443 0 0 0-1.59-.852c-.338 0-.907-.021-1.708-.064a81.71 81.71 0 0 1-2.679-.192 87.934 87.934 0 0 0-2.657-.19 37.507 37.507 0 0 0-1.709-.063h-.275c-.927 0-1.602.402-2.023 1.208-.423.807-.697 1.74-.824 2.8a15.598 15.598 0 0 0-.062 3.118c.083 1.017.127 1.78.127 2.29 0 3.391.083 6.763.252 10.115.169 3.349.253 6.721.253 10.114v7.506c-.084.254-.211.827-.359 1.718-.168.891-.526 1.335-1.117 1.335-1.372 0-2.066-.763-2.066-2.289 0-1.188.19-2.376.57-3.563.378-1.188.569-2.417.569-3.69v-.763c0-.593-.065-2.015-.19-4.262a837.843 837.843 0 0 1-.38-7.316c-.127-2.63-.254-5.068-.38-7.316-.127-2.248-.19-3.668-.19-4.261l-.126-1.145c0-.595.105-1.124.316-1.591.211-.467.316-.955.316-1.464 0-.508-.211-.996-.632-1.462a7.516 7.516 0 0 0-1.52-1.273 63.45 63.45 0 0 1-1.707-1.145c-.549-.382-.991-.785-1.329-1.209 0-.169-.021-.551-.063-1.144a20.522 20.522 0 0 1-.064-1.145c0-.85.169-1.739.507-2.672a50.37 50.37 0 0 1 1.138-2.863c.422-.975.823-1.973 1.202-2.991a16.02 16.02 0 0 0 .824-3.181c.169-.931.78-1.59 1.833-1.971 1.055-.382 2.047-.573 2.995-.573h1.392c.085 0 .338.086.76.254.422.17.675.256.758.256.17 0 .55.021 1.14.063a45.9 45.9 0 0 1 1.983.191c.717.085 1.37.149 1.96.19.591.042.97.064 1.14.064.085.085.4.276.949.572.42.228.73.369.927.422.387-.877.756-1.748 1.108-2.619.549-1.357.824-2.82.824-4.347 0-.678-.19-1.25-.57-1.718-.38-.466-.569-1.038-.569-1.717 0-1.887.19-3.308.57-4.283.379-.975.842-1.76 1.39-2.353a12.204 12.204 0 0 1 1.961-1.74c.76-.55 1.52-1.42 2.278-2.608.338-.423.718-1.103 1.14-2.036.422-.954.823-1.929 1.202-2.947.38-1.018.695-1.994.95-2.927.252-.954.379-1.674.379-2.184v-1.272a14.11 14.11 0 0 0-.57-.508 13.827 13.827 0 0 1-.569-.509c0-.254.295-1.231.885-2.949a236.84 236.84 0 0 1 1.962-5.407c.716-1.929 1.37-3.668 1.962-5.236.59-1.592.886-2.418.886-2.504.505-.677 1.201-1.166 2.088-1.462.884-.298 1.54-.828 1.96-1.591.845-1.442 1.308-2.884 1.392-4.283.085-1.4.169-2.756.254-4.092.084-1.315.4-2.567.949-3.754.549-1.187 1.75-2.311 3.606-3.33a41.18 41.18 0 0 1 2.468-1.271c1.054-.51 1.92-.763 2.593-.763.338 0 .507.17.507.507l-.253.447c-.169.296-.254.487-.254.572.085.34.317.615.697.827.38.212.8.36 1.266.445.463.085.907.148 1.329.19.42.044.717.065.884.065a48.027 48.027 0 0 1 3.164.254c.76.086 1.498.149 2.215.19.718.043 1.287.064 1.709.064h.632c1.012 0 1.75-.296 2.215-.89a3.116 3.116 0 0 1 1.834-1.145c.844-.255 1.856.382 3.037 1.909 1.182 1.526 2.342 3.328 3.481 5.364a73.952 73.952 0 0 1 3.036 6.044c.887 2.014 1.456 3.392 1.709 4.156.253.848.4 1.823.442 2.926.042 1.102.065 2.12.065 3.054 0 .869-.086 1.632-.254 2.311a8.914 8.914 0 0 0-.253 2.163c0 .339.4.89 1.201 1.654a84.378 84.378 0 0 1 2.722 2.735 21.037 21.037 0 0 1 2.72 3.584 8.045 8.045 0 0 1 1.202 4.262c0 .255-.021.721-.063 1.4a29.315 29.315 0 0 0-.063 1.271c-.506.17-.696.298-.569.382.125.086.19.256.19.509l.125.064a.557.557 0 0 0 .254.065c.084-.087.253-.17.506-.256.254-.084.421-.17.506-.254-.253.424-.211.891.127 1.357.337.467.759.954 1.265 1.464.506.507.991 1.017 1.456 1.526.463.508.696 1.017.696 1.527v.254c0 .17-.064.531-.19 1.082a57.318 57.318 0 0 0-.379 1.78 35.784 35.784 0 0 0-.318 1.804c-.085.55-.127.911-.127 1.08v1.273c0 1.103.19 2.29.57 3.563.156.521.357.992.605 1.414h1.595c.085.084.296.275.634.572.338.297.717.594 1.139.89.421.298.822.573 1.201.828.38.254.655.382.823.382.591 0 1.096-.149 1.519-.447.422-.295.823-.614 1.202-.953.38-.338.78-.657 1.201-.955.422-.296.929-.445 1.519-.445.759 0 1.435.424 2.025 1.273.591.848 1.266 1.485 2.026 1.908.083.085.336.234.759.445l1.264.636 1.266.637c.422.212.674.361.759.445.929.679 1.581 1.252 1.961 1.718.38.467.697.89.95 1.272s.59.722 1.013 1.018c.421.297 1.18.658 2.277 1.082.337 0 .506.17.506.508a25.544 25.544 0 0 0-1.961 2.736 11.48 11.48 0 0 1-2.088 2.481c-.169.084-.549.317-1.139.699-.59.381-.928.658-1.012.828v1.526c.084.085.211.254.38.508.167.256.211.426.125.51-.169 1.017-.505 2.057-1.012 3.118-.506 1.059-.844 2.099-1.011 3.117v5.597a24.346 24.346 0 0 1-.57 3.945 17.347 17.347 0 0 0-.444 3.944c0 .764.19 1.441.569 2.035.38.593.57 1.273.57 2.036 0 1.018-.105 2.12-.316 3.308-.212 1.187-.948 1.782-2.214 1.782-.928 0-1.709-.235-2.341-.7-.633-.468-.949-1.167-.949-2.1 0-2.8.358-5.597 1.075-8.397a34.229 34.229 0 0 0 1.076-8.525c0-.339-.086-.614-.253-.826-.169-.212-.254-.489-.254-.827v-.255c0-.17.064-.445.19-.827.127-.382.231-.614.317-.7a33.425 33.425 0 0 1-.696-2.416c-.126-.51-.274-.977-.443-1.401a13.957 13.957 0 0 0-.38-.891c-.169-.423-.485-.615-.949-.573a12.95 12.95 0 0 1-1.202.065c-.992 0-1.873.203-2.643.608v1.476c0 .255-.127.403-.38.445a3.8 3.8 0 0 1-.632.065c-.597 0-.979-.149-1.148-.461a8.675 8.675 0 0 1-2.284.921c-1.181.339-2.192.572-3.037.7-.402.06-.789.135-1.161.224v-.123a27.27 27.27 0 0 1-3.633 2.428c.169 2.46.042 4.899-.38 7.336a42.3 42.3 0 0 0-.378 2.682v8.822c.123.997.292 2.004.505 3.023.507 2.416.759 4.792.759 7.082 0 1.041-.421 1.682-1.264 1.924v1.644c0 .507-.296 1.08-.886 1.717-.591.636-1.139.954-1.646.954-.674 0-1.181-.381-1.518-1.145v-2.799c0-4.581.169-9.054.506-13.422.338-4.369.506-8.844.506-13.424 0-1.187-.274-2.353-.823-3.498a15.879 15.879 0 0 1-.965-2.546Zm-57.687 26.911c-.253-.68-.084-1.188.507-1.527.59-.34 1.139-.51 1.644-.51 1.013 0 1.518.51 1.518 1.527 0 .51-.146.891-.442 1.145-.296.254-.697.594-1.202 1.018h-.507l-.822-.827c-.38-.381-.613-.656-.696-.826Zm40.493-4.073 1.013-1.017a4.309 4.309 0 0 1 1.644 2.036 7.15 7.15 0 0 1 .507 2.672c0 .508-.105.975-.317 1.399-.21.424-.653.636-1.329.636-.252 0-.569-.085-.949-.255-.38-.169-.57-.465-.57-.89v-4.581Zm40.859 19.986c0 .848.085 1.823.254 2.926.167 1.103.843 1.654 2.024 1.654 1.013 0 1.666-.446 1.962-1.336.295-.89.443-1.717.443-2.48 0-.34-.085-.891-.253-1.655a13.969 13.969 0 0 0-.759-2.353 13.813 13.813 0 0 0-1.076-2.099c-.38-.595-.739-.892-1.076-.892-.76 0-1.202.552-1.329 1.655a28.008 28.008 0 0 0-.19 3.18v1.4Zm-61.612-27.752c-.085-.084-.126-.508-.126-1.271v-2.546c0-.678.106-1.419.317-2.225.21-.807.694-1.21 1.454-1.21.422 0 .823.276 1.203.828.38.551.694 1.187.949 1.908.252.72.442 1.441.57 2.163.125.721.19 1.251.19 1.59 0 .763-.276 1.273-.824 1.526-.547.256-1.16.382-1.834.382-.422 0-.802-.042-1.139-.126-.338-.086-.59-.425-.76-1.019Zm3.037-51.146c0 .51.023 1.105.064 1.782.04.677.622 10.735.833 11.287.211.551.528 1.04.95 1.464.42.424.97.635 1.645.635 1.012 0 1.603-.297 1.77-.889.169-.594-.2-10.928-.2-12.115 0-.34-.043-1.231-.126-2.672-.086-1.442-.211-2.46-.38-3.053 0-.34-.127-.87-.38-1.592-.254-.721-.633-1.08-1.138-1.08-.59 0-1.076.233-1.456.698-.38.468-.697 1.04-.949 1.718a9.018 9.018 0 0 0-.507 2.099 15.689 15.689 0 0 0-.126 1.718Zm6.626 14.53v.255c0 .334.17.493.507.508l8.226.413c.254.011.847-.297 1.773-.889a37.103 37.103 0 0 0 2.783-1.973c.926-.72 1.525-5.377 2.283-6.011.758-.636-.179-7.045-.179-7.215 0-1.103-.359-2.269-1.076-3.498a16.676 16.676 0 0 0-2.595-3.372 15.583 15.583 0 0 0-3.29-2.544c-1.18-.679-2.277-1.018-3.29-1.018-.927 0-1.707.148-2.34.445-.633.297-1.203.869-1.71 1.718-.083.509-.167 1.378-.252 2.608-.083 1.23-.19 2.566-.317 4.008-.126 1.441-.233 2.8-.315 4.071-.084 1.271-.208 11.733-.208 12.24v.254Zm35.386-14.53c-.084-.084-.148 0-.19.255a5.532 5.532 0 0 0 0 1.653c.042.256.106.34.19.256.169-.17.254-.51.254-1.019 0-.594-.085-.975-.254-1.145Zm-12.4-29.008c0 .423.104.912.315 1.463.212.552.569.827 1.076.827h.254c0-.254-.064-.785-.191-1.59-.126-.805-.232-1.294-.316-1.463 0-.34-.168-.51-.506-.51-.338.085-.528.255-.57.51a4.67 4.67 0 0 0-.062.763Z"/></g><mask id="b" fill="#fff"><path d="M221.756 180.954c0-3.04.169-6.06.508-9.058.339-2.997.507-5.974.507-8.93 0-.929-.168-1.499-.507-1.71-.339-.211-.677-.654-1.016-1.33-.084-.168-.169-.59-.254-1.266-.084-.676-.169-1.098-.253-1.267-.17-.422-.572-.802-1.206-1.14a12.708 12.708 0 0 0-2.158-.886 16.46 16.46 0 0 0-2.412-.57c-.804-.128-1.46-.191-1.967-.191-.17 0-.466.043-.889.127s-.635.253-.635.507v6.207c0 .422-.169.717-.508.886a2.252 2.252 0 0 1-1.015.254c-.507 0-.846-.211-1.015-.634 0-.338-.022-1.055-.064-2.153a72.834 72.834 0 0 1-.063-2.154v-3.166c0-.422.211-1.563.634-3.421 0-.084.085-.253.254-.506.17-.253.254-.422.254-.506.085-.17.19-.423.317-.761s.191-.591.191-.76v-.253c0-.591-.064-1.246-.191-1.964-.127-.717-.401-1.329-.825-1.836v-9.247c-1.1.253-1.798-.148-2.094-1.204-.296-1.055-.444-2.047-.444-2.976v-1.52c-.085-.507-.551-1.267-1.397-2.28a45.383 45.383 0 0 0-2.792-3.04 33.064 33.064 0 0 0-2.983-2.66c-.973-.76-1.671-1.183-2.094-1.267h-3.428c-.338 0-.846-.021-1.523-.063a17.412 17.412 0 0 0-2.094 0c-.72.042-1.354.211-1.904.506-.55.296-.826.74-.826 1.33 0 1.351.191 2.766.571 4.244.381 1.478.699 2.892.953 4.243v.254c0 .169-.022.591-.064 1.266a11.205 11.205 0 0 1-.317 2.027 7.882 7.882 0 0 1-.698 1.837c-.297.549-.698.823-1.206.823-.931 0-1.396-.507-1.396-1.52a2.1 2.1 0 0 1 .317-1.14c.211-.338.317-.718.317-1.14v-.887c0-.253-.042-.718-.126-1.393a53.923 53.923 0 0 0-.318-2.154c-.127-.759-.254-1.477-.38-2.153-.128-.675-.233-1.14-.318-1.393l-.19-.064a1.058 1.058 0 0 0-.318-.063c-1.185 0-2.179.507-2.983 1.52-.804 1.013-1.481 2.175-2.031 3.483a19.596 19.596 0 0 0-1.205 3.991c-.255 1.351-.382 2.406-.382 3.166 0 1.183.127 2.302.382 3.357.253 1.056.973 1.879 2.157 2.47v4.94c0 .929-.169 1.689-.508 2.281v15.073c0 .338-.211.507-.634.507h-1.397c-.169-.169-.38-.528-.634-1.077-.254-.549-.381-.908-.381-1.077v-7.727l-.508-1.519c0-.085-.465-.17-1.396-.254-.931-.085-1.692-.211-2.285-.38h-.254c-.592 0-1.312.232-2.158.697a15.243 15.243 0 0 0-2.475 1.71 20.28 20.28 0 0 0-2.158 2.09c-.635.718-1.036 1.33-1.206 1.836.17 2.111.128 4.054-.127 5.827a39.462 39.462 0 0 0-.381 5.573c0 .676.064 1.627.191 2.851a79.71 79.71 0 0 0 .317 2.723c.085.169.275.507.572 1.014.296.506.486.844.571 1.013v.76c0 .76-.381 1.435-1.143 2.027-.761.591-1.481.887-2.157.887-1.608 0-2.412-.634-2.412-1.901 0-.929.232-1.731.698-2.407.465-.675.74-1.477.825-2.406v-7.22c0-.169.085-.592.254-1.267.169-.676.254-1.098.254-1.267v-.253c0-.253-.085-.718-.254-1.393a50.941 50.941 0 0 0-.635-2.281 73.251 73.251 0 0 1-.698-2.469 33.252 33.252 0 0 1-.444-1.837c0-.085.021-.338.063-.76.042-.423.021-.676-.063-.76 0-.085-.169-.127-.508-.127h-.508a10.177 10.177 0 0 1-2.475-3.04 69.866 69.866 0 0 1-1.777-3.547 39.499 39.499 0 0 0-1.84-3.483 9.048 9.048 0 0 0-2.666-2.85v-6.08c1.184-.929 2.01-1.774 2.475-2.533.466-.761.698-1.858.698-3.294 0-1.773-.338-3.314-1.015-4.624-.677-1.308-1.227-2.807-1.65-4.496v-8.614c0-1.689.169-3.082.507-4.18.085.085.254.19.508.317s.423.19.508.19a.57.57 0 0 0 .254-.063.552.552 0 0 1 .253-.064c0-.844-.147-1.562-.444-2.153a61.019 61.019 0 0 0-.888-1.71 63.9 63.9 0 0 1-.889-1.71c-.296-.591-.444-1.267-.444-2.027 0-1.773.381-3.357 1.142-4.75.762-1.394 1.143-3.02 1.143-4.877 0-.929-.106-1.689-.318-2.28-.211-.591-.317-1.309-.317-2.153v-.76c.085-.085.275-.338.571-.76.297-.423.444-.676.444-.76a29.19 29.19 0 0 0 .381-4.814c0-1.266.106-2.512.318-3.736.211-1.225.592-2.322 1.142-3.294.55-.97 1.354-1.73 2.412-2.28 1.058-.549 2.475-.823 4.252-.823.592 0 1.079.021 1.46.063.381.042.825.19 1.332.444l12.44 1.013c.085 0 .276.57.571 1.71.297 1.14.635 2.428 1.016 3.863a144.05 144.05 0 0 1 1.016 4.054c.296 1.266.444 2.026.444 2.28a44.14 44.14 0 0 1-.254 4.75 45.346 45.346 0 0 0-.254 4.877c0 1.182.339 2.153 1.015 2.913a7.002 7.002 0 0 0 2.476 1.773c.973.423 2.009.697 3.11.823a26.67 26.67 0 0 0 3.046.19c1.185 0 2.306-.084 3.364-.253a22.25 22.25 0 0 1 3.491-.253h3.046c.254.59.592 1.245 1.015 1.963.423.718 1.016 1.077 1.777 1.077 1.185 0 2.391-.465 3.618-1.394 1.227-.928 2.179-1.815 2.856-2.66v-.76c0-1.182-.275-2.216-.825-3.103-.55-.886-.825-1.92-.825-3.103 0-1.267.212-2.534.635-3.8a46.694 46.694 0 0 1 1.459-3.8c.55-1.267 1.08-2.512 1.587-3.737.508-1.225.847-2.47 1.015-3.737 0-.169-.02-.612-.063-1.33-.042-.717-.021-1.16.063-1.33.17-.59.783-1.14 1.841-1.647 1.058-.506 2.243-.928 3.555-1.266a47.756 47.756 0 0 1 3.807-.824c1.228-.21 2.137-.316 2.73-.316h1.777c.846 0 1.438.169 1.777.506l3.046 3.04c.423.338 1.1.781 2.031 1.33.931.55 1.608 1.161 2.031 1.837v.253c0 .507-.084 1.014-.254 1.52a4.778 4.778 0 0 0-.254 1.52c.085.17.254.803.508 1.9.254 1.098.55 2.28.889 3.548.338 1.266.549 1.942.634 2.026.17.085.529.17 1.079.253.55.085.91.17 1.079.254 1.354.507 2.2 1.267 2.539 2.28.338 1.013.508 2.238.508 3.673v.127c0 .169-.085.528-.255 1.077-.168.548-.253.907-.253 1.076-.085.085-.127.845-.127 2.28 0 1.436.042 2.196.127 2.28-.085.169-.233.38-.445.633-.211.254-.401.381-.571.381-.169.084-.38.063-.634-.064-.254-.126-.381-.274-.381-.443v-6.207c-.169 0-.36-.105-.571-.316-.212-.212-.36-.232-.445-.064-.592.507-1.015 1.203-1.269 2.09a12.146 12.146 0 0 0-.444 2.85 32.211 32.211 0 0 0 0 2.85c.042.887.063 1.584.063 2.09v3.927l3.173 3.547v.506c0 1.943-.126 3.822-.38 5.637a24.966 24.966 0 0 0-.127 5.637l-.317.317c-.127.126-.191.232-.191.316h-.508c-.423-.168-.719-.675-.888-1.519-.169-.845-.254-1.521-.254-2.027v-.634h-.254c-.423 0-.656.296-.698.887a20.685 20.685 0 0 0-.064 1.267v.887c.762 2.448 1.566 4.75 2.412 6.903.846 2.153 1.269 4.581 1.269 7.283v3.294a25.802 25.802 0 0 0-3.998 4.813c-1.142 1.774-1.713 3.758-1.713 5.953 0 .507.084.951.253 1.33.17.381.254.782.254 1.204v.634c-.592.759-1.269 1.351-2.031 1.773-.761.422-1.502.865-2.221 1.33a6.634 6.634 0 0 0-1.777 1.647c-.466.633-.698 1.541-.698 2.723 0 .676.106 1.309.317 1.9.212.591.317 1.224.317 1.9 0 2.618-.359 5.13-1.078 7.537a25.713 25.713 0 0 0-1.079 7.41c0 .929.19 1.858.571 2.787.38.928.571 1.857.571 2.786 0 .591-.106 1.183-.318 1.773-.211.592-.698.887-1.459.887-.931 0-1.565-.337-1.904-1.013-.339-.675-.55-1.456-.635-2.343a13.411 13.411 0 0 1 0-2.597c.085-.844.127-1.436.127-1.773Zm-12.947-13.301c0-1.097.55-1.647 1.65-1.647 1.1 0 1.65.55 1.65 1.647 0 .422-.212.781-.635 1.077-.423.296-.846.443-1.269.443-.931 0-1.396-.506-1.396-1.52Zm-23.61-14.694c0-.422.063-.844.19-1.266.128-.422.402-.634.826-.634.676 0 1.121.212 1.332.634.212.422.317.887.317 1.394 0 .422-.042.801-.127 1.14-.084.337-.423.506-1.015.506-.508 0-.889-.19-1.142-.57a2.13 2.13 0 0 1-.381-1.204Z"/></mask><path d="M221.756 180.954c0-3.04.169-6.06.508-9.058.339-2.997.507-5.974.507-8.93 0-.929-.168-1.499-.507-1.71-.339-.211-.677-.654-1.016-1.33-.084-.168-.169-.59-.254-1.266-.084-.676-.169-1.098-.253-1.267-.17-.422-.572-.802-1.206-1.14a12.708 12.708 0 0 0-2.158-.886 16.46 16.46 0 0 0-2.412-.57c-.804-.128-1.46-.191-1.967-.191-.17 0-.466.043-.889.127s-.635.253-.635.507v6.207c0 .422-.169.717-.508.886a2.252 2.252 0 0 1-1.015.254c-.507 0-.846-.211-1.015-.634 0-.338-.022-1.055-.064-2.153a72.834 72.834 0 0 1-.063-2.154v-3.166c0-.422.211-1.563.634-3.421 0-.084.085-.253.254-.506.17-.253.254-.422.254-.506.085-.17.19-.423.317-.761s.191-.591.191-.76v-.253c0-.591-.064-1.246-.191-1.964-.127-.717-.401-1.329-.825-1.836v-9.247c-1.1.253-1.798-.148-2.094-1.204-.296-1.055-.444-2.047-.444-2.976v-1.52c-.085-.507-.551-1.267-1.397-2.28a45.383 45.383 0 0 0-2.792-3.04 33.064 33.064 0 0 0-2.983-2.66c-.973-.76-1.671-1.183-2.094-1.267h-3.428c-.338 0-.846-.021-1.523-.063a17.412 17.412 0 0 0-2.094 0c-.72.042-1.354.211-1.904.506-.55.296-.826.74-.826 1.33 0 1.351.191 2.766.571 4.244.381 1.478.699 2.892.953 4.243v.254c0 .169-.022.591-.064 1.266a11.205 11.205 0 0 1-.317 2.027 7.882 7.882 0 0 1-.698 1.837c-.297.549-.698.823-1.206.823-.931 0-1.396-.507-1.396-1.52a2.1 2.1 0 0 1 .317-1.14c.211-.338.317-.718.317-1.14v-.887c0-.253-.042-.718-.126-1.393a53.923 53.923 0 0 0-.318-2.154c-.127-.759-.254-1.477-.38-2.153-.128-.675-.233-1.14-.318-1.393l-.19-.064a1.058 1.058 0 0 0-.318-.063c-1.185 0-2.179.507-2.983 1.52-.804 1.013-1.481 2.175-2.031 3.483a19.596 19.596 0 0 0-1.205 3.991c-.255 1.351-.382 2.406-.382 3.166 0 1.183.127 2.302.382 3.357.253 1.056.973 1.879 2.157 2.47v4.94c0 .929-.169 1.689-.508 2.281v15.073c0 .338-.211.507-.634.507h-1.397c-.169-.169-.38-.528-.634-1.077-.254-.549-.381-.908-.381-1.077v-7.727l-.508-1.519c0-.085-.465-.17-1.396-.254-.931-.085-1.692-.211-2.285-.38h-.254c-.592 0-1.312.232-2.158.697a15.243 15.243 0 0 0-2.475 1.71 20.28 20.28 0 0 0-2.158 2.09c-.635.718-1.036 1.33-1.206 1.836.17 2.111.128 4.054-.127 5.827a39.462 39.462 0 0 0-.381 5.573c0 .676.064 1.627.191 2.851a79.71 79.71 0 0 0 .317 2.723c.085.169.275.507.572 1.014.296.506.486.844.571 1.013v.76c0 .76-.381 1.435-1.143 2.027-.761.591-1.481.887-2.157.887-1.608 0-2.412-.634-2.412-1.901 0-.929.232-1.731.698-2.407.465-.675.74-1.477.825-2.406v-7.22c0-.169.085-.592.254-1.267.169-.676.254-1.098.254-1.267v-.253c0-.253-.085-.718-.254-1.393a50.941 50.941 0 0 0-.635-2.281 73.251 73.251 0 0 1-.698-2.469 33.252 33.252 0 0 1-.444-1.837c0-.085.021-.338.063-.76.042-.423.021-.676-.063-.76 0-.085-.169-.127-.508-.127h-.508a10.177 10.177 0 0 1-2.475-3.04 69.866 69.866 0 0 1-1.777-3.547 39.499 39.499 0 0 0-1.84-3.483 9.048 9.048 0 0 0-2.666-2.85v-6.08c1.184-.929 2.01-1.774 2.475-2.533.466-.761.698-1.858.698-3.294 0-1.773-.338-3.314-1.015-4.624-.677-1.308-1.227-2.807-1.65-4.496v-8.614c0-1.689.169-3.082.507-4.18.085.085.254.19.508.317s.423.19.508.19a.57.57 0 0 0 .254-.063.552.552 0 0 1 .253-.064c0-.844-.147-1.562-.444-2.153a61.019 61.019 0 0 0-.888-1.71 63.9 63.9 0 0 1-.889-1.71c-.296-.591-.444-1.267-.444-2.027 0-1.773.381-3.357 1.142-4.75.762-1.394 1.143-3.02 1.143-4.877 0-.929-.106-1.689-.318-2.28-.211-.591-.317-1.309-.317-2.153v-.76c.085-.085.275-.338.571-.76.297-.423.444-.676.444-.76a29.19 29.19 0 0 0 .381-4.814c0-1.266.106-2.512.318-3.736.211-1.225.592-2.322 1.142-3.294.55-.97 1.354-1.73 2.412-2.28 1.058-.549 2.475-.823 4.252-.823.592 0 1.079.021 1.46.063.381.042.825.19 1.332.444l12.44 1.013c.085 0 .276.57.571 1.71.297 1.14.635 2.428 1.016 3.863a144.05 144.05 0 0 1 1.016 4.054c.296 1.266.444 2.026.444 2.28a44.14 44.14 0 0 1-.254 4.75 45.346 45.346 0 0 0-.254 4.877c0 1.182.339 2.153 1.015 2.913a7.002 7.002 0 0 0 2.476 1.773c.973.423 2.009.697 3.11.823a26.67 26.67 0 0 0 3.046.19c1.185 0 2.306-.084 3.364-.253a22.25 22.25 0 0 1 3.491-.253h3.046c.254.59.592 1.245 1.015 1.963.423.718 1.016 1.077 1.777 1.077 1.185 0 2.391-.465 3.618-1.394 1.227-.928 2.179-1.815 2.856-2.66v-.76c0-1.182-.275-2.216-.825-3.103-.55-.886-.825-1.92-.825-3.103 0-1.267.212-2.534.635-3.8a46.694 46.694 0 0 1 1.459-3.8c.55-1.267 1.08-2.512 1.587-3.737.508-1.225.847-2.47 1.015-3.737 0-.169-.02-.612-.063-1.33-.042-.717-.021-1.16.063-1.33.17-.59.783-1.14 1.841-1.647 1.058-.506 2.243-.928 3.555-1.266a47.756 47.756 0 0 1 3.807-.824c1.228-.21 2.137-.316 2.73-.316h1.777c.846 0 1.438.169 1.777.506l3.046 3.04c.423.338 1.1.781 2.031 1.33.931.55 1.608 1.161 2.031 1.837v.253c0 .507-.084 1.014-.254 1.52a4.778 4.778 0 0 0-.254 1.52c.085.17.254.803.508 1.9.254 1.098.55 2.28.889 3.548.338 1.266.549 1.942.634 2.026.17.085.529.17 1.079.253.55.085.91.17 1.079.254 1.354.507 2.2 1.267 2.539 2.28.338 1.013.508 2.238.508 3.673v.127c0 .169-.085.528-.255 1.077-.168.548-.253.907-.253 1.076-.085.085-.127.845-.127 2.28 0 1.436.042 2.196.127 2.28-.085.169-.233.38-.445.633-.211.254-.401.381-.571.381-.169.084-.38.063-.634-.064-.254-.126-.381-.274-.381-.443v-6.207c-.169 0-.36-.105-.571-.316-.212-.212-.36-.232-.445-.064-.592.507-1.015 1.203-1.269 2.09a12.146 12.146 0 0 0-.444 2.85 32.211 32.211 0 0 0 0 2.85c.042.887.063 1.584.063 2.09v3.927l3.173 3.547v.506c0 1.943-.126 3.822-.38 5.637a24.966 24.966 0 0 0-.127 5.637l-.317.317c-.127.126-.191.232-.191.316h-.508c-.423-.168-.719-.675-.888-1.519-.169-.845-.254-1.521-.254-2.027v-.634h-.254c-.423 0-.656.296-.698.887a20.685 20.685 0 0 0-.064 1.267v.887c.762 2.448 1.566 4.75 2.412 6.903.846 2.153 1.269 4.581 1.269 7.283v3.294a25.802 25.802 0 0 0-3.998 4.813c-1.142 1.774-1.713 3.758-1.713 5.953 0 .507.084.951.253 1.33.17.381.254.782.254 1.204v.634c-.592.759-1.269 1.351-2.031 1.773-.761.422-1.502.865-2.221 1.33a6.634 6.634 0 0 0-1.777 1.647c-.466.633-.698 1.541-.698 2.723 0 .676.106 1.309.317 1.9.212.591.317 1.224.317 1.9 0 2.618-.359 5.13-1.078 7.537a25.713 25.713 0 0 0-1.079 7.41c0 .929.19 1.858.571 2.787.38.928.571 1.857.571 2.786 0 .591-.106 1.183-.318 1.773-.211.592-.698.887-1.459.887-.931 0-1.565-.337-1.904-1.013-.339-.675-.55-1.456-.635-2.343a13.411 13.411 0 0 1 0-2.597c.085-.844.127-1.436.127-1.773Zm-12.947-13.301c0-1.097.55-1.647 1.65-1.647 1.1 0 1.65.55 1.65 1.647 0 .422-.212.781-.635 1.077-.423.296-.846.443-1.269.443-.931 0-1.396-.506-1.396-1.52Zm-23.61-14.694c0-.422.063-.844.19-1.266.128-.422.402-.634.826-.634.676 0 1.121.212 1.332.634.212.422.317.887.317 1.394 0 .422-.042.801-.127 1.14-.084.337-.423.506-1.015.506-.508 0-.889-.19-1.142-.57a2.13 2.13 0 0 1-.381-1.204Z" fill="#27E7DB" stroke="#000" stroke-width="2" mask="url(#b)"/><mask id="c" fill="#fff"><path d="M295.56 196.406v-1.02c0-.68.085-1.339.256-1.977.17-.638.596-.957 1.279-.957.767 0 1.215.383 1.343 1.148.127.766.192 1.446.192 2.041 0 .596-.107 1.361-.32 2.296-.213.936-.703 1.403-1.471 1.403-.853 0-1.279-.34-1.279-1.02v-1.914Zm-21.742-8.546v-.51c.085-.17.234-.595.447-1.276.213-.68.405-1.105.576-1.275v-23.854c-.512-.34-.938-.85-1.279-1.531a26.133 26.133 0 0 1-.896-1.977 8.931 8.931 0 0 0-.959-1.786c-.383-.552-.874-.872-1.471-.957-2.728.171-5.307-.063-7.737-.701-2.43-.638-4.967-.956-7.61-.956-.085 0-.278.02-.576.063a5.223 5.223 0 0 1-.703.064c-.682 1.701-1.066 3.274-1.152 4.72-.085 1.446-.042 3.189.128 5.23l-1.023 1.02h-.256c-.426 0-.788-.276-1.086-.829a7.765 7.765 0 0 1-.704-1.913 20.102 20.102 0 0 1-.383-2.105c-.086-.68-.129-1.148-.129-1.403v-3.699c-.341-1.276-.81-2.424-1.407-3.445l-1.79-3.061a23.597 23.597 0 0 1-1.535-3.126c-.426-1.063-.64-2.317-.64-3.762 0-.34.022-.978.065-1.914.042-.935.064-1.531.064-1.786.682-.85 1.3-1.849 1.854-2.997s.831-2.275.831-3.381c0-.68-.277-1.381-.831-2.104-.554-.723-.831-1.34-.831-1.85 0-.085.085-.255.256-.51.17-.255.255-.425.255-.51.171-.34.363-1.106.576-2.297.213-1.19.362-1.956.448-2.296-1.024-1.53-1.791-2.827-2.303-3.89-.511-1.063-.767-2.7-.767-4.911 0-.426-.021-.957-.064-1.594-.043-.638.149-1.128.576-1.468l1.023-9.311 1.535-1.531V90.66l-1.024-1.531c-.255.68-.447 1.36-.575 2.041a34.63 34.63 0 0 1-.448 2.04 1.76 1.76 0 0 0-.383.065 1.744 1.744 0 0 1-.384.063c-.853 0-1.279-.467-1.279-1.403V89.64c0-1.02.064-2.275.192-3.763s.362-2.976.703-4.465a16.61 16.61 0 0 1 1.535-4.145c.682-1.276 1.577-2.169 2.686-2.679.17-.085.703-.17 1.598-.255.896-.085 1.428-.17 1.599-.255 1.194-.255 2.259-.638 3.197-1.148.938-.51 1.855-1.02 2.75-1.53s1.855-.958 2.878-1.34c1.024-.383 2.217-.574 3.581-.574h3.07c.682.425 1.386.914 2.11 1.467a306.92 306.92 0 0 0 2.11 1.594h8.698c.767-.68 1.683-1.19 2.749-1.53 1.066-.34 2.068-.51 3.006-.51 1.705 0 3.432.275 5.18.829 1.747.552 3.474.956 5.18 1.212.255.084.831.17 1.726.254a97.65 97.65 0 0 1 2.878.32c1.023.127 1.982.233 2.877.318.896.085 1.514.128 1.855.128 1.023-.255 1.641-.66 1.854-1.212.214-.553.747-.83 1.599-.83.767 0 1.62.213 2.558.639a11.25 11.25 0 0 1 2.558 1.594 9.923 9.923 0 0 1 1.983 2.232c.554.85.831 1.701.831 2.552 0 1.955-.299 3.55-.895 4.783-.597 1.233-.981 2.828-1.151 4.784v4.59c0 .255-.043.808-.128 1.658a94.44 94.44 0 0 1-.32 2.743 513.95 513.95 0 0 1-.384 2.87 36.781 36.781 0 0 1-.32 2.041c0 .17-.063.595-.191 1.275-.129.681-.235 1.106-.32 1.276v.51c.085.17.191.361.32.574.128.212.191.361.191.447.086.085.128.68.128 1.785v1.659c0 .68.022 1.679.064 2.997a41.976 41.976 0 0 1-.064 4.018c-.085 1.361-.298 2.552-.639 3.572s-.853 1.531-1.535 1.531c-.597 0-1.002-.064-1.215-.192-.213-.128-.32-.488-.32-1.084 0-.765.171-1.509.512-2.232a5.18 5.18 0 0 0 .512-2.233c0-.595-.15-1.254-.448-1.977a8.2 8.2 0 0 1-.576-2.104c-.341.17-.852.489-1.535.956-.682.468-1.023.999-1.023 1.595 0 .595.171 1.105.512 1.53.341.425.511.936.511 1.531 0 1.701-.234 3.699-.703 5.995-.469 2.297-.746 4.295-.831 5.996l-.448.893c-.213.425-.49.638-.831.638h-.256l-.512-.511c0-.255-.021-.701-.064-1.339a40.108 40.108 0 0 0-.191-2.041 39.046 39.046 0 0 1-.192-2.041 23.15 23.15 0 0 1-.064-1.34c-.085-.169-.107-.68-.064-1.53s.064-1.361.064-1.531c-.085-.17-.256-.382-.512-.638-.256-.255-.426-.382-.511-.382h-6.779l-1.535 1.53c-.085.426-.17 1.276-.256 2.551-.085 1.276-.17 2.127-.255 2.552-.171.68-.427 1.552-.767 2.615-.342 1.063-.981 1.594-1.919 1.594-.256 0-.533-.063-.831-.191-.299-.128-.448-.404-.448-.829v-7.144c-1.023 0-1.876.022-2.558.064a24.58 24.58 0 0 0-1.918.192c-.597.084-1.237.191-1.919.318-.682.128-1.535.235-2.558.32-1.364.084-2.579.148-3.645.191-1.066.042-2.004.212-2.814.51-.81.298-1.534.787-2.174 1.467-.639.68-1.215 1.658-1.727 2.934-.085.085-.191.276-.32.574-.127.298-.191.489-.191.574-.086 0-.128.085-.128.255 0 .595.277 1.318.831 2.168.555.851 1.215 1.68 1.983 2.488a14.741 14.741 0 0 0 2.366 2.041c.81.553 1.513.829 2.11.829s1.109-.383 1.535-1.148h6.267c.426.425.938.638 1.535.638h3.069c.597 0 1.108-.213 1.535-.638.426 0 1.13-.022 2.11-.064a93.235 93.235 0 0 0 3.133-.191c1.109-.085 2.132-.149 3.07-.192.938-.042 1.62-.063 2.047-.063h.895c.426 0 1.194.042 2.302.127 1.109.085 1.79.213 2.046.383.085.085.171.34.256.765.085.426.171.681.256.766.682 1.275 1.449 2.083 2.302 2.423.852.34 1.791.936 2.814 1.786 1.364.936 2.324 2.02 2.878 3.253.554 1.233 1.513 2.36 2.877 3.38v.51c0 .595-.17.936-.511 1.021l-1.024 18.751c0 .085-.127.255-.384.51-.255.255-.468.426-.639.511l-.256.127c-.085 0-.149-.021-.191-.063l-.065-.064a2.939 2.939 0 0 1-1.022-1.021c0-.17-.022-.595-.064-1.275a28.528 28.528 0 0 1-.064-1.276c0-1.446.106-2.87.319-4.273.213-1.404.32-2.828.32-4.274v-.255c0-.085-.021-.361-.064-.828-.043-.468-.107-1-.192-1.595a28.134 28.134 0 0 1-.191-1.659c-.043-.51-.064-.892-.064-1.148-.257.171-1.088.511-2.494 1.021-1.408.51-2.878 1.041-4.413 1.595a184.56 184.56 0 0 1-4.221 1.466l-1.918.638a19.644 19.644 0 0 1-.896 3.635c-.426 1.234-.639 2.445-.639 3.636v22.196c0 1.02-.511 1.53-1.534 1.53a2.92 2.92 0 0 1-1.024-.191c-.341-.128-.512-.404-.512-.83v-15.562c-.34-.34-.511-.807-.511-1.403v-1.531c0-1.275.085-2.529.256-3.763.17-1.233.255-2.53.255-3.89v-2.806c-1.534-1.021-3.367-1.531-5.499-1.531h-8.441a8.34 8.34 0 0 0-2.43 2.87 13.673 13.673 0 0 0-1.279 3.635 23.432 23.432 0 0 0-.448 3.827 109.101 109.101 0 0 0-.064 3.572v18.624c-.17.169-.426.382-.767.637s-.597.383-.768.383c-.511 0-1.065-.191-1.662-.574-.597-.383-.895-.872-.895-1.467Zm-24.941-17.603c0-1.361.725-2.041 2.175-2.041.682 0 1.023.468 1.023 1.403 0 1.191-.597 1.786-1.79 1.786-.427 0-.768-.064-1.024-.192-.256-.127-.384-.446-.384-.956Zm24.301-73.347c0 .766.405 1.552 1.215 2.36.81.808 1.769 1.552 2.878 2.232a21.63 21.63 0 0 0 3.453 1.722c1.194.468 2.174.745 2.941.829a47.46 47.46 0 0 0 9.529.319 35.406 35.406 0 0 1 9.656.702 4.33 4.33 0 0 1 1.535.765c.426.341.832.702 1.215 1.084.384.383.81.702 1.279.957.469.255 1.087.383 1.854.383h.256c.086-.17.192-.446.32-.829.128-.383.192-.659.192-.829.085-.511.192-1.467.319-2.87.128-1.403.235-2.913.321-4.529.085-1.615.17-3.147.255-4.592.085-1.446.128-2.423.128-2.934v-1.403c0-.17.021-.468.064-.893s-.149-.68-.575-.765a60.42 60.42 0 0 1-2.047-.064 62.183 62.183 0 0 0-2.046-.064c-3.752 0-7.546.723-11.383 2.169-.171.085-.512.19-1.023.319-.512.127-.853.191-1.024.191a15.83 15.83 0 0 0-.191 1.148 6.66 6.66 0 0 0-.064.765v2.296a6.61 6.61 0 0 1-.32 2.105c-.213.638-.576 1.127-1.087 1.467-.597-.425-.959-1-1.087-1.722a12.779 12.779 0 0 1-.192-2.232c0-.766-.064-1.51-.192-2.232-.128-.723-.49-1.255-1.087-1.595-1.194-.68-2.536-1.19-4.029-1.53-1.492-.34-2.92-.681-4.285-1.021 0-.085-.042-.128-.127-.128 0 1.19-.341 2.084-1.024 2.679a10.813 10.813 0 0 1-2.302 1.53c-.853.426-1.62.936-2.302 1.531-.682.596-1.023 1.489-1.023 2.679Z"/></mask><path d="M295.56 196.406v-1.02c0-.68.085-1.339.256-1.977.17-.638.596-.957 1.279-.957.767 0 1.215.383 1.343 1.148.127.766.192 1.446.192 2.041 0 .596-.107 1.361-.32 2.296-.213.936-.703 1.403-1.471 1.403-.853 0-1.279-.34-1.279-1.02v-1.914Zm-21.742-8.546v-.51c.085-.17.234-.595.447-1.276.213-.68.405-1.105.576-1.275v-23.854c-.512-.34-.938-.85-1.279-1.531a26.133 26.133 0 0 1-.896-1.977 8.931 8.931 0 0 0-.959-1.786c-.383-.552-.874-.872-1.471-.957-2.728.171-5.307-.063-7.737-.701-2.43-.638-4.967-.956-7.61-.956-.085 0-.278.02-.576.063a5.223 5.223 0 0 1-.703.064c-.682 1.701-1.066 3.274-1.152 4.72-.085 1.446-.042 3.189.128 5.23l-1.023 1.02h-.256c-.426 0-.788-.276-1.086-.829a7.765 7.765 0 0 1-.704-1.913 20.102 20.102 0 0 1-.383-2.105c-.086-.68-.129-1.148-.129-1.403v-3.699c-.341-1.276-.81-2.424-1.407-3.445l-1.79-3.061a23.597 23.597 0 0 1-1.535-3.126c-.426-1.063-.64-2.317-.64-3.762 0-.34.022-.978.065-1.914.042-.935.064-1.531.064-1.786.682-.85 1.3-1.849 1.854-2.997s.831-2.275.831-3.381c0-.68-.277-1.381-.831-2.104-.554-.723-.831-1.34-.831-1.85 0-.085.085-.255.256-.51.17-.255.255-.425.255-.51.171-.34.363-1.106.576-2.297.213-1.19.362-1.956.448-2.296-1.024-1.53-1.791-2.827-2.303-3.89-.511-1.063-.767-2.7-.767-4.911 0-.426-.021-.957-.064-1.594-.043-.638.149-1.128.576-1.468l1.023-9.311 1.535-1.531V90.66l-1.024-1.531c-.255.68-.447 1.36-.575 2.041a34.63 34.63 0 0 1-.448 2.04 1.76 1.76 0 0 0-.383.065 1.744 1.744 0 0 1-.384.063c-.853 0-1.279-.467-1.279-1.403V89.64c0-1.02.064-2.275.192-3.763s.362-2.976.703-4.465a16.61 16.61 0 0 1 1.535-4.145c.682-1.276 1.577-2.169 2.686-2.679.17-.085.703-.17 1.598-.255.896-.085 1.428-.17 1.599-.255 1.194-.255 2.259-.638 3.197-1.148.938-.51 1.855-1.02 2.75-1.53s1.855-.958 2.878-1.34c1.024-.383 2.217-.574 3.581-.574h3.07c.682.425 1.386.914 2.11 1.467a306.92 306.92 0 0 0 2.11 1.594h8.698c.767-.68 1.683-1.19 2.749-1.53 1.066-.34 2.068-.51 3.006-.51 1.705 0 3.432.275 5.18.829 1.747.552 3.474.956 5.18 1.212.255.084.831.17 1.726.254a97.65 97.65 0 0 1 2.878.32c1.023.127 1.982.233 2.877.318.896.085 1.514.128 1.855.128 1.023-.255 1.641-.66 1.854-1.212.214-.553.747-.83 1.599-.83.767 0 1.62.213 2.558.639a11.25 11.25 0 0 1 2.558 1.594 9.923 9.923 0 0 1 1.983 2.232c.554.85.831 1.701.831 2.552 0 1.955-.299 3.55-.895 4.783-.597 1.233-.981 2.828-1.151 4.784v4.59c0 .255-.043.808-.128 1.658a94.44 94.44 0 0 1-.32 2.743 513.95 513.95 0 0 1-.384 2.87 36.781 36.781 0 0 1-.32 2.041c0 .17-.063.595-.191 1.275-.129.681-.235 1.106-.32 1.276v.51c.085.17.191.361.32.574.128.212.191.361.191.447.086.085.128.68.128 1.785v1.659c0 .68.022 1.679.064 2.997a41.976 41.976 0 0 1-.064 4.018c-.085 1.361-.298 2.552-.639 3.572s-.853 1.531-1.535 1.531c-.597 0-1.002-.064-1.215-.192-.213-.128-.32-.488-.32-1.084 0-.765.171-1.509.512-2.232a5.18 5.18 0 0 0 .512-2.233c0-.595-.15-1.254-.448-1.977a8.2 8.2 0 0 1-.576-2.104c-.341.17-.852.489-1.535.956-.682.468-1.023.999-1.023 1.595 0 .595.171 1.105.512 1.53.341.425.511.936.511 1.531 0 1.701-.234 3.699-.703 5.995-.469 2.297-.746 4.295-.831 5.996l-.448.893c-.213.425-.49.638-.831.638h-.256l-.512-.511c0-.255-.021-.701-.064-1.339a40.108 40.108 0 0 0-.191-2.041 39.046 39.046 0 0 1-.192-2.041 23.15 23.15 0 0 1-.064-1.34c-.085-.169-.107-.68-.064-1.53s.064-1.361.064-1.531c-.085-.17-.256-.382-.512-.638-.256-.255-.426-.382-.511-.382h-6.779l-1.535 1.53c-.085.426-.17 1.276-.256 2.551-.085 1.276-.17 2.127-.255 2.552-.171.68-.427 1.552-.767 2.615-.342 1.063-.981 1.594-1.919 1.594-.256 0-.533-.063-.831-.191-.299-.128-.448-.404-.448-.829v-7.144c-1.023 0-1.876.022-2.558.064a24.58 24.58 0 0 0-1.918.192c-.597.084-1.237.191-1.919.318-.682.128-1.535.235-2.558.32-1.364.084-2.579.148-3.645.191-1.066.042-2.004.212-2.814.51-.81.298-1.534.787-2.174 1.467-.639.68-1.215 1.658-1.727 2.934-.085.085-.191.276-.32.574-.127.298-.191.489-.191.574-.086 0-.128.085-.128.255 0 .595.277 1.318.831 2.168.555.851 1.215 1.68 1.983 2.488a14.741 14.741 0 0 0 2.366 2.041c.81.553 1.513.829 2.11.829s1.109-.383 1.535-1.148h6.267c.426.425.938.638 1.535.638h3.069c.597 0 1.108-.213 1.535-.638.426 0 1.13-.022 2.11-.064a93.235 93.235 0 0 0 3.133-.191c1.109-.085 2.132-.149 3.07-.192.938-.042 1.62-.063 2.047-.063h.895c.426 0 1.194.042 2.302.127 1.109.085 1.79.213 2.046.383.085.085.171.34.256.765.085.426.171.681.256.766.682 1.275 1.449 2.083 2.302 2.423.852.34 1.791.936 2.814 1.786 1.364.936 2.324 2.02 2.878 3.253.554 1.233 1.513 2.36 2.877 3.38v.51c0 .595-.17.936-.511 1.021l-1.024 18.751c0 .085-.127.255-.384.51-.255.255-.468.426-.639.511l-.256.127c-.085 0-.149-.021-.191-.063l-.065-.064a2.939 2.939 0 0 1-1.022-1.021c0-.17-.022-.595-.064-1.275a28.528 28.528 0 0 1-.064-1.276c0-1.446.106-2.87.319-4.273.213-1.404.32-2.828.32-4.274v-.255c0-.085-.021-.361-.064-.828-.043-.468-.107-1-.192-1.595a28.134 28.134 0 0 1-.191-1.659c-.043-.51-.064-.892-.064-1.148-.257.171-1.088.511-2.494 1.021-1.408.51-2.878 1.041-4.413 1.595a184.56 184.56 0 0 1-4.221 1.466l-1.918.638a19.644 19.644 0 0 1-.896 3.635c-.426 1.234-.639 2.445-.639 3.636v22.196c0 1.02-.511 1.53-1.534 1.53a2.92 2.92 0 0 1-1.024-.191c-.341-.128-.512-.404-.512-.83v-15.562c-.34-.34-.511-.807-.511-1.403v-1.531c0-1.275.085-2.529.256-3.763.17-1.233.255-2.53.255-3.89v-2.806c-1.534-1.021-3.367-1.531-5.499-1.531h-8.441a8.34 8.34 0 0 0-2.43 2.87 13.673 13.673 0 0 0-1.279 3.635 23.432 23.432 0 0 0-.448 3.827 109.101 109.101 0 0 0-.064 3.572v18.624c-.17.169-.426.382-.767.637s-.597.383-.768.383c-.511 0-1.065-.191-1.662-.574-.597-.383-.895-.872-.895-1.467Zm-24.941-17.603c0-1.361.725-2.041 2.175-2.041.682 0 1.023.468 1.023 1.403 0 1.191-.597 1.786-1.79 1.786-.427 0-.768-.064-1.024-.192-.256-.127-.384-.446-.384-.956Zm24.301-73.347c0 .766.405 1.552 1.215 2.36.81.808 1.769 1.552 2.878 2.232a21.63 21.63 0 0 0 3.453 1.722c1.194.468 2.174.745 2.941.829a47.46 47.46 0 0 0 9.529.319 35.406 35.406 0 0 1 9.656.702 4.33 4.33 0 0 1 1.535.765c.426.341.832.702 1.215 1.084.384.383.81.702 1.279.957.469.255 1.087.383 1.854.383h.256c.086-.17.192-.446.32-.829.128-.383.192-.659.192-.829.085-.511.192-1.467.319-2.87.128-1.403.235-2.913.321-4.529.085-1.615.17-3.147.255-4.592.085-1.446.128-2.423.128-2.934v-1.403c0-.17.021-.468.064-.893s-.149-.68-.575-.765a60.42 60.42 0 0 1-2.047-.064 62.183 62.183 0 0 0-2.046-.064c-3.752 0-7.546.723-11.383 2.169-.171.085-.512.19-1.023.319-.512.127-.853.191-1.024.191a15.83 15.83 0 0 0-.191 1.148 6.66 6.66 0 0 0-.064.765v2.296a6.61 6.61 0 0 1-.32 2.105c-.213.638-.576 1.127-1.087 1.467-.597-.425-.959-1-1.087-1.722a12.779 12.779 0 0 1-.192-2.232c0-.766-.064-1.51-.192-2.232-.128-.723-.49-1.255-1.087-1.595-1.194-.68-2.536-1.19-4.029-1.53-1.492-.34-2.92-.681-4.285-1.021 0-.085-.042-.128-.127-.128 0 1.19-.341 2.084-1.024 2.679a10.813 10.813 0 0 1-2.302 1.53c-.853.426-1.62.936-2.302 1.531-.682.596-1.023 1.489-1.023 2.679Z" fill="#27E7DB" stroke="#000" stroke-width="2" mask="url(#c)"/><mask id="d" fill="#fff"><path d="M363.577 196.979c0-1.604-.595-2.406-1.783-2.406-1.274 0-1.911.633-1.911 1.899s.637 1.899 1.911 1.899c.424 0 .828-.105 1.21-.316.382-.211.573-.57.573-1.076Zm25.352-10.002c0-.338-.042-.507-.127-.507 0-.168-.128-.506-.382-1.012-.255-.507-.468-.844-.638-1.013v-7.217c.085-.76.192-2.047.319-3.862.127-1.814.276-3.777.446-5.887.169-2.11.318-4.072.446-5.887.127-1.815.233-3.102.318-3.862 1.019-.928 2.378-1.519 4.077-1.772 1.698-.254 3.185-.38 4.458-.38.171 0 .489-.022.956-.064.467-.041.744.148.828.57.085 0 .128.169.128.507v.886c0 .928-.107 1.794-.319 2.596a10.116 10.116 0 0 0-.318 2.595c0 .253.127.612.382 1.076.255.464.552.696.892.696.764 0 1.401-.337 1.911-1.013.085-.253.191-.801.318-1.645.128-.844.234-1.731.319-2.659.085-.929.17-1.794.254-2.595.085-.803.128-1.288.128-1.457 0-.168-.064-.654-.192-1.456-.127-.802-.233-1.329-.318-1.582-.085-.169-.276-.444-.573-.823-.297-.38-.446-.612-.446-.696 0-.085-.021-.148-.064-.191l-.063-.063c0-.506.106-1.329.318-2.468.212-1.14.488-2.28.828-3.419.34-1.14.786-2.152 1.338-3.039.552-.886 1.125-1.329 1.72-1.329v-7.976c0-.675-.34-1.604-1.02-2.785-.679-1.183-1.358-1.984-2.038-2.406v-8.61c0-.169.149-.358.446-.569.297-.211.616-.444.955-.697.34-.253.68-.485 1.02-.696.339-.211.552-.443.637-.696 0-.169.021-.507.063-1.013.043-.507.064-.844.064-1.013 0-.76-.191-1.414-.573-1.962a14.912 14.912 0 0 0-1.274-1.583 20.32 20.32 0 0 1-1.274-1.519c-.382-.507-.573-1.14-.573-1.9 0-.59.254-1.097.764-1.519a9.026 9.026 0 0 0 1.274-1.266c.255-.253.573-.633.955-1.139.383-.507.574-.802.574-.887v-5.697l-3.058-3.039v-7.09l3.058-3.165v-.126c0-2.11-.764-4.115-2.293-6.014-1.529-1.9-3.185-3.271-4.969-4.115-1.868.169-3.503.042-4.905-.38-1.401-.422-2.951-.633-4.649-.633-.341 0-.935.19-1.784.57a52.86 52.86 0 0 0-2.739 1.329c-.977.506-1.954.992-2.93 1.456-.977.464-1.805.739-2.485.823-1.273.254-2.463.38-3.567.38s-1.996.718-2.675 2.152c0 4.052-.828 7.47-2.484 10.256-1.657 2.785-4.268 4.98-7.835 6.583l-.51 1.013a58.521 58.521 0 0 0-.764 1.582 59.31 59.31 0 0 1-.764 1.583l-.51 1.013c-.255.422-.51.95-.764 1.583-.255.633-.383 1.202-.383 1.709 0 .422.106.823.319 1.203.212.38.318.78.318 1.202 0 1.013-.658 1.773-1.974 2.279-1.317.507-2.4.76-3.249.76-.849 0-1.826-.19-2.93-.57a11.666 11.666 0 0 1-3.058-1.582 11 11 0 0 1-2.356-2.279c-.637-.844-.956-1.773-.956-2.786v-1.519c.17-.084.361-.19.574-.317.212-.126.36-.19.445-.19h.637c0 .254.128.782.383 1.583.254.802.466 1.287.636 1.456 0 .338.171.507.51.507l.51-.507v-8.736c0-.675-.192-1.266-.574-1.772a19.983 19.983 0 0 0-1.273-1.52 14.76 14.76 0 0 1-1.274-1.582c-.383-.548-.574-1.203-.574-1.962 0-1.604.276-3.187.828-4.748.552-1.562.828-3.06.828-4.495 0-1.857-.573-3.334-1.72-4.431-1.146-1.097-2.526-1.942-4.14-2.532a22.45 22.45 0 0 0-5.096-1.203c-1.783-.211-3.312-.316-4.586-.316h-.51c.34.337.51.675.51 1.012v1.013c0 .253.021.549.063.887.043.337-.148.548-.573.633-1.953.168-3.333.421-4.14.759-.807.337-1.401.823-1.784 1.456-.382.633-.721 1.456-1.019 2.47-.297 1.012-.912 2.194-1.847 3.544-.085.169-.34.527-.765 1.076-.424.549-.679.865-.764.95l-.509 1.013v5.697c0 .169.148.295.446.38.297.084.615.169.955.253.34.084.68.232 1.019.443.34.211.553.528.637.95.085.084.128.633.128 1.645v3.293c0 .759-.043 1.18-.128 1.265 0 .17-.255.676-.764 1.52-.51.844-.764 1.35-.764 1.519a52.32 52.32 0 0 0-1.147 6.774 64.427 64.427 0 0 0-.382 6.773v4.938c.085.337.467.506 1.146.506.488 0 .829-.527.998-1.582.17-1.055.297-1.752.383-2.09.679.676 1.04 1.372 1.083 2.09.042.717.063 1.498.063 2.342 0 1.434-.234 2.616-.7 3.545-.468.928-1.296 1.857-2.464 2.785 0 .169-.021.612-.063 1.33a32.16 32.16 0 0 0-.064 1.329c0 .844.149 1.646.446 2.406.297.759.616 1.477.934 2.152.34.675.658 1.371.955 2.089.298.717.446 1.456.446 2.216 0 .928-.17 1.519-.509 1.772-.34.253-1.062.464-2.145.633v4.558c1.083.675 2.166 1.793 3.228 3.355 1.061 1.561 2.038 2.849 2.972 3.862l4.056 3.671c1.168 1.351 1.89 3.081 2.144 5.191.255 2.11.552 3.967.892 5.571v.253c0 2.026-.255 4.031-.765 6.014a23.62 23.62 0 0 0-.764 5.888c0 1.519.764 2.278 2.293 2.278.659 0 1.232-.274 1.699-.823.467-.548.7-1.16.7-1.836 0-.506-.19-.907-.573-1.202-.382-.296-.573-.696-.573-1.203v-.38c0-.169.043-.253.128-.253 0-.76.063-1.836.191-3.228.127-1.393.254-2.807.382-4.242.127-1.435.233-2.701.318-3.798.085-1.098.127-1.773.127-2.026.171-1.941.637-3.376 1.381-4.305a7.17 7.17 0 0 1 2.803-2.088 32.597 32.597 0 0 1 3.545-1.266c1.253-.38 2.442-.95 3.525-1.71 2.208-1.941 3.949-3.651 5.266-5.128 1.295-1.477 2.633-3.355 3.992-5.633.169-.423.446-.95.807-1.583.381-.633.615-.95.7-.95h.764v41.275c0 .675.085 1.329.255 1.962.17.633.68.95 1.529.95.764 0 1.338-.317 1.72-.95.382-.633.573-1.287.573-1.962a5.47 5.47 0 0 0-.063-.886c-.043-.254-.192-.549-.446-.887v-43.173c0-1.013-.425-1.984-1.274-2.912-.85-.929-1.274-1.646-1.274-2.153.169-1.603.806-2.827 1.911-3.671a21.389 21.389 0 0 0 3.184-3.039c.51-.591.956-1.181 1.338-1.772a12.07 12.07 0 0 1 1.274-1.646 6.594 6.594 0 0 1 1.592-1.267c.595-.337 1.359-.506 2.294-.506.085 0 .276.021.573.063.297.043.531.064.7.064 1.784 1.434 3.101 2.722 3.95 3.861.849 1.14 1.274 2.765 1.274 4.875 0 2.194-.064 4.072-.191 5.634-.127 1.561-.446 3.608-.956 6.14-.934.169-1.422.676-1.465 1.52a46.262 46.262 0 0 0-.063 2.279v2.279c0 .337.169.506.509.506.085.084.51.127 1.274.127.85 0 1.316-.043 1.401-.127l.892 1.709a87.543 87.543 0 0 0 2.039 3.671 279.413 279.413 0 0 0 2.101 3.546c.637 1.055.998 1.54 1.083 1.456 0 .253.022.759.064 1.519.043.76.106 1.541.191 2.342.085.802.149 1.583.191 2.342.043.76.064 1.267.064 1.52v1.266c0 2.701-.17 5.402-.51 8.103a65.007 65.007 0 0 0-.509 8.103c0 .422-.021 1.013-.064 1.773-.042.759 0 1.497.127 2.215.128.717.361 1.33.701 1.836.34.506.85.76 1.529.76.68 0 1.168-.211 1.465-.633a2.37 2.37 0 0 0 .446-1.393Z"/></mask><path d="M363.577 196.979c0-1.604-.595-2.406-1.783-2.406-1.274 0-1.911.633-1.911 1.899s.637 1.899 1.911 1.899c.424 0 .828-.105 1.21-.316.382-.211.573-.57.573-1.076Zm25.352-10.002c0-.338-.042-.507-.127-.507 0-.168-.128-.506-.382-1.012-.255-.507-.468-.844-.638-1.013v-7.217c.085-.76.192-2.047.319-3.862.127-1.814.276-3.777.446-5.887.169-2.11.318-4.072.446-5.887.127-1.815.233-3.102.318-3.862 1.019-.928 2.378-1.519 4.077-1.772 1.698-.254 3.185-.38 4.458-.38.171 0 .489-.022.956-.064.467-.041.744.148.828.57.085 0 .128.169.128.507v.886c0 .928-.107 1.794-.319 2.596a10.116 10.116 0 0 0-.318 2.595c0 .253.127.612.382 1.076.255.464.552.696.892.696.764 0 1.401-.337 1.911-1.013.085-.253.191-.801.318-1.645.128-.844.234-1.731.319-2.659.085-.929.17-1.794.254-2.595.085-.803.128-1.288.128-1.457 0-.168-.064-.654-.192-1.456-.127-.802-.233-1.329-.318-1.582-.085-.169-.276-.444-.573-.823-.297-.38-.446-.612-.446-.696 0-.085-.021-.148-.064-.191l-.063-.063c0-.506.106-1.329.318-2.468.212-1.14.488-2.28.828-3.419.34-1.14.786-2.152 1.338-3.039.552-.886 1.125-1.329 1.72-1.329v-7.976c0-.675-.34-1.604-1.02-2.785-.679-1.183-1.358-1.984-2.038-2.406v-8.61c0-.169.149-.358.446-.569.297-.211.616-.444.955-.697.34-.253.68-.485 1.02-.696.339-.211.552-.443.637-.696 0-.169.021-.507.063-1.013.043-.507.064-.844.064-1.013 0-.76-.191-1.414-.573-1.962a14.912 14.912 0 0 0-1.274-1.583 20.32 20.32 0 0 1-1.274-1.519c-.382-.507-.573-1.14-.573-1.9 0-.59.254-1.097.764-1.519a9.026 9.026 0 0 0 1.274-1.266c.255-.253.573-.633.955-1.139.383-.507.574-.802.574-.887v-5.697l-3.058-3.039v-7.09l3.058-3.165v-.126c0-2.11-.764-4.115-2.293-6.014-1.529-1.9-3.185-3.271-4.969-4.115-1.868.169-3.503.042-4.905-.38-1.401-.422-2.951-.633-4.649-.633-.341 0-.935.19-1.784.57a52.86 52.86 0 0 0-2.739 1.329c-.977.506-1.954.992-2.93 1.456-.977.464-1.805.739-2.485.823-1.273.254-2.463.38-3.567.38s-1.996.718-2.675 2.152c0 4.052-.828 7.47-2.484 10.256-1.657 2.785-4.268 4.98-7.835 6.583l-.51 1.013a58.521 58.521 0 0 0-.764 1.582 59.31 59.31 0 0 1-.764 1.583l-.51 1.013c-.255.422-.51.95-.764 1.583-.255.633-.383 1.202-.383 1.709 0 .422.106.823.319 1.203.212.38.318.78.318 1.202 0 1.013-.658 1.773-1.974 2.279-1.317.507-2.4.76-3.249.76-.849 0-1.826-.19-2.93-.57a11.666 11.666 0 0 1-3.058-1.582 11 11 0 0 1-2.356-2.279c-.637-.844-.956-1.773-.956-2.786v-1.519c.17-.084.361-.19.574-.317.212-.126.36-.19.445-.19h.637c0 .254.128.782.383 1.583.254.802.466 1.287.636 1.456 0 .338.171.507.51.507l.51-.507v-8.736c0-.675-.192-1.266-.574-1.772a19.983 19.983 0 0 0-1.273-1.52 14.76 14.76 0 0 1-1.274-1.582c-.383-.548-.574-1.203-.574-1.962 0-1.604.276-3.187.828-4.748.552-1.562.828-3.06.828-4.495 0-1.857-.573-3.334-1.72-4.431-1.146-1.097-2.526-1.942-4.14-2.532a22.45 22.45 0 0 0-5.096-1.203c-1.783-.211-3.312-.316-4.586-.316h-.51c.34.337.51.675.51 1.012v1.013c0 .253.021.549.063.887.043.337-.148.548-.573.633-1.953.168-3.333.421-4.14.759-.807.337-1.401.823-1.784 1.456-.382.633-.721 1.456-1.019 2.47-.297 1.012-.912 2.194-1.847 3.544-.085.169-.34.527-.765 1.076-.424.549-.679.865-.764.95l-.509 1.013v5.697c0 .169.148.295.446.38.297.084.615.169.955.253.34.084.68.232 1.019.443.34.211.553.528.637.95.085.084.128.633.128 1.645v3.293c0 .759-.043 1.18-.128 1.265 0 .17-.255.676-.764 1.52-.51.844-.764 1.35-.764 1.519a52.32 52.32 0 0 0-1.147 6.774 64.427 64.427 0 0 0-.382 6.773v4.938c.085.337.467.506 1.146.506.488 0 .829-.527.998-1.582.17-1.055.297-1.752.383-2.09.679.676 1.04 1.372 1.083 2.09.042.717.063 1.498.063 2.342 0 1.434-.234 2.616-.7 3.545-.468.928-1.296 1.857-2.464 2.785 0 .169-.021.612-.063 1.33a32.16 32.16 0 0 0-.064 1.329c0 .844.149 1.646.446 2.406.297.759.616 1.477.934 2.152.34.675.658 1.371.955 2.089.298.717.446 1.456.446 2.216 0 .928-.17 1.519-.509 1.772-.34.253-1.062.464-2.145.633v4.558c1.083.675 2.166 1.793 3.228 3.355 1.061 1.561 2.038 2.849 2.972 3.862l4.056 3.671c1.168 1.351 1.89 3.081 2.144 5.191.255 2.11.552 3.967.892 5.571v.253c0 2.026-.255 4.031-.765 6.014a23.62 23.62 0 0 0-.764 5.888c0 1.519.764 2.278 2.293 2.278.659 0 1.232-.274 1.699-.823.467-.548.7-1.16.7-1.836 0-.506-.19-.907-.573-1.202-.382-.296-.573-.696-.573-1.203v-.38c0-.169.043-.253.128-.253 0-.76.063-1.836.191-3.228.127-1.393.254-2.807.382-4.242.127-1.435.233-2.701.318-3.798.085-1.098.127-1.773.127-2.026.171-1.941.637-3.376 1.381-4.305a7.17 7.17 0 0 1 2.803-2.088 32.597 32.597 0 0 1 3.545-1.266c1.253-.38 2.442-.95 3.525-1.71 2.208-1.941 3.949-3.651 5.266-5.128 1.295-1.477 2.633-3.355 3.992-5.633.169-.423.446-.95.807-1.583.381-.633.615-.95.7-.95h.764v41.275c0 .675.085 1.329.255 1.962.17.633.68.95 1.529.95.764 0 1.338-.317 1.72-.95.382-.633.573-1.287.573-1.962a5.47 5.47 0 0 0-.063-.886c-.043-.254-.192-.549-.446-.887v-43.173c0-1.013-.425-1.984-1.274-2.912-.85-.929-1.274-1.646-1.274-2.153.169-1.603.806-2.827 1.911-3.671a21.389 21.389 0 0 0 3.184-3.039c.51-.591.956-1.181 1.338-1.772a12.07 12.07 0 0 1 1.274-1.646 6.594 6.594 0 0 1 1.592-1.267c.595-.337 1.359-.506 2.294-.506.085 0 .276.021.573.063.297.043.531.064.7.064 1.784 1.434 3.101 2.722 3.95 3.861.849 1.14 1.274 2.765 1.274 4.875 0 2.194-.064 4.072-.191 5.634-.127 1.561-.446 3.608-.956 6.14-.934.169-1.422.676-1.465 1.52a46.262 46.262 0 0 0-.063 2.279v2.279c0 .337.169.506.509.506.085.084.51.127 1.274.127.85 0 1.316-.043 1.401-.127l.892 1.709a87.543 87.543 0 0 0 2.039 3.671 279.413 279.413 0 0 0 2.101 3.546c.637 1.055.998 1.54 1.083 1.456 0 .253.022.759.064 1.519.043.76.106 1.541.191 2.342.085.802.149 1.583.191 2.342.043.76.064 1.267.064 1.52v1.266c0 2.701-.17 5.402-.51 8.103a65.007 65.007 0 0 0-.509 8.103c0 .422-.021 1.013-.064 1.773-.042.759 0 1.497.127 2.215.128.717.361 1.33.701 1.836.34.506.85.76 1.529.76.68 0 1.168-.211 1.465-.633a2.37 2.37 0 0 0 .446-1.393Z" fill="#27E7DB" stroke="#000" stroke-width="2" mask="url(#d)"/><path d="M369.699 78.498v.017c0 .621.135.994.319 1.207.172.199.454.338.944.338h.105c.261-.179.478-.4.654-.666v-.112c0-1.17-.082-2.272-.246-3.308a22.29 22.29 0 0 1-.258-3.465v-4.472c0-.52.022-1.465.064-2.827.042-1.368.105-2.778.189-4.23a154.862 154.862 0 0 0 .251-7v-.117l.052-.104c.239-.486.755-.89 1.407-1.242a10.6 10.6 0 0 1 2.18-.872 23.776 23.776 0 0 1 2.252-.522c.725-.13 1.326-.2 1.789-.2 1.442 0 2.577.189 3.295.657.64.417 1.119.91 1.38 1.492l-.456.205c.21.468.357.894.441 1.278.084.383.336.575.755.575.672 0 1.197-.213 1.575-.64l-16.692 24.008Zm0 0-.002-.018m.002.018-.002-.018m0 0a228.45 228.45 0 0 1-.502-10.838 238.686 238.686 0 0 1 0-10.968l.001-.05m.501 21.856-.501-21.856m0 0-.009-.05m.009.05-.009-.05m0 0c-.193-1.074-.834-2.1-1.845-3.08-1.016-.987-2.079-1.548-3.182-1.548a9.253 9.253 0 0 0-3.991.878c-1.103.52-2.331.783-3.692.783a13.95 13.95 0 0 1-5.352-1.049c-1.819-.747-3.646-1.123-5.48-1.123-.96 0-1.677.708-2.208 1.74-.52 1.012-.811 1.926-.811 2.721a7.97 7.97 0 0 0 .603 2.999m25.958-2.32-25.958 2.32m0 0c.354.877.531 1.793.531 2.752 0 .441-.091.888-.278 1.343m-.253-4.095.253 4.095m0 0a.64.64 0 0 1-.276.333c-.124.072-.309.124-.584.124a.919.919 0 0 1-.579-.185c-.155-.119-.309-.31-.447-.605a169.22 169.22 0 0 1-.743-5.917m2.629 6.25-2.629-6.25m0 0a51.753 51.753 0 0 1-.25-5.316c0-.877.157-1.634.457-2.282m-.207 7.597.207-7.597m0 0c.333-.717.686-1.434 1.061-2.151m-1.061 2.151 1.061-2.152m0 0c.381-.73.741-1.461 1.081-2.193m-1.081 2.194 1.081-2.194m0 0c.371-.8.55-1.705.55-2.702 0-.656-.116-1.26-.359-1.802m-.191 4.504.191-4.504m0 0a3.058 3.058 0 0 1-.271-1.265v-.368c.787-1.241 1.71-2.135 2.762-2.707m-2.491 4.34 2.491-4.34m0 0a12.376 12.376 0 0 1 3.693-1.29m-3.693 1.29 3.693-1.29m0 0a27.233 27.233 0 0 1 4.144-.438 29.648 29.648 0 0 0 4.316-.448 1.25 1.25 0 0 0 .621-.168c.216-.132.36-.33.435-.558l.001-.002m-9.517 1.615 9.517-1.614m0 0c.088-.27.175-.581.262-.93a3.92 3.92 0 0 1 .277-.793l.001-.001m-.54 1.724.54-1.724m0 0c.01-.02.023-.037.062-.056a.752.752 0 0 1 .308-.048h10.706c.6 0 1.29.27 2.078.91m-13.154-.806 13.154.806m0 0c.853.693 1.637 1.226 2.349 1.588 1.162.633 2.303.883 3.406.688.912-.16 2.019-.204 3.329-.121 1.157.151 2.05.784 2.693 1.976m-11.777-4.13 11.777 4.13m0 0c.688 1.271 1.191 2.39 1.515 3.36.006.376.05.987.128 1.816m-1.643-5.176 1.643 5.176m0 0c.084.9.19 1.843.317 2.828.126.982.252 1.921.378 2.817m-.695-5.645.695 5.646m0 0c.127.897.185 1.482.185 1.783m-.185-1.783.185 1.783m0 0v.51m0-.51v.51m0 0c0 .412-.021.955-.062 1.631l.062-1.63Zm-16.669 36.605a.464.464 0 0 1 .181-.24c.069-.044.18-.083.362-.083.358 0 .544.103.655.236.125.15.23.429.23.926 0 .376-.055.78-.171 1.211a.34.34 0 0 1-.165.226c-.095.056-.265.107-.549.107-.191 0-.309-.036-.382-.078a.394.394 0 0 1-.168-.197v-.001a2.485 2.485 0 0 1-.21-1.013c0-.358.07-.722.217-1.094Zm-26.452-12.497c.217.33.296.597.296.812 0 .377-.156.855-.547 1.45-.329.5-.761.733-1.346.733-.232 0-.363-.046-.434-.093-.062-.04-.118-.106-.153-.239h-.001a4.67 4.67 0 0 1-.171-1.212c0-.33.099-.748.332-1.262.133-.291.467-.538 1.309-.538.355 0 .566.123.715.35Zm40.824-14.205a1.71 1.71 0 0 1 .781-.2c.182 0 .348.066.508.286v3.43a7.07 7.07 0 0 1-.295 1.97c-.082.283-.204.452-.339.553-.136.102-.332.172-.63.172h-.116a.354.354 0 0 1-.095-.094h-.001l-.043-.067v-5.6c0-.149.029-.24.061-.299a.38.38 0 0 1 .169-.15Z" fill="#27E7DB" stroke="#000"/><mask id="e" fill="#fff"><path d="M109.886 156.753a15.374 15.374 0 0 0-.976-1.08h-.274c-1.011 0-1.729.275-2.15.826-.422.552-1.097.998-2.026 1.336-.083 0-.505.021-1.264.064s-1.35.064-1.773.064c-.086 0-.202.004-.345.013.061.492.093.996.093 1.509 0 .593-.169 1.271-.507 2.034-.338.764-.886 1.145-1.645 1.145-.506 0-.844-.211-1.013-.635.086-.084.128-.933.128-2.544 0-.469-.003-.874-.01-1.214-.61.077-1.029.143-1.256.201l-1.012 1.017v14.886c0 .254-.148.594-.442 1.018-.296.425-.612.637-.95.637h-.254l-.505-.51c-.254-.253-.42-.465-.507-.635-.083-.256-.168-.913-.252-1.973-.085-1.06-.169-1.76-.254-2.1 0-.17.023-.528.064-1.08.042-.551.021-.87-.064-.954 0-.17-.168-.531-.505-1.082-.338-.552-.507-.87-.507-.955a18.967 18.967 0 0 1-.19-1.526 18.848 18.848 0 0 1-.063-1.527c0-1.527-.254-2.884-.759-4.071-.506-1.188-1.687-2.12-3.543-2.799-2.193.17-3.965.106-5.315-.191-1.35-.298-2.995-.445-4.935-.445h-1.392c-.759 0-1.18.042-1.266.126-1.35 1.103-2.447 2.311-3.29 3.626-.844 1.315-1.265 2.863-1.265 4.645v.508c0 .679.042 2.015.127 4.008.084 1.994.168 4.347.252 7.061.084 2.715.211 5.578.38 8.588.17 3.011.296 5.853.38 8.525.083 2.671.168 5.025.252 7.061.085 2.036.127 3.351.127 3.944v4.707C70.76 209.66 70 210 68.902 210c-.675 0-1.328-.212-1.96-.637-.634-.424-.95-.975-.95-1.653 0-.68.211-1.124.633-1.336.421-.212.76-.53 1.012-.954.422-.764.613-1.676.57-2.737a70.357 70.357 0 0 1-.064-2.735v-3.816c0-1.273-.062-3.329-.19-6.171a2061.48 2061.48 0 0 1-.38-8.969 986.86 986.86 0 0 1-.316-8.779c-.084-2.716-.126-4.538-.126-5.472 0-.339-.02-.805-.064-1.398a25.072 25.072 0 0 0-.19-1.783 33.856 33.856 0 0 1-.19-1.59 13.064 13.064 0 0 1-.062-.954l-.507-1.017c-.252-.51-.463-.849-.632-1.019 0-.084-.148-.254-.442-.508a12.501 12.501 0 0 1-.57-.509c-.085 0-.19-.466-.317-1.399s-.19-1.571-.19-1.909a9.641 9.641 0 0 0-.772-.445c-.127.214-.25.423-.366.63-.507.891-.887 1.38-1.14 1.464h-1.138c-.507 0-1.055.063-1.646.191a5.553 5.553 0 0 0-1.645.635c-.505.298-.76.743-.76 1.336v19.084c.338.596.507 1.274.507 2.037 0 .679-.252 1.124-.759 1.336a3.905 3.905 0 0 1-1.519.318c-.169 0-.4-.021-.696-.064a5.488 5.488 0 0 0-.57-.064c-.336-.339-.505-.635-.505-.891v-.889c0-1.357.084-2.716.253-4.072l.03-.255c-.312-.012-.553-.052-.725-.121-.21-.086-.317-.425-.317-1.019v-14.377c-.507-.763-.801-1.335-.886-1.717a4.178 4.178 0 0 1-.066-.412 7.443 7.443 0 0 0-1.59-.852c-.338 0-.907-.021-1.708-.064a81.71 81.71 0 0 1-2.679-.192 87.934 87.934 0 0 0-2.657-.19 37.507 37.507 0 0 0-1.709-.063h-.275c-.927 0-1.602.402-2.023 1.208-.423.807-.697 1.74-.824 2.8a15.598 15.598 0 0 0-.062 3.118c.083 1.017.127 1.78.127 2.29 0 3.391.083 6.763.252 10.115.169 3.349.253 6.721.253 10.114v7.506c-.084.254-.211.827-.359 1.718-.168.891-.526 1.335-1.117 1.335-1.372 0-2.066-.763-2.066-2.289 0-1.188.19-2.376.57-3.563.378-1.188.569-2.417.569-3.69v-.763c0-.593-.065-2.015-.19-4.262a837.843 837.843 0 0 1-.38-7.316c-.127-2.63-.254-5.068-.38-7.316-.127-2.248-.19-3.668-.19-4.261l-.126-1.145c0-.595.105-1.124.316-1.591.211-.467.316-.955.316-1.464 0-.508-.211-.996-.632-1.462a7.516 7.516 0 0 0-1.52-1.273 63.45 63.45 0 0 1-1.707-1.145c-.549-.382-.991-.785-1.329-1.209 0-.169-.021-.551-.063-1.144a20.522 20.522 0 0 1-.064-1.145c0-.85.169-1.739.507-2.672a50.37 50.37 0 0 1 1.138-2.863c.422-.975.823-1.973 1.202-2.991a16.02 16.02 0 0 0 .824-3.181c.169-.931.78-1.59 1.833-1.971 1.055-.382 2.047-.573 2.995-.573h1.392c.085 0 .338.086.76.254.422.17.675.256.758.256.17 0 .55.021 1.14.063a45.9 45.9 0 0 1 1.983.191c.717.085 1.37.149 1.96.19.591.042.97.064 1.14.064.085.085.4.276.949.572.42.228.73.369.927.422.387-.877.756-1.748 1.108-2.619.549-1.357.824-2.82.824-4.347 0-.678-.19-1.25-.57-1.718-.38-.466-.569-1.038-.569-1.717 0-1.887.19-3.308.57-4.283.379-.975.842-1.76 1.39-2.353a12.204 12.204 0 0 1 1.961-1.74c.76-.55 1.52-1.42 2.278-2.608.338-.423.718-1.103 1.14-2.036.422-.954.823-1.929 1.202-2.947.38-1.018.695-1.994.95-2.927.252-.954.379-1.674.379-2.184v-1.272a14.11 14.11 0 0 0-.57-.508 13.827 13.827 0 0 1-.569-.509c0-.254.295-1.231.885-2.949a236.84 236.84 0 0 1 1.962-5.407c.716-1.929 1.37-3.668 1.962-5.236.59-1.592.886-2.418.886-2.504.505-.677 1.201-1.166 2.088-1.462.884-.298 1.54-.828 1.96-1.591.845-1.442 1.308-2.884 1.392-4.283.085-1.4.169-2.756.254-4.092.084-1.315.4-2.567.949-3.754.549-1.187 1.75-2.311 3.606-3.33a41.18 41.18 0 0 1 2.468-1.271c1.054-.51 1.92-.763 2.593-.763.338 0 .507.17.507.507l-.253.447c-.169.296-.254.487-.254.572.085.34.317.615.697.827.38.212.8.36 1.266.445.463.085.907.148 1.329.19.42.044.717.065.884.065a48.027 48.027 0 0 1 3.164.254c.76.086 1.498.149 2.215.19.718.043 1.287.064 1.709.064h.632c1.012 0 1.75-.296 2.215-.89a3.116 3.116 0 0 1 1.834-1.145c.844-.255 1.856.382 3.037 1.909 1.182 1.526 2.342 3.328 3.481 5.364a73.952 73.952 0 0 1 3.036 6.044c.887 2.014 1.456 3.392 1.709 4.156.253.848.4 1.823.442 2.926.042 1.102.065 2.12.065 3.054 0 .869-.086 1.632-.254 2.311a8.914 8.914 0 0 0-.253 2.163c0 .339.4.89 1.201 1.654a84.378 84.378 0 0 1 2.722 2.735 21.037 21.037 0 0 1 2.72 3.584 8.045 8.045 0 0 1 1.202 4.262c0 .255-.021.721-.063 1.4a29.315 29.315 0 0 0-.063 1.271c-.506.17-.696.298-.569.382.125.086.19.256.19.509l.125.064a.557.557 0 0 0 .254.065c.084-.087.253-.17.506-.256.254-.084.421-.17.506-.254-.253.424-.211.891.127 1.357.337.467.759.954 1.265 1.464.506.507.991 1.017 1.456 1.526.463.508.696 1.017.696 1.527v.254c0 .17-.064.531-.19 1.082a57.318 57.318 0 0 0-.379 1.78 35.784 35.784 0 0 0-.318 1.804c-.085.55-.127.911-.127 1.08v1.273c0 1.103.19 2.29.57 3.563.156.521.357.992.605 1.414h1.595c.085.084.296.275.634.572.338.297.717.594 1.139.89.421.298.822.573 1.201.828.38.254.655.382.823.382.591 0 1.096-.149 1.519-.447.422-.295.823-.614 1.202-.953.38-.338.78-.657 1.201-.955.422-.296.929-.445 1.519-.445.759 0 1.435.424 2.025 1.273.591.848 1.266 1.485 2.026 1.908.083.085.336.234.759.445l1.264.636 1.266.637c.422.212.674.361.759.445.929.679 1.581 1.252 1.961 1.718.38.467.697.89.95 1.272s.59.722 1.013 1.018c.421.297 1.18.658 2.277 1.082.337 0 .506.17.506.508a25.544 25.544 0 0 0-1.961 2.736 11.48 11.48 0 0 1-2.088 2.481c-.169.084-.549.317-1.139.699-.59.381-.928.658-1.012.828v1.526c.084.085.211.254.38.508.167.256.211.426.125.51-.169 1.017-.505 2.057-1.012 3.118-.506 1.059-.844 2.099-1.011 3.117v5.597a24.346 24.346 0 0 1-.57 3.945 17.347 17.347 0 0 0-.444 3.944c0 .764.19 1.441.569 2.035.38.593.57 1.273.57 2.036 0 1.018-.105 2.12-.316 3.308-.212 1.187-.948 1.782-2.214 1.782-.928 0-1.709-.235-2.341-.7-.633-.468-.949-1.167-.949-2.1 0-2.8.358-5.597 1.075-8.397a34.229 34.229 0 0 0 1.076-8.525c0-.339-.086-.614-.253-.826-.169-.212-.254-.489-.254-.827v-.255c0-.17.064-.445.19-.827.127-.382.231-.614.317-.7a33.425 33.425 0 0 1-.696-2.416c-.126-.51-.274-.977-.443-1.401a13.957 13.957 0 0 0-.38-.891c-.169-.423-.485-.615-.949-.573a12.95 12.95 0 0 1-1.202.065c-.992 0-1.873.203-2.643.608v1.476c0 .255-.127.403-.38.445a3.8 3.8 0 0 1-.632.065c-.597 0-.979-.149-1.148-.461a8.675 8.675 0 0 1-2.284.921c-1.181.339-2.192.572-3.037.7-.402.06-.789.135-1.161.224v-.123a27.27 27.27 0 0 1-3.633 2.428c.169 2.46.042 4.899-.38 7.336a42.3 42.3 0 0 0-.378 2.682v8.822c.123.997.292 2.004.505 3.023.507 2.416.759 4.792.759 7.082 0 1.041-.421 1.682-1.264 1.924v1.644c0 .507-.296 1.08-.886 1.717-.591.636-1.139.954-1.646.954-.674 0-1.181-.381-1.518-1.145v-2.799c0-4.581.169-9.054.506-13.422.338-4.369.506-8.844.506-13.424 0-1.187-.274-2.353-.823-3.498a15.879 15.879 0 0 1-.965-2.546Zm-57.687 26.911c-.253-.68-.084-1.188.507-1.527.59-.34 1.139-.51 1.644-.51 1.013 0 1.518.51 1.518 1.527 0 .51-.146.891-.442 1.145-.296.254-.697.594-1.202 1.018h-.507l-.822-.827c-.38-.381-.613-.656-.696-.826Zm40.493-4.073 1.013-1.017a4.309 4.309 0 0 1 1.644 2.036 7.15 7.15 0 0 1 .507 2.672c0 .508-.105.975-.317 1.399-.21.424-.653.636-1.329.636-.252 0-.569-.085-.949-.255-.38-.169-.57-.465-.57-.89v-4.581Zm40.859 19.986c0 .848.085 1.823.254 2.926.167 1.103.843 1.654 2.024 1.654 1.013 0 1.666-.446 1.962-1.336.295-.89.443-1.717.443-2.48 0-.34-.085-.891-.253-1.655a13.969 13.969 0 0 0-.759-2.353 13.813 13.813 0 0 0-1.076-2.099c-.38-.595-.739-.892-1.076-.892-.76 0-1.202.552-1.329 1.655a28.008 28.008 0 0 0-.19 3.18v1.4Zm-61.612-27.752c-.085-.084-.126-.508-.126-1.271v-2.546c0-.678.106-1.419.317-2.225.21-.807.694-1.21 1.454-1.21.422 0 .823.276 1.203.828.38.551.694 1.187.949 1.908.252.72.442 1.441.57 2.163.125.721.19 1.251.19 1.59 0 .763-.276 1.273-.824 1.526-.547.256-1.16.382-1.834.382-.422 0-.802-.042-1.139-.126-.338-.086-.59-.425-.76-1.019Zm3.037-51.146c0 .51.023 1.105.064 1.782.04.677.622 10.735.833 11.287.211.551.528 1.04.95 1.464.42.424.97.635 1.645.635 1.012 0 1.603-.297 1.77-.889.169-.594-.2-10.928-.2-12.115 0-.34-.043-1.231-.126-2.672-.086-1.442-.211-2.46-.38-3.053 0-.34-.127-.87-.38-1.592-.254-.721-.633-1.08-1.138-1.08-.59 0-1.076.233-1.456.698-.38.468-.697 1.04-.949 1.718a9.018 9.018 0 0 0-.507 2.099 15.689 15.689 0 0 0-.126 1.718Zm6.626 14.53v.255c0 .334.17.493.507.508l8.226.413c.254.011.847-.297 1.773-.889a37.103 37.103 0 0 0 2.783-1.973c.926-.72 1.525-5.377 2.283-6.011.758-.636-.179-7.045-.179-7.215 0-1.103-.359-2.269-1.076-3.498a16.676 16.676 0 0 0-2.595-3.372 15.583 15.583 0 0 0-3.29-2.544c-1.18-.679-2.277-1.018-3.29-1.018-.927 0-1.707.148-2.34.445-.633.297-1.203.869-1.71 1.718-.083.509-.167 1.378-.252 2.608-.083 1.23-.19 2.566-.317 4.008-.126 1.441-.233 2.8-.315 4.071-.084 1.271-.208 11.733-.208 12.24v.254Zm35.386-14.53c-.084-.084-.148 0-.19.255a5.532 5.532 0 0 0 0 1.653c.042.256.106.34.19.256.169-.17.254-.51.254-1.019 0-.594-.085-.975-.254-1.145Zm-12.4-29.008c0 .423.104.912.315 1.463.212.552.569.827 1.076.827h.254c0-.254-.064-.785-.191-1.59-.126-.805-.232-1.294-.316-1.463 0-.34-.168-.51-.506-.51-.338.085-.528.255-.57.51a4.67 4.67 0 0 0-.062.763Z"/></mask><path d="M109.886 156.753a15.374 15.374 0 0 0-.976-1.08h-.274c-1.011 0-1.729.275-2.15.826-.422.552-1.097.998-2.026 1.336-.083 0-.505.021-1.264.064s-1.35.064-1.773.064c-.086 0-.202.004-.345.013.061.492.093.996.093 1.509 0 .593-.169 1.271-.507 2.034-.338.764-.886 1.145-1.645 1.145-.506 0-.844-.211-1.013-.635.086-.084.128-.933.128-2.544 0-.469-.003-.874-.01-1.214-.61.077-1.029.143-1.256.201l-1.012 1.017v14.886c0 .254-.148.594-.442 1.018-.296.425-.612.637-.95.637h-.254l-.505-.51c-.254-.253-.42-.465-.507-.635-.083-.256-.168-.913-.252-1.973-.085-1.06-.169-1.76-.254-2.1 0-.17.023-.528.064-1.08.042-.551.021-.87-.064-.954 0-.17-.168-.531-.505-1.082-.338-.552-.507-.87-.507-.955a18.967 18.967 0 0 1-.19-1.526 18.848 18.848 0 0 1-.063-1.527c0-1.527-.254-2.884-.759-4.071-.506-1.188-1.687-2.12-3.543-2.799-2.193.17-3.965.106-5.315-.191-1.35-.298-2.995-.445-4.935-.445h-1.392c-.759 0-1.18.042-1.266.126-1.35 1.103-2.447 2.311-3.29 3.626-.844 1.315-1.265 2.863-1.265 4.645v.508c0 .679.042 2.015.127 4.008.084 1.994.168 4.347.252 7.061.084 2.715.211 5.578.38 8.588.17 3.011.296 5.853.38 8.525.083 2.671.168 5.025.252 7.061.085 2.036.127 3.351.127 3.944v4.707C70.76 209.66 70 210 68.902 210c-.675 0-1.328-.212-1.96-.637-.634-.424-.95-.975-.95-1.653 0-.68.211-1.124.633-1.336.421-.212.76-.53 1.012-.954.422-.764.613-1.676.57-2.737a70.357 70.357 0 0 1-.064-2.735v-3.816c0-1.273-.062-3.329-.19-6.171a2061.48 2061.48 0 0 1-.38-8.969 986.86 986.86 0 0 1-.316-8.779c-.084-2.716-.126-4.538-.126-5.472 0-.339-.02-.805-.064-1.398a25.072 25.072 0 0 0-.19-1.783 33.856 33.856 0 0 1-.19-1.59 13.064 13.064 0 0 1-.062-.954l-.507-1.017c-.252-.51-.463-.849-.632-1.019 0-.084-.148-.254-.442-.508a12.501 12.501 0 0 1-.57-.509c-.085 0-.19-.466-.317-1.399s-.19-1.571-.19-1.909a9.641 9.641 0 0 0-.772-.445c-.127.214-.25.423-.366.63-.507.891-.887 1.38-1.14 1.464h-1.138c-.507 0-1.055.063-1.646.191a5.553 5.553 0 0 0-1.645.635c-.505.298-.76.743-.76 1.336v19.084c.338.596.507 1.274.507 2.037 0 .679-.252 1.124-.759 1.336a3.905 3.905 0 0 1-1.519.318c-.169 0-.4-.021-.696-.064a5.488 5.488 0 0 0-.57-.064c-.336-.339-.505-.635-.505-.891v-.889c0-1.357.084-2.716.253-4.072l.03-.255c-.312-.012-.553-.052-.725-.121-.21-.086-.317-.425-.317-1.019v-14.377c-.507-.763-.801-1.335-.886-1.717a4.178 4.178 0 0 1-.066-.412 7.443 7.443 0 0 0-1.59-.852c-.338 0-.907-.021-1.708-.064a81.71 81.71 0 0 1-2.679-.192 87.934 87.934 0 0 0-2.657-.19 37.507 37.507 0 0 0-1.709-.063h-.275c-.927 0-1.602.402-2.023 1.208-.423.807-.697 1.74-.824 2.8a15.598 15.598 0 0 0-.062 3.118c.083 1.017.127 1.78.127 2.29 0 3.391.083 6.763.252 10.115.169 3.349.253 6.721.253 10.114v7.506c-.084.254-.211.827-.359 1.718-.168.891-.526 1.335-1.117 1.335-1.372 0-2.066-.763-2.066-2.289 0-1.188.19-2.376.57-3.563.378-1.188.569-2.417.569-3.69v-.763c0-.593-.065-2.015-.19-4.262a837.843 837.843 0 0 1-.38-7.316c-.127-2.63-.254-5.068-.38-7.316-.127-2.248-.19-3.668-.19-4.261l-.126-1.145c0-.595.105-1.124.316-1.591.211-.467.316-.955.316-1.464 0-.508-.211-.996-.632-1.462a7.516 7.516 0 0 0-1.52-1.273 63.45 63.45 0 0 1-1.707-1.145c-.549-.382-.991-.785-1.329-1.209 0-.169-.021-.551-.063-1.144a20.522 20.522 0 0 1-.064-1.145c0-.85.169-1.739.507-2.672a50.37 50.37 0 0 1 1.138-2.863c.422-.975.823-1.973 1.202-2.991a16.02 16.02 0 0 0 .824-3.181c.169-.931.78-1.59 1.833-1.971 1.055-.382 2.047-.573 2.995-.573h1.392c.085 0 .338.086.76.254.422.17.675.256.758.256.17 0 .55.021 1.14.063a45.9 45.9 0 0 1 1.983.191c.717.085 1.37.149 1.96.19.591.042.97.064 1.14.064.085.085.4.276.949.572.42.228.73.369.927.422.387-.877.756-1.748 1.108-2.619.549-1.357.824-2.82.824-4.347 0-.678-.19-1.25-.57-1.718-.38-.466-.569-1.038-.569-1.717 0-1.887.19-3.308.57-4.283.379-.975.842-1.76 1.39-2.353a12.204 12.204 0 0 1 1.961-1.74c.76-.55 1.52-1.42 2.278-2.608.338-.423.718-1.103 1.14-2.036.422-.954.823-1.929 1.202-2.947.38-1.018.695-1.994.95-2.927.252-.954.379-1.674.379-2.184v-1.272a14.11 14.11 0 0 0-.57-.508 13.827 13.827 0 0 1-.569-.509c0-.254.295-1.231.885-2.949a236.84 236.84 0 0 1 1.962-5.407c.716-1.929 1.37-3.668 1.962-5.236.59-1.592.886-2.418.886-2.504.505-.677 1.201-1.166 2.088-1.462.884-.298 1.54-.828 1.96-1.591.845-1.442 1.308-2.884 1.392-4.283.085-1.4.169-2.756.254-4.092.084-1.315.4-2.567.949-3.754.549-1.187 1.75-2.311 3.606-3.33a41.18 41.18 0 0 1 2.468-1.271c1.054-.51 1.92-.763 2.593-.763.338 0 .507.17.507.507l-.253.447c-.169.296-.254.487-.254.572.085.34.317.615.697.827.38.212.8.36 1.266.445.463.085.907.148 1.329.19.42.044.717.065.884.065a48.027 48.027 0 0 1 3.164.254c.76.086 1.498.149 2.215.19.718.043 1.287.064 1.709.064h.632c1.012 0 1.75-.296 2.215-.89a3.116 3.116 0 0 1 1.834-1.145c.844-.255 1.856.382 3.037 1.909 1.182 1.526 2.342 3.328 3.481 5.364a73.952 73.952 0 0 1 3.036 6.044c.887 2.014 1.456 3.392 1.709 4.156.253.848.4 1.823.442 2.926.042 1.102.065 2.12.065 3.054 0 .869-.086 1.632-.254 2.311a8.914 8.914 0 0 0-.253 2.163c0 .339.4.89 1.201 1.654a84.378 84.378 0 0 1 2.722 2.735 21.037 21.037 0 0 1 2.72 3.584 8.045 8.045 0 0 1 1.202 4.262c0 .255-.021.721-.063 1.4a29.315 29.315 0 0 0-.063 1.271c-.506.17-.696.298-.569.382.125.086.19.256.19.509l.125.064a.557.557 0 0 0 .254.065c.084-.087.253-.17.506-.256.254-.084.421-.17.506-.254-.253.424-.211.891.127 1.357.337.467.759.954 1.265 1.464.506.507.991 1.017 1.456 1.526.463.508.696 1.017.696 1.527v.254c0 .17-.064.531-.19 1.082a57.318 57.318 0 0 0-.379 1.78 35.784 35.784 0 0 0-.318 1.804c-.085.55-.127.911-.127 1.08v1.273c0 1.103.19 2.29.57 3.563.156.521.357.992.605 1.414h1.595c.085.084.296.275.634.572.338.297.717.594 1.139.89.421.298.822.573 1.201.828.38.254.655.382.823.382.591 0 1.096-.149 1.519-.447.422-.295.823-.614 1.202-.953.38-.338.78-.657 1.201-.955.422-.296.929-.445 1.519-.445.759 0 1.435.424 2.025 1.273.591.848 1.266 1.485 2.026 1.908.083.085.336.234.759.445l1.264.636 1.266.637c.422.212.674.361.759.445.929.679 1.581 1.252 1.961 1.718.38.467.697.89.95 1.272s.59.722 1.013 1.018c.421.297 1.18.658 2.277 1.082.337 0 .506.17.506.508a25.544 25.544 0 0 0-1.961 2.736 11.48 11.48 0 0 1-2.088 2.481c-.169.084-.549.317-1.139.699-.59.381-.928.658-1.012.828v1.526c.084.085.211.254.38.508.167.256.211.426.125.51-.169 1.017-.505 2.057-1.012 3.118-.506 1.059-.844 2.099-1.011 3.117v5.597a24.346 24.346 0 0 1-.57 3.945 17.347 17.347 0 0 0-.444 3.944c0 .764.19 1.441.569 2.035.38.593.57 1.273.57 2.036 0 1.018-.105 2.12-.316 3.308-.212 1.187-.948 1.782-2.214 1.782-.928 0-1.709-.235-2.341-.7-.633-.468-.949-1.167-.949-2.1 0-2.8.358-5.597 1.075-8.397a34.229 34.229 0 0 0 1.076-8.525c0-.339-.086-.614-.253-.826-.169-.212-.254-.489-.254-.827v-.255c0-.17.064-.445.19-.827.127-.382.231-.614.317-.7a33.425 33.425 0 0 1-.696-2.416c-.126-.51-.274-.977-.443-1.401a13.957 13.957 0 0 0-.38-.891c-.169-.423-.485-.615-.949-.573a12.95 12.95 0 0 1-1.202.065c-.992 0-1.873.203-2.643.608v1.476c0 .255-.127.403-.38.445a3.8 3.8 0 0 1-.632.065c-.597 0-.979-.149-1.148-.461a8.675 8.675 0 0 1-2.284.921c-1.181.339-2.192.572-3.037.7-.402.06-.789.135-1.161.224v-.123a27.27 27.27 0 0 1-3.633 2.428c.169 2.46.042 4.899-.38 7.336a42.3 42.3 0 0 0-.378 2.682v8.822c.123.997.292 2.004.505 3.023.507 2.416.759 4.792.759 7.082 0 1.041-.421 1.682-1.264 1.924v1.644c0 .507-.296 1.08-.886 1.717-.591.636-1.139.954-1.646.954-.674 0-1.181-.381-1.518-1.145v-2.799c0-4.581.169-9.054.506-13.422.338-4.369.506-8.844.506-13.424 0-1.187-.274-2.353-.823-3.498a15.879 15.879 0 0 1-.965-2.546Zm-57.687 26.911c-.253-.68-.084-1.188.507-1.527.59-.34 1.139-.51 1.644-.51 1.013 0 1.518.51 1.518 1.527 0 .51-.146.891-.442 1.145-.296.254-.697.594-1.202 1.018h-.507l-.822-.827c-.38-.381-.613-.656-.696-.826Zm40.493-4.073 1.013-1.017a4.309 4.309 0 0 1 1.644 2.036 7.15 7.15 0 0 1 .507 2.672c0 .508-.105.975-.317 1.399-.21.424-.653.636-1.329.636-.252 0-.569-.085-.949-.255-.38-.169-.57-.465-.57-.89v-4.581Zm40.859 19.986c0 .848.085 1.823.254 2.926.167 1.103.843 1.654 2.024 1.654 1.013 0 1.666-.446 1.962-1.336.295-.89.443-1.717.443-2.48 0-.34-.085-.891-.253-1.655a13.969 13.969 0 0 0-.759-2.353 13.813 13.813 0 0 0-1.076-2.099c-.38-.595-.739-.892-1.076-.892-.76 0-1.202.552-1.329 1.655a28.008 28.008 0 0 0-.19 3.18v1.4Zm-61.612-27.752c-.085-.084-.126-.508-.126-1.271v-2.546c0-.678.106-1.419.317-2.225.21-.807.694-1.21 1.454-1.21.422 0 .823.276 1.203.828.38.551.694 1.187.949 1.908.252.72.442 1.441.57 2.163.125.721.19 1.251.19 1.59 0 .763-.276 1.273-.824 1.526-.547.256-1.16.382-1.834.382-.422 0-.802-.042-1.139-.126-.338-.086-.59-.425-.76-1.019Zm3.037-51.146c0 .51.023 1.105.064 1.782.04.677.622 10.735.833 11.287.211.551.528 1.04.95 1.464.42.424.97.635 1.645.635 1.012 0 1.603-.297 1.77-.889.169-.594-.2-10.928-.2-12.115 0-.34-.043-1.231-.126-2.672-.086-1.442-.211-2.46-.38-3.053 0-.34-.127-.87-.38-1.592-.254-.721-.633-1.08-1.138-1.08-.59 0-1.076.233-1.456.698-.38.468-.697 1.04-.949 1.718a9.018 9.018 0 0 0-.507 2.099 15.689 15.689 0 0 0-.126 1.718Zm6.626 14.53v.255c0 .334.17.493.507.508l8.226.413c.254.011.847-.297 1.773-.889a37.103 37.103 0 0 0 2.783-1.973c.926-.72 1.525-5.377 2.283-6.011.758-.636-.179-7.045-.179-7.215 0-1.103-.359-2.269-1.076-3.498a16.676 16.676 0 0 0-2.595-3.372 15.583 15.583 0 0 0-3.29-2.544c-1.18-.679-2.277-1.018-3.29-1.018-.927 0-1.707.148-2.34.445-.633.297-1.203.869-1.71 1.718-.083.509-.167 1.378-.252 2.608-.083 1.23-.19 2.566-.317 4.008-.126 1.441-.233 2.8-.315 4.071-.084 1.271-.208 11.733-.208 12.24v.254Zm35.386-14.53c-.084-.084-.148 0-.19.255a5.532 5.532 0 0 0 0 1.653c.042.256.106.34.19.256.169-.17.254-.51.254-1.019 0-.594-.085-.975-.254-1.145Zm-12.4-29.008c0 .423.104.912.315 1.463.212.552.569.827 1.076.827h.254c0-.254-.064-.785-.191-1.59-.126-.805-.232-1.294-.316-1.463 0-.34-.168-.51-.506-.51-.338.085-.528.255-.57.51a4.67 4.67 0 0 0-.062.763Z" fill="#27E7DB" stroke="#000" stroke-width="2" mask="url(#e)"/><defs><filter id="a" x="0" y=".722" width="436" height="239.278" filterUnits="userSpaceOnUse" color-interpolation-filters="sRGB"><feFlood flood-opacity="0" result="BackgroundImageFix"/><feBlend in="SourceGraphic" in2="BackgroundImageFix" result="shape"/><feGaussianBlur stdDeviation="15" result="effect1_foregroundBlur_357_21"/></filter></defs></svg>