<svg width="52" height="106" fill="none" xmlns="http://www.w3.org/2000/svg"><path d="M34.695 46.22c-.235-1.706 4.258-5.852 4.258-5.852.37.772-.61 3.812-1.914 6.527-1.305 2.713-2.11 1.033-2.344-.676Zm9.21 45.02c.233-2.27 7.763 8.383 7.763 8.383l.272-1.61S40.046 82.824 40.925 78.53c.423-2.068 11.015 4.688 11.015 4.688v-1.306s-9.545-4.688-13.363-13.448c-.726-1.665-2.53-4.897-2.35-7.98C36.78 51.043 51.94 43.75 51.94 43.75l-.066-2.121s-11.787 7.706-11.787 3.869c0-3.36 11.765-27.581 11.765-27.581l.088-4.321S37.155 47.607 29.456 44.6C12.729 38.068 1.427.358 1.427.358v3.673s11.613 25.193 10.365 24.79C9.92 28.22.97 13.485.97 13.485v3.402S12.352 30.88 13.489 34.662l1.137 3.78-.44-.01C11.562 36.342 6.493 27.522.97 26.387c1.867 2.107 10.785 12.226 10.16 12.226-3.637 0-10.16-1.954-10.16-1.954S18.329 51.071 16.163 54.48C14.749 56.705.97 54.765.97 54.765s4.392 2.267 10.05 4.043c6.338 1.994 14.264 3.77 19.389 9.048 10.453 10.767 16.89 38.084 16.89 38.084h1.089s-4.685-12.724-4.483-14.7Z" fill="#27E7DB"/><path d="M36.779 68.44c1.15-1.093 1.701 1.334 1.474 2.135-.915 3.246-2.623-1.046-1.474-2.135Zm-15.373.63c1.233-.413 5.748-4.08 7.037-4.08 1.365 0 3.054-1.583 3.054.848 0 2.132-8.557 3.04-10.09 3.232a.627.627 0 0 1-.188.039c-.107 0-.029-.01.187-.04Zm18.392-5.158c.755-.505-1.114-1.594-1.796-3.189-.684-1.594 3.342 0 3.342 0s.125 1.3.574 2.35c.45 1.046 1.869.081 2.444 1.423s-5.21.758-5.858 0c-.646-.754.54-.082 1.294-.584Zm-6.217 2.933s-.144-.335-.144-1.548c0-1.21 1.51 1.548 1.51 1.548.467 2.35-1.366 0-1.366 0Zm8.84-10.567c1.007-.673 2.696.334 2.696.334 1.018.434.287 2.268 0 2.936-.287.673-3.701-2.601-2.696-3.27Zm-23.387-9.176c1.238-.548 6.783 5 6.783 5 .927 2.955-8.375-4.306-6.783-5Zm7.576 1.84c1.024-.751 3.773 1.135 3.773 1.135 3.772 3.396-8.065-.96-7.385-2.548.68-1.588 2.587 2.167 3.612 1.413Zm-17.228-8.94c.27-1.638 2.918 1.017 3.72 2.138 3.008 4.2-3.99-.505-3.72-2.139Zm7.04 1.81c0 .866-.446 1.567-.996 1.567s-.996-.701-.996-1.566c0-.865.447-1.566.996-1.566.55 0 .996.7.996 1.566ZM4.206 83.36c0 1.363-1.987 3.196-3.236 4.214v.766c2.71-1.962 9.191-10.084 17.299-13.483 12.758-5.35 17.364-3.873 19.951-2.11 2.588 1.761 13.72 17.703 13.72 17.703v-1.04s-8.319-12.652-8.319-19.095c0-2.267 8.32-.736 8.32-.736v-2.271s-4.745-1.598-5.553-3.485c-.81-1.886 5.552-1.633 5.552-1.633V59.8s-5.143 2.285-5.871.588c-.727-1.698 4.47-5.161 5.871-5.161v-2.894s-5.36 5.097-6.41 2.644c-1.05-2.456 6.41-7.022 6.41-7.022V46.3s-14.067 7.674-24.44.498C20.922 42.251.97 23.091.97 23.091v3.296c1.986.174 10.35 8.453 10.666 11.201.378 3.27-10.007-4.566-10.666-5.229v4.3c1.941 1.584 17.305 10.418 17.305 16.369 0 7.186-15.867 2.381-17.305 1.737v3.492c1.685-.157 10.1-.178 10.1 1.47s-8.415 3.609-10.1 4v4.257c2.428-2.488 15.693-7.909 14.01-4.413-.7 1.455-12.196 6.855-14.01 6.972v3.57c2.786-1.43 15.128-7.787 15.56-5.549.484 2.52.592 4.78-2.75 6.795C10.956 77.06 3.06 77.06.97 77.185v.317c1.204.131 4.725.84 4.725 1.84s-3.52 1.601-4.725 1.83v1.565c1.491-.349 3.236-.512 3.236.623Z" fill="#77FFF7"/><path d="M36.228 58.22c-3.918-1.54-7.994.752-12.03.581-2.561-.107-4.158-1.345-4.143-1.338-.951-.648-.424-3.67.514-2.84a8.219 8.219 0 0 0 3.7 1.91c3.891.908 8.118-.59 11.959 1.688Z" fill="#fff"/></svg>