<svg width="64" height="131" fill="none" xmlns="http://www.w3.org/2000/svg"><path d="M42.603 56.901c-.291-2.115 5.283-7.26 5.283-7.26.46.959-.756 4.73-2.375 8.1-1.618 3.365-2.618 1.28-2.908-.84Zm11.427 55.86c.289-2.817 9.633 10.4 9.633 10.4l.337-1.996s-14.758-18.848-13.668-24.174C50.858 94.425 64 102.807 64 102.807v-1.621S52.157 95.37 47.42 84.502c-.9-2.067-3.139-6.076-2.915-9.9C45.189 62.884 64 53.836 64 53.836l-.083-2.633s-14.624 9.562-14.624 4.8c0-4.168 14.597-34.22 14.597-34.22l.11-5.36s-18.345 42.2-27.898 38.468C15.35 46.788 1.328 0 1.328 0v4.557s14.408 31.257 12.86 30.758C11.864 34.57.759 16.286.759 16.286v4.222s14.123 17.36 15.533 22.054l1.411 4.69-.547-.013C13.902 44.647 7.613 33.704.76 32.295c2.316 2.614 13.382 15.17 12.607 15.17C8.852 47.464.759 45.04.759 45.04s21.538 17.88 18.85 22.111c-1.754 2.76-18.85.354-18.85.354s5.45 2.813 12.47 5.016c7.863 2.473 17.698 4.677 24.056 11.226C50.255 97.106 58.242 131 58.242 131h1.35s-5.812-15.788-5.562-18.239Z" fill="#27E7DB"/><path d="M45.189 84.471c1.428-1.356 2.11 1.656 1.829 2.65-1.135 4.027-3.255-1.298-1.83-2.65Zm-19.074.782c1.53-.512 7.132-5.06 8.73-5.06 1.695 0 3.79-1.966 3.79 1.05 0 2.645-10.617 3.772-12.52 4.01a.777.777 0 0 1-.231.048c-.133 0-.037-.013.231-.048Zm22.82-6.399c.937-.627-1.382-1.978-2.229-3.957-.848-1.978 4.147 0 4.147 0s.155 1.612.712 2.915c.558 1.298 2.319.101 3.033 1.766.712 1.665-6.466.94-7.269 0-.802-.936.67-.101 1.605-.724Zm-7.714 3.639s-.178-.415-.178-1.921c0-1.502 1.873 1.92 1.873 1.92.58 2.915-1.695 0-1.695 0ZM52.19 69.38c1.25-.834 3.345.415 3.345.415 1.264.54.356 2.814 0 3.644-.356.834-4.592-3.228-3.345-4.059ZM23.172 57.996c1.536-.68 8.416 6.205 8.416 6.205 1.15 3.666-10.391-5.343-8.416-6.204Zm9.4 2.284c1.27-.932 4.68 1.408 4.68 1.408 4.68 4.213-10.006-1.192-9.162-3.162.844-1.97 3.21 2.69 4.481 1.754ZM11.195 49.187c.334-2.032 3.62 1.262 4.615 2.653 3.733 5.211-4.95-.627-4.615-2.654Zm8.736 2.247c0 1.073-.554 1.943-1.237 1.943-.681 0-1.235-.87-1.235-1.943s.554-1.943 1.235-1.943c.683 0 1.236.87 1.236 1.943Zm-15.158 51.55c0 1.691-2.465 3.965-4.015 5.228v.95c3.363-2.434 11.404-12.511 21.463-16.729 15.83-6.637 21.545-4.804 24.755-2.618C50.187 92 64 111.78 64 111.78v-1.289s-10.322-15.7-10.322-23.692c0-2.814 10.322-.915 10.322-.915v-2.817s-5.886-1.983-6.89-4.323C56.108 76.403 64 76.715 64 76.715v-2.963s-6.382 2.835-7.285.73c-.902-2.108 5.545-6.404 7.285-6.404v-3.59s-6.65 6.323-7.954 3.28C54.743 64.722 64 59.057 64 59.057v-2.054s-17.454 9.521-30.325.618C25.515 51.977.76 28.205.76 28.205v4.09c2.464.216 12.841 10.488 13.234 13.897.469 4.059-12.416-5.666-13.234-6.487v5.335c2.407 1.965 21.47 12.926 21.47 20.31 0 8.916-19.687 2.954-21.471 2.154v4.333c2.091-.195 12.532-.221 12.532 1.824 0 2.044-10.44 4.477-12.532 4.963v5.282c3.013-3.087 19.47-9.813 17.383-5.476-.87 1.806-15.132 8.505-17.382 8.65v4.43c3.457-1.776 18.77-9.663 19.305-6.885.602 3.126.736 5.93-3.41 8.43C13.15 95.166 3.353 95.166.76 95.321v.393c1.494.163 5.863 1.042 5.863 2.283 0 1.24-4.369 1.987-5.863 2.27v1.943c1.85-.433 4.015-.636 4.015.773Z" fill="#77FFF7"/><path d="M44.505 71.792c-4.861-1.912-9.918.932-14.926.72-3.178-.132-5.16-1.669-5.14-1.66-1.18-.804-.526-4.553.637-3.524a10.2 10.2 0 0 0 4.591 2.371c4.828 1.126 10.073-.733 14.838 2.093Z" fill="#fff"/></svg>