<svg width="356" height="166" fill="none" xmlns="http://www.w3.org/2000/svg"><circle cx="282.467" cy="110.831" r="1.232" transform="rotate(-90 282.467 110.831)" fill="#fff"/><circle cx="292.389" cy="157.977" r="1.232" transform="rotate(-90 292.389 157.977)" fill="#fff"/><circle cx="229.05" cy="113.294" r="1.232" transform="rotate(-90 229.05 113.294)" fill="#fff"/><circle cx="256.062" cy="35.49" r="1.232" transform="rotate(-90 256.062 35.49)" fill="#fff"/><circle cx="320.326" cy="93.198" r="1.232" transform="rotate(-90 320.326 93.198)" fill="#fff"/><circle cx="253.878" cy="88.206" r=".519" transform="rotate(-90 253.878 88.206)" fill="#8A93A7"/><circle cx="291.211" cy="61.119" r=".519" transform="rotate(-90 291.211 61.12)" fill="#8A93A7"/><circle cx="355.481" cy="85.57" r=".519" transform="rotate(-90 355.481 85.57)" fill="#8A93A7"/><circle cx="290.441" cy="117.119" r=".519" transform="rotate(-90 290.441 117.119)" fill="#8A93A7"/><circle cx="318.689" cy="165.21" r=".519" transform="rotate(-90 318.689 165.21)" fill="#8A93A7"/><circle cx="322.076" cy="124.12" r=".519" transform="rotate(-90 322.076 124.12)" fill="#fff"/><circle cx="254.916" cy="125.157" r=".519" transform="rotate(-90 254.916 125.157)" fill="#fff"/><circle cx="238.385" cy="95.661" r="2.399" transform="rotate(-90 238.385 95.661)" fill="#BEC7D4"/><circle cx="208.793" cy="49.925" r="2.399" transform="rotate(-90 208.793 49.925)" fill="#BEC7D4"/><circle cx="76.073" cy="76.927" r="1.232" transform="rotate(-90 76.073 76.927)" fill="#fff"/><circle cx="85.994" cy="124.074" r="1.232" transform="rotate(-90 85.994 124.074)" fill="#fff"/><circle cx="22.655" cy="79.391" r="1.232" transform="rotate(-90 22.655 79.39)" fill="#fff"/><circle cx="49.667" cy="1.586" r="1.232" transform="rotate(-90 49.667 1.586)" fill="#fff"/><circle cx="113.932" cy="59.295" r="1.232" transform="rotate(-90 113.932 59.295)" fill="#fff"/><circle cx="47.484" cy="54.303" r=".519" transform="rotate(-90 47.484 54.303)" fill="#8A93A7"/><circle cx="84.817" cy="27.216" r=".519" transform="rotate(-90 84.817 27.216)" fill="#8A93A7"/><circle cx="149.086" cy="51.667" r=".519" transform="rotate(-90 149.086 51.667)" fill="#8A93A7"/><circle cx="84.047" cy="83.216" r=".519" transform="rotate(-90 84.047 83.216)" fill="#8A93A7"/><circle cx="112.294" cy="131.307" r=".519" transform="rotate(-90 112.294 131.307)" fill="#8A93A7"/><circle cx="115.682" cy="90.217" r=".519" transform="rotate(-90 115.682 90.217)" fill="#fff"/><circle cx="48.522" cy="91.254" r=".519" transform="rotate(-90 48.522 91.254)" fill="#fff"/><circle cx="31.99" cy="61.758" r="2.399" transform="rotate(-90 31.99 61.758)" fill="#BEC7D4"/><circle cx="2.399" cy="16.021" r="2.399" transform="rotate(-90 2.399 16.021)" fill="#BEC7D4"/></svg>