<svg width="1758" height="994" fill="none" xmlns="http://www.w3.org/2000/svg"><circle cx="285.179" cy="214.844" r="4.662" fill="#fff"/><circle cx="52.967" cy="92.868" r="4.662" fill="#fff"/><circle cx="275.855" cy="12.662" r="4.662" fill="#fff"/><circle cx="351.919" cy="358.139" r="4.662" fill="#fff"/><circle cx="370.812" cy="106.637" r="1.963" fill="#8A93A7"/><circle cx="261.378" cy="245.024" r="1.963" fill="#8A93A7"/><circle cx="234.879" cy="364.763" r="1.963" fill="#fff"/><circle cx="230.953" cy="110.563" r="1.963" fill="#fff"/><circle cx="46.742" cy="213.564" r="1.963" fill="#fff"/><circle cx="131.356" cy="60.202" r="1.963" fill="#fff"/><circle cx="424.779" cy="23" r="7" fill="#BEC7D4"/><circle cx="1465.48" cy="713.111" r="4.705" fill="#fff"/><circle cx="1285.39" cy="751.014" r="4.705" fill="#fff"/><circle cx="1262.48" cy="421.705" r="4.705" fill="#fff"/><circle cx="1753.28" cy="612.248" r="4.705" fill="#fff"/><circle cx="1532.84" cy="857.727" r="4.705" fill="#fff"/><circle cx="1551.91" cy="603.906" r="1.981" fill="#8A93A7"/><circle cx="1655.38" cy="746.511" r="1.981" fill="#8A93A7"/><circle cx="1561.98" cy="992.019" r="1.981" fill="#8A93A7"/><circle cx="1441.46" cy="743.57" r="1.981" fill="#8A93A7"/><circle cx="1257.76" cy="851.474" r="1.981" fill="#8A93A7"/><circle cx="1414.72" cy="864.413" r="1.981" fill="#fff"/><circle cx="1208.76" cy="483.981" r="1.981" fill="#fff"/><circle cx="1421.94" cy="576.162" r="9.162" fill="#BEC7D4"/><circle cx="1698.14" cy="431.685" r="9.162" fill="#BEC7D4"/><circle cx="1430.52" cy="340.735" r="5.491" transform="rotate(-180 1430.52 340.735)" fill="#fff"/><circle cx="1492.37" cy="417.032" r="5.491" transform="rotate(-180 1492.37 417.032)" fill="#fff"/><circle cx="1402.78" cy="10.115" r="5.491" transform="rotate(-180 1402.78 10.115)" fill="#fff"/><circle cx="1506.24" cy="69.072" r="5.491" transform="rotate(-180 1506.24 69.072)" fill="#fff"/><circle cx="1694.15" cy="33.956" r="5.491" transform="rotate(-180 1694.15 33.956)" fill="#fff"/><circle cx="1380.53" cy="306.343" r="2.312" transform="rotate(-180 1380.53 306.343)" fill="#8A93A7"/><circle cx="1438.33" cy="102.885" r="2.312" transform="rotate(-180 1438.33 102.885)" fill="#8A93A7"/><circle cx="1610.91" cy="141.967" r="2.312" transform="rotate(-180 1610.91 141.967)" fill="#8A93A7"/><circle cx="1540.63" cy="2.312" r="2.312" transform="rotate(-180 1540.63 2.312)" fill="#fff"/><circle cx="1545.26" cy="301.719" r="2.312" transform="rotate(-180 1545.26 301.719)" fill="#fff"/><circle cx="1733.67" cy="362.568" r="2.312" transform="rotate(-180 1733.67 362.568)" fill="#fff"/><circle cx="1511.44" cy="236.694" r="10.693" transform="rotate(-180 1511.44 236.694)" fill="#BEC7D4"/><circle cx="223.26" cy="789.325" r="5.487" transform="rotate(-180 223.26 789.325)" fill="#fff"/><circle cx="484.082" cy="808.655" r="5.487" transform="rotate(-180 484.082 808.655)" fill="#fff"/><circle cx="69.829" cy="627.089" r="5.487" transform="rotate(-180 69.829 627.089)" fill="#fff"/><circle cx="285.06" cy="865.564" r="5.487" transform="rotate(-180 285.06 865.564)" fill="#fff"/><circle cx="45.266" cy="910.487" r="5.487" transform="rotate(-180 45.266 910.487)" fill="#fff"/><circle cx="195.537" cy="458.957" r="5.487" transform="rotate(-180 195.537 458.957)" fill="#fff"/><circle cx="75.117" cy="272.769" r="5.487" transform="rotate(-180 75.117 272.769)" fill="#fff"/><circle cx="534.266" cy="484.487" r="5.487" transform="rotate(-180 534.266 484.487)" fill="#fff"/><circle cx="173.301" cy="754.96" r="2.31" transform="rotate(-180 173.301 754.96)" fill="#8A93A7"/><circle cx="231.057" cy="551.656" r="2.31" transform="rotate(-180 231.057 551.656)" fill="#8A93A7"/><circle cx="2.31" cy="428.243" r="2.31" transform="rotate(-180 2.31 428.243)" fill="#8A93A7"/><circle cx="19.938" cy="707.644" r="2.31" transform="rotate(-180 19.938 707.644)" fill="#8A93A7"/><circle cx="484.089" cy="350.31" r="2.31" transform="rotate(-180 484.089 350.31)" fill="#fff"/><path d="M335.597 750.339a2.31 2.31 0 1 1 4.62 0 2.31 2.31 0 0 1-4.62 0Zm82.182-115.85a2.311 2.311 0 1 1 4.623 0 2.311 2.311 0 0 1-4.623 0ZM251.196 989.69a2.311 2.311 0 1 1 4.623 0 2.311 2.311 0 0 1-4.623 0Z" fill="#fff"/><circle cx="314.464" cy="577.685" r="10.685" transform="rotate(-180 314.464 577.685)" fill="#BEC7D4"/></svg>