<svg width="356" height="166" fill="none" xmlns="http://www.w3.org/2000/svg"><circle cx="282.467" cy="110.476" r="1.232" transform="rotate(-90 282.467 110.476)" fill="#fff"/><circle cx="292.389" cy="157.622" r="1.232" transform="rotate(-90 292.389 157.622)" fill="#fff"/><circle cx="229.05" cy="112.94" r="1.232" transform="rotate(-90 229.05 112.94)" fill="#fff"/><circle cx="256.062" cy="35.135" r="1.232" transform="rotate(-90 256.062 35.135)" fill="#fff"/><circle cx="320.326" cy="92.843" r="1.232" transform="rotate(-90 320.326 92.843)" fill="#fff"/><circle cx="253.878" cy="87.852" r=".519" transform="rotate(-90 253.878 87.852)" fill="#8A93A7"/><circle cx="291.211" cy="60.765" r=".519" transform="rotate(-90 291.211 60.765)" fill="#8A93A7"/><circle cx="355.481" cy="85.216" r=".519" transform="rotate(-90 355.481 85.216)" fill="#8A93A7"/><circle cx="290.441" cy="116.764" r=".519" transform="rotate(-90 290.441 116.764)" fill="#8A93A7"/><circle cx="318.689" cy="164.856" r=".519" transform="rotate(-90 318.689 164.856)" fill="#8A93A7"/><circle cx="322.076" cy="123.766" r=".519" transform="rotate(-90 322.076 123.766)" fill="#fff"/><circle cx="254.916" cy="124.803" r=".519" transform="rotate(-90 254.916 124.803)" fill="#fff"/><circle cx="238.385" cy="95.307" r="2.399" transform="rotate(-90 238.385 95.307)" fill="#BEC7D4"/><circle cx="208.793" cy="49.57" r="2.399" transform="rotate(-90 208.793 49.57)" fill="#BEC7D4"/><circle cx="76.073" cy="76.573" r="1.232" transform="rotate(-90 76.073 76.573)" fill="#fff"/><circle cx="85.994" cy="123.719" r="1.232" transform="rotate(-90 85.994 123.719)" fill="#fff"/><circle cx="22.655" cy="79.036" r="1.232" transform="rotate(-90 22.655 79.036)" fill="#fff"/><circle cx="49.667" cy="1.232" r="1.232" transform="rotate(-90 49.667 1.232)" fill="#fff"/><circle cx="113.932" cy="58.94" r="1.232" transform="rotate(-90 113.932 58.94)" fill="#fff"/><circle cx="47.484" cy="53.948" r=".519" transform="rotate(-90 47.484 53.948)" fill="#8A93A7"/><circle cx="84.817" cy="26.861" r=".519" transform="rotate(-90 84.817 26.861)" fill="#8A93A7"/><circle cx="149.086" cy="51.312" r=".519" transform="rotate(-90 149.086 51.312)" fill="#8A93A7"/><circle cx="84.047" cy="82.861" r=".519" transform="rotate(-90 84.047 82.86)" fill="#8A93A7"/><circle cx="112.294" cy="130.952" r=".519" transform="rotate(-90 112.294 130.952)" fill="#8A93A7"/><circle cx="115.682" cy="89.862" r=".519" transform="rotate(-90 115.682 89.862)" fill="#fff"/><circle cx="48.522" cy="90.9" r=".519" transform="rotate(-90 48.522 90.9)" fill="#fff"/><circle cx="31.99" cy="61.403" r="2.399" transform="rotate(-90 31.99 61.403)" fill="#BEC7D4"/><circle cx="2.399" cy="15.667" r="2.399" transform="rotate(-90 2.399 15.667)" fill="#BEC7D4"/></svg>