<svg width="124" height="258" fill="none" xmlns="http://www.w3.org/2000/svg"><g filter="url(#a)" fill="#81E03D"><path d="M30.383 50.335c-1.813 12.866 3.22 34.492 6.484 34.492 3.263 0 2.901-8.057 5.075-8.057 2.177 0-4.351 13.777 2.54 15.594 6.888 1.81 5.658-11.312 9.427-7.537 3.77 3.769-7.433 55.942 0 63.379 7.433 7.429 12.328 1.809 9.79 14.317-2.538 12.509-7.615 70.524 6.523 64 14.143-6.524-1.587-74.651 0-76.238 1.588-1.587 9.36 12.785 5.95-3.531-3.41-16.319 2.21-41.517 6.384-37.349 4.166 4.166 9.786 2.175 9.786-6.525 0-8.706 5.078-56.928-2.54-56.928-7.612 0-4.167 29.913-9.786 24.293-5.62-5.618 1.088-21.396-7.976-26.11C62.974 39.42 62.248 30 55.72 30c-6.525 0-10.879 3.106-10.879 9.995 0 6.89-13.554 3.918-14.458 10.34Z"/><path d="m67.368 197.198 4.172 18.749c2.79 7.341-5.808 11.286-8.604 3.931-1.139-2.999.22-4.127 4.432-22.68Zm1.815-89.307c-4.354 9.065-8.682 20.681-3.946 29.535 3.088 5.774 6.613 1.365 6.249-.404-2-9.618-3.113-17.987-.798-27.531.426-1.748-1.08-3.335-1.505-1.6ZM36.509 52.45c-9.343.776-2.19 12.663 4.39 14.473.99.27 1.825.128 2.532-.297 2.35-1.406 5.37-.412 6.65 2.006 1.106 2.1 2.62 3.774 4.687 4.275 6.798 1.628 4.079-35.741 4.079-35.741s-3.074 21.348-6.527 17.897c-3.452-3.451-5.438-8.659-7.887-2.613-2.447 6.037-7.924 0-7.924 0Zm49.787 42.373a4.028 4.028 0 0 1-4.025 4.026 4.027 4.027 0 0 1 0-8.052 4.027 4.027 0 0 1 4.025 4.026Zm-1.58-12.245a1.787 1.787 0 1 1-3.572-.007 1.787 1.787 0 0 1 3.572.007Z"/></g><path d="M30.383 50.335c-1.813 12.866 3.22 34.492 6.484 34.492 3.263 0 2.901-8.057 5.075-8.057 2.177 0-4.351 13.777 2.54 15.594 6.888 1.81 5.658-11.312 9.427-7.537 3.77 3.769-7.433 55.942 0 63.379 7.433 7.429 12.328 1.809 9.79 14.317-2.538 12.509-7.615 70.524 6.523 64 14.143-6.524-1.587-74.651 0-76.238 1.588-1.587 9.36 12.785 5.95-3.531-3.41-16.319 2.21-41.517 6.384-37.349 4.166 4.166 9.786 2.175 9.786-6.525 0-8.706 5.078-56.928-2.54-56.928-7.612 0-4.167 29.913-9.786 24.293-5.62-5.618 1.088-21.396-7.976-26.11C62.974 39.42 62.248 30 55.72 30c-6.525 0-10.879 3.106-10.879 9.995 0 6.89-13.554 3.918-14.458 10.34Z" fill="#27E7DB"/><path d="m67.368 197.198 4.172 18.749c2.79 7.341-5.808 11.286-8.604 3.931-1.139-2.999.22-4.127 4.432-22.68Zm1.815-89.307c-4.354 9.065-8.682 20.681-3.946 29.535 3.088 5.774 6.613 1.365 6.249-.404-2-9.618-3.113-17.987-.798-27.531.426-1.748-1.08-3.335-1.505-1.6ZM36.509 52.45c-9.343.776-2.19 12.663 4.39 14.473.99.27 1.825.128 2.532-.297 2.35-1.406 5.37-.412 6.65 2.006 1.106 2.1 2.62 3.774 4.687 4.275 6.798 1.628 4.079-35.741 4.079-35.741s-3.074 21.348-6.527 17.897c-3.452-3.451-5.438-8.659-7.887-2.613-2.447 6.037-7.924 0-7.924 0Zm49.787 42.373a4.028 4.028 0 0 1-4.025 4.026 4.027 4.027 0 0 1 0-8.052 4.027 4.027 0 0 1 4.025 4.026Zm-1.58-12.245a1.787 1.787 0 1 1-3.572-.007 1.787 1.787 0 0 1 3.572.007Z" fill="#fff"/><defs><filter id="a" x="0" y="0" width="124" height="257.033" filterUnits="userSpaceOnUse" color-interpolation-filters="sRGB"><feFlood flood-opacity="0" result="BackgroundImageFix"/><feBlend in="SourceGraphic" in2="BackgroundImageFix" result="shape"/><feGaussianBlur stdDeviation="15" result="effect1_foregroundBlur_504_27"/></filter></defs></svg>