<svg width="50" height="50" viewBox="0 0 50 50" xmlns="http://www.w3.org/2000/svg">
<g clip-path="url(#clip0_361_1255)">
<g filter="url(#filter0_d_361_1255)">
<path d="M5 25.8218C5 23.9021 6.55627 22.3458 8.47602 22.3458H41.7465C43.6662 22.3458 45.2225 23.9021 45.2225 25.8218C45.2225 27.7416 43.6662 29.2979 41.7465 29.2979H8.47602C6.55627 29.2979 5 27.7416 5 25.8218Z"/>
<path d="M5 14.6489C5 12.8662 6.4451 11.4211 8.22773 11.4211H41.9947C43.7774 11.4211 45.2225 12.8662 45.2225 14.6489C45.2225 16.4315 43.7774 17.8766 41.9947 17.8766H8.22773C6.4451 17.8766 5 16.4315 5 14.6489Z"/>
<path d="M5 3.22773C5 1.4451 6.4451 0 8.22773 0H41.9947C43.7774 0 45.2225 1.4451 45.2225 3.22773C45.2225 5.01036 43.7774 6.45546 41.9947 6.45546H8.22773C6.4451 6.45546 5 5.01036 5 3.22773Z"/>
<path d="M40.3986 23.0865C39.6375 23.0742 38.7933 22.6393 38.0293 22.5037C35.9681 22.1198 34.5607 23.139 32.0313 21.9547C29.5291 20.7134 28.4476 25.0232 26.0681 24.5189C23.7035 23.9962 22.3957 22.6625 18.8809 22.7442C17.1445 22.8752 14.0253 22.2847 11.6062 22.0457C10.6214 21.947 10.0672 23.0449 10.7955 23.6524C12.1322 24.7657 13.6048 26.3739 13.6444 28.0747C13.7039 31.2542 11.4524 34.6341 12.4101 36.0944C13.3704 37.6499 14.5272 37.0977 14.6218 35.6364C14.7104 34.1561 13.7934 29.8695 14.4424 28.084C15.0857 26.2629 16.5479 26.3508 17.031 28.0439C17.5203 29.7646 16.0015 32.6604 16.7115 33.6365C17.4303 34.6511 18.4944 33.9726 18.5324 33.0922C18.5668 32.2133 17.6137 30.0885 18.1553 28.6899C18.691 27.2852 20.3965 27.7062 20.6857 29.7894C20.9417 31.8278 21.8277 39.3418 20.1951 44.3775C18.4984 49.3015 21.3467 49.6064 22.5942 48.418C23.7984 47.2778 22.2091 42.6119 22.3442 37.8911C22.4399 33.1523 22.1529 29.1278 23.7809 29.1618C25.4139 29.1833 25.2973 30.0144 25.2939 31.7091C25.2888 33.4005 25.0982 35.5083 26.5928 34.5061C27.3105 34.0235 26.5621 29.1972 26.9968 28.602C27.3327 28.1441 27.6664 28.4941 27.9355 30.2395C28.2055 31.9835 28.3928 34.8438 29.1614 34.796C29.9272 34.7451 29.598 31.507 30.2121 30.7037C30.8216 29.9019 31.2241 33.032 31.5979 34.3473C31.9718 35.661 32.0138 33.0412 32.978 32.3936C33.9412 31.743 34.4262 39.8354 35.291 39.4462C36.154 39.0532 36.6972 26.0471 37.2544 25.29C37.955 24.3401 38.4792 25.1435 38.9625 24.4974C39.4462 23.8606 40.1545 24.0163 40.6106 23.8081C41.0675 23.6031 41.6996 23.1065 40.3986 23.0865Z"/>
<path d="M13.2734 34.486C13.4043 34.9207 13.898 35.0657 14.1023 34.8761C14.9267 35.6116 13.6984 36.7403 12.8728 36.0032C12.5586 35.3726 12.8253 34.7188 13.2734 34.486Z" fill="white"/>
<path d="M30.9119 23.4566C30.9119 23.4566 30.1238 23.2454 29.2773 24.2753C28.4307 25.3038 27.1451 25.9653 25.8177 25.5428C24.4904 25.1204 24.4904 25.1204 24.4904 25.1204C24.4904 25.1204 22.6805 24.2816 21.9507 24.5544C21.221 24.8289 23.1477 25.2776 23.7022 26.2815C24.2566 27.2852 25.3659 26.6515 25.5702 27.8388C25.7745 29.0277 26.767 27.4472 26.767 26.9043C26.767 26.3601 27.1173 26.175 27.1173 26.175C27.1173 26.175 27.847 25.2406 28.3141 27.4903C28.7811 29.74 30.3279 28.1826 30.3279 26.3076C30.3279 24.4326 29.9487 24.4326 31.8168 24.8027C33.6847 25.1728 32.8091 23.8791 34.3852 23.8791C35.9615 23.8791 36.4431 24.4989 37.1875 23.8267C37.9317 23.1528 32.2691 22.2292 30.9119 23.4566Z" fill="white"/>
<path d="M13.1248 23.4843C13.3443 24.1519 13.905 24.6669 14.6844 24.781C15.2014 24.8565 15.6049 24.6685 16.0962 24.5559C17.0065 24.3446 17.2191 24.8134 17.8422 25.2004C18.7115 25.7401 19.4141 24.9954 20.3444 25.165C21.2582 25.3315 22.0411 25.8234 22.9891 25.5181C23.3054 25.4163 23.1691 24.9568 22.8496 25.0601C21.9514 25.35 21.1296 24.7733 20.2522 24.6685C19.9679 24.6345 19.7028 24.6407 19.4258 24.704C19.2572 24.7424 19.1026 24.8442 18.9336 24.8767C18.5497 24.9522 18.2239 24.8381 17.9006 24.6253C17.4263 24.3154 17.1591 23.973 16.5159 23.9961C16.1455 24.0085 15.815 24.1596 15.4627 24.2444C14.6412 24.4418 13.8819 24.1196 13.6315 23.3578C13.5353 23.0648 13.0279 23.1898 13.1248 23.4843Z" fill="white"/>
<path d="M20.7208 46.8542C20.8517 47.2898 21.3453 47.4347 21.5496 47.2444C22.3741 47.9796 21.1456 49.1084 20.32 48.3724C20.006 47.7415 20.2726 47.0869 20.7208 46.8542Z" fill="white"/>
</g>
</g>
<defs>
<filter id="filter0_d_361_1255" x="0" y="-5" width="50.2224" height="59" filterUnits="userSpaceOnUse" color-interpolation-filters="sRGB">
<feFlood flood-opacity="0" result="BackgroundImageFix"/>
<feColorMatrix in="SourceAlpha" type="matrix" values="0 0 0 0 0 0 0 0 0 0 0 0 0 0 0 0 0 0 127 0" result="hardAlpha"/>
<feOffset/>
<feGaussianBlur stdDeviation="2.5"/>
<feComposite in2="hardAlpha" operator="out"/>
<feColorMatrix type="matrix" values="0 0 0 0 0.504125 0 0 0 0 0.879167 0 0 0 0 0.238108 0 0 0 1 0"/>
<feBlend mode="normal" in2="BackgroundImageFix" result="effect1_dropShadow_361_1255"/>
<feBlend mode="normal" in="SourceGraphic" in2="effect1_dropShadow_361_1255" result="shape"/>
</filter>
<clipPath id="clip0_361_1255">
<rect width="50" height="50" fill="white"/>
</clipPath>
</defs>
</svg>
