<svg width="79" height="127" fill="none" xmlns="http://www.w3.org/2000/svg"><g filter="url(#a)"><path d="M42.536 104.5c0-.6.134-1.133.4-1.6V91.3c.067-1.8-.066-3.4-.4-4.8a28.678 28.678 0 0 0-3.6-3.4 26.61 26.61 0 0 0-3.7-2.6c-.266 0-.4.133-.4.4 0 .133.034.4.1.8.134.4.234.667.3.8v15.1l-.4.4-.8.4c-.4 0-.8-.233-1.2-.7-.333-.4-.5-.767-.5-1.1v-.2h.1c0-.067.034-.2.1-.4.134-.2.234-.333.3-.4.067-.333.134-.933.2-1.8.134-.8.2-1.3.2-1.5V77.6l.8-3.2c.067-.067.2-.133.4-.2s.334-.133.4-.2c.267-.133.6-.367 1-.7l.6-.5v-7.3c-.333-.6-.6-1.2-.8-1.8-.133-.667-.266-1.3-.4-1.9-.066-.6-.2-1.2-.4-1.8-.133-.6-.4-1.2-.8-1.8v-5.3l-1.6-2c-.933-1-2.133-1.867-3.6-2.6-1.466-.733-2.866-1.1-4.2-1.1h-.6c-.333 0-.533.133-.6.4.2 1.933.134 4-.2 6.2-.333 2.2-.533 4.2-.6 6-.133.333-.3.567-.5.7-.133.067-.366.1-.7.1-.466 0-.733-.133-.8-.4v-3.4c0-1.4.067-2.8.2-4.2.134-1.4.2-2.8.2-4.2 0-1.133-.133-2.267-.4-3.4-.266-1.2-.4-2.367-.4-3.5 0-1.267.5-2.067 1.5-2.4 1-.4 2-.667 3-.8.2-.2.634-.5 1.3-.9.667-.467 1.4-.933 2.2-1.4.8-.467 1.534-.9 2.2-1.3.734-.4 1.267-.667 1.6-.8 1.134-.667 2.2-1.133 3.2-1.4 1.067-.267 2.134-.767 3.2-1.5.934-.6 1.7-1.467 2.3-2.6a192.26 192.26 0 0 0 1.9-3.3c.667-1.133 1.434-2.1 2.3-2.9.867-.867 2-1.3 3.4-1.3.267 0 .6.033 1 .1.467 0 .9.067 1.3.2.467.133.867.3 1.2.5.4.2.667.467.8.8.067.133.067.467 0 1v1c.067.6.367 1.367.9 2.3.534.867 1.1 1.767 1.7 2.7a40.2 40.2 0 0 1 1.6 2.7c.467.8.7 1.467.7 2a6.049 6.049 0 0 1-1.1 3.5c-.666 1-1 2.133-1 3.4 0 .467.134.867.4 1.2l.8.8c.334.2.634.433.9.7.267.2.4.5.4.9 0 .533-.066 1-.2 1.4-.133.4-.2.867-.2 1.4 0 .933.2 1.9.6 2.9.4.933.6 1.9.6 2.9 0 2.8-.166 5.5-.5 8.1a46.31 46.31 0 0 0-.3 8.1 88.2 88.2 0 0 1-1.2 3.3c-.533 1.333-.8 2.467-.8 3.4 0 .867.167 1.733.5 2.6.334.8.567 1.633.7 2.5v.4c0 .133-.2.533-.6 1.2-.4.667-.6 1.067-.6 1.2l-.2 1v1c0 .533-.033 1.1-.1 1.7 0 .667-.066 1.3-.2 1.9a5.13 5.13 0 0 1-.5 1.8c-.266.533-.633.933-1.1 1.2h-.1c0 .067-.033.1-.1.1l-.2-.1c-.133-.067-.3-.2-.5-.4s-.3-.333-.3-.4v-6.2c0-.067-.066-.2-.2-.4-.066-.2-.133-.333-.2-.4h-.2c-.133 0-.5.1-1.1.3-.6.2-1.266.433-2 .7-.733.267-1.4.533-2 .8-.533.267-.8.467-.8.6v1c0 .067.067.2.2.4.134.2.2.333.2.4s-.066.2-.2.4c-.066.2-.133.333-.2.4a27.325 27.325 0 0 0-.8 5.7v5.7c0 .533.067 1 .2 1.4.2.4.3.867.3 1.4 0 .533-.133 1-.4 1.4-.2.4-.566.6-1.1.6-.466 0-.9-.133-1.3-.4-.333-.267-.5-.667-.5-1.2Zm10.1-5.5c0-.4.134-.667.4-.8.334-.133.667-.2 1-.2.734 0 1.1.333 1.1 1 0 .333-.133.633-.4.9-.2.333-.5.5-.9.5-.333 0-.633-.167-.9-.5-.2-.267-.3-.567-.3-.9Zm2.4-35.6.5.5.4-.5v-6.9c-.133 0-.333.067-.6.2-.2.067-.3.167-.3.3v6.4Z" fill="#27E7DB"/><path d="m42.936 102.9.869.496.131-.23v-.266h-1Zm0-11.6-.999-.037v.037h1Zm-.4-4.8.973-.232-.059-.246-.168-.189-.746.667Zm-3.6-3.4-.64.768.01.009.01.008.62-.785Zm-3.7-2.6.501-.865-.232-.135h-.269v1Zm-.3 1.2-.986.164.013.078.025.074.948-.316Zm.3.8h1v-.236l-.105-.211-.895.447Zm0 15.1.707.707.293-.293V97.6h-1Zm-.4.4.447.894.146-.072.114-.115-.707-.707Zm-.8.4v1h.236l.212-.106-.448-.894Zm-1.2-.7-.768.64.01.01.758-.65Zm-.5-1.3v-1h-1v1h1Zm.1 0v1h1v-1h-1Zm.1-.4-.832-.555-.074.112-.042.127.948.316Zm.3-.4.707.707.215-.214.059-.297-.98-.196Zm.2-1.8-.986-.164-.007.043-.004.044.997.077Zm.2-16.2-.97-.242-.03.119v.123h1Zm.8-3.2-.707-.707-.196.196-.067.269.97.242Zm.4-.2.317.949-.317-.949Zm.4-.2-.447-.894-.145.072-.115.115.707.707Zm1-.7-.64-.768.64.768Zm.6-.5.64.768.36-.3V72.8h-1Zm0-7.3h1v-.26l-.126-.226-.874.486Zm-.8-1.8-.98.196.012.061.02.06.948-.317Zm-.4-1.9-.994.11.006.054.012.053.976-.217Zm-.4-1.8-.976.217.011.05.017.05.948-.317Zm-.8-1.8h-1v.303l.168.252.832-.555Zm0-5.3h1v-.35l-.219-.275-.78.625Zm-1.6-2 .781-.625-.024-.03-.026-.027-.73.682Zm-3.6-2.6-.447.894.447-.894Zm-5.4-.7-.97-.242-.043.17.019.175.994-.103Zm-.2 6.2.989.15-.989-.15Zm-.6 6 .929.371.064-.16.007-.174-1-.037Zm-.5.7.448.894.055-.027.052-.035-.555-.832Zm-1.5-.3h-1v.123l.03.12.97-.243Zm0-15.2-.976.217.003.012.973-.229Zm1.1-5.9.317.949.027-.01.028-.01-.372-.929Zm3-.8.133.991.335-.044.24-.24-.708-.707Zm1.3-.9.515.858.03-.019.029-.02-.574-.819Zm2.2-1.4-.503-.864.503.864Zm2.2-1.3-.479-.878-.018.01-.017.01.514.858Zm1.6-.8.372.928.07-.028.065-.038-.507-.862Zm3.2-1.4-.242-.97-.008.002-.007.002.257.966Zm3.2-1.5-.54-.841-.013.008-.013.009.566.824Zm2.3-2.6-.862-.507-.011.02-.01.02.883.467Zm1.9-3.3-.862-.507-.005.008-.004.009.871.49Zm2.3-2.9.679.735.014-.014.014-.014-.707-.707Zm4.4-1.2-.164.986.082.014h.082v-1Zm1.3.2-.316.949.02.006.022.006.274-.961Zm1.2.5-.514.858.033.02.034.016.447-.894Zm.8.8-.928.371.015.039.019.037.894-.447Zm0 1-.992-.124-.008.062v.062h1Zm0 1h-1v.055l.006.055.994-.11Zm.9 2.3-.868.496.008.014.009.014.851-.524Zm3.3 5.4-.88.474.008.015.008.015.864-.504Zm-.4 5.5-.824-.567-.004.006-.004.006.832.555Zm-.6 4.6-.78.625.034.043.04.04.706-.708Zm.8.8-.707.707.087.087.106.064.514-.858Zm.9.7-.707.707.05.05.057.043.6-.8Zm.2 2.3.949.316-.949-.316Zm.4 4.3-.928.371.004.012.005.01.92-.393Zm-.2 19.1.949.316.06-.177-.01-.187-.999.048Zm-1.2 3.3.929.371.003-.007.003-.008-.935-.356Zm-.3 6-.933.359.005.013.005.013.923-.385Zm.7 2.5h1v-.076l-.011-.076-.989.152Zm-.6 1.6.858.514-.858-.514Zm-.6 1.2.98.196.02-.097V84.1h-1Zm-.2 1-.98-.196-.02.097v.099h1Zm-.1 2.7-.994-.11-.006.055v.055h1Zm-.2 1.9-.976-.217-.013.058-.006.06.995.099Zm-1.6 3v1h.266l.23-.132-.496-.868Zm-.1 0v-1h-1v1h1Zm-.1.1-.447.894.211.106h.236v-1Zm-.2-.1-.447.894.447-.894Zm-.5-.4-.707.707.707-.707Zm-.5-7-.948.316.042.127.074.112.832-.555Zm-.2-.4.707-.707-.292-.293h-.415v1Zm-1.3.3-.316-.949.316.949Zm-2 .7-.341-.94.341.94Zm-2 .8-.406-.914-.02.01-.02.01.446.894Zm-.6 2 .832-.555-.832.555Zm0 .8-.832-.555-.074.112-.042.127.948.316Zm-.2.4-.707-.707-.196.196-.067.269.97.242Zm-.8 5.7-1-.034v.034h1Zm.2 7.1-.948.316.022.068.032.063.894-.447Zm-.1 2.8-.832-.555-.034.052-.028.056.894.447Zm-2.4.2-.624.781.034.027.036.024.554-.832Zm10-7.5-.371-.928-.039.015-.037.019.447.894Zm1.7 1.7-.707-.707-.087.087-.063.105.857.515Zm-1.8 0-.8.6.01.012.01.013.78-.625Zm2.1-36.5h-1v.414l.293.293.707-.707Zm.5.5-.707.707.79.79.698-.872-.78-.625Zm.4-.5.781.625.22-.274V63.4h-1Zm0-6.9h1v-1h-1v1Zm-.6.2.317.949.067-.023.063-.032-.447-.894Zm-11.8 47.8c0-.447.098-.805.269-1.104l-1.737-.992c-.363.635-.532 1.343-.532 2.096h2Zm.4-1.6v-6.5h-2v6.5h2Zm0-6.5v-5.1h-2v5.1h2Zm0-5.063c.069-1.869-.068-3.562-.427-5.069l-1.946.464c.308 1.293.438 2.8.374 4.531l1.999.074Zm-.654-5.504a29.683 29.683 0 0 0-3.726-3.518l-1.24 1.57a27.694 27.694 0 0 1 3.475 3.282l1.49-1.334Zm-3.705-3.501a27.608 27.608 0 0 0-3.84-2.697l-1.002 1.73a25.618 25.618 0 0 1 3.561 2.503l1.28-1.536Zm-4.34-2.832c-.288 0-.687.073-1.008.393-.32.32-.393.72-.393 1.007h2c0 .02-.006.22-.193.407a.614.614 0 0 1-.407.193v-2Zm-1.4 1.4c0 .23.049.58.113.964l1.973-.328a11.901 11.901 0 0 1-.084-.594l-.003-.042h-2Zm.15 1.116c.131.392.252.725.355.931l1.789-.894a6.86 6.86 0 0 1-.246-.67l-1.897.633Zm.25.484v15.1h2V82.5h-2Zm.292 14.393-.4.4 1.414 1.414.4-.4-1.414-1.414Zm-.14.213-.8.4.895 1.788.8-.4-.895-1.788Zm-.353.294c-.001 0-.007 0-.02-.004a.344.344 0 0 1-.076-.035 1.448 1.448 0 0 1-.344-.312l-1.519 1.302c.488.569 1.14 1.049 1.96 1.049v-2Zm-.431-.34a1.61 1.61 0 0 1-.233-.349.482.482 0 0 1-.036-.11V96.6h-2c0 .667.329 1.256.732 1.74l1.537-1.28Zm-.269-.46v-.2h-2v.2h2Zm-1 .8h.101v-2h-.101v2Zm1.1-1a.71.71 0 0 1-.007.102l.002-.01c.009-.032.025-.089.054-.176l-1.897-.632a4.492 4.492 0 0 0-.097.323c-.02.081-.055.23-.055.393h2Zm-.068.155a4.36 4.36 0 0 1 .143-.205c.04-.053.049-.06.032-.043l-1.414-1.414a3.81 3.81 0 0 0-.425.552l1.664 1.11Zm.449-.759c.08-.4.15-1.055.216-1.92l-1.994-.153c-.067.87-.13 1.414-.183 1.68l1.96.393Zm.206-1.832c.128-.768.213-1.362.213-1.664h-2l-.001.029a7.525 7.525 0 0 1-.04.364c-.031.235-.08.548-.145.943l1.973.328Zm.213-1.664V77.6h-2v14.7h2Zm-.03-14.457.8-3.2-1.94-.486-.8 3.2 1.94.486Zm.537-2.736a.653.653 0 0 1-.09.075c-.016.011-.024.015-.02.012a1.468 1.468 0 0 1 .12-.046l-.633-1.897c-.208.07-.544.195-.79.442l1.413 1.414Zm.01.042c.208-.07.544-.195.79-.442l-1.414-1.414a.67.67 0 0 1 .09-.075l.02-.012a1.46 1.46 0 0 1-.119.046l.633 1.897Zm.53-.255c.369-.184.771-.474 1.194-.826l-1.28-1.536c-.379.315-.643.491-.808.574l.894 1.788Zm1.194-.826.45-.375.112-.093.028-.024.007-.006.002-.001-.64-.769-.64-.768h-.001v.001h-.001l-.003.003h-.001v.001h-.001l-.001.002h-.001l-.012.01-.004.003-.002.002-.002.002-.004.003-.004.004c-.002.001-.002 0-.003.002l-.001.001-.001.001-.001.001h-.001v.001l-.003.002-.006.005-.001.001-.002.001-.002.003-.026.021-.066.055-.084.07-.006.005-.006.005-.003.003-.003.002-.006.005-.025.021-.054.045-.263.219 1.28 1.536Zm.96-1.268v-7.3h-2v7.3h2Zm-.127-7.786a9.64 9.64 0 0 1-.725-1.63l-1.897.632c.22.664.513 1.32.874 1.97l1.748-.972Zm-.693-1.51a92.716 92.716 0 0 0-.404-1.92l-1.953.433c.132.592.264 1.219.396 1.88l1.96-.393Zm-.387-1.814a9.73 9.73 0 0 0-.445-2.006l-1.897.632a7.73 7.73 0 0 1 .354 1.594l1.988-.22Zm-.417-1.907c-.165-.74-.488-1.452-.945-2.138l-1.664 1.11c.343.514.554 1.001.656 1.462l1.953-.434Zm-.777-1.583v-5.3h-2v5.3h2Zm-.219-5.925-1.6-2-1.561 1.25 1.6 2 1.561-1.25Zm-1.65-2.057c-1.029-1.103-2.33-2.036-3.884-2.812l-.894 1.788c1.38.69 2.479 1.49 3.316 2.388l1.462-1.364Zm-3.884-2.812c-1.574-.788-3.127-1.206-4.647-1.206v2c1.147 0 2.394.315 3.753.994l.895-1.788ZM24.636 46.2h-.6v2h.6v-2Zm-.6 0a1.7 1.7 0 0 0-.954.268 1.484 1.484 0 0 0-.616.89l1.94.485a.45.45 0 0 1-.063.137.554.554 0 0 1-.152.152c-.116.078-.198.068-.155.068v-2Zm-1.594 1.503c.19 1.838.128 3.819-.194 5.947l1.977.3c.344-2.272.416-4.424.206-6.453l-1.99.206Zm-.194 5.947c-.338 2.23-.543 4.268-.611 6.113l1.999.074c.065-1.755.26-3.716.589-5.887l-1.977-.3Zm-.54 5.779a1.05 1.05 0 0 1-.11.215c-.027.036-.035.036-.016.024l1.109 1.664c.433-.288.7-.727.874-1.16l-1.857-.743Zm-.019.177a.372.372 0 0 1 .066-.027l-.035.006a2.123 2.123 0 0 1-.284.015v2c.342 0 .786-.025 1.148-.206l-.895-1.788Zm-.253-.006a.78.78 0 0 1-.133-.009c-.02-.004-.006-.004.03.015a.567.567 0 0 1 .273.352l-1.94.485c.11.442.404.767.773.951.329.165.688.206.997.206v-2Zm.2.6v-3.4h-2v3.4h2Zm0-3.4c0-1.368.066-2.737.196-4.105l-1.991-.19a45.282 45.282 0 0 0-.205 4.295h2Zm.196-4.105c.136-1.432.204-2.863.204-4.295h-2c0 1.368-.065 2.737-.195 4.105l1.99.19Zm.204-4.295c0-1.212-.142-2.423-.426-3.629l-1.947.458a13.8 13.8 0 0 1 .373 3.171h2Zm-.424-3.617a15.12 15.12 0 0 1-.376-3.283h-2c0 1.212.143 2.452.424 3.717l1.953-.434Zm-.376-3.283c0-.508.101-.825.223-1.02.113-.18.287-.329.594-.431l-.633-1.898c-.693.231-1.269.649-1.657 1.269-.378.605-.527 1.322-.527 2.08h2Zm.872-1.471a11.515 11.515 0 0 1 2.76-.738l-.264-1.982a13.52 13.52 0 0 0-3.24.863l.744 1.857Zm3.335-1.022c.1-.1.43-.343 1.108-.75l-1.03-1.715c-.655.394-1.192.751-1.492 1.05l1.414 1.415Zm1.167-.788c.641-.449 1.35-.9 2.13-1.355l-1.007-1.728c-.821.479-1.578.96-2.27 1.445l1.147 1.638Zm2.13-1.355c.803-.469 1.54-.904 2.21-1.306l-1.028-1.715c-.663.397-1.392.828-2.19 1.293l1.008 1.728Zm2.175-1.286c.732-.4 1.22-.64 1.493-.75l-.743-1.857c-.394.158-.973.45-1.707.851l.957 1.756Zm1.628-.816c1.076-.633 2.058-1.058 2.951-1.296l-.515-1.932c-1.108.295-2.258.803-3.45 1.504l1.014 1.724Zm2.936-1.292c1.2-.3 2.376-.857 3.524-1.646l-1.133-1.648c-.985.677-1.944 1.12-2.876 1.354l.485 1.94Zm3.498-1.629c1.1-.706 1.975-1.712 2.643-2.973l-1.767-.936c-.533 1.006-1.19 1.733-1.957 2.227l1.081 1.682Zm2.621-2.934a198.61 198.61 0 0 0 1.91-3.317l-1.743-.98a196.862 196.862 0 0 1-1.89 3.283l1.723 1.014Zm1.9-3.3c.623-1.058 1.33-1.946 2.117-2.672l-1.357-1.47c-.946.874-1.773 1.92-2.484 3.128l1.724 1.014Zm2.145-2.7c.652-.652 1.517-1.007 2.693-1.007v-2c-1.624 0-3.025.512-4.107 1.593l1.414 1.414Zm2.693-1.007c.191 0 .465.025.836.086l.329-1.972a7.25 7.25 0 0 0-1.165-.114v2Zm1 .1c.37 0 .696.053.984.149l.633-1.898A5.087 5.087 0 0 0 49.336 20v2Zm1.026.162c.402.114.717.25.96.396l1.029-1.715a5.992 5.992 0 0 0-1.44-.605l-.55 1.924Zm1.027.432c.237.119.297.223.319.277l1.857-.742c-.245-.613-.718-1.042-1.282-1.323l-.894 1.788Zm.353.353a.686.686 0 0 1-.058-.168.67.67 0 0 1 .002.071c0 .108-.011.279-.042.526l1.985.248a6.58 6.58 0 0 0 .057-.774c0-.175-.008-.503-.155-.797l-1.79.894Zm-.106.553v1h2v-1h-2Zm.006 1.11c.09.804.47 1.712 1.026 2.686l1.737-.992c-.51-.893-.73-1.518-.775-1.914l-1.988.22Zm1.043 2.714a165.87 165.87 0 0 0 1.71 2.717l1.682-1.082c-.596-.928-1.16-1.822-1.689-2.683l-1.703 1.048Zm1.71 2.717a39.725 39.725 0 0 1 1.56 2.633l1.762-.948a41.674 41.674 0 0 0-1.64-2.767l-1.682 1.082Zm1.577 2.663c.435.745.564 1.227.564 1.496h2c0-.797-.337-1.65-.836-2.504l-1.728 1.008Zm.564 1.496c0 1.06-.302 2.03-.924 2.933l1.648 1.133a7.049 7.049 0 0 0 1.276-4.066h-2Zm-.932 2.945c-.782 1.174-1.168 2.502-1.168 3.955h2c0-1.08.281-2.019.832-2.845l-1.664-1.11ZM54.436 41.1c0 .671.197 1.297.62 1.825l1.561-1.25c-.111-.139-.18-.313-.18-.575h-2Zm.693 1.907.8.8 1.414-1.414-.8-.8-1.414 1.414Zm.993.95c.265.16.5.343.707.55l1.414-1.414a5.65 5.65 0 0 0-1.092-.85l-1.03 1.715Zm.814.643-.005-.007a.062.062 0 0 1-.008-.012c-.002-.003.013.029.013.119h2c0-.644-.23-1.272-.8-1.7l-1.2 1.6Zm0 .1c0 .453-.057.809-.148 1.084l1.897.632c.175-.525.251-1.102.251-1.716h-2Zm-.148 1.084c-.175.525-.252 1.102-.252 1.716h2c0-.453.057-.809.149-1.084l-1.897-.632Zm-.252 1.716c0 1.079.232 2.171.672 3.271l1.857-.742c-.36-.9-.529-1.74-.529-2.529h-2Zm.681 3.294c.348.81.52 1.644.52 2.506h2a8.29 8.29 0 0 0-.681-3.294l-1.839.788Zm.52 2.506a62.6 62.6 0 0 1-.493 7.973l1.984.254c.34-2.645.508-5.387.508-8.227h-2Zm-.493 7.973a47.3 47.3 0 0 0-.306 8.275l1.997-.096a45.309 45.309 0 0 1 .293-7.925l-1.984-.254Zm-.256 7.91a87.68 87.68 0 0 1-1.186 3.261l1.869.712c.535-1.405.94-2.52 1.214-3.34l-1.897-.632Zm-1.18 3.246c-.558 1.394-.872 2.66-.872 3.771h2c0-.757.22-1.757.729-3.029l-1.857-.742Zm-.872 3.771c0 .998.193 1.986.567 2.959l1.867-.718a6.197 6.197 0 0 1-.434-2.241h-2Zm.577 2.985c.302.724.514 1.48.635 2.267l1.977-.304a11.71 11.71 0 0 0-.766-2.733l-1.846.77Zm.623 2.115v.2h2v-.2h-2Zm0 .2v.2h2v-.2h-2Zm0 .2c0-.097.017-.164.02-.18l.007-.021a2.11 2.11 0 0 1-.071.154c-.083.166-.218.408-.413.732l1.715 1.03c.205-.342.37-.634.487-.868a3.57 3.57 0 0 0 .154-.346c.03-.08.101-.275.101-.501h-2Zm-.457.685c-.205.342-.37.634-.487.868a3.671 3.671 0 0 0-.154.346 1.44 1.44 0 0 0-.102.501h2a.742.742 0 0 1-.02.18c-.006.023-.01.031-.006.021.008-.02.029-.07.07-.154.084-.166.219-.408.414-.733l-1.715-1.029Zm-.723 1.519-.2 1 1.96.392c.068-.333.134-.667.2-1l-1.96-.392Zm-.22 1.196v1h2v-1h-2Zm0 1c0 .492-.03 1.022-.094 1.59l1.988.22c.07-.632.106-1.235.106-1.81h-2Zm-.1 1.7c0 .6-.06 1.16-.176 1.683l1.953.434c.15-.677.223-1.383.223-2.117h-2Zm-.195 1.8a4.135 4.135 0 0 1-.4 1.453l1.79.894a6.131 6.131 0 0 0 .6-2.148l-1.99-.199Zm-.4 1.453c-.188.377-.424.62-.7.779l.992 1.736c.656-.375 1.153-.93 1.498-1.62l-1.79-.895Zm-.205 1.647v-1h-.1v2h.101v-1Zm-1.1 0c0-.12.031-.395.268-.632a.901.901 0 0 1 .632-.268v2a1.1 1.1 0 0 0 .782-.318 1.1 1.1 0 0 0 .318-.782h-2Zm1.348-.794-.2-.1-.895 1.788.2.1.895-1.788Zm-.2-.1c.016.008.002.003-.048-.037a2.448 2.448 0 0 1-.193-.176l-1.414 1.414c.22.22.48.447.76.587l.895-1.788Zm-.24-.213a1.675 1.675 0 0 1-.133-.143c-.004-.006.015.017.038.065a.9.9 0 0 1 .087.385h-2c0 .243.084.428.125.51.049.097.105.18.15.24.091.122.204.243.318.357l1.414-1.414Zm-.008.307v-6.2h-2v6.2h2Zm0-6.2c0-.288-.118-.523-.155-.597a3.412 3.412 0 0 0-.213-.358l-1.664 1.11a2.442 2.442 0 0 1 .088.142l-.017-.043a.857.857 0 0 1-.039-.254h2Zm-.251-.716c-.07-.209-.195-.544-.442-.791l-1.414 1.414a.647.647 0 0 1-.075-.09l-.012-.02a1.591 1.591 0 0 1 .046.119l1.897-.632ZM52.236 83.9h-.2v2h.2v-2Zm-.2 0c-.22 0-.472.065-.638.11-.209.057-.47.139-.778.241l.633 1.898c.292-.098.514-.166.671-.21l.165-.04c.045-.009.015.001-.053.001v-2Zm-1.416.351c-.61.204-1.285.44-2.025.71l.683 1.879a77.896 77.896 0 0 1 1.975-.691l-.633-1.898Zm-2.025.71c-.752.272-1.44.548-2.065.825l.813 1.828c.575-.256 1.22-.514 1.935-.774l-.683-1.88Zm-2.106.845c-.285.142-.548.29-.753.444-.1.076-.224.18-.33.313a1.18 1.18 0 0 0-.27.737h2a.87.87 0 0 1-.073.353.726.726 0 0 1-.096.16c-.04.05-.063.061-.03.037.061-.046.199-.132.447-.256l-.895-1.788ZM45.136 87.3v1h2v-1h-2Zm0 1c0 .288.119.523.156.597.06.12.135.241.212.358l1.664-1.11a2.463 2.463 0 0 1-.087-.142c-.004-.007.005.01.016.043a.857.857 0 0 1 .039.254h-2Zm.368.955a2.442 2.442 0 0 1 .088.142l-.017-.043a.857.857 0 0 1-.039-.254h2c0-.288-.118-.523-.155-.597a3.412 3.412 0 0 0-.213-.358l-1.664 1.11Zm.032-.155a.857.857 0 0 1 .04-.254c.01-.034.02-.05.016-.043a2.442 2.442 0 0 1-.088.142l1.664 1.11a3.51 3.51 0 0 0 .213-.358c.037-.074.155-.309.155-.597h-2Zm-.148.084a1.591 1.591 0 0 1-.046.119c-.002.004.001-.004.012-.02a.484.484 0 0 1 .075-.09l1.414 1.414c.247-.247.373-.582.442-.79l-1.897-.633Zm-.222.474a28.318 28.318 0 0 0-.83 5.907l2 .07c.064-1.864.32-3.694.77-5.493l-1.94-.484Zm-.83 5.942v5.7h2v-5.7h-2Zm0 5.7c0 .614.077 1.191.252 1.716l1.897-.632c-.092-.275-.149-.631-.149-1.084h-2Zm.306 1.847c.118.237.194.545.194.953h2c0-.659-.124-1.284-.405-1.847l-1.79.894Zm.194.953c0 .358-.086.627-.232.845l1.664 1.11c.388-.582.568-1.247.568-1.955h-2Zm-.294.953c-.01.02-.016.025-.014.023l.005-.004c-.002.001-.052.028-.197.028v2a2.39 2.39 0 0 0 1.154-.272c.376-.205.656-.512.84-.881l-1.788-.894Zm-.206.047c-.263 0-.504-.071-.745-.232l-1.11 1.664a3.295 3.295 0 0 0 1.855.568v-2Zm-.675-.181c-.038-.03-.125-.106-.125-.419h-2c0 .754.247 1.478.876 1.981l1.249-1.562ZM53.636 99c0-.095.017-.097-.005-.053a.333.333 0 0 1-.148.147l-.894-1.788c-.722.36-.953 1.066-.953 1.694h2Zm-.228.129c.224-.09.432-.129.628-.129v-2c-.47 0-.929.095-1.371.272l.743 1.856Zm.628-.129c.111 0 .17.013.192.02.018.005-.005.001-.04-.03a.26.26 0 0 1-.06-.083c-.003-.01.008.015.008.093h2c0-.513-.145-1.075-.602-1.49-.439-.399-1-.51-1.498-.51v2Zm.1 0c0 .032 0 .087-.107.193l1.414 1.414c.428-.427.693-.973.693-1.607h-2Zm-.257.385c-.012.02-.02.027-.018.027a.078.078 0 0 1 .015-.011l.01-.005a.225.225 0 0 1-.05.004v2c.74 0 1.37-.34 1.758-.986l-1.715-1.029Zm-.043.015a.03.03 0 0 1 .011.002c.005.001.006.002 0-.001a.5.5 0 0 1-.13-.126l-1.561 1.25c.398.498.961.875 1.68.875v-2Zm-.1-.1a.465.465 0 0 1-.1-.3h-2c0 .55.17 1.06.5 1.5l1.6-1.2Zm.593-35.193.5.5 1.414-1.414-.5-.5-1.414 1.414Zm1.988.418.4-.5-1.561-1.25-.4.5 1.561 1.25Zm.62-1.125v-6.9h-2v6.9h2Zm-1-7.9c-.389 0-.773.168-1.048.306l.894 1.788c.107-.053.179-.082.22-.095.02-.007.024-.007.017-.006a.442.442 0 0 1-.084.007v-2Zm-.917.251c-.33.11-.984.451-.984 1.249h2a.766.766 0 0 1-.218.532c-.1.1-.184.123-.165.117l-.633-1.898ZM54.036 57v6.4h2V57h-2Z" fill="#000"/></g><defs><filter id="a" x=".236" y=".9" width="78.5" height="125.2" filterUnits="userSpaceOnUse" color-interpolation-filters="sRGB"><feFlood flood-opacity="0" result="BackgroundImageFix"/><feColorMatrix in="SourceAlpha" values="0 0 0 0 0 0 0 0 0 0 0 0 0 0 0 0 0 0 127 0" result="hardAlpha"/><feOffset/><feGaussianBlur stdDeviation="10"/><feComposite in2="hardAlpha" operator="out"/><feColorMatrix values="0 0 0 0 0.504125 0 0 0 0 0.879167 0 0 0 0 0.238108 0 0 0 1 0"/><feBlend in2="BackgroundImageFix" result="effect1_dropShadow_302_91"/><feBlend in="SourceGraphic" in2="effect1_dropShadow_302_91" result="shape"/></filter></defs></svg>