<svg width="50" height="50" fill="none" xmlns="http://www.w3.org/2000/svg"><g filter="url(#a)" clip-path="url(#b)"><path d="M5 25.822a3.476 3.476 0 0 1 3.476-3.476h33.27a3.476 3.476 0 0 1 0 6.952H8.476A3.476 3.476 0 0 1 5 25.822Zm0-11.173a3.228 3.228 0 0 1 3.228-3.228h33.767a3.228 3.228 0 1 1 0 6.456H8.228A3.228 3.228 0 0 1 5 14.649ZM5 3.228A3.228 3.228 0 0 1 8.228 0h33.767a3.228 3.228 0 1 1 0 6.455H8.228A3.228 3.228 0 0 1 5 3.228Z" fill="#27E7DB"/><path d="M40.399 23.087c-.761-.013-1.606-.448-2.37-.583-2.06-.384-3.468.635-5.998-.55-2.502-1.24-3.583 3.07-5.963 2.565-2.365-.523-3.672-1.856-7.187-1.775-1.736.131-4.856-.46-7.275-.698-.985-.099-1.539.999-.81 1.606 1.336 1.114 2.809 2.722 2.848 4.423.06 3.18-2.192 6.56-1.234 8.02.96 1.555 2.117 1.003 2.212-.459.088-1.48-.829-5.767-.18-7.552.644-1.821 2.106-1.733 2.589-.04.49 1.72-1.03 4.616-.32 5.592.72 1.015 1.783.337 1.821-.544.035-.879-.918-3.003-.377-4.402.536-1.405 2.241-.984 2.53 1.1.257 2.038 1.143 9.552-.49 14.587-1.697 4.924 1.152 5.23 2.4 4.041 1.203-1.14-.386-5.806-.25-10.527.095-4.739-.192-8.763 1.436-8.73 1.633.022 1.516.853 1.513 2.548-.005 1.692-.196 3.8 1.299 2.797.718-.483-.03-5.309.404-5.904.336-.458.67-.108.939 1.637.27 1.744.457 4.605 1.225 4.557.766-.05.437-3.289 1.051-4.092.61-.802 1.012 2.328 1.386 3.643.374 1.314.416-1.306 1.38-1.953.963-.651 1.448 7.441 2.313 7.052.863-.393 1.406-13.399 1.963-14.156.701-.95 1.225-.146 1.709-.793.483-.636 1.191-.48 1.648-.689.457-.205 1.089-.701-.212-.721Z" fill="#27E7DB"/><path d="M13.273 34.486c.131.435.625.58.83.39.824.736-.405 1.864-1.23 1.127-.314-.63-.048-1.284.4-1.517Zm17.639-11.029s-.788-.212-1.635.818c-.846 1.029-2.132 1.69-3.46 1.268l-1.327-.423s-1.81-.838-2.54-.566c-.729.275 1.198.724 1.752 1.728.555 1.003 1.664.37 1.868 1.557.204 1.189 1.197-.392 1.197-.935 0-.544.35-.729.35-.729s.73-.934 1.197 1.315c.467 2.25 2.014.693 2.014-1.182s-.38-1.875 1.489-1.505c1.868.37.992-.924 2.568-.924 1.577 0 2.058.62 2.803-.052.744-.674-4.919-1.598-6.276-.37Z" fill="#fff"/><path d="M13.125 23.484c.22.668.78 1.183 1.56 1.297.516.076.92-.112 1.411-.225.91-.211 1.123.257 1.746.644.87.54 1.572-.205 2.502-.035.914.166 1.697.658 2.645.353.316-.102.18-.561-.14-.458-.898.29-1.72-.287-2.597-.391a2.357 2.357 0 0 0-.826.035c-.169.038-.323.14-.492.173-.384.075-.71-.039-1.033-.252-.475-.31-.742-.652-1.385-.629-.37.013-.701.164-1.053.248-.822.198-1.581-.124-1.831-.886-.097-.293-.604-.168-.507.126Zm7.595 23.37c.132.436.625.58.83.39.824.736-.404 1.864-1.23 1.128-.314-.63-.047-1.285.4-1.518Z" fill="#fff"/></g><defs><clipPath id="b"><path fill="#fff" d="M0 0h50v50H0z"/></clipPath><filter id="a" x="0" y="-5" width="50.222" height="59" filterUnits="userSpaceOnUse" color-interpolation-filters="sRGB"><feFlood flood-opacity="0" result="BackgroundImageFix"/><feColorMatrix in="SourceAlpha" values="0 0 0 0 0 0 0 0 0 0 0 0 0 0 0 0 0 0 127 0" result="hardAlpha"/><feOffset/><feGaussianBlur stdDeviation="2.5"/><feComposite in2="hardAlpha" operator="out"/><feColorMatrix values="0 0 0 0 0.504125 0 0 0 0 0.879167 0 0 0 0 0.238108 0 0 0 1 0"/><feBlend in2="BackgroundImageFix" result="effect1_dropShadow_361_1255"/><feBlend in="SourceGraphic" in2="effect1_dropShadow_361_1255" result="shape"/></filter></defs></svg>