<svg width="110" height="146" fill="none" xmlns="http://www.w3.org/2000/svg"><path fill-rule="evenodd" clip-rule="evenodd" d="M1 0h108v145.104H1V0Zm53.718 4.745c16.417 0 32.835.001 49.252-.007.306 0 .351.098.351.368-.006 22.804-.006 45.609-.006 68.413 0 9.995-.002 19.99.009 29.985.001.356-.085.434-.437.434-32.823-.009-65.647-.009-98.47-.003-.263 0-.398-.043-.346-.332.01-.059.001-.122.001-.183 0-32.763 0-65.526-.009-98.289 0-.333.092-.391.402-.39 16.417.007 32.835.006 49.253.006v-.002Zm50.157 108.216v1.609c-.001 8.391 0 16.782-.002 25.173 0 .574.056.488-.484.488-3.547.002-7.094-.003-10.641.008-.324.001-.43-.065-.428-.415.014-3.351.007-6.703.007-10.054v-.42c-.432.139-.83.266-1.227.397-1.412.464-2.826.925-4.235 1.4-.25.084-.335.072-.334-.225.008-3.339.007-6.679-.002-10.018 0-.228.092-.314.282-.397 3.525-1.556 7.048-3.118 10.572-4.679l6.019-2.668c.142-.063.286-.12.473-.199Zm-28.973 14.667c0-1.174.007-2.349-.006-3.523-.002-.251.058-.329.32-.328 2.373.011 4.746.009 7.12.002.215-.001.295.04.294.278-.009 2.397-.007 4.795-.001 7.193 0 .203-.05.267-.263.267a958.033 958.033 0 0 0-7.193.002c-.241.001-.277-.082-.275-.295.01-1.198.005-2.397.004-3.596Zm-21.684 12.92c-3.129-.108-5.78-.205-8.433-.282-.361-.011-.487-.095-.484-.489.022-2.36.019-4.721.004-7.082-.002-.307.102-.351.37-.35 4.135.019 8.269.029 12.403.039.22 0 .441-.005.657-.04.18-.029.327-.163.329-.346.003-.202-.149-.331-.346-.368-.143-.026-.292-.023-.438-.023-1.957.001-3.913-.029-5.85-.352-1.488-.249-2.932-.64-4.27-1.36-2.13-1.145-3.466-2.878-3.916-5.276-.4-2.129-.156-4.137 1.1-5.953 1.021-1.477 2.409-2.515 4.023-3.258a14.363 14.363 0 0 1 5.842-1.337c1.712-.025 3.426-.044 5.136.016 2.772.098 5.541.265 8.312.402.733.036 1.465.082 2.198.101.224.006.286.066.285.292a805.1 805.1 0 0 0 .003 7.339c.002.303-.138.292-.351.291-4.22-.019-8.44-.033-12.659-.046-.157 0-.318.017-.47.057a.343.343 0 0 0-.27.312c-.014.172.095.27.234.338.146.072.304.078.464.085 2.198.097 4.393.238 6.558.658 1.55.301 3.065.715 4.44 1.529 1.561.922 2.596 2.242 3 4.019.44 1.937.478 3.852-.419 5.691-.825 1.693-2.167 2.873-3.8 3.741-2.456 1.304-5.111 1.752-7.857 1.742-2.09-.008-4.181-.064-5.795-.09Zm-29.9-14.42c1.305-3.807 2.573-7.497 3.828-11.192.092-.27.215-.34.49-.339 4.65.01 9.298.01 13.947-.001.315 0 .412.065.411.397-.009 8.282-.008 16.565.002 24.847 0 .328-.093.401-.412.4a1523.21 1523.21 0 0 0-10.9.003c-.316.001-.38-.095-.378-.391.01-3.401.008-6.802.009-10.203 0-.181 0-.362-.077-.556-.23.68-.462 1.36-.689 2.041-.976 2.925-1.955 5.85-2.919 8.779-.085.259-.197.328-.46.326a409.543 409.543 0 0 0-5.653 0c-.276.002-.404-.073-.494-.343-1.099-3.321-2.21-6.638-3.319-9.956-.1-.297-.2-.594-.37-.889v.405c.001 3.474-.002 6.949.01 10.423 0 .287-.07.361-.36.36-3.67-.011-7.34-.01-11.01-.001-.256.001-.321-.061-.321-.318.007-8.331.008-16.663-.002-24.994 0-.297.102-.328.355-.328 4.674.007 9.347.008 14.02-.003.275 0 .375.1.457.341 1.026 3.012 2.06 6.021 3.093 9.03l.742 2.162Z" fill="#fff" stroke="#fff" stroke-width=".2" stroke-miterlimit="22.926"/><path d="M88.942 70.371c1.248.055 2.444.086 3.637.17.435.03.767-.077 1.1-.349.66-.54 1.347-1.045 2.097-1.622-.458-.03-.838-.059-1.219-.077-2.308-.11-4.617-.222-6.926-.319-.37-.015-.695-.112-.978-.34-.737-.593-1.537-.797-2.506-.694-1.639.176-3.293.209-4.941.3a.653.653 0 0 1-.293-.041l2.775-.886c.243-.077.5-.124.731-.227.903-.403 1.847-.372 2.804-.333 1.515.063 3.032.086 4.548.128a.41.41 0 0 0 .327-.12c.795-.777 1.596-1.548 2.4-2.325-.1-.13-.233-.07-.343-.076-2.563-.15-5.126-.296-7.69-.445a1.217 1.217 0 0 0-.504.06L73.284 67.09l-.184.072c.14.097.244.171.35.242 3.475 2.361 6.93 4.757 10.436 7.07 2.128 1.404 2.45 4.86.756 6.504-.569.552-1.28.892-1.971 1.249-1.118.575-2.255 1.113-3.384 1.666-.12.058-.243.122-.436.035.976-1.115 2.026-2.145 2.961-3.375l-10.239-1.278-.002-.05c.77-.102 1.54-.204 2.309-.304 2.822-.369 5.644-.738 8.467-1.103.43-.056.398-.442.51-.708.099-.232-.041-.425-.257-.542-.533-.29-1.126-.329-1.708-.354-2.138-.092-4.277-.16-6.416-.237l-9.534-.338c-1.345-.048-2.69-.1-4.034-.132-.273-.007-.401-.107-.497-.36-.767-2.039-1.647-4.023-2.923-5.808-.913-1.277-1.962-2.436-3.073-3.54-.092-.092-.191-.176-.338-.31.46 0 .832-.012 1.204.002 5.304.194 10.607.391 15.911.588.635.024 1.174-.298 1.744-.497 3.776-1.314 7.547-2.643 11.32-3.97.199-.07.398-.098.61-.087 3.42.171 6.839.342 10.259.503.232.011.267.095.287.304.046.495-.092.856-.491 1.195-.875.744-1.698 1.549-2.54 2.332-.085.08-.204.136-.245.293.72.087 1.427.21 2.112.432 1.607.523 3.025 1.357 4.215 2.568.157.16.184.27.046.457-.202.275-.367.577-.555.862-.127.191-.15.292.144.28.452-.018.906.004 1.358-.01.184-.005.29.064.383.213a17.554 17.554 0 0 1 1.386 2.74c.075.185.039.32-.061.475-.318.488-.625.984-.972 1.535.509 0 .955.01 1.401-.004.217-.007.323.05.381.278.284 1.128.477 2.269.569 3.428a.875.875 0 0 1-.145.585c-.353.54-.687 1.09-1.062 1.688.35.02.647.045.944.05.2.004.274.07.259.283-.07.976-.16 1.949-.3 2.917a.989.989 0 0 1-.242.52c-.456.533-.9 1.078-1.414 1.697.384 0 .672.004.96 0 .165-.003.202.037.154.215-.206.766-.401 1.552-.798 2.23-.366.624-.906 1.147-1.37 1.715l-.172.207.542.049a10.546 10.546 0 0 1-2.105 2.552c-1.306 1.16-2.793 1.974-4.536 2.226-.786.114-1.588.018-2.382.018-1.858.002-3.716 0-5.588-.047.488-.42.985-.798 1.45-1.215.065-.058.212-.032.32-.031 1.823.003 3.646.006 5.469.016.225.001.43-.042.637-.129 1.215-.51 2.433-1.011 3.65-1.586H88.41c-.053-.181.043-.24.092-.316.232-.359.53-.69.686-1.08.264-.656.703-.787 1.36-.745 1.049.067 2.104.022 3.156.041a2.85 2.85 0 0 0 1.035-.173c1.524-.547 3.051-1.083 4.574-1.707h-8.809c.215-.668.412-1.254.59-1.845.217-.716.21-.722.944-.71 1.346.02 2.691.046 4.036.07.147.003.29.007.429-.061 1.313-.646 2.627-1.29 3.936-2.01l-8.721-.19c.122-1.008.217-1.999.211-2.995 0-.258.203-.163.323-.16 1.248.019 2.495.044 3.742.077a1.02 1.02 0 0 0 .582-.156c1.276-.77 2.558-1.53 3.835-2.298.108-.066.242-.105.332-.259-1.266-.034-2.507-.066-3.748-.102-1.638-.047-3.276-.094-4.914-.147-.127-.004-.303.07-.335-.17a25.675 25.675 0 0 0-.583-2.931c.583 0 1.144-.01 1.704.002.892.021 1.784.058 2.676.089a.578.578 0 0 0 .348-.078c1.18-.737 2.364-1.47 3.546-2.205.026-.016.041-.05.086-.106-1.236-.054-2.439-.11-3.642-.16-1.808-.077-3.617-.15-5.425-.226-.117-.005-.233.01-.308-.136-.383-.749-.778-1.492-1.206-2.309ZM43.377 90.98c1.71 0 3.422-.008 5.133.003 2.165.012 4.33.039 6.495.064.089 0 .216-.059.264.05.043.1-.07.171-.123.248-.371.53-.754 1.053-1.115 1.59-.136.204-.284.281-.536.28-3.72-.028-7.438-.04-11.157-.065a.827.827 0 0 0-.564.194c-.666.534-1.343 1.053-2.003 1.655H51.44l.02.102c-.332.15-.675.28-.995.452-1.232.666-2.525.878-3.936.838-3.668-.106-7.338-.093-11.008-.129-.08 0-.16-.01-.26-.072.244-.121.485-.249.732-.364 3.286-1.532 5.41-4.096 6.608-7.47.998-2.81 1.57-5.704 1.52-8.688-.056-3.36-1.104-6.426-2.975-9.21a19.562 19.562 0 0 0-4.493-4.742c-.218-.164-.374-.169-.613-.029-5.276 3.094-10.558 6.178-15.84 9.264-.083.049-.17.093-.26.143-.12-.222.057-.286.178-.37 1.437-.994 2.875-1.986 4.313-2.979 3.428-2.366 6.858-4.731 10.282-7.103a.988.988 0 0 1 .644-.193c3.323.143 6.646.279 9.97.416 1.196.05 2.393.103 3.59.15.204.007.374.076.549.175 1.093.619 2.192 1.228 3.392 1.9-.277 0-.45.006-.622-.002-2.626-.126-5.252-.25-7.878-.387-.254-.013-.43.038-.602.24-.534.629-1.09 1.239-1.696 1.92 1.142.05 2.198.099 3.254.143l9.347.388c.143.006.278 0 .367.171.392.76.802 1.51 1.203 2.265.016.028.007.07.01.097-.442 0-.878.016-1.313-.002-2.431-.1-4.862-.205-7.293-.315a.378.378 0 0 0-.323.122c-.788.818-1.578 1.632-2.367 2.446.081.147.206.093.302.096 3.618.114 7.237.224 10.855.335.33.01.66.04.99.035.21-.003.29.068.334.28.189.908.388 1.814.612 2.714.076.302-.032.314-.277.306-2.995-.097-5.99-.181-8.985-.283-.31-.01-.512.068-.708.322-.587.762-1.207 1.5-1.817 2.249.122.122.25.069.362.071 3.73.085 7.46.17 11.19.238.359.007.455.099.407.456-.114.86-.202 1.723-.273 2.588-.02.254-.09.32-.344.313-2.727-.07-5.454-.13-8.18-.19-.698-.015-1.395-.024-2.092-.031-.103-.001-.218-.038-.297.082-.518.78-1.038 1.557-1.617 2.425.644 0 1.202-.008 1.76 0 3.363.054 6.726.115 10.09.159.336.004.329.095.21.35-.32.687-.623 1.38-.918 2.077-.08.19-.169.273-.393.27-3.437-.043-6.874-.066-10.31-.12-.456-.008-.778.101-1.077.449-.45.524-.953 1.005-1.433 1.504l.042.11Zm14.992-74.758c-1.242-3.296-3.084-6.079-5.854-8.202-.078-.06-.282-.078-.193-.234.087-.155.149-.36.4-.374.289-.015.55.041.804.182.204.113.42.241.561-.095.047-.111.167-.082.262-.082.44-.002.88 0 1.348 0-.063.273-.268.461-.37.725.555.157 1.113.212 1.664.301.151.025.235-.055.279-.179.265-.753.804-.983 1.56-.854.237.04.488.006.799.006-.216.362-.403.695-.61 1.015-.117.183-.063.22.126.232.488.032.976.071 1.462.122.156.016.26-.019.33-.158.023-.044.052-.083.078-.125.748-1.223.818-1.256 2.323-1.048-.156.258-.305.506-.456.753l-.464.758 1.745.236c.162.021.202-.114.264-.213.234-.372.47-.744.692-1.123.091-.156.175-.224.376-.181.452.097.912.157 1.428.242-.271.438-.507.843-.769 1.232-.162.24-.23.376.16.42.399.044.792.149 1.182.246.19.047.293-.013.387-.172.219-.367.456-.724.674-1.092.105-.178.214-.267.437-.192.276.094.563.162.85.22.238.049.225.136.107.313-.277.416-.535.845-.814 1.291.526.176 1.033.343 1.539.514.149.05.194-.066.25-.154.224-.35.46-.695.659-1.059.129-.236.266-.267.493-.15.238.121.491.213.737.32.405.173.404.172.155.557-.192.298-.373.603-.575.895-.115.166-.124.254.09.342.373.151.738.323 1.094.509.187.098.275.047.374-.118.22-.367.465-.719.682-1.087.097-.163.19-.186.347-.09.28.17.705.265.813.507.105.234-.279.518-.423.793-.124.236-.433.458-.364.681.057.182.402.28.627.402.254.137.505.46.746.384.208-.066.32-.433.477-.666.156-.233.282-.614.48-.657.234-.051.484.266.719.435.525.378.524.38.172.923-.06.092-.124.181-.182.275-.128.206-.35.413-.352.622-.003.203.306.315.486.454.185.143.064.217-.035.295-.987.771-1.977 1.538-2.963 2.311-.065.051-.103.137-.17.23-1.12-1.7-2.216-3.345-3.289-5.005-.17-.264-.318-.301-.606-.211-3.206.999-6.35 2.148-9.336 3.702-.16.083-.318.173-.544.297 3.799 1.09 7.511 2.23 11.104 3.76-.05.24-.24.378-.382.543-.547.635-.743 1.42-.975 2.196-.318 1.063-.933 1.913-1.917 2.458-.661.365-1.117.09-1.368-.507-.392-.934-.476-1.893-.005-2.852.16-.326.252-.692.335-1.049.1-.432-.205-.666-.519-.854-.391-.235-.82-.407-1.273-.454-.456-.047-.83.137-1.127.511-.422.532-.553 1.134-.697 1.79-.165.743-.427 1.524-.937 2.147-.419.511-1.052.392-1.295-.235-.226-.583-.688-.886-1.21-1.158-.453-.236-.879-.518-1.382-.647-.73-.187-1.438-.238-2.181.018-.326.113-.731.02-1.102.05-.88.072-1.772.21-2.626-.138-.483-.196-.968-.374-1.33-.812a2.562 2.562 0 0 0-1.133-.797c-.241-.083-.347-.326-.557-.446-.674-.384-1.31-.252-1.929.13-.195.12-.388.22-.448.502-.05.238-.065.443.038.657.298.616.117 1.038-.54 1.254-.581.192-.585.194-.87-.37-.426-.846-.544-1.735-.385-2.67.046-.274.025-.562.016-.842-.036-1.122.288-2.175.582-3.237.047-.17.151-.133.243-.145 2.28-.283 4.555-.351 6.83.06 1.38.249 2.743.568 4.17.916ZM32.09 41.59c-.518.906-.974 1.796-1.21 2.777-.168.705-.274 1.415-.06 2.135.105.353.27.658.607.83.136.07.149.125.07.247-.81 1.267-1.654 2.508-2.727 3.577-.26.26-.512.32-.842.163-.228-.108-.473-.178-.81-.302.511.817.951 1.57 1.44 2.289.86 1.265 1.676 2.554 2.276 3.966.534 1.259 1.013 2.538 1.2 3.907.187 1.363-.258 2.468-1.307 3.348-.705.591-1.492 1.064-2.239 1.593-.549.39-1.1.777-1.581 1.246-.381.371-.78.401-1.235.168-.859-.441-1.495-1.13-2.083-1.87-.67-.846-1.18-1.795-1.706-2.732a65.276 65.276 0 0 1-2.438-4.766l4.644 5.158c-.017-.277-.153-.436-.231-.616-.059-.134-.112-.273-.188-.397-.884-1.464-.465-2.404.69-3.392.053-.045.128-.075.121-.169-.886.051-1.629.456-2.35.996-.161-.826-.325-1.61-.57-2.371a9.887 9.887 0 0 0-.298-.788c-.184-.441-.452-.785-.926-.977-1.706-.693-2.45-2.191-3.08-3.77a4.116 4.116 0 0 1-.294-1.683c.01-.272.098-.476.329-.65 2.294-1.727 4.644-3.378 6.987-5.037.917-.648 1.798-1.35 2.81-1.855 1.537-.768 3.527-1.186 5-1.026Z" fill="#FEFEFE"/><path d="M52.45 63.706c.567-.307 1.053-.58 1.549-.834a.52.52 0 0 0 .307-.41c.095-.54.203-1.079.31-1.617.037-.187.013-.274-.22-.286a3350.26 3350.26 0 0 1-16.994-.887.833.833 0 0 0-.574.17c-.73.532-1.47 1.05-2.295 1.636.313-.764.632-1.42.851-2.108.271-.849.774-1.425 1.56-1.855 1.037-.568 2.017-1.24 3.012-1.881a.799.799 0 0 1 .512-.136c2.61.166 5.22.334 7.83.495 2.55.158 5.1.305 7.65.462 2.61.16 5.22.327 7.83.49.562.035 1.123.073 1.685.094.184.007.277.071.351.244.963 2.241 1.934 4.478 2.902 6.716.067.156.225.335-.15.32-5.302-.2-10.605-.39-15.908-.584-.036 0-.072-.01-.208-.029Zm-2.584-14.823c-.715-1.116-.6-2.216-.072-3.307.478-.987 1.28-1.68 2.186-2.265l.892-.577a16.685 16.685 0 0 0-2.642-.892c-2.16-.553-4.35-.794-6.573-.505-2.427.316-4.733.965-6.671 2.561-.122.1-.238.21-.4.352a5.206 5.206 0 0 1 .097-1.755c.406-1.793 1.526-3.085 2.988-4.104 1.764-1.229 3.765-1.555 5.865-1.433 1.312.075 2.595.3 3.796.864 1.893.889 3.167 2.286 3.562 4.393.014.072.019.146.027.218l.027.253c1.038-.671 2.041-1.317 3.042-1.968 1.401-.912 2.802-1.826 4.2-2.745.497-.327 1.054-.567 1.615-.657.921-.147 1.923.597 2.28 1.56.386 1.039.357 2.32-.88 3.3-3.42 2.706-6.83 5.423-10.29 8.08-.55.421-.835.438-1.356.071.196-.253.465-.425.705-.627 2.835-2.38 5.671-4.758 8.513-7.13.196-.164.173-.246-.028-.355a.593.593 0 0 1-.225-.184c-.222-.366-.428-.326-.763-.09-3.281 2.32-6.577 4.619-9.895 6.942ZM17.058 94.215c.53-.433 1.11-.414 1.61.041.567.514.785 1.19.86 1.926.01.108.014.217.022.341l4.916-1.21c.123-.03.231-.044.203-.223-.1-.632-.297-1.21-.82-1.626a1.186 1.186 0 0 0-.827-.256c.473-.602 1.333-.558 1.873.075.402.47.612 1.025.663 1.636.022.25.071.324.354.241a247.31 247.31 0 0 0 4.203-1.262c.249-.078.332-.183.268-.437-.194-.777-.495-1.462-1.343-1.726.379-.405.96-.444 1.461-.075.541.398.813.966.922 1.61.048.286.105.386.432.278.812-.268 1.625-.524 2.363-.97.232-.141.325-.225.079-.49-2.081-2.238-3.36-4.893-3.967-7.874-.74-3.632-.277-7.164.943-10.626.03-.084.074-.162.112-.241-.32 4.269-.658 8.533 1.13 12.601.29-.842 1.027-.903 1.703-1.069.608-.149.61-.157.894.381.994 1.887 2.126 3.68 3.548 5.279.16.18.129.302.009.472-.454.64-1.048 1.122-1.705 1.533-1.837 1.15-3.86 1.868-5.913 2.504-3.793 1.175-7.671 1.985-11.58 2.66a96.637 96.637 0 0 1-5.797.847 5.212 5.212 0 0 1-1.46-.021c-.822-.14-1.373-.584-1.66-1.367-.147-.402-.24-.815-.336-1.239.034.01.063.009.07.021.84 1.34 2.153 1.533 3.564 1.445 1.518-.096 2.99-.444 4.451-.844.101-.027.204-.021.227-.18.12-.834-.615-1.94-1.472-2.155Zm31.909-67.557c-.329.037-.442.237-.584.394-1.498 1.667-2.685 3.527-3.506 5.618-.177.45-.5.808-.876 1.104-.508.401-.837.281-1.01-.346-.023-.081-.039-.165-.064-.274-.146.152-.154.34-.212.505a8.38 8.38 0 0 1-.208.527c-.146.342-.318.672-.582.936-.406.409-.834.39-1.152-.087-.315-.472-.39-.977-.208-1.56.314-1.002.69-1.972 1.156-2.91.57-1.152 1.445-2.113 2.053-3.242.131-.245.278-.477.379-.742.254-.668.717-1.186 1.298-1.594.642-.45 1.349-.349 2.039-.172.193.05.248-.003.353-.116.493-.53 1.053-.89 1.835-.762.289.047.556.097.736.338.22.297.582.478.717.876.103-.157.2-.311.303-.462.4-.587.834-.702 1.459-.39.886.441.951.56.468 1.423a38.986 38.986 0 0 1-1.592 2.572c-.339.508-.666 1.018-.91 1.577-.473 1.088-1.057 2.125-1.486 3.235a4.107 4.107 0 0 1-.924 1.436c-.488.482-1.15.657-1.847.642-1.143-.026-1.166-.13-.898-1.2.303-1.214.566-2.445 1.154-3.552.61-1.146 1.18-2.318 1.897-3.406.066-.1.12-.207.212-.368Z" fill="#FEFEFE"/><path d="M46.465 44.353c-.217.672-.426 1.331-.646 1.987a4.65 4.65 0 0 0-.259 1.32c-.073 2.052-.178 4.103-.256 6.155-.01.254-.09.293-.317.281-1.465-.08-2.93-.146-4.394-.222a.869.869 0 0 0-.519.132c-.709.428-1.424.845-2.23 1.322.328-.657.593-1.238.902-1.795.348-.628.556-1.266.576-2.004.044-1.66.169-3.317.266-5.058l-6.96 3.453-.03-.054 3.312-2.832c1.179-1.008 2.358-2.015 3.534-3.026.126-.108.242-.18.422-.166 2.132.166 4.264.323 6.395.483.06.004.12.014.204.024ZM22.344 66.448l-2.39-1.142c.165.232.276.39.39.545.145.197.284.399.335.644.052.247.016.424-.25.567-1.065.569-1.526 1.738-1.165 2.947.415-.653.923-1.18 1.56-1.574.908-.562.907-.563 1.403.35.064.118.122.24.184.358.274.527.273.527-.157.957-.465.466-.982.838-1.645.97a1.962 1.962 0 0 1-1.74-.482c-2.605-2.328-4.763-4.977-5.74-8.415-.3-1.053-.342-2.12.14-3.151.03-.064.04-.146.15-.177.695 2.591 1.591 5.09 3.45 7.127-.07-.206-.143-.412-.212-.618-.357-1.084-.294-2.138.22-3.163.222-.443.076-.702-.407-.74-.7-.057-.704-.056-.84-.762-.17-.886-.384-1.767-.422-2.674-.022-.534.1-1.04.336-1.573 2.236 3.37 4.57 6.635 6.8 10.006Zm47.641-3.913c-.298-1.947-.915-3.715-2.13-5.236-.885-1.109-2.002-1.89-3.363-2.3-.26-.079-.367-.202-.41-.465a16.561 16.561 0 0 0-.317-1.54c-.062-.24-.003-.321.224-.377 1.072-.26 2.132-.18 3.187.089 1.37.349 2.615.951 3.628 1.955 2.06 2.04 2.11 4.185.587 6.508-.357.544-.789 1.02-1.406 1.366ZM57.25 27.05c.073.62-.144 1.265-.57 1.866-.684.963-1.067 2.114-1.846 3.018-.876 1.015-1.794 1.995-2.8 2.881-.315.277-.678.544-1.117.666-.32.089-.563.02-.748-.224-.268-.353-.368-.72-.178-1.18 1.108-2.663 2.442-5.202 4.12-7.552.338-.473.78-.872 1.173-1.306.217-.24.465-.255.758-.147.898.332 1.227.828 1.207 1.978Zm-2.131 9.02c-.13-1.15.245-2.154.787-3.103.84-1.473 1.806-2.86 3.064-4.012.49-.45 1.024-.867 1.702-1.024.513-.118 1.075.014 1.074.815-.001.841-.179 1.622-.638 2.332-.827 1.277-1.548 2.617-2.324 3.923-.585.984-1.276 1.896-2.142 2.668-.382.34-.909.269-1.163-.224-.225-.439-.376-.898-.36-1.376Zm6.284 19.052c-1.379-.075-2.758-.158-4.137-.22-.276-.012-.309-.11-.282-.354.22-2.052.432-4.106.633-6.16a.566.566 0 0 1 .25-.448 55.32 55.32 0 0 0 1.69-1.288c.164-.13.258-.107.4.012.72.596 1.048 1.404 1.191 2.287.245 1.505.448 3.018.667 4.528.063.435.101.874.188 1.304.058.29.016.42-.307.355-.094-.019-.195-.003-.293-.003v-.013Zm13.47-25.604c-.246.02-.45-.087-.62-.238a4.432 4.432 0 0 0-1.676-.93c-.615-.185-1.144-1.14-.857-1.825.036-.086.056-.162.158-.167 1.225-.066 2.16-.776 3.128-1.411.739-.485 1.498-.933 2.375-1.122.877-.19 1.686.01 2.447.463.124.074.139.176.112.278-.286 1.128-.544 2.267-1.269 3.221-.205.271-.535.358-.81.518-.844.489-1.755.835-2.672 1.164-.109.04-.211.036-.316.05Zm2.014 55.088-1.814 1.398c-.106.081-.232.061-.353.06-4.929-.034-9.857-.07-14.785-.098-.24-.002-.318-.05-.256-.3.09-.355.168-.716.205-1.079.027-.27.13-.338.392-.332 1.638.038 3.277.058 4.915.084l11.114.175c.188.003.376 0 .564 0l.018.092ZM28.606 90.4c-.837-.47-1.682-.947-2.533-1.415-.14-.077-.134-.186-.134-.308-.006-2.43-.011-4.862-.021-7.293-.001-.163.03-.257.204-.32a94.292 94.292 0 0 0 2.288-.862c.212-.083.276-.044.275.189-.005 3.261-.003 6.523-.005 9.785 0 .07.02.148-.074.224ZM71.209 7.432h3.307c.005.017.025.045.017.059-.275.49-.28.502.237.717.344.143.708.51 1.013.393.277-.106.44-.555.614-.875.136-.251.305-.322.581-.317 1.015.018 2.03.015 3.044.001.23-.003.348.072.442.277.181.398.39.783.6 1.197.307-.38.614-.724.879-1.098.213-.301.466-.432.83-.374.142.023.291.004.453.004-.217 1.703-.907 3.172-1.987 4.469-.21.251-.417.505-.623.759-.073.09-.125.174-.245.034-1.665-1.951-3.935-2.954-6.21-3.948-.966-.422-1.929-.848-2.952-1.298ZM22.21 92.005c-.893-.462-1.746-.905-2.603-1.342-.125-.064-.123-.164-.122-.277 0-2.19.002-4.38-.002-6.57 0-.141.033-.22.172-.272.843-.315 1.683-.637 2.556-.969v9.43ZM55.8 49.596c-.106.719-.213 1.449-.325 2.178-.079.518-.177 1.034-.243 1.554-.026.209-.113.255-.304.241-1.522-.108-3.045-.209-4.567-.313-.865-.059-1.73-.132-2.596-.172-.253-.012-.295-.097-.282-.324.11-1.816.21-3.633.315-5.45.006-.096-.044-.229.131-.25.2-.025.175.132.192.237.16.964.465 1.873 1.047 2.666.799 1.09 1.835 1.768 3.235 1.634 1.073-.103 1.936-.688 2.723-1.39.224-.199.445-.402.675-.611ZM16.363 84.792v8.554c-.261-.062-.454-.233-.666-.36-.556-.33-1.104-.675-1.662-1.002-.167-.098-.232-.21-.231-.407.008-1.847.004-3.694.005-5.54 0-.128-.028-.257.152-.324.786-.292 1.567-.6 2.402-.921Zm20.002-6.162c.056-.924.655-1.62 1.517-1.778 1.58-.29 2.753.61 2.987 2.334a5.443 5.443 0 0 1-.382 2.906c-.08.188-.179.286-.396.298-.232.013-.46.031-.692-.01-.717-.126-.83-.249-.765-.955.069-.734.094-1.463-.086-2.185a2.407 2.407 0 0 0-.155-.447c-.317-.67-.898-.856-1.543-.492-.167.094-.319.215-.485.33ZM53.03 12.106c-.636-.984-1.55-1.575-2.416-2.229.15-.21.297-.424.455-.632.134-.175.259-.266.504-.102.731.487 1.344 1.093 1.891 1.77.693.859 1.263 1.794 1.774 2.814-2.361-.701-4.737-.466-7.12-.373.1-.43.414-.738.61-1.11.101-.188.282-.103.43-.095 1.268.073 2.534.039 3.871-.043Z" fill="#FEFEFE"/><path d="M18.297 72.84c-.706.284-1.29.56-1.94.64-1.32.165-2.451-.982-2.766-2.067a5.255 5.255 0 0 1-.196-1.52c.005-.55 0-1.098.037-1.66.355.422.583.91.81 1.396.23.496.44 1.002.68 1.553l.527-.876c.777 1.022 1.446 2.121 2.848 2.534Z" fill="#FDFDFD"/><path d="m66.156 16.15 3.662-1.319c.252-.09.51-.168.754-.278.225-.102.34-.04.455.17.632 1.141 1.174 2.326 1.766 3.56-2.17-.833-4.354-1.44-6.637-2.134Z" fill="#FEFEFE"/><path d="M9.477 90.619c.098.125.14.182.186.234.371.419.764.41 1.099-.04.354-.475.462-1.044.544-1.612.078-.544.135-1.094.032-1.642-.03-.16.04-.213.17-.264.797-.303.877-.246.907.613.04 1.14-.113 2.242-.602 3.281-.216.46-.513.864-.95 1.136-.511.319-.918.182-1.147-.37-.166-.4-.227-.82-.24-1.336Z" fill="#FDFDFD"/><path d="M21.787 94.323c-.339-.432-.741-.683-1.31-.595.315-.44 1.08-.478 1.53-.123.082.065.144.123.067.24-.1.149-.186.307-.287.478Z" fill="#F5F5F5"/><path d="M15.664 95.355c-.301-.34-.628-.596-1.103-.596.392-.312.873-.335 1.26-.086.113.073.16.133.079.26-.083.127-.15.265-.236.422Z" fill="#F3F3F3"/><path d="M26.484 92.265c.37-.28.726-.294 1.104-.178.23.07.326.176.143.402-.081.1-.127.23-.208.382-.283-.307-.573-.576-1.039-.606Z" fill="#F6F6F6"/><path d="m80.87 12.078-.122-.102c-.333-.285-.661-.576-1.001-.852-.116-.095-.103-.163-.029-.271.191-.282.378-.568.554-.86.087-.143.161-.11.256-.02l.959.9c.075.071.123.142.048.252-.191.283-.372.572-.56.856-.025.037-.067.063-.104.097Z" fill="#1C1C1C"/><path d="M70.691 16.734c-.68-.185-1.298-.352-1.916-.522-.031-.008-.058-.036-.134-.085.496-.18.956-.34 1.41-.516.145-.056.167.033.205.122l.435 1.001Z" fill="#1E1E1E"/><path d="M26.103 58.394c.988.682 1.947 1.38 2.68 2.33.362.469.655.97.741 1.57.026.18.002.278-.2.353-1.783.66-3.176 1.789-4.109 3.462-.016.029-.043.052-.07.083-.42-1.336.128-2.805 1.375-3.69.208-.148.418-.315.653-.397.337-.116.397-.324.372-.64-.045-.576-.266-1.089-.54-1.58-.284-.506-.6-.994-.902-1.49ZM63.305 39.96c-.003.504-.109.911-.529 1.148-.424.24-.828.096-1.207-.131-.612-.368-.99-1.24-.844-1.93.09-.426.328-.742.76-.846.518-.124.973.04 1.313.44.33.39.523.848.507 1.319Z" fill="#1C1C1C"/></svg>