<svg width="152" height="139" fill="none" xmlns="http://www.w3.org/2000/svg"><g filter="url(#a)"><path d="M128.675 24.928c-2.762-.045-5.827-1.624-8.6-2.116-7.483-1.394-12.592 2.306-21.775-1.993-9.083-4.506-13.01 11.14-21.647 9.309-8.585-1.898-13.332-6.74-26.092-6.443-6.303.476-17.627-1.668-26.409-2.536-3.575-.358-5.587 3.627-2.943 5.833 4.853 4.041 10.199 9.88 10.342 16.054.217 11.542-7.957 23.812-4.48 29.113 3.486 5.647 7.685 3.643 8.029-1.662.321-5.374-3.008-20.935-.652-27.417 2.336-6.611 7.644-6.292 9.398-.146 1.776 6.247-3.738 16.76-1.16 20.303 2.61 3.683 6.472 1.22 6.61-1.976.125-3.191-3.335-10.904-1.369-15.982 1.945-5.099 8.136-3.57 9.186 3.992.93 7.4 4.146 34.677-1.78 52.958-6.16 17.876 4.18 18.982 8.708 14.668 4.372-4.139-1.398-21.077-.907-38.215.347-17.203-.695-31.813 5.215-31.69 5.928.079 5.505 3.096 5.493 9.248-.019 6.14-.71 13.792 4.715 10.154 2.606-1.752-.111-19.273 1.467-21.434 1.22-1.662 2.43-.392 3.407 5.945.98 6.33 1.66 16.714 4.451 16.54 2.78-.184 1.585-11.939 3.814-14.855 2.213-2.91 3.674 8.452 5.031 13.227 1.357 4.77 1.51-4.741 5.01-7.092 3.497-2.362 5.258 27.015 8.397 25.602 3.133-1.426 5.105-48.642 7.128-51.39 2.543-3.449 4.446-.532 6.2-2.878 1.756-2.311 4.328-1.746 5.983-2.502 1.659-.744 3.954-2.547-.77-2.62Z" fill="#27E7DB"/><path d="M30.206 66.31c.475 1.58 2.267 2.105 3.009 1.417 2.992 2.67-1.467 6.767-4.464 4.092-1.14-2.29-.172-4.663 1.455-5.508Zm64.031-40.039s-2.861-.767-5.934 2.972c-3.073 3.734-7.74 6.135-12.56 4.602l-4.818-1.534s-6.57-3.045-9.22-2.054c-2.648.996 4.346 2.625 6.359 6.27 2.013 3.643 6.04 1.342 6.781 5.652.742 4.316 4.345-1.421 4.345-3.392 0-1.976 1.271-2.647 1.271-2.647s2.65-3.392 4.345 4.774c1.695 8.167 7.31 2.514 7.31-4.293s-1.376-6.807 5.406-5.463c6.781 1.343 3.602-3.353 9.324-3.353 5.722 0 7.471 2.25 10.173-.19 2.702-2.447-17.855-5.8-22.782-1.344Z" fill="#fff"/><path d="M29.666 26.372c.797 2.424 2.832 4.293 5.661 4.707 1.877.275 3.342-.408 5.125-.817 3.305-.767 4.077.935 6.339 2.34 3.156 1.959 5.706-.744 9.083-.129 3.318.605 6.16 2.39 9.601 1.282 1.149-.37.654-2.038-.506-1.662-3.26 1.052-6.244-1.042-9.43-1.422-1.031-.123-1.994-.1-3 .129-.611.14-1.173.509-1.786.627-1.394.274-2.577-.14-3.75-.913-1.722-1.125-2.692-2.368-5.027-2.284-1.344.045-2.544.593-3.823.901-2.983.717-5.739-.453-6.648-3.218-.35-1.064-2.191-.61-1.84.459Zm27.575 84.839c.475 1.581 2.267 2.107 3.009 1.416 2.993 2.669-1.467 6.767-4.464 4.095-1.14-2.291-.172-4.667 1.455-5.511Z" fill="#fff"/></g><defs><filter id="a" x="0" y="0" width="151.486" height="139" filterUnits="userSpaceOnUse" color-interpolation-filters="sRGB"><feFlood flood-opacity="0" result="BackgroundImageFix"/><feColorMatrix in="SourceAlpha" values="0 0 0 0 0 0 0 0 0 0 0 0 0 0 0 0 0 0 127 0" result="hardAlpha"/><feOffset/><feGaussianBlur stdDeviation="10"/><feComposite in2="hardAlpha" operator="out"/><feColorMatrix values="0 0 0 0 0.504125 0 0 0 0 0.879167 0 0 0 0 0.238108 0 0 0 1 0"/><feBlend in2="BackgroundImageFix" result="effect1_dropShadow_344_152"/><feBlend in="SourceGraphic" in2="effect1_dropShadow_344_152" result="shape"/></filter></defs></svg>