<svg width="104" height="217" fill="none" xmlns="http://www.w3.org/2000/svg"><g filter="url(#a)" fill="#81E03D"><path d="M50.623 43.111s-.971 1.621-2.24 9.179c-1.269 7.56 3.968 21.597 0 22.947-3.969 1.349-4.106 2.43-5.387 8.91-1.281 6.48 2.9 9.987 0 15.926-2.901 5.94-3.71 9.92-2.361 18.728 1.35 8.81-1.744 27.166 2.368 28.787 4.111 1.621-2.908 20.246-1.018 26.186 1.89 5.939 6.98 2.292 7.11 0 .367-6.48-2.52-23.353-2.52-24.703 0 0 .742 2.632 2.564.812 1.822-1.825 1.484-6.211 1.484-6.211s.878 2.228 2.295.812c1.418-1.419.405-5.131 1.215-7.02.81-1.889 2.97-.809 2.97 3.104 0 3.916-1.581 13.164-1.215 15.524 1.06 6.824 5.528 2.739 5.528-.231 0-2.97-3.031-17.924-2.153-18.803 0 0 1.889 1.755 1.889-1.078 0-2.835.135-6.346.135-6.346s2.16-1.348 2.16-6.074c0-4.724 1.106-18.952-1.215-21.273-2.321-2.322-4.453-1.948-2.97-3.432 1.484-1.483 3.915-9.376 2.565-14.338s-3.085-10.916-5.264-14.005c-2.806-3.975 1.535-19.895 2.468-24.97 1.006-5.47-6.113-7.964-8.407-2.43Z"/><path d="M59.262 122.188c-1.603 0-2.904-4.263-2.904-9.523 0-5.259 1.3-9.522 2.904-9.522 1.603 0 2.903 4.263 2.903 9.522 0 5.26-1.3 9.523-2.903 9.523Zm-2.904-25.535c-1.603 0-2.903-4.263-2.903-9.522 0-5.26 1.3-9.523 2.903-9.523 1.604 0 2.904 4.264 2.904 9.523 0 5.26-1.3 9.522-2.904 9.522Zm-12.127 72.419c.45 1.659 2.15 2.21 2.855 1.484 2.84 2.8-1.391 7.099-4.235 4.295-1.083-2.4-.164-4.894 1.38-5.779Zm12.128-96.364a1.664 1.664 0 1 1-3.332 0 1.664 1.664 0 0 1 3.332 0Zm-2.037-6.191a.646.646 0 1 1-1.292-.001.646.646 0 0 1 1.292.001Zm1.607-14.779c0 1.454-.983 2.634-2.196 2.634-1.211 0-2.194-1.18-2.194-2.634s.983-2.634 2.194-2.634c1.213 0 2.196 1.18 2.196 2.634Zm.941-7.66c0 .52-.571.94-1.275.94-.703 0-1.274-.42-1.274-.94s.57-.94 1.274-.94c.704 0 1.275.42 1.275.94Z"/></g><path d="M50.623 43.111s-.971 1.621-2.24 9.179c-1.269 7.56 3.968 21.597 0 22.947-3.969 1.349-4.106 2.43-5.387 8.91-1.281 6.48 2.9 9.987 0 15.926-2.901 5.94-3.71 9.92-2.361 18.728 1.35 8.81-1.744 27.166 2.368 28.787 4.111 1.621-2.908 20.246-1.018 26.186 1.89 5.939 6.98 2.292 7.11 0 .367-6.48-2.52-23.353-2.52-24.703 0 0 .742 2.632 2.564.812 1.822-1.825 1.484-6.211 1.484-6.211s.878 2.228 2.295.812c1.418-1.419.405-5.131 1.215-7.02.81-1.889 2.97-.809 2.97 3.104 0 3.916-1.581 13.164-1.215 15.524 1.06 6.824 5.528 2.739 5.528-.231 0-2.97-3.031-17.924-2.153-18.803 0 0 1.889 1.755 1.889-1.078 0-2.835.135-6.346.135-6.346s2.16-1.348 2.16-6.074c0-4.724 1.106-18.952-1.215-21.273-2.321-2.322-4.453-1.948-2.97-3.432 1.484-1.483 3.915-9.376 2.565-14.338s-3.085-10.916-5.264-14.005c-2.806-3.975 1.535-19.895 2.468-24.97 1.006-5.47-6.113-7.964-8.407-2.43Z" fill="#27E7DB"/><path d="M59.262 122.188c-1.603 0-2.904-4.263-2.904-9.523 0-5.259 1.3-9.522 2.904-9.522 1.603 0 2.903 4.263 2.903 9.522 0 5.26-1.3 9.523-2.903 9.523Zm-2.904-25.535c-1.603 0-2.903-4.263-2.903-9.522 0-5.26 1.3-9.523 2.903-9.523 1.604 0 2.904 4.264 2.904 9.523 0 5.26-1.3 9.522-2.904 9.522Zm-12.127 72.419c.45 1.659 2.15 2.21 2.855 1.484 2.84 2.8-1.391 7.099-4.235 4.295-1.083-2.4-.164-4.894 1.38-5.779Zm12.128-96.364a1.664 1.664 0 1 1-3.332 0 1.664 1.664 0 0 1 3.332 0Zm-2.037-6.191a.646.646 0 1 1-1.292-.001.646.646 0 0 1 1.292.001Zm1.607-14.779c0 1.454-.983 2.634-2.196 2.634-1.211 0-2.194-1.18-2.194-2.634s.983-2.634 2.194-2.634c1.213 0 2.196 1.18 2.196 2.634Zm.941-7.66c0 .52-.571.94-1.275.94-.703 0-1.274-.42-1.274-.94s.57-.94 1.274-.94c.704 0 1.275.42 1.275.94Z" fill="#fff"/><defs><filter id="a" x="0" y="0" width="103.71" height="217" filterUnits="userSpaceOnUse" color-interpolation-filters="sRGB"><feFlood flood-opacity="0" result="BackgroundImageFix"/><feBlend in="SourceGraphic" in2="BackgroundImageFix" result="shape"/><feGaussianBlur stdDeviation="20" result="effect1_foregroundBlur_344_133"/></filter></defs></svg>