<svg width="98" height="128" fill="none" xmlns="http://www.w3.org/2000/svg"><g filter="url(#a)"><mask id="b" fill="#fff"><path fill-rule="evenodd" clip-rule="evenodd" d="M43.24 98.675c-.265.466-.397.997-.397 1.595 0 .532.165.931.496 1.197.396.266.826.398 1.289.398.528 0 .892-.199 1.09-.598.265-.398.397-.864.397-1.395 0-.532-.1-.997-.298-1.396-.132-.399-.198-.864-.198-1.395v-1.454c.17-.251.256-.531.256-.84 0-.32-.085-.554-.256-.703v-2.686c.066-1.927.33-.754.793-2.614.066-.067.133-.2.199-.4.132-.199.198-.332.198-.398s-.066-.2-.198-.399c-.133-.2-.199-.332-.199-.398v-.997c0-.133.265-.333.794-.598a30.804 30.804 0 0 1 2.16-.863l.178.065c.727.266 1.388.532 1.983.798.529.265.793.465.793.598v.997c0 .066-.066.199-.199.398-.132.2-.198.333-.198.4 0 .066.066.198.198.398.067.2.133.332.199.398.463 1.861.727 3.755.793 5.683v5.753c-.17.148-.256.383-.256.703 0 .308.086.588.256.839v1.454c0 .532-.066.997-.198 1.396-.198.398-.298.864-.298 1.395 0 .532.133.997.397 1.396.198.399.562.598 1.09.598.463 0 .893-.133 1.29-.399.33-.266.495-.664.495-1.196 0-.598-.132-1.13-.396-1.595V90.179a23.95 23.95 0 0 1-.016-.71 5.71 5.71 0 0 0 .156-.885 8.71 8.71 0 0 0 .199-1.894c.051-.466.083-.911.094-1.337a28.48 28.48 0 0 1 3.533-3.348c1.19-.997-.638-1.86.617-2.592.265 0 .397.133.397.399 0 .133-.033.398-.099.797a7.365 7.365 0 0 1-.297.798v8.151l.396.399.793.399c.397 0 .794-.233 1.19-.698.33-.399.496-.764.496-1.097v-.2h-.1c0-.066-.032-.199-.098-.398a2.972 2.972 0 0 0-.298-.399c-.066-.332-.132-.93-.198-1.794-.132-.797-.199-1.296-.199-1.495v-7.753l-.793-3.19c-.066-.066-.198-.133-.396-.2-.199-.066-.33-.132-.397-.199-.264-.133-.595-.365-.991-.697l-.595-.499.762-7.277c.33-.598.595-1.196.794-1.794.132-.665-.499-1.296-.366-1.894.066-.598.198-1.197-.367-1.795.895-.598-.366-1.196.03-1.794V51.9l-.281-10.03c.925-.997 2.57-1.465 5.159 0 1.454-.731 5.115 3.052 6.437 3.052l3.177 1.296c.33 0 .53.132.595.398-.198 1.928-.132 1.687.198 3.88.331 2.193.53-.414.595 1.38.133.333.298.566.496.698.132.067.364.1.694.1.463 0 .727-.133.793-.399v-3.389c0-1.396-.066 1.81-.198.414-.132-1.395-.198-.49-.198-1.886 0-1.13.132-2.26.396-3.39.265-1.196.397-2.359.397-3.489 0-1.262-.496-2.06-1.487-2.392a12.358 12.358 0 0 0-2.975-.798c-.198-.199-.628-.498-1.289-.897a31.354 31.354 0 0 0-2.181-1.395c-.793-.466-1.52-.897-2.181-1.296-.728-.399-1.256-.665-1.587-.798-1.123-.664-2.181-1.13-3.173-1.395-1.057-.266-2.115-.765-3.172-1.496-.926-.598-1.686-1.462-2.281-2.591a196.97 196.97 0 0 1-1.884-3.29c-.66-1.13-1.421-2.094-2.28-2.891-.86-.864-1.983-1.296-3.371-1.296-.215 0-.472.022-.773.065a5.509 5.509 0 0 0-.772-.065c-1.389 0-2.512.432-3.372 1.296-.859.797-1.619 1.761-2.28 2.89a196.948 196.948 0 0 1-1.884 3.29c-.595 1.13-1.355 1.994-2.28 2.592-1.058.731-2.115 1.23-3.173 1.496-.992.265-2.05.73-3.173 1.395-.33.133-.86.399-1.586.798-.661.399-1.389.83-2.182 1.296-.793.465-1.52.93-2.181 1.395-.661.399-1.09.698-1.289.897-.991.133-1.983 1.933-2.975 2.331-.991.333-2.219.931-2.219 2.194 0 1.13.864.958 1.129 2.154.264 1.13.396 2.26.396 3.39 0 1.395-.066-1.81-.198-.414a44.372 44.372 0 0 0-.198 4.187v3.389c.066.266.33.399.793.399.33 0 .562-.034.694-.1.198-.133.364-.366.496-.698.066-1.794.264-3.788.595-5.981.33-2.193.396.348.198-1.58.066-.266.264-.398.595-.398h.595c1.322 0 9.086-5.992 10.54-5.26 1.455.73 4.498-1.42 5.423-.423l-.694 7.676-2.105 7.446c.397.598-.132 2.722 0 3.32.198.599.33 1.197.397 1.795.132.598.264 1.23.396 1.894.199.598-1.062 1.196-.732 1.794l.763 7.277-.595.499c-.397.332-.727.564-.992.697-.066.067-.198.133-.396.2-.199.066-.33.133-.397.2l-.793 3.19v11.586c0 .2-.066.698-.198 1.495-.067.864-.133 1.462-.199 1.794a3 3 0 0 0-.297.4c-.066.198-.1.331-.1.398h-.098v.2c0 .332.165.697.495 1.096.397.465.794.698 1.19.698l.793-.4.397-.398V81.407a7.371 7.371 0 0 1-.297-.798c-.067-.398-.1-.664-.1-.797 0-.266.133-.399.397-.399 1.256.731.19 1.595 1.38 2.592a28.475 28.475 0 0 1 3.533 3.348c.012.426.043.871.095 1.337 0 .665.066 1.296.198 1.894.03.31.083.604.156.884-.001.234-.007.47-.016.711v8.497Z"/></mask><path fill-rule="evenodd" clip-rule="evenodd" d="M43.24 98.675c-.265.466-.397.997-.397 1.595 0 .532.165.931.496 1.197.396.266.826.398 1.289.398.528 0 .892-.199 1.09-.598.265-.398.397-.864.397-1.395 0-.532-.1-.997-.298-1.396-.132-.399-.198-.864-.198-1.395v-1.454c.17-.251.256-.531.256-.84 0-.32-.085-.554-.256-.703v-2.686c.066-1.927.33-.754.793-2.614.066-.067.133-.2.199-.4.132-.199.198-.332.198-.398s-.066-.2-.198-.399c-.133-.2-.199-.332-.199-.398v-.997c0-.133.265-.333.794-.598a30.804 30.804 0 0 1 2.16-.863l.178.065c.727.266 1.388.532 1.983.798.529.265.793.465.793.598v.997c0 .066-.066.199-.199.398-.132.2-.198.333-.198.4 0 .066.066.198.198.398.067.2.133.332.199.398.463 1.861.727 3.755.793 5.683v5.753c-.17.148-.256.383-.256.703 0 .308.086.588.256.839v1.454c0 .532-.066.997-.198 1.396-.198.398-.298.864-.298 1.395 0 .532.133.997.397 1.396.198.399.562.598 1.09.598.463 0 .893-.133 1.29-.399.33-.266.495-.664.495-1.196 0-.598-.132-1.13-.396-1.595V90.179a23.95 23.95 0 0 1-.016-.71 5.71 5.71 0 0 0 .156-.885 8.71 8.71 0 0 0 .199-1.894c.051-.466.083-.911.094-1.337a28.48 28.48 0 0 1 3.533-3.348c1.19-.997-.638-1.86.617-2.592.265 0 .397.133.397.399 0 .133-.033.398-.099.797a7.365 7.365 0 0 1-.297.798v8.151l.396.399.793.399c.397 0 .794-.233 1.19-.698.33-.399.496-.764.496-1.097v-.2h-.1c0-.066-.032-.199-.098-.398a2.972 2.972 0 0 0-.298-.399c-.066-.332-.132-.93-.198-1.794-.132-.797-.199-1.296-.199-1.495v-7.753l-.793-3.19c-.066-.066-.198-.133-.396-.2-.199-.066-.33-.132-.397-.199-.264-.133-.595-.365-.991-.697l-.595-.499.762-7.277c.33-.598.595-1.196.794-1.794.132-.665-.499-1.296-.366-1.894.066-.598.198-1.197-.367-1.795.895-.598-.366-1.196.03-1.794V51.9l-.281-10.03c.925-.997 2.57-1.465 5.159 0 1.454-.731 5.115 3.052 6.437 3.052l3.177 1.296c.33 0 .53.132.595.398-.198 1.928-.132 1.687.198 3.88.331 2.193.53-.414.595 1.38.133.333.298.566.496.698.132.067.364.1.694.1.463 0 .727-.133.793-.399v-3.389c0-1.396-.066 1.81-.198.414-.132-1.395-.198-.49-.198-1.886 0-1.13.132-2.26.396-3.39.265-1.196.397-2.359.397-3.489 0-1.262-.496-2.06-1.487-2.392a12.358 12.358 0 0 0-2.975-.798c-.198-.199-.628-.498-1.289-.897a31.354 31.354 0 0 0-2.181-1.395c-.793-.466-1.52-.897-2.181-1.296-.728-.399-1.256-.665-1.587-.798-1.123-.664-2.181-1.13-3.173-1.395-1.057-.266-2.115-.765-3.172-1.496-.926-.598-1.686-1.462-2.281-2.591a196.97 196.97 0 0 1-1.884-3.29c-.66-1.13-1.421-2.094-2.28-2.891-.86-.864-1.983-1.296-3.371-1.296-.215 0-.472.022-.773.065a5.509 5.509 0 0 0-.772-.065c-1.389 0-2.512.432-3.372 1.296-.859.797-1.619 1.761-2.28 2.89a196.948 196.948 0 0 1-1.884 3.29c-.595 1.13-1.355 1.994-2.28 2.592-1.058.731-2.115 1.23-3.173 1.496-.992.265-2.05.73-3.173 1.395-.33.133-.86.399-1.586.798-.661.399-1.389.83-2.182 1.296-.793.465-1.52.93-2.181 1.395-.661.399-1.09.698-1.289.897-.991.133-1.983 1.933-2.975 2.331-.991.333-2.219.931-2.219 2.194 0 1.13.864.958 1.129 2.154.264 1.13.396 2.26.396 3.39 0 1.395-.066-1.81-.198-.414a44.372 44.372 0 0 0-.198 4.187v3.389c.066.266.33.399.793.399.33 0 .562-.034.694-.1.198-.133.364-.366.496-.698.066-1.794.264-3.788.595-5.981.33-2.193.396.348.198-1.58.066-.266.264-.398.595-.398h.595c1.322 0 9.086-5.992 10.54-5.26 1.455.73 4.498-1.42 5.423-.423l-.694 7.676-2.105 7.446c.397.598-.132 2.722 0 3.32.198.599.33 1.197.397 1.795.132.598.264 1.23.396 1.894.199.598-1.062 1.196-.732 1.794l.763 7.277-.595.499c-.397.332-.727.564-.992.697-.066.067-.198.133-.396.2-.199.066-.33.133-.397.2l-.793 3.19v11.586c0 .2-.066.698-.198 1.495-.067.864-.133 1.462-.199 1.794a3 3 0 0 0-.297.4c-.066.198-.1.331-.1.398h-.098v.2c0 .332.165.697.495 1.096.397.465.794.698 1.19.698l.793-.4.397-.398V81.407a7.371 7.371 0 0 1-.297-.798c-.067-.398-.1-.664-.1-.797 0-.266.133-.399.397-.399 1.256.731.19 1.595 1.38 2.592a28.475 28.475 0 0 1 3.533 3.348c.012.426.043.871.095 1.337 0 .665.066 1.296.198 1.894.03.31.083.604.156.884-.001.234-.007.47-.016.711v8.497Z" fill="#27E7DB"/><path clip-rule="evenodd" d="M43.24 98.675c-.265.466-.397.997-.397 1.595 0 .532.165.931.496 1.197.396.266.826.398 1.289.398.528 0 .892-.199 1.09-.598.265-.398.397-.864.397-1.395 0-.532-.1-.997-.298-1.396-.132-.399-.198-.864-.198-1.395v-1.454c.17-.251.256-.531.256-.84 0-.32-.085-.554-.256-.703v-2.686c.066-1.927.33-.754.793-2.614.066-.067.133-.2.199-.4.132-.199.198-.332.198-.398s-.066-.2-.198-.399c-.133-.2-.199-.332-.199-.398v-.997c0-.133.265-.333.794-.598a30.804 30.804 0 0 1 2.16-.863l.178.065c.727.266 1.388.532 1.983.798.529.265.793.465.793.598v.997c0 .066-.066.199-.199.398-.132.2-.198.333-.198.4 0 .066.066.198.198.398.067.2.133.332.199.398.463 1.861.727 3.755.793 5.683v5.753c-.17.148-.256.383-.256.703 0 .308.086.588.256.839v1.454c0 .532-.066.997-.198 1.396-.198.398-.298.864-.298 1.395 0 .532.133.997.397 1.396.198.399.562.598 1.09.598.463 0 .893-.133 1.29-.399.33-.266.495-.664.495-1.196 0-.598-.132-1.13-.396-1.595V90.179a23.95 23.95 0 0 1-.016-.71 5.71 5.71 0 0 0 .156-.885 8.71 8.71 0 0 0 .199-1.894c.051-.466.083-.911.094-1.337a28.48 28.48 0 0 1 3.533-3.348c1.19-.997-.638-1.86.617-2.592.265 0 .397.133.397.399 0 .133-.033.398-.099.797a7.365 7.365 0 0 1-.297.798v8.151l.396.399.793.399c.397 0 .794-.233 1.19-.698.33-.399.496-.764.496-1.097v-.2h-.1c0-.066-.032-.199-.098-.398a2.972 2.972 0 0 0-.298-.399c-.066-.332-.132-.93-.198-1.794-.132-.797-.199-1.296-.199-1.495v-7.753l-.793-3.19c-.066-.066-.198-.133-.396-.2-.199-.066-.33-.132-.397-.199-.264-.133-.595-.365-.991-.697l-.595-.499.762-7.277c.33-.598.595-1.196.794-1.794.132-.665-.499-1.296-.366-1.894.066-.598.198-1.197-.367-1.795.895-.598-.366-1.196.03-1.794V51.9l-.281-10.03c.925-.997 2.57-1.465 5.159 0 1.454-.731 5.115 3.052 6.437 3.052l3.177 1.296c.33 0 .53.132.595.398-.198 1.928-.132 1.687.198 3.88.331 2.193.53-.414.595 1.38.133.333.298.566.496.698.132.067.364.1.694.1.463 0 .727-.133.793-.399v-3.389c0-1.396-.066 1.81-.198.414-.132-1.395-.198-.49-.198-1.886 0-1.13.132-2.26.396-3.39.265-1.196.397-2.359.397-3.489 0-1.262-.496-2.06-1.487-2.392a12.358 12.358 0 0 0-2.975-.798c-.198-.199-.628-.498-1.289-.897a31.354 31.354 0 0 0-2.181-1.395c-.793-.466-1.52-.897-2.181-1.296-.728-.399-1.256-.665-1.587-.798-1.123-.664-2.181-1.13-3.173-1.395-1.057-.266-2.115-.765-3.172-1.496-.926-.598-1.686-1.462-2.281-2.591a196.97 196.97 0 0 1-1.884-3.29c-.66-1.13-1.421-2.094-2.28-2.891-.86-.864-1.983-1.296-3.371-1.296-.215 0-.472.022-.773.065a5.509 5.509 0 0 0-.772-.065c-1.389 0-2.512.432-3.372 1.296-.859.797-1.619 1.761-2.28 2.89a196.948 196.948 0 0 1-1.884 3.29c-.595 1.13-1.355 1.994-2.28 2.592-1.058.731-2.115 1.23-3.173 1.496-.992.265-2.05.73-3.173 1.395-.33.133-.86.399-1.586.798-.661.399-1.389.83-2.182 1.296-.793.465-1.52.93-2.181 1.395-.661.399-1.09.698-1.289.897-.991.133-1.983 1.933-2.975 2.331-.991.333-2.219.931-2.219 2.194 0 1.13.864.958 1.129 2.154.264 1.13.396 2.26.396 3.39 0 1.395-.066-1.81-.198-.414a44.372 44.372 0 0 0-.198 4.187v3.389c.066.266.33.399.793.399.33 0 .562-.034.694-.1.198-.133.364-.366.496-.698.066-1.794.264-3.788.595-5.981.33-2.193.396.348.198-1.58.066-.266.264-.398.595-.398h.595c1.322 0 9.086-5.992 10.54-5.26 1.455.73 4.498-1.42 5.423-.423l-.694 7.676-2.105 7.446c.397.598-.132 2.722 0 3.32.198.599.33 1.197.397 1.795.132.598.264 1.23.396 1.894.199.598-1.062 1.196-.732 1.794l.763 7.277-.595.499c-.397.332-.727.564-.992.697-.066.067-.198.133-.396.2-.199.066-.33.133-.397.2l-.793 3.19v11.586c0 .2-.066.698-.198 1.495-.067.864-.133 1.462-.199 1.794a3 3 0 0 0-.297.4c-.066.198-.1.331-.1.398h-.098v.2c0 .332.165.697.495 1.096.397.465.794.698 1.19.698l.793-.4.397-.398V81.407a7.371 7.371 0 0 1-.297-.798c-.067-.398-.1-.664-.1-.797 0-.266.133-.399.397-.399 1.256.731.19 1.595 1.38 2.592a28.475 28.475 0 0 1 3.533 3.348c.012.426.043.871.095 1.337 0 .665.066 1.296.198 1.894.03.31.083.604.156.884-.001.234-.007.47-.016.711v8.497Z" stroke="#000" stroke-width="2" mask="url(#b)"/></g><defs><filter id="a" x="0" y="0" width="98" height="128" filterUnits="userSpaceOnUse" color-interpolation-filters="sRGB"><feFlood flood-opacity="0" result="BackgroundImageFix"/><feColorMatrix in="SourceAlpha" values="0 0 0 0 0 0 0 0 0 0 0 0 0 0 0 0 0 0 127 0" result="hardAlpha"/><feOffset/><feGaussianBlur stdDeviation="10"/><feComposite in2="hardAlpha" operator="out"/><feColorMatrix values="0 0 0 0 0.504125 0 0 0 0 0.879167 0 0 0 0 0.238108 0 0 0 1 0"/><feBlend in2="BackgroundImageFix" result="effect1_dropShadow_348_2142"/><feBlend in="SourceGraphic" in2="effect1_dropShadow_348_2142" result="shape"/></filter></defs></svg>